<svg width="167" height="85" viewBox="0 0 167 85" fill="none" xmlns="http://www.w3.org/2000/svg">
<path d="M0 18.9147H33.9566L37.1884 25.4024H6.73669V39.1087H68.0042C70.2498 39.1087 72.3588 38.6823 74.3312 37.8294C76.3037 36.9766 78.0182 35.8192 79.4748 34.3572C80.9617 32.8647 82.13 31.1286 82.9797 29.1488C83.8294 27.169 84.2542 25.0521 84.2542 22.7982C84.2542 20.5747 83.8294 18.4731 82.9797 16.4933C82.13 14.5135 80.9617 12.7773 79.4748 11.2849C78.0182 9.7924 76.3037 8.61975 74.3312 7.76691C72.3588 6.91407 70.2498 6.48766 68.0042 6.48766H39.5098C40.4505 8.37608 41.5126 10.5386 42.6961 12.9753C43.9099 15.3815 45.1541 17.8791 46.4286 20.4681C47.7334 23.0571 49.0231 25.646 50.2976 28.235C51.5721 30.824 52.7556 33.2302 53.848 35.4537H46.1099C45.0175 33.2302 43.8189 30.824 42.514 28.235C41.2395 25.6156 39.9498 22.9961 38.645 20.3767C37.3704 17.7573 36.1263 15.2292 34.9125 12.7926C33.6986 10.3559 32.6214 8.19333 31.6807 6.3049C30.7703 4.41648 30.0268 2.90879 29.4503 1.78182C28.9041 0.624401 28.631 0.0304599 28.631 0L68.0042 0C71.1298 0 74.0733 0.593941 76.8347 1.78182C79.5962 2.9697 82.0086 4.59923 84.0721 6.67041C86.1356 8.74158 87.7591 11.163 88.9426 13.9348C90.126 16.7065 90.7178 19.6609 90.7178 22.7982C90.7178 25.9659 90.126 28.9355 88.9426 31.7073C87.7591 34.479 86.1356 36.9004 84.0721 38.9716C82.0086 41.0123 79.5962 42.6419 76.8347 43.8602C74.0733 45.0481 71.1298 45.642 68.0042 45.642H0L0 18.9147ZM0 0L24.6253 0L27.8116 6.48766H0L0 0Z" fill="#E63C14"/>
<path d="M120.409 56.3876H141.178L142.722 59.5184H133.219V78.4136H129.912V59.5184H121.953L120.409 56.3876Z" fill="black"/>
<path d="M145.591 78.4136V65.5155H164.42V68.6463H148.854V75.2607H164.42V78.4136H145.591ZM147.134 59.5184L145.591 56.3876H164.42V59.5184H147.134Z" fill="black"/>
<path d="M71.1983 67.3896C71.1983 61.3043 76.115 56.3876 82.2002 56.3876H92.5187L94.0621 59.5184H82.2002C77.8568 59.5184 74.3291 63.0681 74.3291 67.3896C74.3291 71.733 77.8568 75.2607 82.2002 75.2607H92.4967L94.04 78.4136H82.2002C76.115 78.4136 71.1983 73.4748 71.1983 67.3896Z" fill="black"/>
<path d="M0.90626 78.4136V65.5155H19.7353V68.6463H4.16937V75.2607H19.7353V78.4136H0.90626ZM2.44962 59.5184L0.90626 56.3876H19.7353V59.5184H2.44962Z" fill="black"/>
<path d="M34.4048 78.4136H22.565V56.3876H34.4048C40.49 56.3876 45.4067 61.3043 45.4067 67.3896C45.4067 73.4748 40.49 78.4136 34.4048 78.4136ZM25.8281 75.2607H34.4268C38.7703 75.2607 42.2759 71.733 42.2759 67.3896C42.2759 63.0681 38.7482 59.5184 34.4048 59.5184H25.8281V75.2607Z" fill="black"/>
<path d="M53.8044 78.4136C50.4531 78.3474 47.7412 75.6796 47.7412 72.2622V56.3876H51.0043V72.2622C51.0043 73.9378 52.217 75.2607 53.8706 75.2607H65.0489V56.3876H68.312V78.4136H53.8044Z" fill="black"/>
<path d="M96.9526 78.4136L107.866 56.3876H110.689L121.602 78.4136H117.898L109.278 61.0397L102.222 75.2607H112.188L113.731 78.4136H96.9526Z" fill="black"/>
<path fill-rule="evenodd" clip-rule="evenodd" d="M98.5352 36.6978V49.4138H117.098V46.3054H101.752V39.7844H120.15L117.616 36.6978H98.5352Z" fill="black"/>
<path d="M143.387 27.6921H134.294L133.794 27.6988L126.534 36.1762L121.917 30.7854L119.274 27.6988H115.035H98.5352L100.057 30.7854H117.67C118.16 31.3638 118.642 31.9297 119.122 32.4809C120.03 33.5322 120.976 34.6456 121.854 35.6804C123.118 37.1691 124.246 38.4975 124.925 39.2411V49.4139H128.142V39.2411C128.558 38.761 129.367 37.8149 130.35 36.6648C131.367 35.475 132.583 34.0535 133.729 32.72C134.314 32.0287 134.921 31.3247 135.551 30.5968H140.256V49.4139H161.45L159.906 46.3055H143.473V27.6988L143.387 27.6921Z" fill="black"/>
</svg>
