<svg width="174" height="773" viewBox="0 0 174 773" fill="none" xmlns="http://www.w3.org/2000/svg">
<path d="M169.8 772.393L3.90358 772.393L3.90358 733.359L169.8 733.359L169.8 772.393ZM169.8 743.849L138.084 743.849L138.084 660.413L169.8 660.413L169.8 743.849ZM169.8 639.451L3.90358 639.451L3.90358 600.417L169.8 600.417L169.8 639.451ZM169.8 570.598L3.90358 570.598L3.90357 534.491L169.8 531.564L169.8 570.598ZM169.8 421.779L3.90357 418.852L3.90357 382.745L169.8 382.745L169.8 421.779ZM169.8 462.522L169.8 490.821L88.3155 521.317L3.90357 547.177L3.90357 519.121L101.978 483.015L133.693 473.988L133.693 478.135L101.978 468.865L3.90357 432.758L3.90357 406.166L89.0474 432.27L169.8 462.522ZM169.8 353.078L3.90357 353.078L3.90356 314.044L169.8 314.044L169.8 353.078ZM169.8 241.775L3.90356 241.775L3.90356 202.497L169.8 202.497L169.8 241.775ZM35.863 293.252L3.90356 293.252L3.90356 151.02L35.863 151.02L35.863 293.252ZM46.5974 97.586C50.9888 97.586 54.4856 96.2036 57.0879 93.4386C59.6902 90.6737 61.8046 87.0142 63.431 82.4602C65.0574 77.7435 66.4399 72.539 67.5784 66.8464C68.5543 60.9913 69.6928 54.9735 70.9939 48.793C72.2951 42.6126 74.0028 36.6761 76.1172 30.9836C78.2316 25.1284 81.0778 19.8425 84.656 15.1258C88.2341 10.4092 92.8695 6.74972 98.562 4.14742C104.254 1.38248 111.329 7.49109e-06 119.787 7.1214e-06C131.172 6.62375e-06 140.931 2.92759 149.063 8.78275C157.032 14.4753 163.131 22.3635 167.36 32.4474C171.589 42.5313 173.703 54.0789 173.703 67.0904C173.703 80.1019 171.67 91.8122 167.604 102.221C163.538 112.468 157.358 120.925 149.063 127.594C140.768 134.099 130.359 138.328 117.835 140.28L117.835 99.0498C125.967 97.4234 132.229 93.8452 136.621 88.3154C141.012 82.7855 143.208 75.6292 143.208 66.8464C143.208 57.901 141.581 51.2327 138.328 46.8413C134.913 42.2873 130.359 40.0103 124.666 40.0103C120.112 40.0103 116.371 41.3927 113.444 44.1577C110.516 46.9226 108.239 50.6634 106.613 55.3801C104.824 59.9341 103.36 65.1387 102.221 70.9938C100.92 76.6864 99.5378 82.6228 98.0741 88.8033C96.6103 94.9837 94.8212 101.002 92.7068 106.857C90.5925 112.549 87.8275 117.754 84.412 122.47C80.8339 127.187 76.3612 130.928 70.9939 133.693C65.4641 136.458 58.5517 137.84 50.2569 137.84C40.9862 137.84 32.5288 135.319 24.8845 130.277C17.2403 125.235 11.2225 117.998 6.83113 108.564C2.27711 98.9685 0.000105745 87.4208 0.000105155 73.9214C0.000104651 62.3737 1.95182 51.6393 5.85526 41.718C9.59606 31.7968 15.4512 23.5833 23.4207 17.0776C31.3903 10.4092 41.7995 6.26179 54.6483 4.63536L54.6483 46.3534C46.3535 47.9798 40.2543 51.2327 36.3509 56.112C32.4475 60.9913 30.4957 67.4157 30.4957 75.3852C30.4957 82.2162 31.9595 87.6648 34.8871 91.7309C37.8147 95.6343 41.7181 97.586 46.5974 97.586Z" fill="#E63C14" fill-opacity="0.05"/>
</svg>
