<svg width="108" height="55" viewBox="0 0 108 55" fill="none" xmlns="http://www.w3.org/2000/svg">
<path d="M0 12.2384H21.9709L24.062 16.4361H4.35884V25.3044H44.0007C45.4536 25.3044 46.8182 25.0285 48.0945 24.4767C49.3707 23.9249 50.48 23.176 51.4225 22.2301C52.3846 21.2644 53.1405 20.1411 53.6903 18.8601C54.24 17.5791 54.5149 16.2094 54.5149 14.7511C54.5149 13.3124 54.24 11.9526 53.6903 10.6716C53.1405 9.39063 52.3846 8.2673 51.4225 7.30163C50.48 6.33597 49.3707 5.57723 48.0945 5.02542C46.8182 4.47361 45.4536 4.1977 44.0007 4.1977H25.564C26.1727 5.41957 26.8599 6.8188 27.6256 8.3954C28.411 9.95229 29.216 11.5683 30.0406 13.2435C30.8849 14.9186 31.7194 16.5937 32.544 18.2689C33.3687 19.944 34.1344 21.5009 34.8412 22.9395H29.8345C29.1276 21.5009 28.3521 19.944 27.5078 18.2689C26.6831 16.574 25.8487 14.8792 25.0044 13.1843C24.1798 11.4895 23.3748 9.85376 22.5894 8.27716C21.804 6.70056 21.107 5.30132 20.4983 4.07946C19.9093 2.85759 19.4282 1.88207 19.0552 1.15289C18.7018 0.404005 18.5251 0.0197084 18.5251 0L44.0007 0C46.023 0 47.9276 0.384297 49.7143 1.15289C51.501 1.92148 53.062 2.97583 54.3971 4.31595C55.7322 5.65606 56.7827 7.2228 57.5484 9.01619C58.3142 10.8096 58.697 12.7212 58.697 14.7511C58.697 16.8007 58.3142 18.7221 57.5484 20.5155C56.7827 22.3089 55.7322 23.8757 54.3971 25.2158C53.062 26.5362 51.501 27.5905 49.7143 28.3788C47.9276 29.1474 46.023 29.5317 44.0007 29.5317H0L0 12.2384ZM0 0L15.9333 0L17.9949 4.1977H0L0 0Z" fill="black"/>
<path d="M77.9089 36.7207H91.3472L92.3458 38.7464H86.1973V50.9722H84.0574V38.7464H78.9075L77.9089 36.7207Z" fill="black"/>
<path d="M94.2019 50.9722V42.6267H106.385V44.6524H96.3132V48.9322H106.385V50.9722H94.2019ZM95.2005 38.7464L94.2019 36.7207H106.385V38.7464H95.2005Z" fill="black"/>
<path d="M46.0676 43.8393C46.0676 39.902 49.2488 36.7207 53.1862 36.7207H59.8625L60.8611 38.7464H53.1862C50.3758 38.7464 48.0933 41.0432 48.0933 43.8393C48.0933 46.6496 50.3758 48.9322 53.1862 48.9322H59.8483L60.8469 50.9722H53.1862C49.2488 50.9722 46.0676 47.7766 46.0676 43.8393Z" fill="black"/>
<path d="M0.587125 50.9722V42.6267H12.7701V44.6524H2.69845V48.9322H12.7701V50.9722H0.587125ZM1.58573 38.7464L0.587125 36.7207H12.7701V38.7464H1.58573Z" fill="black"/>
<path d="M22.2615 50.9722H14.6008V36.7207H22.2615C26.1988 36.7207 29.3801 39.902 29.3801 43.8393C29.3801 47.7766 26.1988 50.9722 22.2615 50.9722ZM16.7121 48.9322H22.2758C25.0861 48.9322 27.3544 46.6496 27.3544 43.8393C27.3544 41.0432 25.0718 38.7464 22.2615 38.7464H16.7121V48.9322Z" fill="black"/>
<path d="M34.8139 50.9722C32.6455 50.9294 30.8908 49.2032 30.8908 46.992V36.7207H33.0022V46.992C33.0022 48.0762 33.7868 48.9322 34.8567 48.9322H42.0894V36.7207H44.2008V50.9722H34.8139Z" fill="black"/>
<path d="M62.7321 50.9722L69.7937 36.7207H71.6197L78.6812 50.9722H76.2846L70.7067 39.7308L66.1417 48.9322H72.5898L73.5884 50.9722H62.7321Z" fill="black"/>
<path fill-rule="evenodd" clip-rule="evenodd" d="M63.7554 23.7447V31.9723H75.7663V29.9611H65.8369V25.7418H77.7407L76.1015 23.7447H63.7554Z" fill="black"/>
<path d="M92.7758 17.9178H86.8925L86.5688 17.9221L81.8714 23.4072L78.8842 19.9192L77.1739 17.9221H74.4313H63.7554L64.7399 19.9192H76.1359C76.4533 20.2935 76.7653 20.6596 77.0754 21.0162C77.6634 21.6965 78.275 22.4169 78.8435 23.0864C79.6612 24.0496 80.391 24.9092 80.8306 25.3902V31.9724H82.9121V25.3902C83.1813 25.0796 83.7046 24.4674 84.3407 23.7234C84.9988 22.9535 85.7851 22.0337 86.5267 21.1709C86.9056 20.7237 87.2983 20.2682 87.7058 19.7971H90.7502V31.9724H104.463L103.464 29.9612H92.8317V17.9221L92.7758 17.9178Z" fill="black"/>
</svg>
