<svg width="1073" height="317" viewBox="0 0 1073 317" fill="none" xmlns="http://www.w3.org/2000/svg">
<g opacity="0.1">
<path d="M489.047 21.8345H559.142C614.487 21.8347 659.353 66.7008 659.354 122.046V192.141C659.353 247.487 614.487 292.353 559.142 292.353H489.047C433.701 292.353 388.835 247.487 388.835 192.141V122.046C388.835 66.7008 433.701 21.8347 489.047 21.8345Z" stroke="#E63C14" stroke-width="1.09522"/>
</g>
<g opacity="0.2">
<path d="M489.047 43.739H559.142C602.39 43.7392 637.45 78.7985 637.45 122.047V192.141C637.449 235.389 602.39 270.449 559.142 270.449H489.047C445.799 270.449 410.74 235.389 410.74 192.141V122.047C410.74 78.7984 445.799 43.7392 489.047 43.739Z" stroke="#E63C14" stroke-width="1.09522"/>
</g>
<g filter="url(#filter0_dii_596_18094)">
<path d="M454 122.047C454 102.691 469.692 86.9998 489.047 86.9998H559.141C578.497 86.9998 594.188 102.691 594.188 122.047V192.141C594.188 211.497 578.497 227.188 559.141 227.188H489.047C469.692 227.188 454 211.497 454 192.141V122.047Z" fill="#272727"/>
<path d="M489.047 87.5476H559.141C578.195 87.5476 593.641 102.993 593.641 122.047V192.14C593.641 211.194 578.195 226.64 559.141 226.64H489.047C469.994 226.64 454.548 211.194 454.548 192.14V122.047C454.548 102.993 469.994 87.5477 489.047 87.5476Z" stroke="#E63C14" stroke-width="1.09522"/>
</g>
<g opacity="0.4">
<path d="M489.047 65.6433H559.141C590.291 65.6433 615.545 90.8958 615.545 122.047V192.14C615.545 223.291 590.292 248.545 559.141 248.545H489.047C457.896 248.545 432.644 223.291 432.644 192.14V122.047C432.644 90.8959 457.896 65.6434 489.047 65.6433Z" stroke="#E63C14" stroke-width="1.09522"/>
</g>
<path fill-rule="evenodd" clip-rule="evenodd" d="M556.52 128.8L546.178 131.656L561.263 131.656L561.263 146.512L564.062 136.342L566.862 126L556.52 128.8Z" fill="white"/>
<path fill-rule="evenodd" clip-rule="evenodd" d="M482.461 139.615L482.461 139.62L477.001 139.62L477.001 180.087L513.286 180.087L513.286 172.505L485.606 172.505L485.606 163.296L511.652 163.296L506.713 155.714L485.606 155.714L485.606 147.236L510.294 147.236L520.88 163.528L520.88 180.087L529.485 180.087L529.485 163.528L540.017 147.222L544.733 147.222L544.733 180.087L570.502 180.087L570.502 172.505L553.385 172.505L553.385 139.62L544.927 139.62L544.733 139.62L535.16 139.62L525.159 155.806L515.159 139.62L510.969 139.62L510.969 139.615L482.461 139.615Z" fill="white"/>
<path d="M672.001 252.847H705.715L743.501 287.847H779.001" stroke="url(#paint0_linear_596_18094)" stroke-width="2" stroke-linecap="round"/>
<g clip-path="url(#clip0_596_18094)">
<rect x="778.001" y="257" width="295" height="58" rx="29" fill="#E63C14"/>
<g opacity="0.45">
<g filter="url(#filter2_f_596_18094)">
<path d="M1024.38 264.597V271.535H1047.22L1017.44 301.317L1002.55 286.426C1001.9 285.776 1001.01 285.41 1000.09 285.41C999.175 285.41 998.293 285.776 997.642 286.426L961.938 322.13L966.843 327.035L1000.09 293.783L1014.99 308.675C1015.64 309.325 1016.52 309.69 1017.44 309.69C1018.36 309.69 1019.24 309.325 1019.89 308.675L1052.13 276.439V299.285H1059.06V264.597H1024.38Z" fill="white" fill-opacity="0.65"/>
</g>
</g>
<path d="M834.317 294.847L831.029 283.567L830.525 281.671H830.765L830.285 283.567L826.997 294.847H823.901L818.813 278.527H821.669L825.173 290.695L825.725 292.759H825.389L825.893 290.695L829.397 278.527H832.061L835.565 290.695L836.069 292.759H835.757L836.261 290.695L839.741 278.527H842.477L837.389 294.847H834.317ZM846.098 286.231H843.53C843.674 285.287 843.978 284.479 844.442 283.807C844.906 283.135 845.53 282.623 846.314 282.271C847.098 281.903 848.018 281.719 849.074 281.719C850.226 281.719 851.186 281.935 851.954 282.367C852.738 282.783 853.322 283.367 853.706 284.119C854.09 284.871 854.282 285.743 854.282 286.735V291.727C854.282 292.495 854.314 293.119 854.378 293.599C854.458 294.079 854.57 294.495 854.714 294.847H852.026C851.882 294.527 851.794 294.127 851.762 293.647C851.73 293.167 851.714 292.679 851.714 292.183V286.759C851.714 285.831 851.482 285.119 851.018 284.623C850.57 284.127 849.858 283.879 848.882 283.879C848.05 283.879 847.402 284.095 846.938 284.527C846.49 284.943 846.21 285.511 846.098 286.231ZM852.074 287.047V288.799C850.762 288.799 849.69 288.863 848.858 288.991C848.026 289.119 847.378 289.303 846.914 289.543C846.45 289.767 846.13 290.039 845.954 290.359C845.778 290.663 845.69 291.007 845.69 291.391C845.69 291.935 845.898 292.367 846.314 292.687C846.73 292.991 847.274 293.143 847.946 293.143C848.666 293.143 849.306 292.975 849.866 292.639C850.442 292.287 850.89 291.823 851.21 291.247C851.546 290.671 851.714 290.047 851.714 289.375H852.866C852.802 290.399 852.602 291.279 852.266 292.015C851.93 292.751 851.498 293.351 850.97 293.815C850.458 294.279 849.898 294.623 849.29 294.847C848.682 295.055 848.074 295.159 847.466 295.159C846.602 295.159 845.842 295.023 845.186 294.751C844.53 294.479 844.018 294.071 843.65 293.527C843.282 292.983 843.098 292.303 843.098 291.487C843.098 290.607 843.338 289.855 843.818 289.231C844.298 288.607 845.018 288.127 845.978 287.791C846.874 287.487 847.802 287.287 848.762 287.191C849.722 287.095 850.826 287.047 852.074 287.047ZM868.326 286.519H865.758C865.598 285.607 865.246 284.943 864.702 284.527C864.174 284.095 863.534 283.879 862.782 283.879C861.71 283.879 860.894 284.271 860.334 285.055C859.774 285.839 859.494 286.975 859.494 288.463C859.494 289.919 859.782 291.047 860.358 291.847C860.95 292.631 861.782 293.023 862.854 293.023C863.622 293.023 864.262 292.815 864.774 292.399C865.302 291.983 865.662 291.367 865.854 290.551H868.398C868.126 292.151 867.478 293.319 866.454 294.055C865.446 294.791 864.23 295.159 862.806 295.159C861.574 295.159 860.518 294.895 859.638 294.367C858.758 293.823 858.078 293.047 857.598 292.039C857.118 291.031 856.878 289.839 856.878 288.463C856.878 287.007 857.118 285.783 857.598 284.791C858.078 283.783 858.758 283.023 859.638 282.511C860.518 281.983 861.566 281.719 862.782 281.719C863.742 281.719 864.614 281.903 865.398 282.271C866.182 282.623 866.83 283.151 867.342 283.855C867.854 284.559 868.182 285.447 868.326 286.519ZM870.791 294.847V277.567H873.359V294.847H870.791ZM873.359 287.335H872.351C872.431 286.087 872.679 285.047 873.095 284.215C873.527 283.383 874.095 282.759 874.799 282.343C875.503 281.927 876.311 281.719 877.223 281.719C878.119 281.719 878.887 281.895 879.527 282.247C880.167 282.583 880.663 283.095 881.015 283.783C881.367 284.455 881.543 285.295 881.543 286.303V294.847H878.999V286.831C878.999 286.207 878.903 285.679 878.711 285.247C878.519 284.799 878.239 284.455 877.871 284.215C877.503 283.975 877.023 283.855 876.431 283.855C875.951 283.855 875.519 283.959 875.135 284.167C874.751 284.359 874.423 284.615 874.151 284.935C873.895 285.255 873.695 285.623 873.551 286.039C873.423 286.455 873.359 286.887 873.359 287.335ZM886.706 285.415C886.706 285.879 886.85 286.239 887.138 286.495C887.426 286.735 887.818 286.927 888.314 287.071C888.81 287.199 889.346 287.311 889.922 287.407C890.514 287.487 891.098 287.599 891.674 287.743C892.25 287.871 892.778 288.063 893.258 288.319C893.754 288.559 894.146 288.903 894.434 289.351C894.738 289.799 894.89 290.399 894.89 291.151C894.89 291.951 894.666 292.655 894.218 293.263C893.77 293.871 893.146 294.343 892.346 294.679C891.562 294.999 890.65 295.159 889.61 295.159C888.074 295.159 886.786 294.799 885.746 294.079C884.722 293.343 884.09 292.207 883.85 290.671H886.418C886.546 291.471 886.898 292.087 887.474 292.519C888.05 292.951 888.786 293.167 889.682 293.167C890.546 293.167 891.202 292.991 891.65 292.639C892.098 292.287 892.322 291.847 892.322 291.319C892.322 290.871 892.178 290.519 891.89 290.263C891.602 290.007 891.21 289.823 890.714 289.711C890.234 289.583 889.706 289.471 889.13 289.375C888.554 289.279 887.978 289.167 887.402 289.039C886.842 288.895 886.322 288.695 885.842 288.439C885.362 288.183 884.978 287.831 884.69 287.383C884.402 286.919 884.258 286.311 884.258 285.559C884.258 284.887 884.426 284.263 884.762 283.687C885.114 283.095 885.642 282.623 886.346 282.271C887.066 281.903 887.97 281.719 889.058 281.719C890.018 281.719 890.874 281.879 891.626 282.199C892.378 282.503 893.002 282.991 893.498 283.663C893.994 284.319 894.306 285.175 894.434 286.231H891.866C891.722 285.335 891.402 284.703 890.906 284.335C890.41 283.951 889.754 283.759 888.938 283.759C888.234 283.759 887.682 283.919 887.282 284.239C886.898 284.543 886.706 284.935 886.706 285.415ZM897.565 291.031V279.103H900.133V290.887C900.133 291.623 900.277 292.167 900.565 292.519C900.869 292.871 901.461 293.047 902.341 293.047H902.845V294.919C902.717 294.999 902.501 295.055 902.197 295.087C901.909 295.135 901.589 295.159 901.237 295.159C900.005 295.159 899.085 294.815 898.477 294.127C897.869 293.439 897.565 292.407 897.565 291.031ZM895.837 284.047V282.055H902.893V284.047H895.837ZM915.431 282.055V294.847H912.887V282.055H915.431ZM912.887 289.543H913.871C913.807 290.807 913.559 291.855 913.127 292.687C912.711 293.519 912.151 294.143 911.447 294.559C910.759 294.959 909.967 295.159 909.071 295.159C908.207 295.159 907.455 294.991 906.815 294.655C906.175 294.303 905.679 293.791 905.327 293.119C904.991 292.447 904.823 291.607 904.823 290.599V282.055H907.391V290.071C907.391 290.679 907.479 291.207 907.655 291.655C907.831 292.103 908.103 292.447 908.471 292.687C908.839 292.911 909.303 293.023 909.863 293.023C910.327 293.023 910.743 292.927 911.111 292.735C911.495 292.543 911.815 292.287 912.071 291.967C912.327 291.631 912.527 291.255 912.671 290.839C912.815 290.423 912.887 289.991 912.887 289.543ZM918.557 294.847V282.055H921.125V294.847H918.557ZM921.125 287.335H920.117C920.197 286.087 920.437 285.047 920.837 284.215C921.237 283.383 921.773 282.759 922.445 282.343C923.117 281.927 923.877 281.719 924.725 281.719C925.557 281.719 926.269 281.895 926.861 282.247C927.469 282.583 927.933 283.095 928.253 283.783C928.589 284.455 928.757 285.295 928.757 286.303V294.847H926.189V286.831C926.189 286.207 926.109 285.679 925.949 285.247C925.789 284.799 925.541 284.455 925.205 284.215C924.869 283.975 924.437 283.855 923.909 283.855C923.477 283.855 923.085 283.959 922.733 284.167C922.397 284.359 922.101 284.615 921.845 284.935C921.605 285.255 921.421 285.623 921.293 286.039C921.181 286.455 921.125 286.887 921.125 287.335ZM928.757 287.335H927.437C927.517 286.087 927.765 285.047 928.181 284.215C928.597 283.383 929.149 282.759 929.837 282.343C930.541 281.927 931.341 281.719 932.237 281.719C933.085 281.719 933.821 281.895 934.445 282.247C935.069 282.583 935.549 283.095 935.885 283.783C936.221 284.455 936.389 285.295 936.389 286.303V294.847H933.821V286.831C933.821 286.207 933.741 285.679 933.581 285.247C933.421 284.799 933.173 284.455 932.837 284.215C932.501 283.975 932.069 283.855 931.541 283.855C931.109 283.855 930.717 283.959 930.365 284.167C930.029 284.359 929.741 284.615 929.501 284.935C929.261 285.255 929.077 285.623 928.949 286.039C928.821 286.455 928.757 286.887 928.757 287.335ZM941.55 285.415C941.55 285.879 941.694 286.239 941.982 286.495C942.27 286.735 942.662 286.927 943.158 287.071C943.654 287.199 944.19 287.311 944.766 287.407C945.358 287.487 945.942 287.599 946.518 287.743C947.094 287.871 947.622 288.063 948.102 288.319C948.598 288.559 948.99 288.903 949.278 289.351C949.582 289.799 949.734 290.399 949.734 291.151C949.734 291.951 949.51 292.655 949.062 293.263C948.614 293.871 947.99 294.343 947.19 294.679C946.406 294.999 945.494 295.159 944.454 295.159C942.918 295.159 941.63 294.799 940.59 294.079C939.566 293.343 938.934 292.207 938.694 290.671H941.262C941.39 291.471 941.742 292.087 942.318 292.519C942.894 292.951 943.63 293.167 944.526 293.167C945.39 293.167 946.046 292.991 946.494 292.639C946.942 292.287 947.166 291.847 947.166 291.319C947.166 290.871 947.022 290.519 946.734 290.263C946.446 290.007 946.054 289.823 945.558 289.711C945.078 289.583 944.55 289.471 943.974 289.375C943.398 289.279 942.822 289.167 942.246 289.039C941.686 288.895 941.166 288.695 940.686 288.439C940.206 288.183 939.822 287.831 939.534 287.383C939.246 286.919 939.102 286.311 939.102 285.559C939.102 284.887 939.27 284.263 939.606 283.687C939.958 283.095 940.486 282.623 941.19 282.271C941.91 281.903 942.814 281.719 943.902 281.719C944.862 281.719 945.718 281.879 946.47 282.199C947.222 282.503 947.846 282.991 948.342 283.663C948.838 284.319 949.15 285.175 949.278 286.231H946.71C946.566 285.335 946.246 284.703 945.75 284.335C945.254 283.951 944.598 283.759 943.782 283.759C943.078 283.759 942.526 283.919 942.126 284.239C941.742 284.543 941.55 284.935 941.55 285.415ZM958.121 281.719C959.257 281.719 960.225 281.991 961.025 282.535C961.841 283.063 962.465 283.831 962.897 284.839C963.329 285.831 963.545 287.023 963.545 288.415C963.545 290.591 963.057 292.263 962.081 293.431C961.105 294.583 959.785 295.159 958.121 295.159C956.681 295.159 955.529 294.583 954.665 293.431C953.817 292.279 953.393 290.607 953.393 288.415C953.393 287.055 953.585 285.871 953.969 284.863C954.353 283.855 954.905 283.079 955.625 282.535C956.345 281.991 957.177 281.719 958.121 281.719ZM957.809 283.879C956.769 283.879 955.977 284.271 955.433 285.055C954.905 285.823 954.641 286.943 954.641 288.415C954.641 289.887 954.913 291.023 955.457 291.823C956.017 292.607 956.801 292.999 957.809 292.999C958.817 292.999 959.585 292.607 960.113 291.823C960.657 291.039 960.929 289.903 960.929 288.415C960.929 286.959 960.657 285.839 960.113 285.055C959.569 284.271 958.801 283.879 957.809 283.879ZM954.641 300.127H952.073V282.055H954.641V300.127ZM968.465 286.231H965.897C966.041 285.287 966.345 284.479 966.809 283.807C967.273 283.135 967.897 282.623 968.681 282.271C969.465 281.903 970.385 281.719 971.441 281.719C972.593 281.719 973.553 281.935 974.321 282.367C975.105 282.783 975.689 283.367 976.073 284.119C976.457 284.871 976.649 285.743 976.649 286.735V291.727C976.649 292.495 976.681 293.119 976.745 293.599C976.825 294.079 976.937 294.495 977.081 294.847H974.393C974.249 294.527 974.161 294.127 974.129 293.647C974.097 293.167 974.081 292.679 974.081 292.183V286.759C974.081 285.831 973.849 285.119 973.385 284.623C972.937 284.127 972.225 283.879 971.249 283.879C970.417 283.879 969.769 284.095 969.305 284.527C968.857 284.943 968.577 285.511 968.465 286.231ZM974.441 287.047V288.799C973.129 288.799 972.057 288.863 971.225 288.991C970.393 289.119 969.745 289.303 969.281 289.543C968.817 289.767 968.497 290.039 968.321 290.359C968.145 290.663 968.057 291.007 968.057 291.391C968.057 291.935 968.265 292.367 968.681 292.687C969.097 292.991 969.641 293.143 970.313 293.143C971.033 293.143 971.673 292.975 972.233 292.639C972.809 292.287 973.257 291.823 973.577 291.247C973.913 290.671 974.081 290.047 974.081 289.375H975.233C975.169 290.399 974.969 291.279 974.633 292.015C974.297 292.751 973.865 293.351 973.337 293.815C972.825 294.279 972.265 294.623 971.657 294.847C971.049 295.055 970.441 295.159 969.833 295.159C968.969 295.159 968.209 295.023 967.553 294.751C966.897 294.479 966.385 294.071 966.017 293.527C965.649 292.983 965.465 292.303 965.465 291.487C965.465 290.607 965.705 289.855 966.185 289.231C966.665 288.607 967.385 288.127 968.345 287.791C969.241 287.487 970.169 287.287 971.129 287.191C972.089 287.095 973.193 287.047 974.441 287.047ZM979.87 294.847V282.055H982.438V294.847H979.87ZM982.438 287.863H981.478C981.542 286.423 981.79 285.255 982.222 284.359C982.67 283.447 983.222 282.783 983.878 282.367C984.55 281.935 985.286 281.719 986.086 281.719C986.342 281.719 986.582 281.751 986.806 281.815C987.03 281.863 987.198 281.943 987.31 282.055V284.311C987.118 284.247 986.91 284.207 986.686 284.191C986.462 284.159 986.214 284.143 985.942 284.143C985.334 284.143 984.806 284.231 984.358 284.407C983.926 284.583 983.566 284.839 983.278 285.175C982.99 285.495 982.774 285.887 982.63 286.351C982.502 286.799 982.438 287.303 982.438 287.863ZM989.393 291.031V279.103H991.961V290.887C991.961 291.623 992.105 292.167 992.393 292.519C992.697 292.871 993.289 293.047 994.169 293.047H994.673V294.919C994.545 294.999 994.329 295.055 994.025 295.087C993.737 295.135 993.417 295.159 993.065 295.159C991.833 295.159 990.913 294.815 990.305 294.127C989.697 293.439 989.393 292.407 989.393 291.031ZM987.665 284.047V282.055H994.721V284.047H987.665ZM996.651 294.847V282.055H999.219V294.847H996.651ZM999.219 287.335H998.211C998.291 286.087 998.539 285.047 998.955 284.215C999.387 283.383 999.955 282.759 1000.66 282.343C1001.36 281.927 1002.17 281.719 1003.08 281.719C1003.98 281.719 1004.75 281.895 1005.39 282.247C1006.03 282.583 1006.52 283.095 1006.87 283.783C1007.23 284.455 1007.4 285.295 1007.4 286.303V294.847H1004.86V286.831C1004.86 286.207 1004.76 285.679 1004.57 285.247C1004.38 284.799 1004.1 284.455 1003.73 284.215C1003.36 283.975 1002.88 283.855 1002.29 283.855C1001.81 283.855 1001.38 283.959 1000.99 284.167C1000.61 284.359 1000.28 284.615 1000.01 284.935C999.755 285.255 999.555 285.623 999.411 286.039C999.283 286.455 999.219 286.887 999.219 287.335ZM1020.65 287.191L1019.19 288.391C1019.19 286.935 1018.9 285.815 1018.33 285.031C1017.75 284.247 1016.93 283.855 1015.85 283.855C1014.77 283.855 1013.93 284.255 1013.36 285.055C1012.8 285.839 1012.52 286.975 1012.52 288.463C1012.52 289.919 1012.81 291.047 1013.41 291.847C1014.01 292.631 1014.87 293.023 1015.97 293.023C1016.79 293.023 1017.47 292.831 1018.01 292.447C1018.57 292.063 1018.97 291.471 1019.19 290.671H1021.88C1021.53 292.159 1020.82 293.279 1019.77 294.031C1018.73 294.783 1017.46 295.159 1015.97 295.159C1014.73 295.159 1013.65 294.895 1012.73 294.367C1011.82 293.823 1011.12 293.047 1010.62 292.039C1010.14 291.031 1009.9 289.839 1009.9 288.463C1009.9 287.007 1010.14 285.783 1010.62 284.791C1011.12 283.783 1011.81 283.023 1012.71 282.511C1013.61 281.983 1014.65 281.719 1015.85 281.719C1017.09 281.719 1018.14 281.991 1019.02 282.535C1019.9 283.063 1020.58 283.815 1021.06 284.791C1021.54 285.767 1021.78 286.943 1021.78 288.319V288.943H1010.96V287.191H1020.65ZM1024.35 294.847V282.055H1026.92V294.847H1024.35ZM1026.92 287.863H1025.96C1026.03 286.423 1026.27 285.255 1026.71 284.359C1027.15 283.447 1027.71 282.783 1028.36 282.367C1029.03 281.935 1029.77 281.719 1030.57 281.719C1030.83 281.719 1031.07 281.751 1031.29 281.815C1031.51 281.863 1031.68 281.943 1031.79 282.055V284.311C1031.6 284.247 1031.39 284.207 1031.17 284.191C1030.95 284.159 1030.7 284.143 1030.43 284.143C1029.82 284.143 1029.29 284.231 1028.84 284.407C1028.41 284.583 1028.05 284.839 1027.76 285.175C1027.47 285.495 1027.26 285.887 1027.11 286.351C1026.99 286.799 1026.92 287.303 1026.92 287.863Z" fill="white"/>
</g>
<rect x="778.501" y="257.5" width="294" height="57" rx="28.5" stroke="#E63C14"/>
<path d="M778.501 282.847L778.501 283.347C778.499 285.831 776.486 287.845 774.001 287.847C776.486 287.849 778.499 289.863 778.501 292.348L778.501 292.847L778.501 292.348C778.503 289.863 780.516 287.849 783.001 287.847C780.516 287.845 778.503 285.831 778.501 283.347L778.501 282.847Z" fill="#E63C14"/>
<path d="M613.001 189.847H784.215L822.001 154.847H857.501" stroke="url(#paint1_linear_596_18094)" stroke-width="2" stroke-linecap="round"/>
<path d="M613.001 174H784.215L822.001 139H857.501" stroke="url(#paint2_linear_596_18094)" stroke-width="2" stroke-linecap="round"/>
<path d="M613.001 204H784.215L822.001 169H857.501" stroke="url(#paint3_linear_596_18094)" stroke-width="2" stroke-linecap="round"/>
<g clip-path="url(#clip1_596_18094)">
<rect x="848.001" y="124" width="203" height="58" rx="29" fill="#E63C14"/>
<path d="M894.984 149.559C894.984 150.103 895.12 150.543 895.392 150.879C895.664 151.199 896.04 151.455 896.52 151.647C897 151.823 897.528 151.975 898.104 152.103C898.696 152.215 899.304 152.335 899.928 152.463C900.552 152.575 901.152 152.735 901.728 152.943C902.32 153.135 902.848 153.407 903.312 153.759C903.792 154.095 904.168 154.535 904.44 155.079C904.728 155.623 904.872 156.311 904.872 157.143C904.872 158.215 904.6 159.127 904.056 159.879C903.528 160.631 902.8 161.199 901.872 161.583C900.944 161.967 899.88 162.159 898.68 162.159C897.48 162.159 896.408 161.975 895.464 161.607C894.536 161.239 893.76 160.679 893.136 159.927C892.528 159.175 892.112 158.231 891.888 157.095H894.696C894.936 158.023 895.392 158.735 896.064 159.231C896.736 159.711 897.616 159.951 898.704 159.951C899.824 159.951 900.672 159.727 901.248 159.279C901.824 158.831 902.112 158.239 902.112 157.503C902.112 156.927 901.976 156.463 901.704 156.111C901.432 155.743 901.056 155.463 900.576 155.271C900.096 155.063 899.56 154.895 898.968 154.767C898.392 154.623 897.792 154.487 897.168 154.359C896.544 154.231 895.936 154.071 895.344 153.879C894.768 153.687 894.24 153.431 893.76 153.111C893.296 152.775 892.92 152.343 892.632 151.815C892.36 151.287 892.224 150.607 892.224 149.775C892.224 148.959 892.448 148.207 892.896 147.519C893.344 146.815 893.992 146.255 894.84 145.839C895.704 145.423 896.76 145.215 898.008 145.215C899.08 145.215 900.064 145.399 900.96 145.767C901.872 146.119 902.632 146.671 903.24 147.423C903.848 148.159 904.248 149.127 904.44 150.327H901.584C901.36 149.319 900.936 148.583 900.312 148.119C899.688 147.655 898.896 147.423 897.936 147.423C897.008 147.423 896.28 147.623 895.752 148.023C895.24 148.407 894.984 148.919 894.984 149.559ZM907.28 161.847V144.567H909.848V161.847H907.28ZM909.416 154.935L914.936 149.055H918.008L912.296 154.935H909.416ZM909.416 154.935L912.32 154.551L918.344 161.847H915.152L909.416 154.935ZM922.172 153.231H919.604C919.748 152.287 920.052 151.479 920.516 150.807C920.98 150.135 921.604 149.623 922.388 149.271C923.172 148.903 924.092 148.719 925.148 148.719C926.3 148.719 927.26 148.935 928.028 149.367C928.812 149.783 929.396 150.367 929.78 151.119C930.164 151.871 930.356 152.743 930.356 153.735V158.727C930.356 159.495 930.388 160.119 930.452 160.599C930.532 161.079 930.644 161.495 930.788 161.847H928.1C927.956 161.527 927.868 161.127 927.836 160.647C927.804 160.167 927.788 159.679 927.788 159.183V153.759C927.788 152.831 927.556 152.119 927.092 151.623C926.644 151.127 925.932 150.879 924.956 150.879C924.124 150.879 923.476 151.095 923.012 151.527C922.564 151.943 922.284 152.511 922.172 153.231ZM928.148 154.047V155.799C926.836 155.799 925.764 155.863 924.932 155.991C924.1 156.119 923.452 156.303 922.988 156.543C922.524 156.767 922.204 157.039 922.028 157.359C921.852 157.663 921.764 158.007 921.764 158.391C921.764 158.935 921.972 159.367 922.388 159.687C922.804 159.991 923.348 160.143 924.02 160.143C924.74 160.143 925.38 159.975 925.94 159.639C926.516 159.287 926.964 158.823 927.284 158.247C927.62 157.671 927.788 157.047 927.788 156.375H928.94C928.876 157.399 928.676 158.279 928.34 159.015C928.004 159.751 927.572 160.351 927.044 160.815C926.532 161.279 925.972 161.623 925.364 161.847C924.756 162.055 924.148 162.159 923.54 162.159C922.676 162.159 921.916 162.023 921.26 161.751C920.604 161.479 920.092 161.071 919.724 160.527C919.356 159.983 919.172 159.303 919.172 158.487C919.172 157.607 919.412 156.855 919.892 156.231C920.372 155.607 921.092 155.127 922.052 154.791C922.948 154.487 923.876 154.287 924.836 154.191C925.796 154.095 926.9 154.047 928.148 154.047ZM933.577 161.847V144.567H936.145V161.847H933.577ZM939.248 161.847V149.055H941.816V161.847H939.248ZM939.248 147.471V144.567H941.816V147.471H939.248ZM955.048 154.191L953.584 155.391C953.584 153.935 953.296 152.815 952.72 152.031C952.144 151.247 951.32 150.855 950.248 150.855C949.16 150.855 948.328 151.255 947.752 152.055C947.192 152.839 946.912 153.975 946.912 155.463C946.912 156.919 947.208 158.047 947.8 158.847C948.408 159.631 949.264 160.023 950.368 160.023C951.184 160.023 951.864 159.831 952.408 159.447C952.968 159.063 953.36 158.471 953.584 157.671H956.272C955.92 159.159 955.216 160.279 954.16 161.031C953.12 161.783 951.856 162.159 950.368 162.159C949.12 162.159 948.04 161.895 947.128 161.367C946.216 160.823 945.512 160.047 945.016 159.039C944.536 158.031 944.296 156.839 944.296 155.463C944.296 154.007 944.536 152.783 945.016 151.791C945.512 150.783 946.208 150.023 947.104 149.511C948 148.983 949.048 148.719 950.248 148.719C951.48 148.719 952.536 148.991 953.416 149.535C954.296 150.063 954.976 150.815 955.456 151.791C955.936 152.767 956.176 153.943 956.176 155.319V155.943H945.352V154.191H955.048ZM958.748 161.847V149.055H961.316V161.847H958.748ZM961.316 154.863H960.356C960.42 153.423 960.668 152.255 961.1 151.359C961.548 150.447 962.1 149.783 962.756 149.367C963.428 148.935 964.164 148.719 964.964 148.719C965.22 148.719 965.46 148.751 965.684 148.815C965.908 148.863 966.076 148.943 966.188 149.055V151.311C965.996 151.247 965.788 151.207 965.564 151.191C965.34 151.159 965.092 151.143 964.82 151.143C964.212 151.143 963.684 151.231 963.236 151.407C962.804 151.583 962.444 151.839 962.156 152.175C961.868 152.495 961.652 152.887 961.508 153.351C961.38 153.799 961.316 154.303 961.316 154.863ZM978.544 149.055V161.847H976V149.055H978.544ZM976 156.543H976.984C976.92 157.807 976.672 158.855 976.24 159.687C975.824 160.519 975.264 161.143 974.56 161.559C973.872 161.959 973.08 162.159 972.184 162.159C971.32 162.159 970.568 161.991 969.928 161.655C969.288 161.303 968.792 160.791 968.44 160.119C968.104 159.447 967.936 158.607 967.936 157.599V149.055H970.504V157.071C970.504 157.679 970.592 158.207 970.768 158.655C970.944 159.103 971.216 159.447 971.584 159.687C971.952 159.911 972.416 160.023 972.976 160.023C973.44 160.023 973.856 159.927 974.224 159.735C974.608 159.543 974.928 159.287 975.184 158.967C975.44 158.631 975.64 158.255 975.784 157.839C975.928 157.423 976 156.991 976 156.543ZM981.67 161.847V149.055H984.238V161.847H981.67ZM984.238 154.335H983.23C983.31 153.087 983.558 152.047 983.974 151.215C984.406 150.383 984.974 149.759 985.678 149.343C986.382 148.927 987.19 148.719 988.102 148.719C988.998 148.719 989.766 148.895 990.406 149.247C991.046 149.583 991.542 150.095 991.894 150.783C992.246 151.455 992.422 152.295 992.422 153.303V161.847H989.878V153.831C989.878 153.207 989.782 152.679 989.59 152.247C989.398 151.799 989.118 151.455 988.75 151.215C988.382 150.975 987.902 150.855 987.31 150.855C986.83 150.855 986.398 150.959 986.014 151.167C985.63 151.359 985.302 151.615 985.03 151.935C984.774 152.255 984.574 152.623 984.43 153.039C984.302 153.455 984.238 153.887 984.238 154.335ZM1000.15 161.919C999.065 161.919 998.129 161.655 997.345 161.127C996.561 160.599 995.961 159.847 995.545 158.871C995.129 157.879 994.921 156.703 994.921 155.343C994.921 153.199 995.385 151.559 996.313 150.423C997.257 149.287 998.537 148.719 1000.15 148.719C1001.8 148.719 1003.03 149.295 1003.85 150.447C1004.67 151.583 1005.07 153.207 1005.07 155.319C1005.07 157.479 1004.63 159.119 1003.73 160.239C1002.85 161.359 1001.66 161.919 1000.15 161.919ZM1000.68 159.759C1001.71 159.759 1002.48 159.383 1003.01 158.631C1003.55 157.863 1003.83 156.759 1003.83 155.319C1003.83 153.911 1003.55 152.823 1002.99 152.055C1002.44 151.271 1001.67 150.879 1000.68 150.879C999.657 150.879 998.873 151.263 998.329 152.031C997.801 152.783 997.537 153.887 997.537 155.343C997.537 156.751 997.809 157.839 998.353 158.607C998.897 159.375 999.673 159.759 1000.68 159.759ZM1006.39 162.255C1006.39 163.423 1006.15 164.391 1005.67 165.159C1005.19 165.927 1004.55 166.503 1003.73 166.887C1002.93 167.271 1002.02 167.463 1000.99 167.463C999.457 167.463 998.169 167.095 997.129 166.359C996.105 165.639 995.481 164.535 995.257 163.047H997.825C997.937 163.815 998.273 164.399 998.833 164.799C999.409 165.199 1000.12 165.399 1000.97 165.399C1001.83 165.399 1002.52 165.159 1003.03 164.679C1003.56 164.199 1003.83 163.407 1003.83 162.303V149.055H1006.39V162.255Z" fill="white"/>
<g opacity="0.45" filter="url(#filter4_f_596_18094)">
<path d="M1017.57 161.899L1018.5 156.2L1024.2 157.138L1023.26 162.837L1017.57 161.899ZM1018.47 138.635L1029.87 140.511L1030.51 136.564C1030.59 136.127 1030.47 135.696 1030.17 135.269C1029.86 134.842 1029.49 134.594 1029.05 134.523L1021.16 133.225C1020.72 133.153 1020.29 133.269 1019.86 133.573C1019.44 133.878 1019.19 134.249 1019.12 134.689L1018.47 138.635ZM997.03 173.153C995.717 172.937 994.694 172.318 993.961 171.296C993.228 170.274 992.969 169.105 993.183 167.79L995.004 156.723L1014.95 160.006L1014.63 161.977C1014.52 162.639 1014.65 163.223 1015.01 163.732C1015.38 164.241 1015.89 164.55 1016.55 164.659L1023.34 165.777C1024 165.885 1024.59 165.757 1025.1 165.392C1025.61 165.027 1025.91 164.514 1026.02 163.853L1026.35 161.881L1046.29 165.164L1044.47 176.234C1044.26 177.545 1043.64 178.567 1042.62 179.3C1041.59 180.033 1040.43 180.293 1039.11 180.078L997.03 173.153ZM995.473 153.874L997.764 139.957C997.98 138.644 998.6 137.622 999.624 136.889C1000.65 136.156 1001.81 135.896 1003.12 136.11L1015.62 138.166L1016.27 134.22C1016.48 132.909 1017.1 131.886 1018.13 131.151C1019.15 130.417 1020.32 130.158 1021.63 130.376L1029.52 131.674C1030.83 131.89 1031.85 132.509 1032.59 133.531C1033.32 134.554 1033.58 135.721 1033.36 137.033L1032.71 140.98L1045.21 143.036C1046.52 143.252 1047.54 143.871 1048.27 144.895C1049.01 145.919 1049.27 147.087 1049.05 148.398L1046.76 162.315L1026.82 159.032L1027.14 157.06C1027.25 156.399 1027.12 155.814 1026.76 155.305C1026.39 154.797 1025.88 154.488 1025.22 154.379L1018.43 153.261C1017.76 153.152 1017.18 153.28 1016.67 153.645C1016.16 154.01 1015.85 154.523 1015.74 155.184L1015.42 157.156L995.473 153.874Z" fill="white" fill-opacity="0.65"/>
</g>
</g>
<rect x="848.501" y="124.5" width="202" height="57" rx="28.5" stroke="#E63C14"/>
<path d="M848.501 149.847L848.501 150.347C848.499 152.831 846.486 154.845 844.001 154.847C846.486 154.849 848.499 156.863 848.501 159.348L848.501 159.847L848.501 159.348C848.503 156.863 850.516 154.849 853.001 154.847C850.516 154.845 848.503 152.831 848.501 150.347L848.501 149.847Z" fill="#E63C14"/>
<path d="M641.001 64H674.715L712.501 29L718.715 29" stroke="url(#paint4_linear_596_18094)" stroke-width="2" stroke-linecap="round"/>
<g clip-path="url(#clip2_596_18094)">
<rect width="218" height="58" rx="29" transform="matrix(-1 0 0 1 937.001 0)" fill="#E63C14"/>
<path d="M758.968 38V21.68H761.656V38H758.968ZM764.56 35.816C765.728 35.816 766.72 35.584 767.536 35.12C768.368 34.64 769 33.96 769.432 33.08C769.88 32.184 770.104 31.112 770.104 29.864C770.104 28.6 769.88 27.52 769.432 26.624C769 25.728 768.368 25.048 767.536 24.584C766.72 24.104 765.728 23.864 764.56 23.864H760.912V21.68H764.56C766.272 21.68 767.744 22.008 768.976 22.664C770.208 23.32 771.16 24.256 771.832 25.472C772.504 26.688 772.84 28.152 772.84 29.864C772.84 31.56 772.504 33.016 771.832 34.232C771.16 35.448 770.208 36.384 768.976 37.04C767.744 37.68 766.272 38 764.56 38H760.912V35.816H764.56ZM778.028 29.384H775.46C775.604 28.44 775.908 27.632 776.372 26.96C776.836 26.288 777.46 25.776 778.244 25.424C779.028 25.056 779.948 24.872 781.004 24.872C782.156 24.872 783.116 25.088 783.884 25.52C784.668 25.936 785.252 26.52 785.636 27.272C786.02 28.024 786.212 28.896 786.212 29.888V34.88C786.212 35.648 786.244 36.272 786.308 36.752C786.388 37.232 786.5 37.648 786.644 38H783.956C783.812 37.68 783.724 37.28 783.692 36.8C783.66 36.32 783.644 35.832 783.644 35.336V29.912C783.644 28.984 783.412 28.272 782.948 27.776C782.5 27.28 781.788 27.032 780.812 27.032C779.98 27.032 779.332 27.248 778.868 27.68C778.42 28.096 778.14 28.664 778.028 29.384ZM784.004 30.2V31.952C782.692 31.952 781.62 32.016 780.788 32.144C779.956 32.272 779.308 32.456 778.844 32.696C778.38 32.92 778.06 33.192 777.884 33.512C777.708 33.816 777.62 34.16 777.62 34.544C777.62 35.088 777.828 35.52 778.244 35.84C778.66 36.144 779.204 36.296 779.876 36.296C780.596 36.296 781.236 36.128 781.796 35.792C782.372 35.44 782.82 34.976 783.14 34.4C783.476 33.824 783.644 33.2 783.644 32.528H784.796C784.732 33.552 784.532 34.432 784.196 35.168C783.86 35.904 783.428 36.504 782.9 36.968C782.388 37.432 781.828 37.776 781.22 38C780.612 38.208 780.004 38.312 779.396 38.312C778.532 38.312 777.772 38.176 777.116 37.904C776.46 37.632 775.948 37.224 775.58 36.68C775.212 36.136 775.028 35.456 775.028 34.64C775.028 33.76 775.268 33.008 775.748 32.384C776.228 31.76 776.948 31.28 777.908 30.944C778.804 30.64 779.732 30.44 780.692 30.344C781.652 30.248 782.756 30.2 784.004 30.2ZM789.768 34.184V22.256H792.336V34.04C792.336 34.776 792.48 35.32 792.768 35.672C793.072 36.024 793.664 36.2 794.544 36.2H795.048V38.072C794.92 38.152 794.704 38.208 794.4 38.24C794.112 38.288 793.792 38.312 793.44 38.312C792.208 38.312 791.288 37.968 790.68 37.28C790.072 36.592 789.768 35.56 789.768 34.184ZM788.04 27.2V25.208H795.096V27.2H788.04ZM807.154 30.344L805.69 31.544C805.69 30.088 805.402 28.968 804.826 28.184C804.25 27.4 803.426 27.008 802.354 27.008C801.266 27.008 800.434 27.408 799.858 28.208C799.298 28.992 799.018 30.128 799.018 31.616C799.018 33.072 799.314 34.2 799.906 35C800.514 35.784 801.37 36.176 802.474 36.176C803.29 36.176 803.97 35.984 804.514 35.6C805.074 35.216 805.466 34.624 805.69 33.824H808.378C808.026 35.312 807.322 36.432 806.266 37.184C805.226 37.936 803.962 38.312 802.474 38.312C801.226 38.312 800.146 38.048 799.234 37.52C798.322 36.976 797.618 36.2 797.122 35.192C796.642 34.184 796.402 32.992 796.402 31.616C796.402 30.16 796.642 28.936 797.122 27.944C797.618 26.936 798.314 26.176 799.21 25.664C800.106 25.136 801.154 24.872 802.354 24.872C803.586 24.872 804.642 25.144 805.522 25.688C806.402 26.216 807.082 26.968 807.562 27.944C808.042 28.92 808.282 30.096 808.282 31.472V32.096H797.458V30.344H807.154ZM810.854 38V25.208H813.422V38H810.854ZM813.422 30.488H812.414C812.494 29.24 812.742 28.2 813.158 27.368C813.59 26.536 814.158 25.912 814.862 25.496C815.566 25.08 816.374 24.872 817.286 24.872C818.182 24.872 818.95 25.048 819.59 25.4C820.23 25.736 820.726 26.248 821.078 26.936C821.43 27.608 821.606 28.448 821.606 29.456V38H819.062V29.984C819.062 29.36 818.966 28.832 818.774 28.4C818.582 27.952 818.302 27.608 817.934 27.368C817.566 27.128 817.086 27.008 816.494 27.008C816.014 27.008 815.582 27.112 815.198 27.32C814.814 27.512 814.486 27.768 814.214 28.088C813.958 28.408 813.758 28.776 813.614 29.192C813.486 29.608 813.422 30.04 813.422 30.488ZM830.777 24.872C831.897 24.872 832.857 25.144 833.657 25.688C834.473 26.216 835.097 26.984 835.529 27.992C835.961 28.984 836.177 30.176 836.177 31.568C836.177 33.744 835.689 35.416 834.713 36.584C833.737 37.736 832.425 38.312 830.777 38.312C829.321 38.312 828.161 37.736 827.297 36.584C826.449 35.432 826.025 33.76 826.025 31.568C826.025 30.208 826.217 29.024 826.601 28.016C827.001 27.008 827.553 26.232 828.257 25.688C828.977 25.144 829.817 24.872 830.777 24.872ZM830.441 27.032C829.401 27.032 828.617 27.424 828.089 28.208C827.561 28.976 827.297 30.096 827.297 31.568C827.297 33.04 827.569 34.176 828.113 34.976C828.657 35.76 829.433 36.152 830.441 36.152C831.449 36.152 832.217 35.76 832.745 34.976C833.289 34.192 833.561 33.056 833.561 31.568C833.561 30.112 833.289 28.992 832.745 28.208C832.201 27.424 831.433 27.032 830.441 27.032ZM827.297 38H824.729V20.72H827.297V38ZM841.098 29.384H838.53C838.674 28.44 838.978 27.632 839.442 26.96C839.906 26.288 840.53 25.776 841.314 25.424C842.098 25.056 843.018 24.872 844.074 24.872C845.226 24.872 846.186 25.088 846.954 25.52C847.738 25.936 848.322 26.52 848.706 27.272C849.09 28.024 849.282 28.896 849.282 29.888V34.88C849.282 35.648 849.314 36.272 849.378 36.752C849.458 37.232 849.57 37.648 849.714 38H847.026C846.882 37.68 846.794 37.28 846.762 36.8C846.73 36.32 846.714 35.832 846.714 35.336V29.912C846.714 28.984 846.482 28.272 846.018 27.776C845.57 27.28 844.858 27.032 843.882 27.032C843.05 27.032 842.402 27.248 841.938 27.68C841.49 28.096 841.21 28.664 841.098 29.384ZM847.074 30.2V31.952C845.762 31.952 844.69 32.016 843.858 32.144C843.026 32.272 842.378 32.456 841.914 32.696C841.45 32.92 841.13 33.192 840.954 33.512C840.778 33.816 840.69 34.16 840.69 34.544C840.69 35.088 840.898 35.52 841.314 35.84C841.73 36.144 842.274 36.296 842.946 36.296C843.666 36.296 844.306 36.128 844.866 35.792C845.442 35.44 845.89 34.976 846.21 34.4C846.546 33.824 846.714 33.2 846.714 32.528H847.866C847.802 33.552 847.602 34.432 847.266 35.168C846.93 35.904 846.498 36.504 845.97 36.968C845.458 37.432 844.898 37.776 844.29 38C843.682 38.208 843.074 38.312 842.466 38.312C841.602 38.312 840.842 38.176 840.186 37.904C839.53 37.632 839.018 37.224 838.65 36.68C838.282 36.136 838.098 35.456 838.098 34.64C838.098 33.76 838.338 33.008 838.818 32.384C839.298 31.76 840.018 31.28 840.978 30.944C841.874 30.64 842.802 30.44 843.762 30.344C844.722 30.248 845.826 30.2 847.074 30.2ZM854.542 28.568C854.542 29.032 854.686 29.392 854.974 29.648C855.262 29.888 855.654 30.08 856.15 30.224C856.646 30.352 857.182 30.464 857.758 30.56C858.35 30.64 858.934 30.752 859.51 30.896C860.086 31.024 860.614 31.216 861.094 31.472C861.59 31.712 861.982 32.056 862.27 32.504C862.574 32.952 862.726 33.552 862.726 34.304C862.726 35.104 862.502 35.808 862.054 36.416C861.606 37.024 860.982 37.496 860.182 37.832C859.398 38.152 858.486 38.312 857.446 38.312C855.91 38.312 854.622 37.952 853.582 37.232C852.558 36.496 851.926 35.36 851.686 33.824H854.254C854.382 34.624 854.734 35.24 855.31 35.672C855.886 36.104 856.622 36.32 857.518 36.32C858.382 36.32 859.038 36.144 859.486 35.792C859.934 35.44 860.158 35 860.158 34.472C860.158 34.024 860.014 33.672 859.726 33.416C859.438 33.16 859.046 32.976 858.55 32.864C858.07 32.736 857.542 32.624 856.966 32.528C856.39 32.432 855.814 32.32 855.238 32.192C854.678 32.048 854.158 31.848 853.678 31.592C853.198 31.336 852.814 30.984 852.526 30.536C852.238 30.072 852.094 29.464 852.094 28.712C852.094 28.04 852.262 27.416 852.598 26.84C852.95 26.248 853.478 25.776 854.182 25.424C854.902 25.056 855.806 24.872 856.894 24.872C857.854 24.872 858.71 25.032 859.462 25.352C860.214 25.656 860.838 26.144 861.334 26.816C861.83 27.472 862.142 28.328 862.27 29.384H859.702C859.558 28.488 859.238 27.856 858.742 27.488C858.246 27.104 857.59 26.912 856.774 26.912C856.07 26.912 855.518 27.072 855.118 27.392C854.734 27.696 854.542 28.088 854.542 28.568ZM865.065 38V25.208H867.633V38H865.065ZM865.065 23.624V20.72H867.633V23.624H865.065ZM880.865 30.344L879.401 31.544C879.401 30.088 879.113 28.968 878.537 28.184C877.961 27.4 877.137 27.008 876.065 27.008C874.977 27.008 874.145 27.408 873.569 28.208C873.009 28.992 872.729 30.128 872.729 31.616C872.729 33.072 873.025 34.2 873.617 35C874.225 35.784 875.081 36.176 876.185 36.176C877.001 36.176 877.681 35.984 878.225 35.6C878.785 35.216 879.177 34.624 879.401 33.824H882.089C881.737 35.312 881.033 36.432 879.977 37.184C878.937 37.936 877.673 38.312 876.185 38.312C874.937 38.312 873.857 38.048 872.945 37.52C872.033 36.976 871.329 36.2 870.833 35.192C870.353 34.184 870.113 32.992 870.113 31.616C870.113 30.16 870.353 28.936 870.833 27.944C871.329 26.936 872.025 26.176 872.921 25.664C873.817 25.136 874.865 24.872 876.065 24.872C877.297 24.872 878.353 25.144 879.233 25.688C880.113 26.216 880.793 26.968 881.273 27.944C881.753 28.92 881.993 30.096 881.993 31.472V32.096H871.169V30.344H880.865ZM884.565 38V25.208H887.133V38H884.565ZM887.133 31.016H886.173C886.237 29.576 886.485 28.408 886.917 27.512C887.365 26.6 887.917 25.936 888.573 25.52C889.245 25.088 889.981 24.872 890.781 24.872C891.037 24.872 891.277 24.904 891.501 24.968C891.725 25.016 891.893 25.096 892.005 25.208V27.464C891.813 27.4 891.605 27.36 891.381 27.344C891.157 27.312 890.909 27.296 890.637 27.296C890.029 27.296 889.501 27.384 889.053 27.56C888.621 27.736 888.261 27.992 887.973 28.328C887.685 28.648 887.469 29.04 887.325 29.504C887.197 29.952 887.133 30.456 887.133 31.016ZM894.088 34.184V22.256H896.656V34.04C896.656 34.776 896.8 35.32 897.088 35.672C897.392 36.024 897.984 36.2 898.864 36.2H899.368V38.072C899.24 38.152 899.024 38.208 898.72 38.24C898.432 38.288 898.112 38.312 897.76 38.312C896.528 38.312 895.608 37.968 895 37.28C894.392 36.592 894.088 35.56 894.088 34.184ZM892.36 27.2V25.208H899.416V27.2H892.36Z" fill="white"/>
<g filter="url(#filter6_f_596_18094)">
<path d="M912.043 53.6666L911.176 46.7333C910.707 46.5528 910.265 46.3361 909.85 46.0833C909.436 45.8305 909.029 45.5597 908.63 45.2708L902.184 47.9791L896.226 37.6875L901.805 33.4625C901.769 33.2097 901.751 32.9663 901.751 32.7323V31.2698C901.751 31.0344 901.769 30.7903 901.805 30.5375L896.226 26.3125L902.184 16.0208L908.63 18.7291C909.027 18.4403 909.443 18.1694 909.876 17.9166C910.309 17.6639 910.743 17.4472 911.176 17.2666L912.043 10.3333H923.959L924.826 17.2666C925.296 17.4472 925.738 17.6639 926.154 17.9166C926.57 18.1694 926.976 18.4403 927.372 18.7291L933.818 16.0208L939.776 26.3125L934.197 30.5375C934.233 30.7903 934.251 31.0344 934.251 31.2698V32.7301C934.251 32.9656 934.215 33.2097 934.143 33.4625L939.722 37.6875L933.764 47.9791L927.372 45.2708C926.975 45.5597 926.559 45.8305 926.126 46.0833C925.693 46.3361 925.259 46.5528 924.826 46.7333L923.959 53.6666H912.043ZM918.109 39.5833C920.204 39.5833 921.991 38.843 923.472 37.3625C924.952 35.8819 925.693 34.0944 925.693 32C925.693 29.9055 924.952 28.118 923.472 26.6375C921.991 25.1569 920.204 24.4166 918.109 24.4166C915.979 24.4166 914.182 25.1569 912.719 26.6375C911.256 28.118 910.525 29.9055 910.526 32C910.528 34.0944 911.259 35.8819 912.721 37.3625C914.183 38.843 915.979 39.5833 918.109 39.5833Z" fill="white" fill-opacity="0.65"/>
</g>
</g>
<rect x="-0.5" y="0.5" width="217" height="57" rx="28.5" transform="matrix(-1 0 0 1 936.001 0)" stroke="#E63C14"/>
<path d="M719.215 24L719.215 24.4996C719.217 26.9842 721.23 28.998 723.715 29C721.23 29.002 719.217 31.0158 719.215 33.5004L719.215 34L719.215 33.5004C719.213 31.0158 717.199 29.002 714.715 29C717.199 28.998 719.213 26.9842 719.215 24.4996L719.215 24Z" fill="#E63C14"/>
<rect x="-0.5" y="0.5" width="213" height="57" rx="28.5" transform="matrix(-1 0 0 1 241.001 124)" fill="#E63C14"/>
<rect x="-0.5" y="0.5" width="213" height="57" rx="28.5" transform="matrix(-1 0 0 1 241.001 124)" stroke="#E63C14"/>
<path d="M87.7725 161.847V145.527H90.4605V161.847H87.7725ZM93.768 161.847V149.055H96.336V161.847H93.768ZM96.336 154.335H95.328C95.408 153.087 95.656 152.047 96.072 151.215C96.504 150.383 97.072 149.759 97.776 149.343C98.48 148.927 99.288 148.719 100.2 148.719C101.096 148.719 101.864 148.895 102.504 149.247C103.144 149.583 103.64 150.095 103.992 150.783C104.344 151.455 104.52 152.295 104.52 153.303V161.847H101.976V153.831C101.976 153.207 101.88 152.679 101.688 152.247C101.496 151.799 101.216 151.455 100.848 151.215C100.48 150.975 100 150.855 99.408 150.855C98.928 150.855 98.496 150.959 98.112 151.167C97.728 151.359 97.4 151.615 97.128 151.935C96.872 152.255 96.672 152.623 96.528 153.039C96.4 153.455 96.336 153.887 96.336 154.335ZM107.643 161.847V149.055H110.211V161.847H107.643ZM110.211 154.335H109.203C109.283 153.087 109.531 152.047 109.947 151.215C110.379 150.383 110.947 149.759 111.651 149.343C112.355 148.927 113.163 148.719 114.075 148.719C114.971 148.719 115.739 148.895 116.379 149.247C117.019 149.583 117.515 150.095 117.867 150.783C118.219 151.455 118.395 152.295 118.395 153.303V161.847H115.851V153.831C115.851 153.207 115.755 152.679 115.563 152.247C115.371 151.799 115.091 151.455 114.723 151.215C114.355 150.975 113.875 150.855 113.283 150.855C112.803 150.855 112.371 150.959 111.987 151.167C111.603 151.359 111.275 151.615 111.003 151.935C110.747 152.255 110.547 152.623 110.403 153.039C110.275 153.455 110.211 153.887 110.211 154.335ZM126.87 162.159C125.638 162.159 124.574 161.895 123.678 161.367C122.782 160.823 122.094 160.047 121.614 159.039C121.134 158.031 120.894 156.839 120.894 155.463C120.894 154.007 121.134 152.783 121.614 151.791C122.11 150.783 122.806 150.023 123.702 149.511C124.614 148.983 125.67 148.719 126.87 148.719C128.118 148.719 129.19 148.991 130.086 149.535C130.982 150.079 131.662 150.855 132.126 151.863C132.606 152.855 132.846 154.055 132.846 155.463C132.846 156.887 132.606 158.103 132.126 159.111C131.646 160.103 130.958 160.863 130.062 161.391C129.166 161.903 128.102 162.159 126.87 162.159ZM126.87 159.999C127.958 159.999 128.79 159.607 129.366 158.823C129.942 158.039 130.23 156.919 130.23 155.463C130.23 153.991 129.942 152.863 129.366 152.079C128.79 151.279 127.958 150.879 126.87 150.879C125.782 150.879 124.95 151.271 124.374 152.055C123.798 152.839 123.51 153.975 123.51 155.463C123.51 156.919 123.798 158.039 124.374 158.823C124.966 159.607 125.798 159.999 126.87 159.999ZM138.305 161.847L133.601 149.055H136.361L139.649 158.559L140.153 160.527H139.769L140.273 158.559L143.537 149.055H146.153L141.449 161.847H138.305ZM150.169 153.231H147.601C147.745 152.287 148.049 151.479 148.513 150.807C148.977 150.135 149.601 149.623 150.385 149.271C151.169 148.903 152.089 148.719 153.145 148.719C154.297 148.719 155.257 148.935 156.025 149.367C156.809 149.783 157.393 150.367 157.777 151.119C158.161 151.871 158.353 152.743 158.353 153.735V158.727C158.353 159.495 158.385 160.119 158.449 160.599C158.529 161.079 158.641 161.495 158.785 161.847H156.097C155.953 161.527 155.865 161.127 155.833 160.647C155.801 160.167 155.785 159.679 155.785 159.183V153.759C155.785 152.831 155.553 152.119 155.089 151.623C154.641 151.127 153.929 150.879 152.953 150.879C152.121 150.879 151.473 151.095 151.009 151.527C150.561 151.943 150.281 152.511 150.169 153.231ZM156.145 154.047V155.799C154.833 155.799 153.761 155.863 152.929 155.991C152.097 156.119 151.449 156.303 150.985 156.543C150.521 156.767 150.201 157.039 150.025 157.359C149.849 157.663 149.761 158.007 149.761 158.391C149.761 158.935 149.969 159.367 150.385 159.687C150.801 159.991 151.345 160.143 152.017 160.143C152.737 160.143 153.377 159.975 153.937 159.639C154.513 159.287 154.961 158.823 155.281 158.247C155.617 157.671 155.785 157.047 155.785 156.375H156.937C156.873 157.399 156.673 158.279 156.337 159.015C156.001 159.751 155.569 160.351 155.041 160.815C154.529 161.279 153.969 161.623 153.361 161.847C152.753 162.055 152.145 162.159 151.537 162.159C150.673 162.159 149.913 162.023 149.257 161.751C148.601 161.479 148.089 161.071 147.721 160.527C147.353 159.983 147.169 159.303 147.169 158.487C147.169 157.607 147.409 156.855 147.889 156.231C148.369 155.607 149.089 155.127 150.049 154.791C150.945 154.487 151.873 154.287 152.833 154.191C153.793 154.095 154.897 154.047 156.145 154.047ZM161.909 158.031V146.103H164.477V157.887C164.477 158.623 164.621 159.167 164.909 159.519C165.213 159.871 165.805 160.047 166.685 160.047H167.189V161.919C167.061 161.999 166.845 162.055 166.541 162.087C166.253 162.135 165.933 162.159 165.581 162.159C164.349 162.159 163.429 161.815 162.821 161.127C162.213 160.439 161.909 159.407 161.909 158.031ZM160.181 151.047V149.055H167.237V151.047H160.181ZM169.166 161.847V149.055H171.734V161.847H169.166ZM169.166 147.471V144.567H171.734V147.471H169.166ZM180.19 162.159C178.958 162.159 177.894 161.895 176.998 161.367C176.102 160.823 175.414 160.047 174.934 159.039C174.454 158.031 174.214 156.839 174.214 155.463C174.214 154.007 174.454 152.783 174.934 151.791C175.43 150.783 176.126 150.023 177.022 149.511C177.934 148.983 178.99 148.719 180.19 148.719C181.438 148.719 182.51 148.991 183.406 149.535C184.302 150.079 184.982 150.855 185.446 151.863C185.926 152.855 186.166 154.055 186.166 155.463C186.166 156.887 185.926 158.103 185.446 159.111C184.966 160.103 184.278 160.863 183.382 161.391C182.486 161.903 181.422 162.159 180.19 162.159ZM180.19 159.999C181.278 159.999 182.11 159.607 182.686 158.823C183.262 158.039 183.55 156.919 183.55 155.463C183.55 153.991 183.262 152.863 182.686 152.079C182.11 151.279 181.278 150.879 180.19 150.879C179.102 150.879 178.27 151.271 177.694 152.055C177.118 152.839 176.83 153.975 176.83 155.463C176.83 156.919 177.118 158.039 177.694 158.823C178.286 159.607 179.118 159.999 180.19 159.999ZM188.666 161.847V149.055H191.234V161.847H188.666ZM191.234 154.335H190.226C190.306 153.087 190.554 152.047 190.97 151.215C191.402 150.383 191.97 149.759 192.674 149.343C193.378 148.927 194.186 148.719 195.098 148.719C195.994 148.719 196.762 148.895 197.402 149.247C198.042 149.583 198.538 150.095 198.89 150.783C199.242 151.455 199.418 152.295 199.418 153.303V161.847H196.874V153.831C196.874 153.207 196.778 152.679 196.586 152.247C196.394 151.799 196.114 151.455 195.746 151.215C195.378 150.975 194.898 150.855 194.306 150.855C193.826 150.855 193.394 150.959 193.01 151.167C192.626 151.359 192.298 151.615 192.026 151.935C191.77 152.255 191.57 152.623 191.426 153.039C191.298 153.455 191.234 153.887 191.234 154.335Z" fill="white"/>
<g filter="url(#filter8_f_596_18094)">
<path d="M50.144 157.333C48.5183 154.671 47.6611 151.611 47.6675 148.491C47.6675 139.014 55.4284 131.334 65.0005 131.334C74.5727 131.334 82.3335 139.014 82.3335 148.491C82.3399 151.611 81.4828 154.671 79.8571 157.333" stroke="white" stroke-opacity="0.65" stroke-width="3.24994" stroke-linecap="round"/>
<path d="M71.5002 168.166L71.2185 169.568C70.9152 171.1 70.7613 171.865 70.4168 172.471C69.886 173.406 69.0265 174.111 68.0054 174.447C67.3446 174.666 66.5602 174.666 65.0003 174.666C63.4403 174.666 62.656 174.666 61.9952 174.45C60.9737 174.112 60.1141 173.407 59.5837 172.471C59.2392 171.865 59.0854 171.1 58.7821 169.568L58.5004 168.166M54.997 164.045C54.7976 163.447 54.698 163.146 54.7088 162.904C54.7211 162.653 54.8058 162.411 54.9526 162.207C55.0995 162.003 55.3023 161.846 55.5365 161.755C55.7618 161.667 56.0781 161.667 56.7064 161.667H73.2941C73.9246 161.667 74.2388 161.667 74.4641 161.753C74.6986 161.844 74.9016 162.001 75.0485 162.206C75.1954 162.41 75.2799 162.652 75.2918 162.904C75.3026 163.146 75.2029 163.445 75.0036 164.045C74.6353 165.153 74.4511 165.707 74.1673 166.156C73.5736 167.093 72.6431 167.767 71.5673 168.039C71.0517 168.166 70.471 168.166 69.3075 168.166H60.693C59.5295 168.166 58.9467 168.166 58.4332 168.036C57.3579 167.765 56.4273 167.092 55.8333 166.156C55.5495 165.707 55.3653 165.153 54.997 164.045Z" stroke="white" stroke-opacity="0.65" stroke-width="3.24994"/>
<path d="M65.6678 153L62.5024 143.205C62.3928 142.896 62.1888 142.63 61.9193 142.443C61.6498 142.257 61.3284 142.16 61.0009 142.167C60.6733 142.16 60.352 142.257 60.0825 142.443C59.813 142.63 59.609 142.896 59.4994 143.205L56.334 153M71.5004 142.167V153M57.4996 149.75H64.5" stroke="white" stroke-opacity="0.65" stroke-width="3.24994" stroke-linecap="round" stroke-linejoin="round"/>
</g>
<path d="M241.5 149.847L241.5 150.347C241.502 152.831 243.515 154.845 246 154.847C243.515 154.849 241.502 156.863 241.5 159.348L241.5 159.847L241.5 159.348C241.498 156.863 239.485 154.849 237 154.847C239.485 154.845 241.498 152.831 241.5 150.347L241.5 149.847Z" fill="#E63C14"/>
<path d="M368 189.847H315.286L277.5 154.847H242" stroke="url(#paint5_linear_596_18094)" stroke-width="2" stroke-linecap="round"/>
<path d="M411 204H315.286L277.5 169H242" stroke="url(#paint6_linear_596_18094)" stroke-width="2" stroke-linecap="round"/>
<path d="M380 252.847H346.286L308.5 287.847H273" stroke="url(#paint7_linear_596_18094)" stroke-width="2" stroke-linecap="round"/>
<g clip-path="url(#clip3_596_18094)">
<rect y="258.847" width="272" height="58" rx="29" fill="#E63C14"/>
<g filter="url(#filter10_f_596_18094)">
<g clip-path="url(#clip4_596_18094)">
<path d="M47.0201 279.364C46.7721 278.655 46.3109 278.039 45.6996 277.602C45.0883 277.164 44.3569 276.927 43.6053 276.921C43.459 276.924 43.3152 276.959 43.1843 277.025C43.0534 277.09 42.9388 277.184 42.8488 277.299C42.7667 277.42 42.7135 277.557 42.6933 277.702C42.6731 277.846 42.6863 277.993 42.7321 278.131L45.0216 284.728C45.0713 284.865 45.152 284.989 45.2572 285.09C45.3624 285.19 45.4895 285.265 45.6284 285.309C45.7705 285.345 45.9188 285.348 46.0623 285.319C46.2058 285.289 46.3407 285.227 46.4567 285.137C47.0456 284.665 47.4736 284.022 47.6815 283.297C47.8895 282.571 47.8673 281.799 47.6179 281.087L47.0201 279.364ZM37.4045 271.121C37.2528 270.687 36.9935 270.299 36.6509 269.993C36.3083 269.686 35.8936 269.472 35.4455 269.369C33.699 268.952 32.8595 270.093 31.071 271.891C26.7269 276.629 21.3301 280.281 15.3157 282.55C15.1948 282.591 15.0839 282.658 14.9902 282.745C14.8965 282.832 14.8222 282.937 14.772 283.055C14.7218 283.172 14.6968 283.299 14.6988 283.427C14.7007 283.555 14.7295 283.681 14.7832 283.796L19.9182 298.593C20.8639 301.214 22.513 303.523 24.6848 305.269C26.8565 307.014 29.4668 308.127 32.2296 308.487C32.7113 308.548 33.1974 308.414 33.5808 308.117C33.9643 307.819 34.2138 307.381 34.2744 306.899C34.335 306.417 34.2018 305.931 33.904 305.548C33.6063 305.164 33.1684 304.915 32.6867 304.854C30.6351 304.593 28.6927 303.781 27.0665 302.503C25.4403 301.225 24.1912 299.53 23.4522 297.598C28.7389 296.212 34.2532 295.921 39.6565 296.742C42.4222 297.037 43.5961 297.305 44.7156 295.971C44.9965 295.608 45.1815 295.18 45.2535 294.726C45.3255 294.273 45.2823 293.809 45.1278 293.377L37.4045 271.121ZM12.1994 284.693C12.16 284.578 12.0978 284.471 12.0165 284.38C11.9351 284.289 11.8363 284.215 11.7258 284.163C11.5099 284.063 11.2635 284.051 11.0393 284.131L9.31671 284.729C8.52356 285.001 7.79213 285.428 7.16451 285.984C6.53689 286.541 6.02544 287.216 5.65959 287.971C5.29374 288.725 5.0807 289.545 5.03272 290.382C4.98474 291.22 5.10277 292.058 5.38002 292.85L6.57558 296.295C6.85309 297.087 7.28424 297.817 7.84432 298.443C8.4044 299.068 9.0824 299.577 9.83947 299.94C10.5965 300.303 11.4178 300.513 12.2562 300.558C13.0946 300.603 13.9336 300.482 14.7252 300.202L16.4477 299.605C16.6642 299.52 16.84 299.355 16.9392 299.145C17.0385 298.935 17.0536 298.695 16.9817 298.474L12.1994 284.693Z" fill="white" fill-opacity="0.65"/>
</g>
</g>
<path d="M52.3013 297.159C50.6853 297.159 49.2853 296.823 48.1013 296.151C46.9333 295.463 46.0293 294.487 45.3893 293.223C44.7653 291.959 44.4533 290.455 44.4533 288.711C44.4533 286.967 44.7653 285.463 45.3893 284.199C46.0293 282.919 46.9333 281.935 48.1013 281.247C49.2853 280.559 50.6853 280.215 52.3013 280.215C53.9013 280.215 55.2853 280.559 56.4533 281.247C57.6373 281.935 58.5413 282.919 59.1653 284.199C59.8053 285.463 60.1253 286.967 60.1253 288.711C60.1253 290.455 59.8053 291.959 59.1653 293.223C58.5413 294.487 57.6373 295.463 56.4533 296.151C55.2853 296.823 53.9013 297.159 52.3013 297.159ZM52.3013 294.903C53.3573 294.903 54.2613 294.655 55.0133 294.159C55.7813 293.647 56.3653 292.935 56.7653 292.023C57.1813 291.095 57.3893 289.991 57.3893 288.711C57.3893 287.415 57.1813 286.303 56.7653 285.375C56.3653 284.447 55.7813 283.735 55.0133 283.239C54.2613 282.727 53.3573 282.471 52.3013 282.471C51.2293 282.471 50.3093 282.727 49.5413 283.239C48.7893 283.735 48.2053 284.447 47.7893 285.375C47.3893 286.303 47.1893 287.415 47.1893 288.711C47.1893 289.991 47.3893 291.095 47.7893 292.023C48.2053 292.935 48.7893 293.647 49.5413 294.159C50.3093 294.655 51.2293 294.903 52.3013 294.903ZM62.8608 296.847V284.055H65.4288V296.847H62.8608ZM65.4288 289.335H64.4208C64.5008 288.087 64.7488 287.047 65.1648 286.215C65.5968 285.383 66.1648 284.759 66.8688 284.343C67.5728 283.927 68.3808 283.719 69.2928 283.719C70.1888 283.719 70.9568 283.895 71.5968 284.247C72.2368 284.583 72.7328 285.095 73.0848 285.783C73.4368 286.455 73.6128 287.295 73.6128 288.303V296.847H71.0688V288.831C71.0688 288.207 70.9728 287.679 70.7808 287.247C70.5888 286.799 70.3088 286.455 69.9408 286.215C69.5728 285.975 69.0928 285.855 68.5008 285.855C68.0208 285.855 67.5888 285.959 67.2048 286.167C66.8208 286.359 66.4928 286.615 66.2208 286.935C65.9648 287.255 65.7648 287.623 65.6208 288.039C65.4928 288.455 65.4288 288.887 65.4288 289.335ZM76.7358 296.847V279.567H79.3038V296.847H76.7358ZM82.4077 296.847V284.055H84.9757V296.847H82.4077ZM82.4077 282.471V279.567H84.9757V282.471H82.4077ZM88.0795 296.847V284.055H90.6475V296.847H88.0795ZM90.6475 289.335H89.6395C89.7195 288.087 89.9675 287.047 90.3835 286.215C90.8155 285.383 91.3835 284.759 92.0875 284.343C92.7915 283.927 93.5995 283.719 94.5115 283.719C95.4075 283.719 96.1755 283.895 96.8155 284.247C97.4555 284.583 97.9515 285.095 98.3035 285.783C98.6555 286.455 98.8315 287.295 98.8315 288.303V296.847H96.2875V288.831C96.2875 288.207 96.1915 287.679 95.9995 287.247C95.8075 286.799 95.5275 286.455 95.1595 286.215C94.7915 285.975 94.3115 285.855 93.7195 285.855C93.2395 285.855 92.8075 285.959 92.4235 286.167C92.0395 286.359 91.7115 286.615 91.4395 286.935C91.1835 287.255 90.9835 287.623 90.8395 288.039C90.7115 288.455 90.6475 288.887 90.6475 289.335ZM112.083 289.191L110.619 290.391C110.619 288.935 110.331 287.815 109.755 287.031C109.179 286.247 108.355 285.855 107.283 285.855C106.195 285.855 105.363 286.255 104.787 287.055C104.227 287.839 103.947 288.975 103.947 290.463C103.947 291.919 104.243 293.047 104.835 293.847C105.443 294.631 106.299 295.023 107.403 295.023C108.219 295.023 108.899 294.831 109.443 294.447C110.003 294.063 110.395 293.471 110.619 292.671H113.307C112.955 294.159 112.251 295.279 111.195 296.031C110.155 296.783 108.891 297.159 107.403 297.159C106.155 297.159 105.075 296.895 104.163 296.367C103.251 295.823 102.547 295.047 102.051 294.039C101.571 293.031 101.331 291.839 101.331 290.463C101.331 289.007 101.571 287.783 102.051 286.791C102.547 285.783 103.243 285.023 104.139 284.511C105.035 283.983 106.083 283.719 107.283 283.719C108.515 283.719 109.571 283.991 110.451 284.535C111.331 285.063 112.011 285.815 112.491 286.791C112.971 287.767 113.211 288.943 113.211 290.319V290.943H102.387V289.191H112.083ZM120.686 296.847V280.527H123.278L123.374 296.847H120.686ZM135.422 296.847L135.518 280.527H138.11V296.847H135.422ZM130.358 296.847H128.438L124.454 287.103L122.222 280.527H124.31L128.918 291.831L129.638 294.135H129.278L130.022 291.831L134.582 280.527H136.55L134.318 287.127L130.358 296.847ZM143.847 288.231H141.279C141.423 287.287 141.727 286.479 142.191 285.807C142.655 285.135 143.279 284.623 144.063 284.271C144.847 283.903 145.767 283.719 146.823 283.719C147.975 283.719 148.935 283.935 149.703 284.367C150.487 284.783 151.071 285.367 151.455 286.119C151.839 286.871 152.031 287.743 152.031 288.735V293.727C152.031 294.495 152.063 295.119 152.127 295.599C152.207 296.079 152.319 296.495 152.463 296.847H149.775C149.631 296.527 149.543 296.127 149.511 295.647C149.479 295.167 149.463 294.679 149.463 294.183V288.759C149.463 287.831 149.231 287.119 148.767 286.623C148.319 286.127 147.607 285.879 146.631 285.879C145.799 285.879 145.151 286.095 144.687 286.527C144.239 286.943 143.959 287.511 143.847 288.231ZM149.823 289.047V290.799C148.511 290.799 147.439 290.863 146.607 290.991C145.775 291.119 145.127 291.303 144.663 291.543C144.199 291.767 143.879 292.039 143.703 292.359C143.527 292.663 143.439 293.007 143.439 293.391C143.439 293.935 143.647 294.367 144.063 294.687C144.479 294.991 145.023 295.143 145.695 295.143C146.415 295.143 147.055 294.975 147.615 294.639C148.191 294.287 148.639 293.823 148.959 293.247C149.295 292.671 149.463 292.047 149.463 291.375H150.615C150.551 292.399 150.351 293.279 150.015 294.015C149.679 294.751 149.247 295.351 148.719 295.815C148.207 296.279 147.647 296.623 147.039 296.847C146.431 297.055 145.823 297.159 145.215 297.159C144.351 297.159 143.591 297.023 142.935 296.751C142.279 296.479 141.767 296.071 141.399 295.527C141.031 294.983 140.847 294.303 140.847 293.487C140.847 292.607 141.087 291.855 141.567 291.231C142.047 290.607 142.767 290.127 143.727 289.791C144.623 289.487 145.551 289.287 146.511 289.191C147.471 289.095 148.575 289.047 149.823 289.047ZM155.251 296.847V284.055H157.819V296.847H155.251ZM157.819 289.863H156.859C156.923 288.423 157.171 287.255 157.603 286.359C158.051 285.447 158.603 284.783 159.259 284.367C159.931 283.935 160.667 283.719 161.467 283.719C161.723 283.719 161.963 283.751 162.187 283.815C162.411 283.863 162.579 283.943 162.691 284.055V286.311C162.499 286.247 162.291 286.207 162.067 286.191C161.843 286.159 161.595 286.143 161.323 286.143C160.715 286.143 160.187 286.231 159.739 286.407C159.307 286.583 158.947 286.839 158.659 287.175C158.371 287.495 158.155 287.887 158.011 288.351C157.883 288.799 157.819 289.303 157.819 289.863ZM164.439 296.847V279.567H167.007V296.847H164.439ZM166.575 289.935L172.095 284.055H175.167L169.455 289.935H166.575ZM166.575 289.935L169.479 289.551L175.503 296.847H172.311L166.575 289.935ZM186.473 289.191L185.009 290.391C185.009 288.935 184.721 287.815 184.145 287.031C183.569 286.247 182.745 285.855 181.673 285.855C180.585 285.855 179.753 286.255 179.177 287.055C178.617 287.839 178.337 288.975 178.337 290.463C178.337 291.919 178.633 293.047 179.225 293.847C179.833 294.631 180.689 295.023 181.793 295.023C182.609 295.023 183.289 294.831 183.833 294.447C184.393 294.063 184.785 293.471 185.009 292.671H187.697C187.345 294.159 186.641 295.279 185.585 296.031C184.545 296.783 183.281 297.159 181.793 297.159C180.545 297.159 179.465 296.895 178.553 296.367C177.641 295.823 176.937 295.047 176.441 294.039C175.961 293.031 175.721 291.839 175.721 290.463C175.721 289.007 175.961 287.783 176.441 286.791C176.937 285.783 177.633 285.023 178.529 284.511C179.425 283.983 180.473 283.719 181.673 283.719C182.905 283.719 183.961 283.991 184.841 284.535C185.721 285.063 186.401 285.815 186.881 286.791C187.361 287.767 187.601 288.943 187.601 290.319V290.943H176.777V289.191H186.473ZM190.509 293.031V281.103H193.077V292.887C193.077 293.623 193.221 294.167 193.509 294.519C193.813 294.871 194.405 295.047 195.285 295.047H195.789V296.919C195.661 296.999 195.445 297.055 195.141 297.087C194.853 297.135 194.533 297.159 194.181 297.159C192.949 297.159 192.029 296.815 191.421 296.127C190.813 295.439 190.509 294.407 190.509 293.031ZM188.781 286.047V284.055H195.837V286.047H188.781ZM197.767 296.847V284.055H200.335V296.847H197.767ZM197.767 282.471V279.567H200.335V282.471H197.767ZM203.439 296.847V284.055H206.007V296.847H203.439ZM206.007 289.335H204.999C205.079 288.087 205.327 287.047 205.743 286.215C206.175 285.383 206.743 284.759 207.447 284.343C208.151 283.927 208.959 283.719 209.871 283.719C210.767 283.719 211.535 283.895 212.175 284.247C212.815 284.583 213.311 285.095 213.663 285.783C214.015 286.455 214.191 287.295 214.191 288.303V296.847H211.647V288.831C211.647 288.207 211.551 287.679 211.359 287.247C211.167 286.799 210.887 286.455 210.519 286.215C210.151 285.975 209.671 285.855 209.079 285.855C208.599 285.855 208.167 285.959 207.783 286.167C207.399 286.359 207.071 286.615 206.799 286.935C206.543 287.255 206.343 287.623 206.199 288.039C206.071 288.455 206.007 288.887 206.007 289.335ZM221.922 296.919C220.834 296.919 219.898 296.655 219.114 296.127C218.33 295.599 217.73 294.847 217.314 293.871C216.898 292.879 216.69 291.703 216.69 290.343C216.69 288.199 217.154 286.559 218.082 285.423C219.026 284.287 220.306 283.719 221.922 283.719C223.57 283.719 224.802 284.295 225.618 285.447C226.434 286.583 226.842 288.207 226.842 290.319C226.842 292.479 226.394 294.119 225.498 295.239C224.618 296.359 223.426 296.919 221.922 296.919ZM222.45 294.759C223.474 294.759 224.25 294.383 224.778 293.631C225.322 292.863 225.594 291.759 225.594 290.319C225.594 288.911 225.314 287.823 224.754 287.055C224.21 286.271 223.442 285.879 222.45 285.879C221.426 285.879 220.642 286.263 220.098 287.031C219.57 287.783 219.306 288.887 219.306 290.343C219.306 291.751 219.578 292.839 220.122 293.607C220.666 294.375 221.442 294.759 222.45 294.759ZM228.162 297.255C228.162 298.423 227.922 299.391 227.442 300.159C226.962 300.927 226.314 301.503 225.498 301.887C224.698 302.271 223.786 302.463 222.762 302.463C221.226 302.463 219.938 302.095 218.898 301.359C217.874 300.639 217.25 299.535 217.026 298.047H219.594C219.706 298.815 220.042 299.399 220.602 299.799C221.178 300.199 221.89 300.399 222.738 300.399C223.602 300.399 224.29 300.159 224.802 299.679C225.33 299.199 225.594 298.407 225.594 297.303V284.055H228.162V297.255Z" fill="white"/>
</g>
<rect x="0.5" y="259.347" width="271" height="57" rx="28.5" stroke="#E63C14"/>
<path d="M271.5 282.847L271.5 283.347C271.498 285.831 269.485 287.845 267 287.847C269.485 287.849 271.498 289.863 271.5 292.348L271.5 292.847L271.5 292.348C271.502 289.863 273.515 287.849 276 287.847C273.515 287.845 271.502 285.831 271.5 283.347L271.5 282.847Z" fill="#E63C14"/>
<path d="M407 64H373.286L335.5 29L329.286 29" stroke="url(#paint8_linear_596_18094)" stroke-width="2" stroke-linecap="round"/>
<g clip-path="url(#clip5_596_18094)">
<rect x="209" width="120" height="58" rx="29" fill="#E63C14"/>
<path d="M262.177 34.328V32.216H270.409V34.328H262.177ZM271.441 38L266.809 25.856L266.257 24.032H266.401L265.849 25.856L261.217 38H258.529L264.817 21.68H267.961L274.249 38H271.441ZM276.42 38V21.68H279.108V38H276.42Z" fill="white"/>
<g opacity="0.45" filter="url(#filter12_f_596_18094)">
<path d="M226.455 19.4419C227.601 16.0878 232.236 15.9862 233.595 19.1372L233.71 19.4438L235.256 23.9672C235.611 25.0045 236.184 25.9538 236.936 26.751C237.689 27.5481 238.603 28.1747 239.619 28.5883L240.035 28.7435L244.558 30.2883C247.912 31.4345 248.014 36.069 244.865 37.4279L244.558 37.5429L240.035 39.0897C238.997 39.4439 238.047 40.0166 237.25 40.7692C236.452 41.5217 235.825 42.4366 235.412 43.452L235.256 43.866L233.712 48.3913C232.565 51.7454 227.931 51.847 226.574 48.6979L226.455 48.3913L224.91 43.8679C224.556 42.8302 223.983 41.8805 223.231 41.083C222.478 40.2855 221.563 39.6587 220.548 39.2449L220.134 39.0897L215.611 37.5448C212.254 36.3987 212.153 31.7642 215.304 30.4072L215.611 30.2883L220.134 28.7435C221.171 28.389 222.121 27.8162 222.918 27.0637C223.715 26.3111 224.341 25.3964 224.755 24.3812L224.91 23.9672L226.455 19.4419ZM245.417 12.8333C245.775 12.8333 246.127 12.9338 246.431 13.1236C246.735 13.3133 246.98 13.5846 247.138 13.9066L247.23 14.1308L247.901 16.0973L249.869 16.7682C250.228 16.8903 250.543 17.1163 250.774 17.4176C251.005 17.7189 251.141 18.0819 251.165 18.4606C251.189 18.8394 251.101 19.2168 250.91 19.545C250.72 19.8733 250.436 20.1376 250.095 20.3044L249.869 20.3964L247.903 21.0673L247.232 23.0357C247.109 23.3949 246.883 23.7098 246.582 23.9403C246.28 24.1709 245.917 24.3068 245.539 24.3308C245.16 24.3548 244.783 24.2659 244.454 24.0752C244.126 23.8846 243.862 23.6008 243.695 23.2599L243.603 23.0357L242.933 21.0692L240.964 20.3983C240.605 20.2763 240.29 20.0502 240.059 19.7489C239.828 19.4476 239.692 19.0846 239.668 18.7059C239.644 18.3271 239.733 17.9497 239.923 17.6215C240.114 17.2933 240.397 17.029 240.738 16.8621L240.964 16.7701L242.931 16.0993L243.602 14.1308C243.731 13.7522 243.975 13.4234 244.301 13.1907C244.626 12.958 245.016 12.833 245.417 12.8333Z" fill="white" fill-opacity="0.65"/>
</g>
</g>
<rect x="209.5" y="0.5" width="119" height="57" rx="28.5" stroke="#E63C14"/>
<path d="M328.786 24L328.786 24.4996C328.784 26.9842 326.771 28.998 324.286 29C326.771 29.002 328.784 31.0158 328.786 33.5004L328.786 34L328.786 33.5004C328.788 31.0158 330.802 29.002 333.286 29C330.802 28.998 328.788 26.9842 328.786 24.4996L328.786 24Z" fill="#E63C14"/>
<defs>
<filter id="filter0_dii_596_18094" x="433.191" y="85.9045" width="181.806" height="189.473" filterUnits="userSpaceOnUse" color-interpolation-filters="sRGB">
<feFlood flood-opacity="0" result="BackgroundImageFix"/>
<feColorMatrix in="SourceAlpha" type="matrix" values="0 0 0 0 0 0 0 0 0 0 0 0 0 0 0 0 0 0 127 0" result="hardAlpha"/>
<feMorphology radius="1.09522" operator="erode" in="SourceAlpha" result="effect1_dropShadow_596_18094"/>
<feOffset dy="27.3805"/>
<feGaussianBlur stdDeviation="10.9522"/>
<feComposite in2="hardAlpha" operator="out"/>
<feColorMatrix type="matrix" values="0 0 0 0 0 0 0 0 0 0 0 0 0 0 0 0 0 0 0.2 0"/>
<feBlend mode="normal" in2="BackgroundImageFix" result="effect1_dropShadow_596_18094"/>
<feBlend mode="normal" in="SourceGraphic" in2="effect1_dropShadow_596_18094" result="shape"/>
<feColorMatrix in="SourceAlpha" type="matrix" values="0 0 0 0 0 0 0 0 0 0 0 0 0 0 0 0 0 0 127 0" result="hardAlpha"/>
<feOffset dy="-1.09522"/>
<feGaussianBlur stdDeviation="0.547609"/>
<feComposite in2="hardAlpha" operator="arithmetic" k2="-1" k3="1"/>
<feColorMatrix type="matrix" values="0 0 0 0 0.8 0 0 0 0 0.780392 0 0 0 0 0.780392 0 0 0 0.2 0"/>
<feBlend mode="normal" in2="shape" result="effect2_innerShadow_596_18094"/>
<feColorMatrix in="SourceAlpha" type="matrix" values="0 0 0 0 0 0 0 0 0 0 0 0 0 0 0 0 0 0 127 0" result="hardAlpha"/>
<feOffset dy="1.09522"/>
<feGaussianBlur stdDeviation="0.547609"/>
<feComposite in2="hardAlpha" operator="arithmetic" k2="-1" k3="1"/>
<feColorMatrix type="matrix" values="0 0 0 0 0.8 0 0 0 0 0.780392 0 0 0 0 0.780392 0 0 0 0.2 0"/>
<feBlend mode="normal" in2="effect2_innerShadow_596_18094" result="effect3_innerShadow_596_18094"/>
</filter>
<filter id="filter2_f_596_18094" x="956.138" y="258.797" width="108.725" height="74.0375" filterUnits="userSpaceOnUse" color-interpolation-filters="sRGB">
<feFlood flood-opacity="0" result="BackgroundImageFix"/>
<feBlend mode="normal" in="SourceGraphic" in2="BackgroundImageFix" result="shape"/>
<feGaussianBlur stdDeviation="2.9" result="effect1_foregroundBlur_596_18094"/>
</filter>
<filter id="filter4_f_596_18094" x="976.201" y="108.2" width="91.2406" height="91.2406" filterUnits="userSpaceOnUse" color-interpolation-filters="sRGB">
<feFlood flood-opacity="0" result="BackgroundImageFix"/>
<feBlend mode="normal" in="SourceGraphic" in2="BackgroundImageFix" result="shape"/>
<feGaussianBlur stdDeviation="2.9" result="effect1_foregroundBlur_596_18094"/>
</filter>
<filter id="filter6_f_596_18094" x="886.201" y="0.2" width="63.6" height="63.6" filterUnits="userSpaceOnUse" color-interpolation-filters="sRGB">
<feFlood flood-opacity="0" result="BackgroundImageFix"/>
<feBlend mode="normal" in="SourceGraphic" in2="BackgroundImageFix" result="shape"/>
<feGaussianBlur stdDeviation="2.9" result="effect1_foregroundBlur_596_18094"/>
</filter>
<filter id="filter8_f_596_18094" x="35.301" y="123.3" width="59.399" height="59.399" filterUnits="userSpaceOnUse" color-interpolation-filters="sRGB">
<feFlood flood-opacity="0" result="BackgroundImageFix"/>
<feBlend mode="normal" in="SourceGraphic" in2="BackgroundImageFix" result="shape"/>
<feGaussianBlur stdDeviation="1.85" result="effect1_foregroundBlur_596_18094"/>
</filter>
<filter id="filter10_f_596_18094" x="-5.8" y="257.2" width="67.288" height="67.2879" filterUnits="userSpaceOnUse" color-interpolation-filters="sRGB">
<feFlood flood-opacity="0" result="BackgroundImageFix"/>
<feBlend mode="normal" in="SourceGraphic" in2="BackgroundImageFix" result="shape"/>
<feGaussianBlur stdDeviation="2.9" result="effect1_foregroundBlur_596_18094"/>
</filter>
<filter id="filter12_f_596_18094" x="203.2" y="3.2" width="57.6" height="57.6" filterUnits="userSpaceOnUse" color-interpolation-filters="sRGB">
<feFlood flood-opacity="0" result="BackgroundImageFix"/>
<feBlend mode="normal" in="SourceGraphic" in2="BackgroundImageFix" result="shape"/>
<feGaussianBlur stdDeviation="2.9" result="effect1_foregroundBlur_596_18094"/>
</filter>
<linearGradient id="paint0_linear_596_18094" x1="672.001" y1="270.347" x2="830.001" y2="270.347" gradientUnits="userSpaceOnUse">
<stop stop-color="#E63C14" stop-opacity="0"/>
<stop offset="0.5" stop-color="#E63C14" stop-opacity="0.5"/>
<stop offset="1" stop-color="#E63C14" stop-opacity="0"/>
</linearGradient>
<linearGradient id="paint1_linear_596_18094" x1="667.001" y1="172.847" x2="919.501" y2="174" gradientUnits="userSpaceOnUse">
<stop stop-color="#E63C14" stop-opacity="0"/>
<stop offset="0.5" stop-color="#E63C14" stop-opacity="0.5"/>
<stop offset="1" stop-color="#E63C14" stop-opacity="0"/>
</linearGradient>
<linearGradient id="paint2_linear_596_18094" x1="662.501" y1="157" x2="858.001" y2="157" gradientUnits="userSpaceOnUse">
<stop stop-color="#E63C14" stop-opacity="0"/>
<stop offset="0.5" stop-color="#E63C14" stop-opacity="0.5"/>
<stop offset="1" stop-color="#E63C14" stop-opacity="0"/>
</linearGradient>
<linearGradient id="paint3_linear_596_18094" x1="725.001" y1="187" x2="858.001" y2="187" gradientUnits="userSpaceOnUse">
<stop stop-color="#E63C14" stop-opacity="0"/>
<stop offset="0.5" stop-color="#E63C14" stop-opacity="0.5"/>
<stop offset="1" stop-color="#E63C14" stop-opacity="0"/>
</linearGradient>
<linearGradient id="paint4_linear_596_18094" x1="647.001" y1="46.9998" x2="778.501" y2="46.9998" gradientUnits="userSpaceOnUse">
<stop stop-color="#E63C14" stop-opacity="0"/>
<stop offset="0.5" stop-color="#E63C14" stop-opacity="0.5"/>
<stop offset="1" stop-color="#E63C14" stop-opacity="0"/>
</linearGradient>
<linearGradient id="paint5_linear_596_18094" x1="361.5" y1="172.847" x2="173.501" y2="174" gradientUnits="userSpaceOnUse">
<stop stop-color="#E63C14" stop-opacity="0"/>
<stop offset="0.5" stop-color="#E63C14" stop-opacity="0.5"/>
<stop offset="1" stop-color="#E63C14" stop-opacity="0"/>
</linearGradient>
<linearGradient id="paint6_linear_596_18094" x1="402" y1="187" x2="241.5" y2="187" gradientUnits="userSpaceOnUse">
<stop stop-color="#E63C14" stop-opacity="0"/>
<stop offset="0.5" stop-color="#E63C14" stop-opacity="0.5"/>
<stop offset="1" stop-color="#E63C14" stop-opacity="0"/>
</linearGradient>
<linearGradient id="paint7_linear_596_18094" x1="380" y1="270.347" x2="222" y2="270.347" gradientUnits="userSpaceOnUse">
<stop stop-color="#E63C14" stop-opacity="0"/>
<stop offset="0.5" stop-color="#E63C14" stop-opacity="0.5"/>
<stop offset="1" stop-color="#E63C14" stop-opacity="0"/>
</linearGradient>
<linearGradient id="paint8_linear_596_18094" x1="404.501" y1="46.9998" x2="278.285" y2="46.5" gradientUnits="userSpaceOnUse">
<stop stop-color="#E63C14" stop-opacity="0"/>
<stop offset="0.5" stop-color="#E63C14" stop-opacity="0.5"/>
<stop offset="0.703795" stop-color="#E63C14" stop-opacity="0"/>
</linearGradient>
<clipPath id="clip0_596_18094">
<rect x="778.001" y="257" width="295" height="58" rx="29" fill="white"/>
</clipPath>
<clipPath id="clip1_596_18094">
<rect x="848.001" y="124" width="203" height="58" rx="29" fill="white"/>
</clipPath>
<clipPath id="clip2_596_18094">
<rect width="218" height="58" rx="29" transform="matrix(-1 0 0 1 937.001 0)" fill="white"/>
</clipPath>
<clipPath id="clip3_596_18094">
<rect y="258.847" width="272" height="58" rx="29" fill="white"/>
</clipPath>
<clipPath id="clip4_596_18094">
<rect width="43.7598" height="43.7598" fill="white" transform="translate(0 277.347) rotate(-19.1384)"/>
</clipPath>
<clipPath id="clip5_596_18094">
<rect x="209" width="120" height="58" rx="29" fill="white"/>
</clipPath>
</defs>
</svg>
