<svg width="141" height="33" viewBox="0 0 141 33" fill="none" xmlns="http://www.w3.org/2000/svg">
<path d="M140.917 0.430237L135.69 31.9159H131.877L137.105 0.430237H140.917Z" fill="black"/>
<path d="M103.912 31.9159H99.9146L116.703 0.430237H120.639L126.973 31.9159H122.975L117.994 5.41137H117.748L103.912 31.9159ZM107.417 19.6168H123.529L122.975 22.9991H106.864L107.417 19.6168Z" fill="black"/>
<path d="M88.1115 32.3619C85.6414 32.3619 83.5096 31.8751 81.716 30.9014C79.9326 29.9174 78.5592 28.5184 77.5958 26.7043C76.6426 24.8799 76.166 22.7122 76.166 20.2012C76.166 17.7618 76.6477 15.63 77.6112 13.8056C78.5746 11.971 79.9326 10.5464 81.6852 9.53171C83.4379 8.50678 85.5031 7.99432 87.8809 7.99432C89.5618 7.99432 91.0992 8.25568 92.4931 8.77839C93.8869 9.3011 95.0912 10.0749 96.1059 11.0998C97.1206 12.1248 97.9098 13.3905 98.4735 14.8972C99.0372 16.3936 99.3191 18.1103 99.3191 20.0474V21.923H78.7949V17.5569H92.3239C92.3137 16.7574 92.1241 16.0451 91.7551 15.4199C91.3861 14.7947 90.8788 14.3079 90.2331 13.9594C89.5976 13.6007 88.8648 13.4213 88.0346 13.4213C87.1942 13.4213 86.4409 13.6109 85.7747 13.9901C85.1085 14.3591 84.5806 14.8664 84.1912 15.5121C83.8017 16.1476 83.5967 16.8702 83.5762 17.6799V22.1229C83.5762 23.0863 83.7658 23.9319 84.145 24.6596C84.5243 25.377 85.0624 25.9356 85.7593 26.3353C86.4563 26.7351 87.2864 26.9349 88.2499 26.9349C88.9161 26.9349 89.5208 26.8427 90.064 26.6582C90.6072 26.4737 91.0735 26.2021 91.463 25.8434C91.8525 25.4846 92.1446 25.0439 92.3393 24.5212L99.2422 24.7211C98.9552 26.2687 98.3249 27.6165 97.3512 28.7644C96.3878 29.9021 95.122 30.7886 93.5538 31.4241C91.9857 32.0493 90.1716 32.3619 88.1115 32.3619Z" fill="black"/>
<path d="M60.0771 31.9159V8.30164H67.3797V12.6063H67.6257C68.0562 11.0484 68.7583 9.89027 69.7319 9.13183C70.7056 8.36314 71.8382 7.97879 73.1296 7.97879C73.478 7.97879 73.8368 8.00441 74.2057 8.05566C74.5747 8.09666 74.918 8.16328 75.2358 8.25552V14.7894C74.8771 14.6664 74.4056 14.5691 73.8214 14.4973C73.2474 14.4256 72.735 14.3897 72.284 14.3897C71.3923 14.3897 70.5877 14.5895 69.8703 14.9893C69.1631 15.3787 68.6045 15.9271 68.1945 16.6343C67.7948 17.3312 67.595 18.1512 67.595 19.0941V31.9159H60.0771Z" fill="black"/>
<path d="M44.2958 32.3619C41.8155 32.3619 39.6837 31.8546 37.9003 30.8399C36.1272 29.815 34.7589 28.3903 33.7955 26.5659C32.8423 24.7313 32.3657 22.6046 32.3657 20.1858C32.3657 17.7567 32.8423 15.63 33.7955 13.8056C34.7589 11.971 36.1272 10.5464 37.9003 9.53171C39.6837 8.50678 41.8155 7.99432 44.2958 7.99432C46.7762 7.99432 48.9029 8.50678 50.676 9.53171C52.4594 10.5464 53.8276 11.971 54.7808 13.8056C55.7442 15.63 56.226 17.7567 56.226 20.1858C56.226 22.6046 55.7442 24.7313 54.7808 26.5659C53.8276 28.3903 52.4594 29.815 50.676 30.8399C48.9029 31.8546 46.7762 32.3619 44.2958 32.3619ZM44.342 26.6889C45.2439 26.6889 46.0075 26.4122 46.6327 25.8587C47.2579 25.3053 47.7345 24.5366 48.0624 23.5527C48.4007 22.5687 48.5698 21.4311 48.5698 20.1397C48.5698 18.8278 48.4007 17.6799 48.0624 16.6959C47.7345 15.712 47.2579 14.9433 46.6327 14.3898C46.0075 13.8364 45.2439 13.5597 44.342 13.5597C43.4093 13.5597 42.6201 13.8364 41.9744 14.3898C41.3389 14.9433 40.8521 15.712 40.5139 16.6959C40.1859 17.6799 40.0219 18.8278 40.0219 20.1397C40.0219 21.4311 40.1859 22.5687 40.5139 23.5527C40.8521 24.5366 41.3389 25.3053 41.9744 25.8587C42.6201 26.4122 43.4093 26.6889 44.342 26.6889Z" fill="black"/>
<path d="M28.9182 11.8379H21.2313C21.1288 11.0487 20.9187 10.3364 20.601 9.7009C20.2832 9.06545 19.863 8.52224 19.3403 8.07128C18.8176 7.62031 18.1975 7.27696 17.4801 7.04123C16.7729 6.79525 15.9888 6.67225 15.1279 6.67225C13.6007 6.67225 12.2837 7.04635 11.1768 7.79455C10.0801 8.54274 9.23457 9.62404 8.64011 11.0384C8.0559 12.4528 7.7638 14.1644 7.7638 16.1733C7.7638 18.2641 8.06103 20.0168 8.65548 21.4312C9.26019 22.8353 10.1058 23.8961 11.1922 24.6135C12.2888 25.3207 13.5854 25.6743 15.0818 25.6743C15.9222 25.6743 16.6858 25.5667 17.3725 25.3515C18.0694 25.1363 18.6792 24.8237 19.202 24.4137C19.7349 23.9935 20.1705 23.4861 20.5087 22.8917C20.8572 22.287 21.0981 21.6054 21.2313 20.847L28.9182 20.8931C28.785 22.287 28.3801 23.6604 27.7037 25.0133C27.0375 26.3662 26.1202 27.6012 24.9518 28.7184C23.7834 29.8253 22.3587 30.7067 20.6778 31.3627C19.0072 32.0186 17.0906 32.3466 14.928 32.3466C12.0787 32.3466 9.52667 31.7214 7.27184 30.471C5.02725 29.2103 3.25413 27.3757 1.95248 24.9671C0.650827 22.5586 0 19.6273 0 16.1733C0 12.7091 0.661076 9.77265 1.98323 7.36408C3.30538 4.95551 5.09387 3.12602 7.34871 1.87561C9.60354 0.625203 12.13 0 14.928 0C16.8344 0 18.5972 0.26648 20.2166 0.799442C21.836 1.32215 23.2607 2.09084 24.4906 3.10552C25.7205 4.10995 26.7198 5.34498 27.4885 6.81062C28.2572 8.27626 28.7337 9.95201 28.9182 11.8379Z" fill="black"/>
</svg>
