<svg width="201" height="51" viewBox="0 0 201 51" fill="none" xmlns="http://www.w3.org/2000/svg">
<path d="M40.1102 24.4392L33.8971 10.9534L25.4592 22.1781L30.5891 27.9238C37.4806 35.2828 33.8946 47.5624 24.0018 49.8021C13.1146 52.2673 3.75624 40.4931 9.27524 30.6152C10.2163 28.9303 11.4888 27.4759 12.7819 26.0601L17.8009 31.4539C16.0495 33.4214 14.603 35.945 15.1977 38.6881C16.2068 43.3413 23.6196 44.3208 26.0348 40.2206C28.8574 35.4284 23.239 31.1496 20.6032 27.8037L0 4.84456L5.2914 0C5.53248 0.368533 5.94472 0.78568 6.28674 1.08145C9.38778 3.76248 14.5629 4.10373 17.9806 1.83012C18.4599 1.51114 18.8464 1.09493 19.3304 0.788503L24.1805 5.98779C21.7625 8.47813 18.4665 9.95446 15.0381 10.4121L20.422 16.4889L30.1979 3.35976H38.4173L58.0493 45.9192L49.9951 45.8524L43.625 32.0533L36.4015 32.0181C35.8927 30.1861 34.897 28.5567 33.8359 27.002L33.212 26.1915L40.9049 26.1539" fill="black"/>
<path d="M25.2485 10.0088L30.8543 14.997L25.4579 22.1777L20.4221 16.4882L25.2485 10.0088Z" fill="black"/>
<path d="M75.25 36.7123V17.5292H67.9067V13.4209H86.9928V17.5292H79.6495V36.7123H75.25Z" fill="black"/>
<path d="M99.9115 37.1976C97.5824 37.1976 95.5713 36.6908 93.8784 35.6772C92.1962 34.6635 90.8968 33.2456 89.9803 31.4232C89.0745 29.6009 88.6216 27.482 88.6216 25.0666C88.6216 22.6512 89.0745 20.5323 89.9803 18.71C90.8968 16.8876 92.1962 15.4697 93.8784 14.4561C95.5713 13.4424 97.5824 12.9356 99.9115 12.9356C102.241 12.9356 104.246 13.4424 105.928 14.4561C107.621 15.4697 108.921 16.8876 109.827 18.71C110.743 20.5323 111.201 22.6512 111.201 25.0666C111.201 27.482 110.743 29.6009 109.827 31.4232C108.921 33.2456 107.621 34.6635 105.928 35.6772C104.246 36.6908 102.241 37.1976 99.9115 37.1976ZM99.9115 33.0569C101.389 33.0784 102.618 32.7603 103.599 32.1026C104.581 31.4448 105.314 30.5121 105.799 29.3044C106.295 28.0966 106.543 26.6841 106.543 25.0666C106.543 23.4491 106.295 22.0473 105.799 20.8612C105.314 19.6751 104.581 18.7531 103.599 18.0953C102.618 17.4376 101.389 17.0979 99.9115 17.0763C98.4342 17.0548 97.205 17.3729 96.2237 18.0306C95.2424 18.6884 94.5038 19.6211 94.0078 20.8289C93.5225 22.0366 93.2799 23.4491 93.2799 25.0666C93.2799 26.6841 93.5225 28.0859 94.0078 29.272C94.5038 30.4581 95.2424 31.3801 96.2237 32.0379C97.205 32.6956 98.4342 33.0353 99.9115 33.0569Z" fill="black"/>
<path d="M114.754 36.7123V13.4209H119.153V24.1608L128.017 13.4209H133.387L123.65 24.9049L134.002 36.7123H128.437L119.153 26.1018V36.7123H114.754Z" fill="black"/>
<path d="M134.973 36.7123L142.09 13.4209H148.657L155.774 36.7123H151.245L144.904 16.1706H145.746L139.502 36.7123H134.973ZM139.243 31.8599V27.7516H151.536V31.8599H139.243Z" fill="black"/>
<path d="M158.996 36.7123V13.4209H166.534C166.717 13.4209 167.094 13.4263 167.666 13.4371C168.237 13.4478 168.787 13.4856 169.316 13.5503C171.192 13.7767 172.783 14.4291 174.087 15.5074C175.392 16.5857 176.384 17.9552 177.063 19.6158C177.743 21.2763 178.082 23.0933 178.082 25.0666C178.082 27.0399 177.743 28.8569 177.063 30.5174C176.384 32.178 175.392 33.5475 174.087 34.6258C172.783 35.7041 171.192 36.3565 169.316 36.5829C168.787 36.6476 168.237 36.6854 167.666 36.6962C167.094 36.7069 166.717 36.7123 166.534 36.7123H158.996ZM163.461 32.5716H166.534C166.825 32.5716 167.218 32.5662 167.714 32.5555C168.211 32.5339 168.658 32.4854 169.057 32.4099C170.071 32.205 170.895 31.7305 171.532 30.9865C172.179 30.2425 172.653 29.3475 172.955 28.3015C173.268 27.2556 173.424 26.1773 173.424 25.0666C173.424 23.902 173.262 22.7968 172.939 21.7508C172.626 20.7048 172.146 19.8206 171.499 19.0982C170.852 18.3757 170.038 17.9174 169.057 17.7233C168.658 17.6371 168.211 17.5885 167.714 17.5778C167.218 17.567 166.825 17.5616 166.534 17.5616H163.461V32.5716Z" fill="black"/>
<path d="M191.086 37.1976C189.36 37.1976 187.802 36.8956 186.411 36.2918C185.031 35.6772 183.893 34.8037 182.998 33.6715C182.114 32.5285 181.553 31.1698 181.316 29.5955L185.91 28.9162C186.233 30.2533 186.902 31.283 187.915 32.0055C188.929 32.728 190.083 33.0892 191.377 33.0892C192.099 33.0892 192.8 32.976 193.479 32.7495C194.159 32.5231 194.714 32.1888 195.145 31.7467C195.587 31.3046 195.809 30.7601 195.809 30.1131C195.809 29.8759 195.771 29.6494 195.695 29.4337C195.631 29.2073 195.517 28.997 195.356 28.8029C195.194 28.6088 194.962 28.4255 194.66 28.253C194.369 28.0805 193.997 27.9241 193.544 27.7839L187.495 26.0047C187.042 25.8753 186.514 25.692 185.91 25.4548C185.317 25.2176 184.74 24.8779 184.179 24.4358C183.618 23.9937 183.149 23.4114 182.772 22.6889C182.405 21.9557 182.222 21.0337 182.222 19.9231C182.222 18.3595 182.615 17.0602 183.403 16.025C184.19 14.9898 185.241 14.2188 186.557 13.712C187.872 13.2052 189.328 12.9572 190.924 12.968C192.53 12.9896 193.965 13.2645 195.226 13.7929C196.488 14.3213 197.545 15.0923 198.396 16.1059C199.248 17.1087 199.863 18.338 200.24 19.7937L195.485 20.6024C195.312 19.8476 194.994 19.2114 194.531 18.6938C194.067 18.1762 193.512 17.7826 192.865 17.5131C192.229 17.2435 191.56 17.0979 190.859 17.0763C190.169 17.0548 189.517 17.1518 188.902 17.3675C188.298 17.5724 187.802 17.8743 187.414 18.2733C187.036 18.6722 186.848 19.1467 186.848 19.6966C186.848 20.2034 187.004 20.6186 187.317 20.9421C187.63 21.2548 188.023 21.5082 188.498 21.7023C188.972 21.8964 189.457 22.0581 189.953 22.1875L193.997 23.2874C194.601 23.4491 195.269 23.6648 196.003 23.9344C196.736 24.1932 197.437 24.5598 198.105 25.0343C198.785 25.4979 199.34 26.1126 199.771 26.8782C200.213 27.6438 200.434 28.6142 200.434 29.7896C200.434 31.0404 200.17 32.1349 199.642 33.073C199.124 34.0004 198.423 34.7714 197.539 35.386C196.655 35.9899 195.652 36.4427 194.531 36.7447C193.42 37.0466 192.272 37.1976 191.086 37.1976Z" fill="black"/>
</svg>
