<svg width="229" height="58" viewBox="0 0 229 58" fill="none" xmlns="http://www.w3.org/2000/svg">
<path d="M46.2948 28.2075L39.1237 12.6423L29.3848 25.5978L35.3057 32.2294C43.2598 40.7231 39.1208 54.896 27.7026 57.4811C15.1367 60.3265 4.33542 46.7368 10.7054 35.3358C11.7916 33.3911 13.2603 31.7124 14.7528 30.0784L20.5457 36.3038C18.5241 38.5746 16.8547 41.4873 17.541 44.6534C18.7058 50.0242 27.2615 51.1547 30.0491 46.4222C33.307 40.8911 26.8223 35.9526 23.78 32.0907L0 5.59154L6.10729 0C6.38554 0.425357 6.86134 0.906825 7.25609 1.2482C10.8353 4.34262 16.8083 4.73649 20.753 2.1123C21.3062 1.74414 21.7524 1.26376 22.311 0.910083L27.9089 6.91106C25.1181 9.78538 21.3138 11.4893 17.3569 12.0175L23.5709 19.0314L34.8541 3.87781H44.3409L67 52.9995L57.7039 52.9224L50.3516 36.9956L42.0143 36.955C41.427 34.8405 40.2778 32.9599 39.0531 31.1655L38.333 30.23L47.212 30.1866" fill="url(#paint0_linear_596_18363)"/>
<path d="M29.1416 11.5518L35.6117 17.3091L29.3832 25.597L23.571 19.0302L29.1416 11.5518Z" fill="url(#paint1_linear_596_18363)"/>
<path d="M85.8249 42.2139V20.3351H77.4497V15.6494H99.2178V20.3351H90.8426V42.2139H85.8249Z" fill="#2E2E2E"/>
<path d="M113.952 42.7673C111.295 42.7673 109.002 42.1893 107.071 41.0332C105.152 39.8772 103.671 38.2599 102.625 36.1815C101.592 34.1031 101.076 31.6864 101.076 28.9316C101.076 26.1768 101.592 23.7601 102.625 21.6817C103.671 19.6033 105.152 17.9861 107.071 16.83C109.002 15.674 111.295 15.0959 113.952 15.0959C116.608 15.0959 118.896 15.674 120.814 16.83C122.745 17.9861 124.227 19.6033 125.26 21.6817C126.306 23.7601 126.828 26.1768 126.828 28.9316C126.828 31.6864 126.306 34.1031 125.26 36.1815C124.227 38.2599 122.745 39.8772 120.814 41.0332C118.896 42.1893 116.608 42.7673 113.952 42.7673ZM113.952 38.0447C115.637 38.0693 117.039 37.7065 118.158 36.9563C119.277 36.2061 120.113 35.1423 120.667 33.7649C121.233 32.3875 121.515 30.7764 121.515 28.9316C121.515 27.0869 121.233 25.4881 120.667 24.1353C120.113 22.7824 119.277 21.7309 118.158 20.9807C117.039 20.2305 115.637 19.8431 113.952 19.8185C112.267 19.7939 110.865 20.1567 109.746 20.9069C108.627 21.6571 107.784 22.7209 107.219 24.0984C106.665 25.4758 106.388 27.0869 106.388 28.9316C106.388 30.7764 106.665 32.3752 107.219 33.728C107.784 35.0808 108.627 36.1323 109.746 36.8825C110.865 37.6327 112.267 38.0201 113.952 38.0447Z" fill="#2E2E2E"/>
<path d="M130.88 42.2139V15.6494H135.898V27.8986L146.007 15.6494H152.131L141.026 28.7471L152.832 42.2139H146.487L135.898 30.1123V42.2139H130.88Z" fill="#2E2E2E"/>
<path d="M153.941 42.2139L162.058 15.6494H169.547L177.664 42.2139H172.499L165.268 18.7855H166.227L159.106 42.2139H153.941ZM158.811 36.6796V31.9939H172.831V36.6796H158.811Z" fill="#2E2E2E"/>
<path d="M181.34 42.2139V15.6494H189.936C190.145 15.6494 190.576 15.6555 191.228 15.6678C191.879 15.6801 192.507 15.7232 193.109 15.797C195.249 16.0552 197.063 16.7993 198.551 18.0291C200.039 19.2589 201.171 20.8208 201.946 22.7148C202.72 24.6087 203.108 26.681 203.108 28.9316C203.108 31.1822 202.72 33.2545 201.946 35.1484C201.171 37.0424 200.039 38.6043 198.551 39.8341C197.063 41.064 195.249 41.808 193.109 42.0663C192.507 42.1401 191.879 42.1831 191.228 42.1954C190.576 42.2077 190.145 42.2139 189.936 42.2139H181.34ZM186.431 37.4913H189.936C190.268 37.4913 190.717 37.4851 191.283 37.4728C191.849 37.4482 192.359 37.3929 192.814 37.3068C193.97 37.0731 194.911 36.532 195.637 35.6834C196.374 34.8348 196.916 33.8141 197.26 32.6211C197.617 31.4282 197.795 30.1983 197.795 28.9316C197.795 27.6034 197.61 26.3428 197.242 25.1499C196.885 23.9569 196.338 22.9485 195.6 22.1245C194.862 21.3005 193.933 20.7778 192.814 20.5564C192.359 20.458 191.849 20.4027 191.283 20.3904C190.717 20.3781 190.268 20.3719 189.936 20.3719H186.431V37.4913Z" fill="#2E2E2E"/>
<path d="M217.938 42.7673C215.97 42.7673 214.193 42.4229 212.607 41.7342C211.033 41.0332 209.735 40.037 208.714 38.7457C207.706 37.4421 207.066 35.8925 206.796 34.0969L212.035 33.3221C212.404 34.8471 213.166 36.0216 214.323 36.8456C215.479 37.6696 216.794 38.0816 218.27 38.0816C219.094 38.0816 219.894 37.9525 220.668 37.6942C221.443 37.4359 222.077 37.0547 222.569 36.5505C223.073 36.0462 223.325 35.4252 223.325 34.6873C223.325 34.4167 223.282 34.1584 223.196 33.9125C223.122 33.6542 222.993 33.4144 222.808 33.193C222.624 32.9716 222.359 32.7626 222.015 32.5658C221.683 32.369 221.259 32.1907 220.742 32.0308L213.843 30.0016C213.326 29.854 212.724 29.6449 212.035 29.3744C211.359 29.1038 210.701 28.7164 210.061 28.2122C209.422 27.7079 208.887 27.0438 208.456 26.2198C208.038 25.3835 207.829 24.332 207.829 23.0653C207.829 21.282 208.278 19.8001 209.176 18.6194C210.073 17.4388 211.273 16.5595 212.773 15.9814C214.273 15.4034 215.934 15.1205 217.754 15.1328C219.586 15.1574 221.222 15.471 222.661 16.0737C224.1 16.6763 225.305 17.5556 226.277 18.7117C227.248 19.8554 227.949 21.2574 228.38 22.9177L222.956 23.8401C222.759 22.9792 222.396 22.2536 221.868 21.6633C221.339 21.073 220.705 20.6241 219.967 20.3166C219.242 20.0091 218.479 19.8431 217.68 19.8185C216.893 19.7939 216.149 19.9046 215.448 20.1506C214.759 20.3842 214.193 20.7286 213.751 21.1836C213.32 21.6387 213.105 22.1798 213.105 22.807C213.105 23.385 213.283 23.8585 213.64 24.2275C213.997 24.5841 214.445 24.8732 214.987 25.0945C215.528 25.3159 216.081 25.5004 216.647 25.6479L221.259 26.9024C221.947 27.0869 222.71 27.3328 223.546 27.6403C224.383 27.9354 225.182 28.3536 225.944 28.8947C226.719 29.4235 227.353 30.1246 227.845 30.9977C228.349 31.8709 228.601 32.9778 228.601 34.3183C228.601 35.7449 228.3 36.9932 227.697 38.0632C227.107 39.1208 226.307 40.0001 225.299 40.7012C224.29 41.3899 223.147 41.9064 221.868 42.2507C220.601 42.5951 219.291 42.7673 217.938 42.7673Z" fill="#2E2E2E"/>
<defs>
<linearGradient id="paint0_linear_596_18363" x1="-4.34139e-07" y1="3.47086" x2="67.0295" y2="54.3539" gradientUnits="userSpaceOnUse">
<stop stop-color="#21D2F5"/>
<stop offset="1" stop-color="#DC1E74"/>
</linearGradient>
<linearGradient id="paint1_linear_596_18363" x1="32.6084" y1="14.1342" x2="25.988" y2="23.0219" gradientUnits="userSpaceOnUse">
<stop stop-color="#6193C8" stop-opacity="0"/>
<stop offset="1" stop-color="#446E9B"/>
</linearGradient>
</defs>
</svg>
