<svg width="128" height="657" viewBox="0 0 128 657" fill="none" xmlns="http://www.w3.org/2000/svg">
<path d="M124.272 660.963L2.85671 660.963L2.85671 632.394L124.272 632.394L124.272 660.963ZM124.272 640.072L101.596 640.072L101.596 573.829L124.272 573.829L124.272 640.072ZM25.5328 640.072L2.85671 640.072L2.85671 573.829L25.5328 573.829L25.5328 640.072ZM73.2061 640.072L51.0657 640.072L51.0657 580.793L73.2061 580.793L73.2061 640.072ZM124.272 481.891L93.0254 502.96L80.1697 510.459L80.1697 505.638L93.0254 513.137L124.272 534.385L124.272 564.381L61.7788 522.957L2.85671 561.525L2.85671 528.314L29.1038 510.459L43.2094 502.603L43.2094 507.245L29.1038 499.21L2.85671 481.355L2.8567 451.537L61.0646 490.104L124.272 448.68L124.272 481.891ZM41.781 334.623L41.781 364.62C35.8293 366.286 31.306 369.262 28.2111 373.547C24.9971 377.713 23.3902 382.772 23.3902 388.724C23.3902 394.795 25.0567 400.032 28.3896 404.437C31.6035 408.722 36.2459 411.995 42.3167 414.257C48.2684 416.519 55.4105 417.65 63.7429 417.65C72.0753 417.65 79.2174 416.519 85.1691 414.257C91.1208 411.995 95.7037 408.722 98.9176 404.437C102.132 400.151 103.738 394.914 103.738 388.724C103.738 383.01 102.251 378.071 99.2747 373.904C96.2988 369.619 91.9541 366.643 86.2404 364.977L86.2404 334.623C95.168 336.766 102.667 340.396 108.738 345.515C114.809 350.633 119.392 356.882 122.486 364.263C125.581 371.643 127.129 379.678 127.129 388.367C127.129 400.509 124.57 410.984 119.451 419.792C114.333 428.482 107.071 435.207 97.6677 439.969C88.145 444.611 76.8367 446.932 63.7429 446.932C50.6491 446.932 39.3408 444.551 29.818 439.79C20.1762 435.029 12.7961 428.244 7.67759 419.435C2.55911 410.627 -0.000133449 400.151 -0.00013398 388.01C-0.00013436 379.32 1.54732 371.286 4.64222 363.905C7.73711 356.406 12.3795 350.097 18.5693 344.979C24.7591 339.741 32.4963 336.289 41.781 334.623ZM124.272 318.506L2.8567 318.506L2.8567 289.938L124.272 289.938L124.272 318.506ZM124.272 297.615L101.596 297.615L101.596 231.373L124.272 231.373L124.272 297.615ZM25.5328 297.615L2.8567 297.615L2.85669 231.373L25.5328 231.373L25.5328 297.615ZM73.2061 297.615L51.0657 297.615L51.0657 238.336L73.2061 238.336L73.2061 297.615ZM124.272 213.711L2.85669 213.711L2.85669 185.143L124.272 185.143L124.272 213.711ZM124.272 192.821L101.596 192.821L101.596 126.578L124.272 126.578L124.272 192.821ZM25.5328 192.821L2.85669 192.821L2.85669 126.578L25.5328 126.578L25.5328 192.821ZM73.2061 192.821L51.0657 192.821L51.0657 133.541L73.2061 133.541L73.2061 192.821ZM124.272 108.917L2.85669 108.917L2.85669 80.3483L124.272 80.3483L124.272 108.917ZM101.06 62.3146C101.06 55.4106 99.5723 49.5184 96.5964 44.6379C93.6205 39.6385 89.3948 35.8294 83.9192 33.2106C78.3246 30.5919 71.5991 29.2825 63.7429 29.2825C55.7675 29.2825 48.9826 30.5919 43.388 33.2106C37.7933 35.8294 33.5081 39.6385 30.5322 44.638C27.5564 49.5184 26.0684 55.4106 26.0684 62.3146L26.0684 88.0261L2.85669 88.0261L2.85669 62.3146C2.85669 49.4589 5.35641 38.3886 10.3559 29.1039C15.2363 19.8192 22.1998 12.6772 31.2464 7.67772C40.2931 2.55924 51.1252 -6.21549e-06 63.7429 -6.76703e-06C76.2415 -7.31336e-06 87.0141 2.55923 96.0608 7.67772C105.107 12.6772 112.071 19.8192 116.951 29.1039C121.832 38.3886 124.272 49.4589 124.272 62.3146L124.272 88.0261L101.06 88.0261L101.06 62.3146Z" fill="#E63C14" fill-opacity="0.05"/>
</svg>
