<svg width="51" height="51" viewBox="0 0 51 51" fill="none" xmlns="http://www.w3.org/2000/svg">
<path d="M50.0214 0.681724C50.0009 0.58245 49.9526 0.491076 49.882 0.418313C49.8114 0.34555 49.7215 0.294414 49.6229 0.270899C43.0486 -1.33648 27.8582 4.39149 19.6283 12.6181C18.1604 14.0741 16.8222 15.6553 15.6289 17.3437C13.091 17.1192 10.5531 17.3066 8.39009 18.2495C2.28721 20.9356 0.510341 27.9443 0.0153308 30.9593C-0.012747 31.1243 -0.00215604 31.2936 0.0462705 31.4538C0.094697 31.614 0.179639 31.7609 0.294414 31.8827C0.40919 32.0045 0.550671 32.0981 0.707727 32.156C0.864784 32.2139 1.03313 32.2346 1.19954 32.2164L10.9998 31.1355C11.0068 31.8744 11.0514 32.6124 11.1334 33.3468C11.1827 33.8567 11.4091 34.3333 11.7732 34.6937L15.5683 38.4798C15.9291 38.8434 16.4055 39.0697 16.9153 39.1196C17.6455 39.2012 18.3794 39.2458 19.1142 39.2532L18.0389 49.0412C18.0209 49.2075 18.0418 49.3757 18.0997 49.5327C18.1577 49.6896 18.2513 49.831 18.3731 49.9457C18.4949 50.0605 18.6416 50.1454 18.8017 50.1939C18.9618 50.2424 19.131 50.2532 19.296 50.2254C22.3054 49.7427 29.3264 47.9658 31.9968 41.8629C32.9397 39.6999 33.1327 37.1744 32.915 34.6488C34.6074 33.4554 36.1928 32.1169 37.6529 30.6483C45.9087 22.4341 51.6041 7.58268 50.0214 0.681724ZM29.4162 20.8492C28.6624 20.0958 28.1489 19.1358 27.9407 18.0905C27.7325 17.0453 27.839 15.9618 28.2467 14.9771C28.6544 13.9924 29.345 13.1507 30.2311 12.5585C31.1172 11.9663 32.159 11.6503 33.2248 11.6503C34.2905 11.6503 35.3324 11.9663 36.2185 12.5585C37.1046 13.1507 37.7951 13.9924 38.2028 14.9771C38.6105 15.9618 38.717 17.0453 38.5088 18.0905C38.3007 19.1358 37.7872 20.0958 37.0333 20.8492C36.5334 21.3498 35.9397 21.7469 35.2862 22.0179C34.6327 22.2888 33.9322 22.4283 33.2248 22.4283C32.5173 22.4283 31.8168 22.2888 31.1633 22.0179C30.5098 21.7469 29.9161 21.3498 29.4162 20.8492Z" fill="#E63C14"/>
</svg>
