<svg width="60" height="57" viewBox="0 0 60 57" fill="none" xmlns="http://www.w3.org/2000/svg">
<path fill-rule="evenodd" clip-rule="evenodd" d="M37.5002 18C46.6128 18 54.0001 25.3873 54.0001 34.5C54.0001 37.9725 52.9274 41.1944 51.0954 43.8525L59.5166 52.2738L55.2739 56.5165L46.8527 48.0953C44.1945 49.9274 40.9726 51 37.5002 51C28.3874 51 21.0001 43.6127 21.0001 34.5C21.0001 25.3873 28.3874 18 37.5002 18ZM37.5002 24C31.7011 24 27.0001 28.7011 27.0001 34.5C27.0001 40.299 31.7012 45 37.5002 45C43.2991 45 48.0001 40.2989 48.0001 34.5C48.0001 28.701 43.299 24 37.5002 24ZM18.0568 32.9999C18.019 33.4951 18.0001 33.9951 18 34.5C18 36.0489 18.1806 37.5556 18.5217 39.0002L0 39V33L18.0568 32.9999ZM12.0002 0V30H3.00009V0H12.0002ZM24.0002 12L23.9998 20.429C21.3377 22.9839 19.3991 26.2867 18.522 29.9998L15.0002 30V12H24.0002ZM36.0001 6.00005V15.0569C32.7972 15.2986 29.7045 16.3325 27.0001 18.0655V5.99991L36.0001 6.00005ZM48.0001 9L48.0002 18.0655C45.2958 16.3325 42.2032 15.2986 39.0002 15.0569V9H48.0001Z" fill="#E63C14"/>
</svg>
