<svg width="27" height="27" viewBox="0 0 27 27" fill="none" xmlns="http://www.w3.org/2000/svg">
<path d="M13.1281 26.8145C10.3987 26.8145 8.05279 26.2562 6.09035 25.1396C4.13918 24.0118 2.63351 22.4441 1.57334 20.4365C0.524446 18.4177 0 16.0774 0 13.4157C0 10.7427 0.524446 8.40243 1.57334 6.39487C2.63351 4.37603 4.13918 2.80833 6.09035 1.69176C8.05279 0.56392 10.3987 0 13.1281 0C15.8575 0 18.1977 0.56392 20.1489 1.69176C22.1114 2.80833 23.617 4.37603 24.6659 6.39487C25.7261 8.40243 26.2562 10.7427 26.2562 13.4157C26.2562 16.0774 25.7261 18.4177 24.6659 20.4365C23.617 22.4441 22.1114 24.0118 20.1489 25.1396C18.1977 26.2562 15.8575 26.8145 13.1281 26.8145ZM13.1788 20.5718C14.1713 20.5718 15.0116 20.2673 15.6996 19.6583C16.3876 19.0493 16.912 18.2034 17.2729 17.1207C17.6451 16.0379 17.8312 14.786 17.8312 13.3649C17.8312 11.9213 17.6451 10.6581 17.2729 9.57538C16.912 8.49265 16.3876 7.64677 15.6996 7.03774C15.0116 6.4287 14.1713 6.12418 13.1788 6.12418C12.1525 6.12418 11.2841 6.4287 10.5735 7.03774C9.87426 7.64677 9.33854 8.49265 8.96635 9.57538C8.60544 10.6581 8.42498 11.9213 8.42498 13.3649C8.42498 14.786 8.60544 16.0379 8.96635 17.1207C9.33854 18.2034 9.87426 19.0493 10.5735 19.6583C11.2841 20.2673 12.1525 20.5718 13.1788 20.5718Z" fill="white"/>
</svg>
