<svg width="17" height="27" viewBox="0 0 17 27" fill="none" xmlns="http://www.w3.org/2000/svg">
<path d="M0 26.3408V0.35527H8.03588V5.09221H8.30656C8.78026 3.37789 9.55283 2.10343 10.6243 1.26882C11.6957 0.422941 12.942 0 14.3631 0C14.7465 0 15.1413 0.0281969 15.5473 0.0845889C15.9533 0.129702 16.3312 0.203011 16.6808 0.304519V7.49452C16.2861 7.35918 15.7672 7.25203 15.1244 7.17308C14.4928 7.09413 13.9289 7.05466 13.4326 7.05466C12.4514 7.05466 11.566 7.27459 10.7765 7.71444C9.99833 8.14302 9.38365 8.74642 8.93252 9.52463C8.49266 10.2916 8.27272 11.1938 8.27272 12.2315V26.3408H0Z" fill="white"/>
</svg>
