<svg width="26" height="38" viewBox="0 0 26 38" fill="none" xmlns="http://www.w3.org/2000/svg">
<path d="M14.5419 0.80311C14.7888 0.457418 15.1434 0.203512 15.5502 0.0812777C15.957 -0.0409566 16.3929 -0.0245939 16.7894 0.127796C17.1859 0.280185 17.5205 0.559968 17.7408 0.923193C17.961 1.28642 18.0543 1.71251 18.0061 2.13453L16.5996 14.3651L23.91 13.9956C24.2698 13.9774 24.6275 14.0609 24.942 14.2367C25.2566 14.4124 25.5152 14.6733 25.6882 14.9893C25.8613 15.3053 25.9417 15.6637 25.9204 16.0234C25.899 16.383 25.7768 16.7294 25.5676 17.0227L11.3802 36.9309C11.1333 37.2766 10.7786 37.5305 10.3718 37.6528C9.96505 37.775 9.52917 37.7586 9.13267 37.6063C8.73618 37.4539 8.40154 37.1741 8.18133 36.8109C7.96111 36.4476 7.86779 36.0215 7.91603 35.5995L9.32253 23.3689L2.01211 23.7384C1.65242 23.7563 1.29496 23.6725 0.980713 23.4966C0.666463 23.3207 0.408129 23.0598 0.235319 22.7438C0.0625082 22.4279 -0.0177873 22.0696 0.00363436 21.7101C0.025056 21.3506 0.147328 21.0044 0.356438 20.7112L14.5419 0.80311Z" fill="white"/>
</svg>
