<svg width="162" height="63" viewBox="0 0 162 63" fill="none" xmlns="http://www.w3.org/2000/svg">
<path fill-rule="evenodd" clip-rule="evenodd" d="M69.6554 2.83531L60.6035 5.33583H73.8063V18.3386L76.2567 9.43671L78.7073 0.384796L69.6554 2.83531Z" fill="black"/>
<path fill-rule="evenodd" clip-rule="evenodd" d="M4.83389 12.3018V12.3063H0.0551758V47.7253H31.8144V41.0893H7.58681V33.0285H30.3837L26.0613 26.3924H7.58681V18.9723H29.1949L38.4605 33.2314V47.7247H45.9921V33.2314L55.2102 18.9601H59.3384V47.7247H81.8926V41.0888H66.9108V12.3056H59.5085H59.3384H50.959L42.2059 26.4733L33.453 12.3056H29.7861V12.3018H4.83389Z" fill="black"/>
<path d="M8.57299 51.2426C9.06965 51.2426 9.32561 51.4947 9.3409 51.999L9.63889 59.1508H7.67902L7.42688 52.8701H7.24349L6.23491 57.3055C6.15849 57.7487 5.88344 57.9703 5.40971 57.9703H4.20627C3.74018 57.9703 3.46129 57.7487 3.3696 57.3055L2.36101 52.8701H2.17764L1.95987 59.1508H0L0.286536 51.999C0.309455 51.4947 0.565427 51.2426 1.05444 51.2426H2.97992C3.43837 51.2426 3.70961 51.468 3.79366 51.9187L4.57303 55.4374C4.61124 55.6208 4.6418 55.8118 4.66472 56.0105C4.69529 56.2015 4.72202 56.3963 4.74495 56.5949H4.87103C4.90159 56.3963 4.92833 56.2015 4.95125 56.0105C4.97418 55.8118 5.00473 55.617 5.04295 55.426L5.78792 51.9187C5.8796 51.468 6.15849 51.2426 6.62459 51.2426H8.57299ZM16.9462 51.2426C17.1219 51.2426 17.2747 51.2922 17.4047 51.3915C17.5422 51.4909 17.6339 51.6284 17.6798 51.8042L19.8459 59.1508H17.6453L16.2586 53.6953C16.228 53.5654 16.2012 53.4278 16.1783 53.2826C16.1554 53.1298 16.1325 52.9885 16.1096 52.8586H15.8001C15.7849 52.9885 15.7619 53.1298 15.7313 53.2826C15.7084 53.4278 15.6816 53.5654 15.6511 53.6953L14.2643 59.1508H12.0638L14.2299 51.8042C14.2757 51.6284 14.3637 51.4909 14.4935 51.3915C14.631 51.2922 14.7877 51.2426 14.9634 51.2426H16.9462ZM18.0351 55.7239V57.2712H13.8746V55.7239H18.0351ZM25.6332 51.128C26.3744 51.128 26.978 51.2005 27.4441 51.3457C27.9101 51.4909 28.2502 51.7353 28.4642 52.0792C28.6857 52.4154 28.7965 52.893 28.7965 53.5119C28.7965 53.848 28.7468 54.1537 28.6476 54.4288C28.5558 54.7038 28.3954 54.9293 28.1662 55.105C27.937 55.2731 27.6237 55.38 27.2263 55.426V55.4947C27.3715 55.51 27.5243 55.5558 27.6848 55.6323C27.8529 55.7086 28.0057 55.8347 28.1433 56.0105C28.2885 56.1786 28.3915 56.4116 28.4526 56.7096L29.1059 59.1508H26.8481L26.2865 56.7783C26.233 56.5338 26.1489 56.3734 26.0344 56.297C25.9197 56.2129 25.7516 56.1709 25.5301 56.1709C24.98 56.1633 24.5253 56.1595 24.1662 56.1595C23.8071 56.1595 23.5014 56.1556 23.2493 56.148C23.0047 56.1404 22.7717 56.1289 22.5502 56.1135L22.5845 54.6122H25.5874C25.8625 54.6122 26.0726 54.5855 26.2178 54.5319C26.3706 54.4784 26.4775 54.383 26.5387 54.2454C26.5998 54.1002 26.6303 53.9016 26.6303 53.6494C26.6303 53.3897 26.5998 53.191 26.5387 53.0534C26.4775 52.9159 26.3706 52.8204 26.2178 52.7669C26.0726 52.7134 25.8625 52.6867 25.5874 52.6867C24.831 52.6867 24.1891 52.6905 23.6619 52.6981C23.1423 52.7058 22.787 52.7172 22.596 52.7325L22.4241 51.2426C22.7603 51.2043 23.0774 51.1776 23.3753 51.1623C23.6733 51.147 23.9981 51.1394 24.3496 51.1394C24.7087 51.1318 25.1366 51.128 25.6332 51.128ZM24.5329 51.2426V59.1508H22.4241V51.2426H24.5329ZM38.7115 51.2426L36.786 54.383C36.6943 54.5357 36.5911 54.6694 36.4765 54.7841C36.3619 54.891 36.2512 54.9751 36.1442 55.0362V55.0705C36.2512 55.1318 36.3772 55.231 36.5224 55.3686C36.6675 55.4985 36.7822 55.6437 36.8662 55.8042L38.8375 59.1508H36.4536L34.1958 55.0133L36.4077 51.2426H38.7115ZM34.1269 51.2426V53.3515C34.1269 53.6265 34.1002 53.9092 34.0467 54.1996C34.0009 54.4823 33.9283 54.7497 33.829 55.0018C33.9054 55.2386 33.9742 55.4947 34.0353 55.7697C34.0964 56.0372 34.1269 56.2816 34.1269 56.5033V59.1508H31.9837V51.2426H34.1269ZM34.872 54.3256V55.7582H33.4966V54.3256H34.872ZM43.0382 51.2081C43.4813 51.2081 43.9322 51.2081 44.3906 51.2081C44.8567 51.2081 45.3114 51.2196 45.7545 51.2426C46.2053 51.2579 46.6179 51.2884 46.9923 51.3342L46.8892 52.8701H43.9322C43.7641 52.8701 43.6342 52.9159 43.5424 53.0076C43.4508 53.0916 43.405 53.2101 43.405 53.3629V57.0305C43.405 57.1834 43.4508 57.3055 43.5424 57.3973C43.6342 57.4813 43.7641 57.5234 43.9322 57.5234H46.8892L46.9923 59.0591C46.6179 59.0974 46.2053 59.1279 45.7545 59.1508C45.3114 59.1661 44.8567 59.1737 44.3906 59.1737C43.9322 59.1814 43.4813 59.1852 43.0382 59.1852C42.511 59.1852 42.0831 59.0285 41.7545 58.7152C41.4259 58.4021 41.2616 57.9932 41.2616 57.4889V52.9044C41.2616 52.3925 41.4259 51.9837 41.7545 51.6781C42.0831 51.3648 42.511 51.2081 43.0382 51.2081ZM41.468 54.3485H46.4765V55.8042H41.468V54.3485ZM53.9136 51.2426V59.1508H51.7589V51.2426H53.9136ZM56.1944 51.2426V52.8815H49.4667V51.2426H56.1944ZM61.126 51.2426V59.1508H58.9942V51.2426H61.126ZM71.4596 51.2426V58.3943C71.4596 58.8986 71.2112 59.1508 70.7146 59.1508H69.7519C69.5227 59.1508 69.3508 59.0974 69.2361 58.9904C69.1291 58.8833 69.0184 58.7267 68.9037 58.5204L66.9668 55.1508C66.875 54.9598 66.7834 54.7536 66.6917 54.5319C66.6 54.3103 66.5236 54.0888 66.4625 53.8672H66.3594C66.3899 54.0888 66.4129 54.318 66.4281 54.5549C66.451 54.7841 66.4625 55.0057 66.4625 55.2196V59.1508H64.4568V51.999C64.4568 51.4947 64.7089 51.2426 65.2132 51.2426H66.1645C66.3938 51.2426 66.5619 51.2961 66.6688 51.4031C66.7758 51.51 66.8904 51.6666 67.0126 51.8729L68.8694 55.1165C68.9764 55.2999 69.0795 55.5023 69.1789 55.7239C69.2781 55.9454 69.3737 56.1786 69.4653 56.423H69.5685C69.5456 56.1862 69.5265 55.9532 69.5112 55.7239C69.4958 55.4947 69.4882 55.2655 69.4882 55.0362L69.4768 51.2426H71.4596ZM78.1695 51.0821C78.5592 51.0821 78.903 51.0936 79.2011 51.1165C79.5066 51.1394 79.7894 51.1738 80.0492 51.2196C80.3166 51.2579 80.5802 51.3151 80.84 51.3915L80.6795 52.9502C80.4045 52.9426 80.137 52.9388 79.8773 52.9388C79.6174 52.9311 79.3539 52.9273 79.0864 52.9273C78.819 52.9197 78.521 52.9159 78.1924 52.9159C77.925 52.9159 77.6996 52.9464 77.5162 53.0076C77.3405 53.0687 77.1991 53.1834 77.0922 53.3515C76.9928 53.5196 76.9203 53.7564 76.8743 54.0621C76.8285 54.36 76.8056 54.7421 76.8056 55.2081C76.8056 55.7965 76.84 56.2549 76.9088 56.5835C76.9852 56.912 77.1075 57.1412 77.2756 57.2712C77.4437 57.4011 77.6767 57.466 77.9747 57.466C78.1734 57.466 78.3529 57.4545 78.5134 57.4316C78.6815 57.4011 78.8305 57.3629 78.9603 57.317C79.0979 57.2635 79.2163 57.2177 79.3156 57.1795L79.5335 58.1193C79.4341 58.2721 79.2736 58.4441 79.052 58.6351C78.8381 58.8184 78.5706 58.9789 78.2497 59.1165C77.9288 59.2463 77.5582 59.3113 77.138 59.3113C76.542 59.3113 76.0492 59.1737 75.6594 58.8986C75.2774 58.616 74.9948 58.1728 74.8114 57.5692C74.6357 56.9655 74.5478 56.1747 74.5478 55.1967C74.5478 54.1728 74.6624 53.3629 74.8916 52.7669C75.1284 52.1633 75.5106 51.7315 76.0378 51.4718C76.5726 51.2119 77.2832 51.0821 78.1695 51.0821ZM81.1495 54.6007V59.1508H79.5678L79.2812 57.9359L79.0864 57.5577V54.6007H81.1495Z" fill="black"/>
<path d="M90.0345 0H89.3398V62.1681H90.0345V0Z" fill="black"/>
<path d="M100.792 6.06264C101.466 6.06264 102.146 6.06867 102.832 6.0807C103.519 6.0807 104.193 6.09275 104.855 6.11683C105.517 6.14092 106.138 6.18305 106.715 6.24325L106.589 8.24792H101.803C101.502 8.24792 101.273 8.32618 101.117 8.48271C100.972 8.63923 100.9 8.86799 100.9 9.16898V15.5262C100.9 15.8272 100.972 16.0559 101.117 16.2124C101.273 16.3689 101.502 16.4472 101.803 16.4472H106.589L106.715 18.4518C106.138 18.5 105.517 18.5421 104.855 18.5783C104.193 18.6024 103.519 18.6144 102.832 18.6144C102.146 18.6265 101.466 18.6324 100.792 18.6324C99.9971 18.6324 99.353 18.4038 98.8593 17.9462C98.3777 17.4766 98.1369 16.8686 98.1369 16.1221V8.573C98.1369 7.81448 98.3777 7.20645 98.8593 6.74893C99.353 6.29141 99.9971 6.06264 100.792 6.06264ZM98.4619 11.1195H105.921V13.07H98.4619V11.1195ZM118.637 6.11683L115.567 12.185L118.872 18.5783H116.055L112.948 12.185L115.838 6.11683H118.637ZM110.637 6.11683L113.526 12.185L110.42 18.5783H107.603L110.89 12.185L107.837 6.11683H110.637ZM114.574 11.3001V12.9977H111.738V11.3001H114.574ZM124.814 5.90011C125.404 5.90011 125.904 5.91817 126.313 5.95429C126.735 5.97837 127.12 6.02051 127.469 6.0807C127.818 6.14092 128.18 6.22519 128.553 6.33356L128.336 8.35628C127.939 8.33221 127.572 8.31415 127.234 8.3021C126.909 8.29007 126.554 8.28404 126.169 8.28404C125.796 8.27201 125.344 8.26598 124.814 8.26598C124.2 8.26598 123.719 8.38639 123.369 8.62718C123.032 8.86799 122.792 9.28939 122.647 9.89139C122.503 10.4814 122.43 11.3001 122.43 12.3476C122.43 13.395 122.503 14.2198 122.647 14.8217C122.792 15.4118 123.032 15.8272 123.369 16.068C123.719 16.3087 124.2 16.4292 124.814 16.4292C125.645 16.4292 126.343 16.4171 126.909 16.393C127.475 16.3689 128.035 16.3268 128.589 16.2666L128.824 18.2894C128.246 18.47 127.656 18.5964 127.054 18.6686C126.452 18.7529 125.705 18.795 124.814 18.795C123.526 18.795 122.491 18.5903 121.708 18.181C120.937 17.7595 120.378 17.0794 120.028 16.1402C119.691 15.2011 119.523 13.9369 119.523 12.3476C119.523 10.7583 119.691 9.49407 120.028 8.55494C120.378 7.61581 120.937 6.94157 121.708 6.53221C122.491 6.11081 123.526 5.90011 124.814 5.90011ZM133.12 6.06264C133.794 6.06264 134.474 6.06867 135.16 6.0807C135.847 6.0807 136.521 6.09275 137.184 6.11683C137.846 6.14092 138.466 6.18305 139.044 6.24325L138.917 8.24792H134.131C133.831 8.24792 133.602 8.32618 133.445 8.48271C133.3 8.63923 133.228 8.86799 133.228 9.16898V15.5262C133.228 15.8272 133.3 16.0559 133.445 16.2124C133.602 16.3689 133.831 16.4472 134.131 16.4472H138.917L139.044 18.4518C138.466 18.5 137.846 18.5421 137.184 18.5783C136.521 18.6024 135.847 18.6144 135.16 18.6144C134.474 18.6265 133.794 18.6324 133.12 18.6324C132.325 18.6324 131.681 18.4038 131.187 17.9462C130.706 17.4766 130.465 16.8686 130.465 16.1221V8.573C130.465 7.81448 130.706 7.20645 131.187 6.74893C131.681 6.29141 132.325 6.06264 133.12 6.06264ZM130.79 11.1195H138.248V13.07H130.79V11.1195ZM143.561 6.06264C144.235 6.06264 144.916 6.06867 145.602 6.0807C146.288 6.0807 146.962 6.09275 147.625 6.11683C148.287 6.14092 148.907 6.18305 149.485 6.24325L149.359 8.24792H144.572C144.271 8.24792 144.043 8.32618 143.887 8.48271C143.742 8.63923 143.669 8.86799 143.669 9.16898V15.5262C143.669 15.8272 143.742 16.0559 143.887 16.2124C144.043 16.3689 144.271 16.4472 144.572 16.4472H149.359L149.485 18.4518C148.907 18.5 148.287 18.5421 147.625 18.5783C146.962 18.6024 146.288 18.6144 145.602 18.6144C144.916 18.6265 144.235 18.6324 143.561 18.6324C142.766 18.6324 142.123 18.4038 141.629 17.9462C141.147 17.4766 140.906 16.8686 140.906 16.1221V8.573C140.906 7.81448 141.147 7.20645 141.629 6.74893C142.123 6.29141 142.766 6.06264 143.561 6.06264ZM141.231 11.1195H148.69V13.07H141.231V11.1195ZM156.332 5.93623C157.319 5.93623 158.15 6.04458 158.824 6.26131C159.511 6.46599 160.058 6.80913 160.468 7.29074C160.889 7.77235 161.196 8.42853 161.388 9.25929C161.582 10.078 161.678 11.1074 161.678 12.3476C161.678 13.5876 161.582 14.6231 161.388 15.4539C161.196 16.2727 160.889 16.9228 160.468 17.4044C160.058 17.886 159.511 18.2352 158.824 18.4518C158.15 18.6565 157.319 18.7589 156.332 18.7589C155.38 18.7589 154.507 18.7409 153.713 18.7047C152.918 18.6686 152.16 18.6265 151.437 18.5783L152.593 16.5375C153.051 16.5616 153.592 16.5857 154.219 16.6098C154.857 16.6218 155.562 16.6278 156.332 16.6278C156.945 16.6278 157.427 16.5074 157.777 16.2666C158.138 16.0137 158.391 15.5743 158.535 14.9483C158.692 14.3222 158.77 13.4552 158.77 12.3476C158.77 11.2399 158.692 10.373 158.535 9.74692C158.391 9.12083 158.138 8.68137 157.777 8.42853C157.427 8.17569 156.945 8.04926 156.332 8.04926C155.597 8.04926 154.942 8.05528 154.364 8.06732C153.786 8.06732 153.22 8.06732 152.666 8.06732L151.437 6.11683C152.16 6.06867 152.912 6.02653 153.695 5.99041C154.49 5.95429 155.368 5.93623 156.332 5.93623ZM154.201 6.11683V18.5783H151.437V6.11683H154.201ZM108.016 25.8627L103.808 34.369H101.207L96.981 25.8627H99.8525L101.948 30.4499C102.056 30.6907 102.146 30.9496 102.218 31.2266C102.291 31.5035 102.357 31.7683 102.417 32.0212H102.598C102.67 31.7683 102.742 31.5035 102.814 31.2266C102.887 30.9496 102.971 30.6907 103.067 30.4499L105.144 25.8627H108.016ZM103.88 32.6894V38.3242H101.117V32.6894H103.88ZM113.882 25.6098C114.869 25.6098 115.706 25.7182 116.392 25.935C117.078 26.1396 117.626 26.4888 118.035 26.9824C118.457 27.464 118.764 28.1262 118.957 28.969C119.149 29.7998 119.245 30.8413 119.245 32.0935C119.245 33.3456 119.149 34.3931 118.957 35.2359C118.764 36.0667 118.457 36.7289 118.035 37.2225C117.626 37.704 117.078 38.0533 116.392 38.27C115.706 38.4747 114.869 38.5771 113.882 38.5771C112.894 38.5771 112.058 38.4747 111.371 38.27C110.685 38.0533 110.131 37.704 109.71 37.2225C109.288 36.7289 108.981 36.0667 108.789 35.2359C108.596 34.3931 108.5 33.3456 108.5 32.0935C108.5 30.8413 108.596 29.7998 108.789 28.969C108.981 28.1262 109.288 27.464 109.71 26.9824C110.131 26.4888 110.685 26.1396 111.371 25.935C112.058 25.7182 112.894 25.6098 113.882 25.6098ZM113.882 27.7952C113.244 27.7952 112.744 27.9216 112.383 28.1744C112.033 28.4272 111.781 28.8667 111.624 29.4928C111.48 30.1068 111.407 30.9737 111.407 32.0935C111.407 33.2011 111.48 34.068 111.624 34.6941C111.781 35.3202 112.033 35.7596 112.383 36.0125C112.744 36.2654 113.244 36.3917 113.882 36.3917C114.508 36.3917 114.995 36.2654 115.344 36.0125C115.706 35.7596 115.959 35.3202 116.103 34.6941C116.26 34.068 116.338 33.2011 116.338 32.0935C116.338 30.9737 116.26 30.1068 116.103 29.4928C115.959 28.8667 115.706 28.4272 115.344 28.1744C114.995 27.9216 114.508 27.7952 113.882 27.7952ZM131.318 25.8627V33.3576C131.318 34.6219 131.162 35.6393 130.849 36.4098C130.536 37.1683 130.018 37.7222 129.295 38.0713C128.585 38.4084 127.634 38.5771 126.442 38.5771C125.178 38.5771 124.166 38.4084 123.408 38.0713C122.649 37.7222 122.102 37.1683 121.764 36.4098C121.427 35.6393 121.259 34.6219 121.259 33.3576V25.8627H124.022V33.3576C124.022 34.1402 124.088 34.7543 124.221 35.1997C124.365 35.6332 124.606 35.9402 124.943 36.1208C125.28 36.3014 125.732 36.3917 126.298 36.3917C126.863 36.3917 127.309 36.3014 127.634 36.1208C127.971 35.9402 128.206 35.6332 128.338 35.1997C128.483 34.7543 128.555 34.1402 128.555 33.3576V25.8627H131.318ZM138.534 25.6821C139.629 25.6821 140.515 25.7965 141.189 26.0253C141.875 26.242 142.375 26.6212 142.687 27.163C143.013 27.6928 143.176 28.4332 143.176 29.3845C143.176 29.9624 143.097 30.474 142.94 30.9195C142.797 31.353 142.549 31.7021 142.2 31.967C141.851 32.2319 141.375 32.4004 140.773 32.4727V32.563C140.991 32.5991 141.213 32.6833 141.442 32.8159C141.683 32.9483 141.905 33.147 142.109 33.4118C142.315 33.6647 142.465 34.0078 142.561 34.4412L143.646 38.3242H140.738L139.781 34.5315C139.672 34.1222 139.51 33.8393 139.292 33.6827C139.088 33.5262 138.799 33.4479 138.426 33.4479C137.607 33.4479 136.915 33.4479 136.349 33.4479C135.795 33.4359 135.325 33.4238 134.94 33.4118C134.567 33.3998 134.23 33.3877 133.929 33.3758L133.983 31.371H138.48C138.962 31.371 139.341 31.3228 139.618 31.2266C139.907 31.1181 140.106 30.9316 140.214 30.6666C140.334 30.4018 140.394 30.0346 140.394 29.5651C140.394 29.0834 140.334 28.7163 140.214 28.4634C140.106 28.1985 139.907 28.0179 139.618 27.9216C139.341 27.8132 138.962 27.759 138.48 27.759C137.348 27.759 136.391 27.765 135.608 27.777C134.826 27.7891 134.29 27.8072 134 27.8312L133.731 25.8627C134.236 25.8026 134.711 25.7603 135.156 25.7362C135.603 25.7123 136.09 25.7001 136.62 25.7001C137.149 25.6882 137.788 25.6821 138.534 25.6821ZM136.457 25.8627V38.3242H133.731V25.8627H136.457ZM100.954 45.6086V54.9276C100.954 55.2286 101.038 55.4573 101.207 55.6138C101.376 55.7703 101.616 55.8487 101.93 55.8487H106.282L106.408 57.9255C105.554 58.0219 104.657 58.0761 103.717 58.0881C102.79 58.1122 101.863 58.1242 100.936 58.1242C100.033 58.1242 99.3469 57.8834 98.8773 57.4019C98.4198 56.9082 98.191 56.2821 98.191 55.5235V45.6086H100.954ZM110.673 45.6086V58.0701H107.928V45.6086H110.673ZM125.952 45.6086C126.602 45.6086 126.939 45.9457 126.963 46.62L127.433 58.0701H124.886L124.471 47.7397H124.146L122.141 55.5055C122.033 56.0834 121.671 56.3724 121.057 56.3724H119.324C118.71 56.3724 118.336 56.0834 118.204 55.5055L116.199 47.7397H115.892L115.513 58.0701H112.948L113.418 46.62C113.442 45.9457 113.785 45.6086 114.447 45.6086H117.03C117.62 45.6086 117.981 45.9036 118.114 46.4935L119.721 52.7604C119.793 53.0494 119.853 53.3444 119.902 53.6453C119.95 53.9342 120.004 54.2292 120.064 54.5303H120.299C120.359 54.2292 120.413 53.9342 120.461 53.6453C120.522 53.3444 120.582 53.0433 120.642 52.7424L122.231 46.4935C122.352 45.9036 122.713 45.6086 123.315 45.6086H125.952ZM132.472 45.6086V58.0701H129.727V45.6086H132.472ZM140.544 45.6086V58.0701H137.781V45.6086H140.544ZM144.301 45.6086V47.7758H134.043V45.6086H144.301ZM149.964 45.3737C150.578 45.3737 151.247 45.4099 151.969 45.4821C152.692 45.5424 153.396 45.6748 154.082 45.8795L153.902 47.7035C153.371 47.6915 152.751 47.6794 152.042 47.6674C151.331 47.6554 150.633 47.6494 149.946 47.6494C149.609 47.6494 149.321 47.6614 149.08 47.6855C148.851 47.6976 148.664 47.7456 148.519 47.83C148.375 47.9021 148.273 48.0165 148.212 48.173C148.152 48.3296 148.123 48.5464 148.123 48.8232C148.123 49.2447 148.219 49.5517 148.411 49.7443C148.616 49.937 148.959 50.1116 149.44 50.2681L151.843 51.0446C152.842 51.3817 153.534 51.8393 153.92 52.4172C154.305 52.9951 154.498 53.7536 154.498 54.6929C154.498 55.4032 154.414 55.9931 154.244 56.4628C154.075 56.9323 153.811 57.2994 153.45 57.5643C153.088 57.8293 152.613 58.0158 152.023 58.1242C151.433 58.2446 150.711 58.3048 149.856 58.3048C149.447 58.3048 148.863 58.2748 148.104 58.2145C147.346 58.1664 146.479 58.0339 145.503 57.8172L145.683 55.8667C146.394 55.8788 147.009 55.8968 147.526 55.9209C148.056 55.9329 148.507 55.945 148.881 55.957C149.254 55.957 149.579 55.957 149.856 55.957C150.337 55.957 150.711 55.9268 150.975 55.8667C151.253 55.8065 151.445 55.6861 151.553 55.5055C151.663 55.3249 151.716 55.0661 151.716 54.7289C151.716 54.44 151.674 54.2112 151.59 54.0427C151.518 53.8621 151.391 53.7236 151.211 53.6272C151.042 53.5189 150.807 53.4225 150.507 53.3383L147.978 52.4715C147.026 52.1222 146.352 51.6648 145.955 51.0989C145.557 50.5329 145.36 49.7864 145.36 48.8594C145.36 48.137 145.444 47.553 145.612 47.1076C145.793 46.65 146.064 46.2948 146.425 46.0419C146.797 45.7892 147.274 45.6146 147.852 45.5183C148.441 45.4219 149.146 45.3737 149.964 45.3737Z" fill="black"/>
</svg>
