<svg width="1440" height="1149" viewBox="0 0 1440 1149" fill="none" xmlns="http://www.w3.org/2000/svg">
<mask id="mask0_596_18038" style="mask-type:alpha" maskUnits="userSpaceOnUse" x="-793" y="0" width="2948" height="1365">
<path d="M2087.05 0.872375H2154V72.6092M2087.05 0.872375V72.6092M2087.05 0.872375H2020.09M2087.05 72.6092H2154M2087.05 72.6092V144.346M2087.05 72.6092H2020.09M2154 72.6092V144.346M2087.05 144.346H2154M2087.05 144.346V216.083M2087.05 144.346H2020.09M2154 144.346V216.083M2087.05 216.083H2154M2087.05 216.083V287.82M2087.05 216.083H2020.09M2154 216.083V287.82M2087.05 287.82H2154M2087.05 287.82V359.557M2087.05 287.82H2020.09M2154 287.82V359.557M2087.05 359.557H2154M2087.05 359.557V431.293M2087.05 359.557H2020.09M2154 359.557V431.293M2087.05 431.293H2154M2087.05 431.293V503.03M2087.05 431.293H2020.09M2154 431.293V503.03M2087.05 503.03H2154M2087.05 503.03V574.767M2087.05 503.03H2020.09M2154 503.03V574.767M2087.05 574.767H2154M2087.05 574.767V646.504M2087.05 574.767H2020.09M2154 574.767V646.504M2087.05 646.504H2154M2087.05 646.504V718.241M2087.05 646.504H2020.09M2154 646.504V718.241M2087.05 718.241H2154M2087.05 718.241V789.978M2087.05 718.241H2020.09M2154 718.241V789.978M2087.05 789.978H2154M2087.05 789.978V861.714M2087.05 789.978H2020.09M2154 789.978V861.714M2087.05 861.714H2154M2087.05 861.714V933.451M2087.05 861.714H2020.09M2154 861.714V933.451M2087.05 933.451H2154M2087.05 933.451V1005.19M2087.05 933.451H2020.09M2154 933.451V1005.19M2087.05 1005.19H2154M2087.05 1005.19V1076.92M2087.05 1005.19H2020.09M2154 1005.19V1076.92M2087.05 1076.92H2154M2087.05 1076.92V1148.66M2087.05 1076.92H2020.09M2154 1076.92V1148.66M2087.05 1148.66H2154M2087.05 1148.66V1220.4M2087.05 1148.66H2020.09M2154 1148.66V1220.4M2087.05 1220.4H2154M2087.05 1220.4V1292.14M2087.05 1220.4H2020.09M2154 1220.4V1292.14M2087.05 1292.14H2154M2087.05 1292.14V1363.87M2087.05 1292.14H2020.09M2154 1292.14V1363.87H2087.05M2087.05 1363.87H2020.09M2020.09 0.872375V72.6092M2020.09 0.872375H1953.14M2020.09 72.6092V144.346M2020.09 72.6092H1953.14M2020.09 144.346V216.083M2020.09 144.346H1953.14M2020.09 216.083V287.82M2020.09 216.083H1953.14M2020.09 287.82V359.557M2020.09 287.82H1953.14M2020.09 359.557V431.293M2020.09 359.557H1953.14M2020.09 431.293V503.03M2020.09 431.293H1953.14M2020.09 503.03V574.767M2020.09 503.03H1953.14M2020.09 574.767V646.504M2020.09 574.767H1953.14M2020.09 646.504V718.241M2020.09 646.504H1953.14M2020.09 718.241V789.978M2020.09 718.241H1953.14M2020.09 789.978V861.714M2020.09 789.978H1953.14M2020.09 861.714V933.451M2020.09 861.714H1953.14M2020.09 933.451V1005.19M2020.09 933.451H1953.14M2020.09 1005.19V1076.92M2020.09 1005.19H1953.14M2020.09 1076.92V1148.66M2020.09 1076.92H1953.14M2020.09 1148.66V1220.4M2020.09 1148.66H1953.14M2020.09 1220.4V1292.14M2020.09 1220.4H1953.14M2020.09 1292.14V1363.87M2020.09 1292.14H1953.14M2020.09 1363.87H1953.14M1953.14 0.872375V72.6092M1953.14 0.872375H1886.18M1953.14 72.6092V144.346M1953.14 72.6092H1886.18M1953.14 144.346V216.083M1953.14 144.346H1886.18M1953.14 216.083V287.82M1953.14 216.083H1886.18M1953.14 287.82V359.557M1953.14 287.82H1886.18M1953.14 359.557V431.293M1953.14 359.557H1886.18M1953.14 431.293V503.03M1953.14 431.293H1886.18M1953.14 503.03V574.767M1953.14 503.03H1886.18M1953.14 574.767V646.504M1953.14 574.767H1886.18M1953.14 646.504V718.241M1953.14 646.504H1886.18M1953.14 718.241V789.978M1953.14 718.241H1886.18M1953.14 789.978V861.714M1953.14 789.978H1886.18M1953.14 861.714V933.451M1953.14 861.714H1886.18M1953.14 933.451V1005.19M1953.14 933.451H1886.18M1953.14 1005.19V1076.92M1953.14 1005.19H1886.18M1953.14 1076.92V1148.66M1953.14 1076.92H1886.18M1953.14 1148.66V1220.4M1953.14 1148.66H1886.18M1953.14 1220.4V1292.14M1953.14 1220.4H1886.18M1953.14 1292.14V1363.87M1953.14 1292.14H1886.18M1953.14 1363.87H1886.18M1886.18 0.872375V72.6092M1886.18 0.872375H1819.23M1886.18 72.6092V144.346M1886.18 72.6092H1819.23M1886.18 144.346V216.083M1886.18 144.346H1819.23M1886.18 216.083V287.82M1886.18 216.083H1819.23M1886.18 287.82V359.557M1886.18 287.82H1819.23M1886.18 359.557V431.293M1886.18 359.557H1819.23M1886.18 431.293V503.03M1886.18 431.293H1819.23M1886.18 503.03V574.767M1886.18 503.03H1819.23M1886.18 574.767V646.504M1886.18 574.767H1819.23M1886.18 646.504V718.241M1886.18 646.504H1819.23M1886.18 718.241V789.978M1886.18 718.241H1819.23M1886.18 789.978V861.714M1886.18 789.978H1819.23M1886.18 861.714V933.451M1886.18 861.714H1819.23M1886.18 933.451V1005.19M1886.18 933.451H1819.23M1886.18 1005.19V1076.92M1886.18 1005.19H1819.23M1886.18 1076.92V1148.66M1886.18 1076.92H1819.23M1886.18 1148.66V1220.4M1886.18 1148.66H1819.23M1886.18 1220.4V1292.14M1886.18 1220.4H1819.23M1886.18 1292.14V1363.87M1886.18 1292.14H1819.23M1886.18 1363.87H1819.23M1819.23 0.872375V72.6092M1819.23 0.872375H1752.27M1819.23 72.6092V144.346M1819.23 72.6092H1752.27M1819.23 144.346V216.083M1819.23 144.346H1752.27M1819.23 216.083V287.82M1819.23 216.083H1752.27M1819.23 287.82V359.557M1819.23 287.82H1752.27M1819.23 359.557V431.293M1819.23 359.557H1752.27M1819.23 431.293V503.03M1819.23 431.293H1752.27M1819.23 503.03V574.767M1819.23 503.03H1752.27M1819.23 574.767V646.504M1819.23 574.767H1752.27M1819.23 646.504V718.241M1819.23 646.504H1752.27M1819.23 718.241V789.978M1819.23 718.241H1752.27M1819.23 789.978V861.714M1819.23 789.978H1752.27M1819.23 861.714V933.451M1819.23 861.714H1752.27M1819.23 933.451V1005.19M1819.23 933.451H1752.27M1819.23 1005.19V1076.92M1819.23 1005.19H1752.27M1819.23 1076.92V1148.66M1819.23 1076.92H1752.27M1819.23 1148.66V1220.4M1819.23 1148.66H1752.27M1819.23 1220.4V1292.14M1819.23 1220.4H1752.27M1819.23 1292.14V1363.87M1819.23 1292.14H1752.27M1819.23 1363.87H1752.27M1752.27 0.872375V72.6092M1752.27 0.872375H1685.32M1752.27 72.6092V144.346M1752.27 72.6092H1685.32M1752.27 144.346V216.083M1752.27 144.346H1685.32M1752.27 216.083V287.82M1752.27 216.083H1685.32M1752.27 287.82V359.557M1752.27 287.82H1685.32M1752.27 359.557V431.293M1752.27 359.557H1685.32M1752.27 431.293V503.03M1752.27 431.293H1685.32M1752.27 503.03V574.767M1752.27 503.03H1685.32M1752.27 574.767V646.504M1752.27 574.767H1685.32M1752.27 646.504V718.241M1752.27 646.504H1685.32M1752.27 718.241V789.978M1752.27 718.241H1685.32M1752.27 789.978V861.714M1752.27 789.978H1685.32M1752.27 861.714V933.451M1752.27 861.714H1685.32M1752.27 933.451V1005.19M1752.27 933.451H1685.32M1752.27 1005.19V1076.92M1752.27 1005.19H1685.32M1752.27 1076.92V1148.66M1752.27 1076.92H1685.32M1752.27 1148.66V1220.4M1752.27 1148.66H1685.32M1752.27 1220.4V1292.14M1752.27 1220.4H1685.32M1752.27 1292.14V1363.87M1752.27 1292.14H1685.32M1752.27 1363.87H1685.32M1685.32 0.872375V72.6092M1685.32 0.872375H1618.36M1685.32 72.6092V144.346M1685.32 72.6092H1618.36M1685.32 144.346V216.083M1685.32 144.346H1618.36M1685.32 216.083V287.82M1685.32 216.083H1618.36M1685.32 287.82V359.557M1685.32 287.82H1618.36M1685.32 359.557V431.293M1685.32 359.557H1618.36M1685.32 431.293V503.03M1685.32 431.293H1618.36M1685.32 503.03V574.767M1685.32 503.03H1618.36M1685.32 574.767V646.504M1685.32 574.767H1618.36M1685.32 646.504V718.241M1685.32 646.504H1618.36M1685.32 718.241V789.978M1685.32 718.241H1618.36M1685.32 789.978V861.714M1685.32 789.978H1618.36M1685.32 861.714V933.451M1685.32 861.714H1618.36M1685.32 933.451V1005.19M1685.32 933.451H1618.36M1685.32 1005.19V1076.92M1685.32 1005.19H1618.36M1685.32 1076.92V1148.66M1685.32 1076.92H1618.36M1685.32 1148.66V1220.4M1685.32 1148.66H1618.36M1685.32 1220.4V1292.14M1685.32 1220.4H1618.36M1685.32 1292.14V1363.87M1685.32 1292.14H1618.36M1685.32 1363.87H1618.36M1618.36 0.872375V72.6092M1618.36 0.872375H1551.41M1618.36 72.6092V144.346M1618.36 72.6092H1551.41M1618.36 144.346V216.083M1618.36 144.346H1551.41M1618.36 216.083V287.82M1618.36 216.083H1551.41M1618.36 287.82V359.557M1618.36 287.82H1551.41M1618.36 359.557V431.293M1618.36 359.557H1551.41M1618.36 431.293V503.03M1618.36 431.293H1551.41M1618.36 503.03V574.767M1618.36 503.03H1551.41M1618.36 574.767V646.504M1618.36 574.767H1551.41M1618.36 646.504V718.241M1618.36 646.504H1551.41M1618.36 718.241V789.978M1618.36 718.241H1551.41M1618.36 789.978V861.714M1618.36 789.978H1551.41M1618.36 861.714V933.451M1618.36 861.714H1551.41M1618.36 933.451V1005.19M1618.36 933.451H1551.41M1618.36 1005.19V1076.92M1618.36 1005.19H1551.41M1618.36 1076.92V1148.66M1618.36 1076.92H1551.41M1618.36 1148.66V1220.4M1618.36 1148.66H1551.41M1618.36 1220.4V1292.14M1618.36 1220.4H1551.41M1618.36 1292.14V1363.87M1618.36 1292.14H1551.41M1618.36 1363.87H1551.41M1551.41 0.872375V72.6092M1551.41 0.872375H1484.45M1551.41 72.6092V144.346M1551.41 72.6092H1484.45M1551.41 144.346V216.083M1551.41 144.346H1484.45M1551.41 216.083V287.82M1551.41 216.083H1484.45M1551.41 287.82V359.557M1551.41 287.82H1484.45M1551.41 359.557V431.293M1551.41 359.557H1484.45M1551.41 431.293V503.03M1551.41 431.293H1484.45M1551.41 503.03V574.767M1551.41 503.03H1484.45M1551.41 574.767V646.504M1551.41 574.767H1484.45M1551.41 646.504V718.241M1551.41 646.504H1484.45M1551.41 718.241V789.978M1551.41 718.241H1484.45M1551.41 789.978V861.714M1551.41 789.978H1484.45M1551.41 861.714V933.451M1551.41 861.714H1484.45M1551.41 933.451V1005.19M1551.41 933.451H1484.45M1551.41 1005.19V1076.92M1551.41 1005.19H1484.45M1551.41 1076.92V1148.66M1551.41 1076.92H1484.45M1551.41 1148.66V1220.4M1551.41 1148.66H1484.45M1551.41 1220.4V1292.14M1551.41 1220.4H1484.45M1551.41 1292.14V1363.87M1551.41 1292.14H1484.45M1551.41 1363.87H1484.45M1484.45 0.872375V72.6092M1484.45 0.872375H1417.5M1484.45 72.6092V144.346M1484.45 72.6092H1417.5M1484.45 144.346V216.083M1484.45 144.346H1417.5M1484.45 216.083V287.82M1484.45 216.083H1417.5M1484.45 287.82V359.557M1484.45 287.82H1417.5M1484.45 359.557V431.293M1484.45 359.557H1417.5M1484.45 431.293V503.03M1484.45 431.293H1417.5M1484.45 503.03V574.767M1484.45 503.03H1417.5M1484.45 574.767V646.504M1484.45 574.767H1417.5M1484.45 646.504V718.241M1484.45 646.504H1417.5M1484.45 718.241V789.978M1484.45 718.241H1417.5M1484.45 789.978V861.714M1484.45 789.978H1417.5M1484.45 861.714V933.451M1484.45 861.714H1417.5M1484.45 933.451V1005.19M1484.45 933.451H1417.5M1484.45 1005.19V1076.92M1484.45 1005.19H1417.5M1484.45 1076.92V1148.66M1484.45 1076.92H1417.5M1484.45 1148.66V1220.4M1484.45 1148.66H1417.5M1484.45 1220.4V1292.14M1484.45 1220.4H1417.5M1484.45 1292.14V1363.87M1484.45 1292.14H1417.5M1484.45 1363.87H1417.5M1417.5 0.872375V72.6092M1417.5 0.872375H1350.55M1417.5 72.6092V144.346M1417.5 72.6092H1350.55M1417.5 144.346V216.083M1417.5 144.346H1350.55M1417.5 216.083V287.82M1417.5 216.083H1350.55M1417.5 287.82V359.557M1417.5 287.82H1350.55M1417.5 359.557V431.293M1417.5 359.557H1350.55M1417.5 431.293V503.03M1417.5 431.293H1350.55M1417.5 503.03V574.767M1417.5 503.03H1350.55M1417.5 574.767V646.504M1417.5 574.767H1350.55M1417.5 646.504V718.241M1417.5 646.504H1350.55M1417.5 718.241V789.978M1417.5 718.241H1350.55M1417.5 789.978V861.714M1417.5 789.978H1350.55M1417.5 861.714V933.451M1417.5 861.714H1350.55M1417.5 933.451V1005.19M1417.5 933.451H1350.55M1417.5 1005.19V1076.92M1417.5 1005.19H1350.55M1417.5 1076.92V1148.66M1417.5 1076.92H1350.55M1417.5 1148.66V1220.4M1417.5 1148.66H1350.55M1417.5 1220.4V1292.14M1417.5 1220.4H1350.55M1417.5 1292.14V1363.87M1417.5 1292.14H1350.55M1417.5 1363.87H1350.55M1350.55 0.872375V72.6092M1350.55 0.872375H1283.59M1350.55 72.6092V144.346M1350.55 72.6092H1283.59M1350.55 144.346V216.083M1350.55 144.346H1283.59M1350.55 216.083V287.82M1350.55 216.083H1283.59M1350.55 287.82V359.557M1350.55 287.82H1283.59M1350.55 359.557V431.293M1350.55 359.557H1283.59M1350.55 431.293V503.03M1350.55 431.293H1283.59M1350.55 503.03V574.767M1350.55 503.03H1283.59M1350.55 574.767V646.504M1350.55 574.767H1283.59M1350.55 646.504V718.241M1350.55 646.504H1283.59M1350.55 718.241V789.978M1350.55 718.241H1283.59M1350.55 789.978V861.714M1350.55 789.978H1283.59M1350.55 861.714V933.451M1350.55 861.714H1283.59M1350.55 933.451V1005.19M1350.55 933.451H1283.59M1350.55 1005.19V1076.92M1350.55 1005.19H1283.59M1350.55 1076.92V1148.66M1350.55 1076.92H1283.59M1350.55 1148.66V1220.4M1350.55 1148.66H1283.59M1350.55 1220.4V1292.14M1350.55 1220.4H1283.59M1350.55 1292.14V1363.87M1350.55 1292.14H1283.59M1350.55 1363.87H1283.59M1283.59 0.872375V72.6092M1283.59 0.872375H1216.64M1283.59 72.6092V144.346M1283.59 72.6092H1216.64M1283.59 144.346V216.083M1283.59 144.346H1216.64M1283.59 216.083V287.82M1283.59 216.083H1216.64M1283.59 287.82V359.557M1283.59 287.82H1216.64M1283.59 359.557V431.293M1283.59 359.557H1216.64M1283.59 431.293V503.03M1283.59 431.293H1216.64M1283.59 503.03V574.767M1283.59 503.03H1216.64M1283.59 574.767V646.504M1283.59 574.767H1216.64M1283.59 646.504V718.241M1283.59 646.504H1216.64M1283.59 718.241V789.978M1283.59 718.241H1216.64M1283.59 789.978V861.714M1283.59 789.978H1216.64M1283.59 861.714V933.451M1283.59 861.714H1216.64M1283.59 933.451V1005.19M1283.59 933.451H1216.64M1283.59 1005.19V1076.92M1283.59 1005.19H1216.64M1283.59 1076.92V1148.66M1283.59 1076.92H1216.64M1283.59 1148.66V1220.4M1283.59 1148.66H1216.64M1283.59 1220.4V1292.14M1283.59 1220.4H1216.64M1283.59 1292.14V1363.87M1283.59 1292.14H1216.64M1283.59 1363.87H1216.64M1216.64 0.872375V72.6092M1216.64 0.872375H1149.68M1216.64 72.6092V144.346M1216.64 72.6092H1149.68M1216.64 144.346V216.083M1216.64 144.346H1149.68M1216.64 216.083V287.82M1216.64 216.083H1149.68M1216.64 287.82V359.557M1216.64 287.82H1149.68M1216.64 359.557V431.293M1216.64 359.557H1149.68M1216.64 431.293V503.03M1216.64 431.293H1149.68M1216.64 503.03V574.767M1216.64 503.03H1149.68M1216.64 574.767V646.504M1216.64 574.767H1149.68M1216.64 646.504V718.241M1216.64 646.504H1149.68M1216.64 718.241V789.978M1216.64 718.241H1149.68M1216.64 789.978V861.714M1216.64 789.978H1149.68M1216.64 861.714V933.451M1216.64 861.714H1149.68M1216.64 933.451V1005.19M1216.64 933.451H1149.68M1216.64 1005.19V1076.92M1216.64 1005.19H1149.68M1216.64 1076.92V1148.66M1216.64 1076.92H1149.68M1216.64 1148.66V1220.4M1216.64 1148.66H1149.68M1216.64 1220.4V1292.14M1216.64 1220.4H1149.68M1216.64 1292.14V1363.87M1216.64 1292.14H1149.68M1216.64 1363.87H1149.68M1149.68 0.872375V72.6092M1149.68 0.872375H1082.73M1149.68 72.6092V144.346M1149.68 72.6092H1082.73M1149.68 144.346V216.083M1149.68 144.346H1082.73M1149.68 216.083V287.82M1149.68 216.083H1082.73M1149.68 287.82V359.557M1149.68 287.82H1082.73M1149.68 359.557V431.293M1149.68 359.557H1082.73M1149.68 431.293V503.03M1149.68 431.293H1082.73M1149.68 503.03V574.767M1149.68 503.03H1082.73M1149.68 574.767V646.504M1149.68 574.767H1082.73M1149.68 646.504V718.241M1149.68 646.504H1082.73M1149.68 718.241V789.978M1149.68 718.241H1082.73M1149.68 789.978V861.714M1149.68 789.978H1082.73M1149.68 861.714V933.451M1149.68 861.714H1082.73M1149.68 933.451V1005.19M1149.68 933.451H1082.73M1149.68 1005.19V1076.92M1149.68 1005.19H1082.73M1149.68 1076.92V1148.66M1149.68 1076.92H1082.73M1149.68 1148.66V1220.4M1149.68 1148.66H1082.73M1149.68 1220.4V1292.14M1149.68 1220.4H1082.73M1149.68 1292.14V1363.87M1149.68 1292.14H1082.73M1149.68 1363.87H1082.73M1082.73 0.872375V72.6092M1082.73 0.872375H1015.77M1082.73 72.6092V144.346M1082.73 72.6092H1015.77M1082.73 144.346V216.083M1082.73 144.346H1015.77M1082.73 216.083V287.82M1082.73 216.083H1015.77M1082.73 287.82V359.557M1082.73 287.82H1015.77M1082.73 359.557V431.293M1082.73 359.557H1015.77M1082.73 431.293V503.03M1082.73 431.293H1015.77M1082.73 503.03V574.767M1082.73 503.03H1015.77M1082.73 574.767V646.504M1082.73 574.767H1015.77M1082.73 646.504V718.241M1082.73 646.504H1015.77M1082.73 718.241V789.978M1082.73 718.241H1015.77M1082.73 789.978V861.714M1082.73 789.978H1015.77M1082.73 861.714V933.451M1082.73 861.714H1015.77M1082.73 933.451V1005.19M1082.73 933.451H1015.77M1082.73 1005.19V1076.92M1082.73 1005.19H1015.77M1082.73 1076.92V1148.66M1082.73 1076.92H1015.77M1082.73 1148.66V1220.4M1082.73 1148.66H1015.77M1082.73 1220.4V1292.14M1082.73 1220.4H1015.77M1082.73 1292.14V1363.87M1082.73 1292.14H1015.77M1082.73 1363.87H1015.77M1015.77 0.872375V72.6092M1015.77 0.872375H948.818M1015.77 72.6092V144.346M1015.77 72.6092H948.818M1015.77 144.346V216.083M1015.77 144.346H948.818M1015.77 216.083V287.82M1015.77 216.083H948.818M1015.77 287.82V359.557M1015.77 287.82H948.818M1015.77 359.557V431.293M1015.77 359.557H948.818M1015.77 431.293V503.03M1015.77 431.293H948.818M1015.77 503.03V574.767M1015.77 503.03H948.818M1015.77 574.767V646.504M1015.77 574.767H948.818M1015.77 646.504V718.241M1015.77 646.504H948.818M1015.77 718.241V789.978M1015.77 718.241H948.818M1015.77 789.978V861.714M1015.77 789.978H948.818M1015.77 861.714V933.451M1015.77 861.714H948.818M1015.77 933.451V1005.19M1015.77 933.451H948.818M1015.77 1005.19V1076.92M1015.77 1005.19H948.818M1015.77 1076.92V1148.66M1015.77 1076.92H948.818M1015.77 1148.66V1220.4M1015.77 1148.66H948.818M1015.77 1220.4V1292.14M1015.77 1220.4H948.818M1015.77 1292.14V1363.87M1015.77 1292.14H948.818M1015.77 1363.87H948.818M948.818 0.872375V72.6092M948.818 0.872375H881.864M948.818 72.6092V144.346M948.818 72.6092H881.864M948.818 144.346V216.083M948.818 144.346H881.864M948.818 216.083V287.82M948.818 216.083H881.864M948.818 287.82V359.557M948.818 287.82H881.864M948.818 359.557V431.293M948.818 359.557H881.864M948.818 431.293V503.03M948.818 431.293H881.864M948.818 503.03V574.767M948.818 503.03H881.864M948.818 574.767V646.504M948.818 574.767H881.864M948.818 646.504V718.241M948.818 646.504H881.864M948.818 718.241V789.978M948.818 718.241H881.864M948.818 789.978V861.714M948.818 789.978H881.864M948.818 861.714V933.451M948.818 861.714H881.864M948.818 933.451V1005.19M948.818 933.451H881.864M948.818 1005.19V1076.92M948.818 1005.19H881.864M948.818 1076.92V1148.66M948.818 1076.92H881.864M948.818 1148.66V1220.4M948.818 1148.66H881.864M948.818 1220.4V1292.14M948.818 1220.4H881.864M948.818 1292.14V1363.87M948.818 1292.14H881.864M948.818 1363.87H881.864M881.864 0.872375V72.6092M881.864 0.872375H814.909M881.864 72.6092V144.346M881.864 72.6092H814.909M881.864 144.346V216.083M881.864 144.346H814.909M881.864 216.083V287.82M881.864 216.083H814.909M881.864 287.82V359.557M881.864 287.82H814.909M881.864 359.557V431.293M881.864 359.557H814.909M881.864 431.293V503.03M881.864 431.293H814.909M881.864 503.03V574.767M881.864 503.03H814.909M881.864 574.767V646.504M881.864 574.767H814.909M881.864 646.504V718.241M881.864 646.504H814.909M881.864 718.241V789.978M881.864 718.241H814.909M881.864 789.978V861.714M881.864 789.978H814.909M881.864 861.714V933.451M881.864 861.714H814.909M881.864 933.451V1005.19M881.864 933.451H814.909M881.864 1005.19V1076.92M881.864 1005.19H814.909M881.864 1076.92V1148.66M881.864 1076.92H814.909M881.864 1148.66V1220.4M881.864 1148.66H814.909M881.864 1220.4V1292.14M881.864 1220.4H814.909M881.864 1292.14V1363.87M881.864 1292.14H814.909M881.864 1363.87H814.909M814.909 0.872375V72.6092M814.909 0.872375H747.955M814.909 72.6092V144.346M814.909 72.6092H747.955M814.909 144.346V216.083M814.909 144.346H747.955M814.909 216.083V287.82M814.909 216.083H747.955M814.909 287.82V359.557M814.909 287.82H747.955M814.909 359.557V431.293M814.909 359.557H747.955M814.909 431.293V503.03M814.909 431.293H747.955M814.909 503.03V574.767M814.909 503.03H747.955M814.909 574.767V646.504M814.909 574.767H747.955M814.909 646.504V718.241M814.909 646.504H747.955M814.909 718.241V789.978M814.909 718.241H747.955M814.909 789.978V861.714M814.909 789.978H747.955M814.909 861.714V933.451M814.909 861.714H747.955M814.909 933.451V1005.19M814.909 933.451H747.955M814.909 1005.19V1076.92M814.909 1005.19H747.955M814.909 1076.92V1148.66M814.909 1076.92H747.955M814.909 1148.66V1220.4M814.909 1148.66H747.955M814.909 1220.4V1292.14M814.909 1220.4H747.955M814.909 1292.14V1363.87M814.909 1292.14H747.955M814.909 1363.87H747.955M747.955 0.872375V72.6092M747.955 0.872375H681M747.955 72.6092V144.346M747.955 72.6092H681M747.955 144.346V216.083M747.955 144.346H681M747.955 216.083V287.82M747.955 216.083H681M747.955 287.82V359.557M747.955 287.82H681M747.955 359.557V431.293M747.955 359.557H681M747.955 431.293V503.03M747.955 431.293H681M747.955 503.03V574.767M747.955 503.03H681M747.955 574.767V646.504M747.955 574.767H681M747.955 646.504V718.241M747.955 646.504H681M747.955 718.241V789.978M747.955 718.241H681M747.955 789.978V861.714M747.955 789.978H681M747.955 861.714V933.451M747.955 861.714H681M747.955 933.451V1005.19M747.955 933.451H681M747.955 1005.19V1076.92M747.955 1005.19H681M747.955 1076.92V1148.66M747.955 1076.92H681M747.955 1148.66V1220.4M747.955 1148.66H681M747.955 1220.4V1292.14M747.955 1220.4H681M747.955 1292.14V1363.87M747.955 1292.14H681M747.955 1363.87H681M681 0.872375V72.6092M681 0.872375H614.046M681 72.6092V144.346M681 72.6092H614.046M681 144.346V216.083M681 144.346H614.046M681 216.083V287.82M681 216.083H614.046M681 287.82V359.557M681 287.82H614.046M681 359.557V431.293M681 359.557H614.046M681 431.293V503.03M681 431.293H614.046M681 503.03V574.767M681 503.03H614.046M681 574.767V646.504M681 574.767H614.046M681 646.504V718.241M681 646.504H614.046M681 718.241V789.978M681 718.241H614.046M681 789.978V861.714M681 789.978H614.046M681 861.714V933.451M681 861.714H614.046M681 933.451V1005.19M681 933.451H614.046M681 1005.19V1076.92M681 1005.19H614.046M681 1076.92V1148.66M681 1076.92H614.046M681 1148.66V1220.4M681 1148.66H614.046M681 1220.4V1292.14M681 1220.4H614.046M681 1292.14V1363.87M681 1292.14H614.046M681 1363.87H614.046M614.046 0.872375V72.6092M614.046 0.872375H547.091M614.046 72.6092V144.346M614.046 72.6092H547.091M614.046 144.346V216.083M614.046 144.346H547.091M614.046 216.083V287.82M614.046 216.083H547.091M614.046 287.82V359.557M614.046 287.82H547.091M614.046 359.557V431.293M614.046 359.557H547.091M614.046 431.293V503.03M614.046 431.293H547.091M614.046 503.03V574.767M614.046 503.03H547.091M614.046 574.767V646.504M614.046 574.767H547.091M614.046 646.504V718.241M614.046 646.504H547.091M614.046 718.241V789.978M614.046 718.241H547.091M614.046 789.978V861.714M614.046 789.978H547.091M614.046 861.714V933.451M614.046 861.714H547.091M614.046 933.451V1005.19M614.046 933.451H547.091M614.046 1005.19V1076.92M614.046 1005.19H547.091M614.046 1076.92V1148.66M614.046 1076.92H547.091M614.046 1148.66V1220.4M614.046 1148.66H547.091M614.046 1220.4V1292.14M614.046 1220.4H547.091M614.046 1292.14V1363.87M614.046 1292.14H547.091M614.046 1363.87H547.091M547.091 0.872375V72.6092M547.091 0.872375H480.136M547.091 72.6092V144.346M547.091 72.6092H480.136M547.091 144.346V216.083M547.091 144.346H480.136M547.091 216.083V287.82M547.091 216.083H480.136M547.091 287.82V359.557M547.091 287.82H480.136M547.091 359.557V431.293M547.091 359.557H480.136M547.091 431.293V503.03M547.091 431.293H480.136M547.091 503.03V574.767M547.091 503.03H480.136M547.091 574.767V646.504M547.091 574.767H480.136M547.091 646.504V718.241M547.091 646.504H480.136M547.091 718.241V789.978M547.091 718.241H480.136M547.091 789.978V861.714M547.091 789.978H480.136M547.091 861.714V933.451M547.091 861.714H480.136M547.091 933.451V1005.19M547.091 933.451H480.136M547.091 1005.19V1076.92M547.091 1005.19H480.136M547.091 1076.92V1148.66M547.091 1076.92H480.136M547.091 1148.66V1220.4M547.091 1148.66H480.136M547.091 1220.4V1292.14M547.091 1220.4H480.136M547.091 1292.14V1363.87M547.091 1292.14H480.136M547.091 1363.87H480.136M480.136 0.872375V72.6092M480.136 0.872375H413.182M480.136 72.6092V144.346M480.136 72.6092H413.182M480.136 144.346V216.083M480.136 144.346H413.182M480.136 216.083V287.82M480.136 216.083H413.182M480.136 287.82V359.557M480.136 287.82H413.182M480.136 359.557V431.293M480.136 359.557H413.182M480.136 431.293V503.03M480.136 431.293H413.182M480.136 503.03V574.767M480.136 503.03H413.182M480.136 574.767V646.504M480.136 574.767H413.182M480.136 646.504V718.241M480.136 646.504H413.182M480.136 718.241V789.978M480.136 718.241H413.182M480.136 789.978V861.714M480.136 789.978H413.182M480.136 861.714V933.451M480.136 861.714H413.182M480.136 933.451V1005.19M480.136 933.451H413.182M480.136 1005.19V1076.92M480.136 1005.19H413.182M480.136 1076.92V1148.66M480.136 1076.92H413.182M480.136 1148.66V1220.4M480.136 1148.66H413.182M480.136 1220.4V1292.14M480.136 1220.4H413.182M480.136 1292.14V1363.87M480.136 1292.14H413.182M480.136 1363.87H413.182M413.182 0.872375V72.6092M413.182 0.872375H346.227M413.182 72.6092V144.346M413.182 72.6092H346.227M413.182 144.346V216.083M413.182 144.346H346.227M413.182 216.083V287.82M413.182 216.083H346.227M413.182 287.82V359.557M413.182 287.82H346.227M413.182 359.557V431.293M413.182 359.557H346.227M413.182 431.293V503.03M413.182 431.293H346.227M413.182 503.03V574.767M413.182 503.03H346.227M413.182 574.767V646.504M413.182 574.767H346.227M413.182 646.504V718.241M413.182 646.504H346.227M413.182 718.241V789.978M413.182 718.241H346.227M413.182 789.978V861.714M413.182 789.978H346.227M413.182 861.714V933.451M413.182 861.714H346.227M413.182 933.451V1005.19M413.182 933.451H346.227M413.182 1005.19V1076.92M413.182 1005.19H346.227M413.182 1076.92V1148.66M413.182 1076.92H346.227M413.182 1148.66V1220.4M413.182 1148.66H346.227M413.182 1220.4V1292.14M413.182 1220.4H346.227M413.182 1292.14V1363.87M413.182 1292.14H346.227M413.182 1363.87H346.227M346.227 0.872375V72.6092M346.227 0.872375H279.273M346.227 72.6092V144.346M346.227 72.6092H279.273M346.227 144.346V216.083M346.227 144.346H279.273M346.227 216.083V287.82M346.227 216.083H279.273M346.227 287.82V359.557M346.227 287.82H279.273M346.227 359.557V431.293M346.227 359.557H279.273M346.227 431.293V503.03M346.227 431.293H279.273M346.227 503.03V574.767M346.227 503.03H279.273M346.227 574.767V646.504M346.227 574.767H279.273M346.227 646.504V718.241M346.227 646.504H279.273M346.227 718.241V789.978M346.227 718.241H279.273M346.227 789.978V861.714M346.227 789.978H279.273M346.227 861.714V933.451M346.227 861.714H279.273M346.227 933.451V1005.19M346.227 933.451H279.273M346.227 1005.19V1076.92M346.227 1005.19H279.273M346.227 1076.92V1148.66M346.227 1076.92H279.273M346.227 1148.66V1220.4M346.227 1148.66H279.273M346.227 1220.4V1292.14M346.227 1220.4H279.273M346.227 1292.14V1363.87M346.227 1292.14H279.273M346.227 1363.87H279.273M279.273 0.872375V72.6092M279.273 0.872375H212.318M279.273 72.6092V144.346M279.273 72.6092H212.318M279.273 144.346V216.083M279.273 144.346H212.318M279.273 216.083V287.82M279.273 216.083H212.318M279.273 287.82V359.557M279.273 287.82H212.318M279.273 359.557V431.293M279.273 359.557H212.318M279.273 431.293V503.03M279.273 431.293H212.318M279.273 503.03V574.767M279.273 503.03H212.318M279.273 574.767V646.504M279.273 574.767H212.318M279.273 646.504V718.241M279.273 646.504H212.318M279.273 718.241V789.978M279.273 718.241H212.318M279.273 789.978V861.714M279.273 789.978H212.318M279.273 861.714V933.451M279.273 861.714H212.318M279.273 933.451V1005.19M279.273 933.451H212.318M279.273 1005.19V1076.92M279.273 1005.19H212.318M279.273 1076.92V1148.66M279.273 1076.92H212.318M279.273 1148.66V1220.4M279.273 1148.66H212.318M279.273 1220.4V1292.14M279.273 1220.4H212.318M279.273 1292.14V1363.87M279.273 1292.14H212.318M279.273 1363.87H212.318M212.318 0.872375V72.6092M212.318 0.872375H145.364M212.318 72.6092V144.346M212.318 72.6092H145.364M212.318 144.346V216.083M212.318 144.346H145.364M212.318 216.083V287.82M212.318 216.083H145.364M212.318 287.82V359.557M212.318 287.82H145.364M212.318 359.557V431.293M212.318 359.557H145.364M212.318 431.293V503.03M212.318 431.293H145.364M212.318 503.03V574.767M212.318 503.03H145.364M212.318 574.767V646.504M212.318 574.767H145.364M212.318 646.504V718.241M212.318 646.504H145.364M212.318 718.241V789.978M212.318 718.241H145.364M212.318 789.978V861.714M212.318 789.978H145.364M212.318 861.714V933.451M212.318 861.714H145.364M212.318 933.451V1005.19M212.318 933.451H145.364M212.318 1005.19V1076.92M212.318 1005.19H145.364M212.318 1076.92V1148.66M212.318 1076.92H145.364M212.318 1148.66V1220.4M212.318 1148.66H145.364M212.318 1220.4V1292.14M212.318 1220.4H145.364M212.318 1292.14V1363.87M212.318 1292.14H145.364M212.318 1363.87H145.364M145.364 0.872375V72.6092M145.364 0.872375H78.4092M145.364 72.6092V144.346M145.364 72.6092H78.4092M145.364 144.346V216.083M145.364 144.346H78.4092M145.364 216.083V287.82M145.364 216.083H78.4092M145.364 287.82V359.557M145.364 287.82H78.4092M145.364 359.557V431.293M145.364 359.557H78.4092M145.364 431.293V503.03M145.364 431.293H78.4092M145.364 503.03V574.767M145.364 503.03H78.4092M145.364 574.767V646.504M145.364 574.767H78.4092M145.364 646.504V718.241M145.364 646.504H78.4092M145.364 718.241V789.978M145.364 718.241H78.4092M145.364 789.978V861.714M145.364 789.978H78.4092M145.364 861.714V933.451M145.364 861.714H78.4092M145.364 933.451V1005.19M145.364 933.451H78.4092M145.364 1005.19V1076.92M145.364 1005.19H78.4092M145.364 1076.92V1148.66M145.364 1076.92H78.4092M145.364 1148.66V1220.4M145.364 1148.66H78.4092M145.364 1220.4V1292.14M145.364 1220.4H78.4092M145.364 1292.14V1363.87M145.364 1292.14H78.4092M145.364 1363.87H78.4092M78.4092 0.872375V72.6092M78.4092 0.872375H11.4546M78.4092 72.6092V144.346M78.4092 72.6092H11.4546M78.4092 144.346V216.083M78.4092 144.346H11.4546M78.4092 216.083V287.82M78.4092 216.083H11.4546M78.4092 287.82V359.557M78.4092 287.82H11.4546M78.4092 359.557V431.293M78.4092 359.557H11.4546M78.4092 431.293V503.03M78.4092 431.293H11.4546M78.4092 503.03V574.767M78.4092 503.03H11.4546M78.4092 574.767V646.504M78.4092 574.767H11.4546M78.4092 646.504V718.241M78.4092 646.504H11.4546M78.4092 718.241V789.978M78.4092 718.241H11.4546M78.4092 789.978V861.714M78.4092 789.978H11.4546M78.4092 861.714V933.451M78.4092 861.714H11.4546M78.4092 933.451V1005.19M78.4092 933.451H11.4546M78.4092 1005.19V1076.92M78.4092 1005.19H11.4546M78.4092 1076.92V1148.66M78.4092 1076.92H11.4546M78.4092 1148.66V1220.4M78.4092 1148.66H11.4546M78.4092 1220.4V1292.14M78.4092 1220.4H11.4546M78.4092 1292.14V1363.87M78.4092 1292.14H11.4546M78.4092 1363.87H11.4546M11.4546 0.872375V72.6092M11.4546 0.872375H-55.4998M11.4546 72.6092V144.346M11.4546 72.6092H-55.4998M11.4546 144.346V216.083M11.4546 144.346H-55.4998M11.4546 216.083V287.82M11.4546 216.083H-55.4998M11.4546 287.82V359.557M11.4546 287.82H-55.4998M11.4546 359.557V431.293M11.4546 359.557H-55.4998M11.4546 431.293V503.03M11.4546 431.293H-55.4998M11.4546 503.03V574.767M11.4546 503.03H-55.4998M11.4546 574.767V646.504M11.4546 574.767H-55.4998M11.4546 646.504V718.241M11.4546 646.504H-55.4998M11.4546 718.241V789.978M11.4546 718.241H-55.4998M11.4546 789.978V861.714M11.4546 789.978H-55.4998M11.4546 861.714V933.451M11.4546 861.714H-55.4998M11.4546 933.451V1005.19M11.4546 933.451H-55.4998M11.4546 1005.19V1076.92M11.4546 1005.19H-55.4998M11.4546 1076.92V1148.66M11.4546 1076.92H-55.4998M11.4546 1148.66V1220.4M11.4546 1148.66H-55.4998M11.4546 1220.4V1292.14M11.4546 1220.4H-55.4998M11.4546 1292.14V1363.87M11.4546 1292.14H-55.4998M11.4546 1363.87H-55.4998M-55.4998 0.872375V72.6092M-55.4998 0.872375H-122.454M-55.4998 72.6092V144.346M-55.4998 72.6092H-122.454M-55.4998 144.346V216.083M-55.4998 144.346H-122.454M-55.4998 216.083V287.82M-55.4998 216.083H-122.454M-55.4998 287.82V359.557M-55.4998 287.82H-122.454M-55.4998 359.557V431.293M-55.4998 359.557H-122.454M-55.4998 431.293V503.03M-55.4998 431.293H-122.454M-55.4998 503.03V574.767M-55.4998 503.03H-122.454M-55.4998 574.767V646.504M-55.4998 574.767H-122.454M-55.4998 646.504V718.241M-55.4998 646.504H-122.454M-55.4998 718.241V789.978M-55.4998 718.241H-122.454M-55.4998 789.978V861.714M-55.4998 789.978H-122.454M-55.4998 861.714V933.451M-55.4998 861.714H-122.454M-55.4998 933.451V1005.19M-55.4998 933.451H-122.454M-55.4998 1005.19V1076.92M-55.4998 1005.19H-122.454M-55.4998 1076.92V1148.66M-55.4998 1076.92H-122.454M-55.4998 1148.66V1220.4M-55.4998 1148.66H-122.454M-55.4998 1220.4V1292.14M-55.4998 1220.4H-122.454M-55.4998 1292.14V1363.87M-55.4998 1292.14H-122.454M-55.4998 1363.87H-122.454M-122.454 0.872375V72.6092M-122.454 0.872375H-189.409M-122.454 72.6092V144.346M-122.454 72.6092H-189.409M-122.454 144.346V216.083M-122.454 144.346H-189.409M-122.454 216.083V287.82M-122.454 216.083H-189.409M-122.454 287.82V359.557M-122.454 287.82H-189.409M-122.454 359.557V431.293M-122.454 359.557H-189.409M-122.454 431.293V503.03M-122.454 431.293H-189.409M-122.454 503.03V574.767M-122.454 503.03H-189.409M-122.454 574.767V646.504M-122.454 574.767H-189.409M-122.454 646.504V718.241M-122.454 646.504H-189.409M-122.454 718.241V789.978M-122.454 718.241H-189.409M-122.454 789.978V861.714M-122.454 789.978H-189.409M-122.454 861.714V933.451M-122.454 861.714H-189.409M-122.454 933.451V1005.19M-122.454 933.451H-189.409M-122.454 1005.19V1076.92M-122.454 1005.19H-189.409M-122.454 1076.92V1148.66M-122.454 1076.92H-189.409M-122.454 1148.66V1220.4M-122.454 1148.66H-189.409M-122.454 1220.4V1292.14M-122.454 1220.4H-189.409M-122.454 1292.14V1363.87M-122.454 1292.14H-189.409M-122.454 1363.87H-189.409M-189.409 0.872375V72.6092M-189.409 0.872375H-256.363M-189.409 72.6092V144.346M-189.409 72.6092H-256.363M-189.409 144.346V216.083M-189.409 144.346H-256.363M-189.409 216.083V287.82M-189.409 216.083H-256.363M-189.409 287.82V359.557M-189.409 287.82H-256.363M-189.409 359.557V431.293M-189.409 359.557H-256.363M-189.409 431.293V503.03M-189.409 431.293H-256.363M-189.409 503.03V574.767M-189.409 503.03H-256.363M-189.409 574.767V646.504M-189.409 574.767H-256.363M-189.409 646.504V718.241M-189.409 646.504H-256.363M-189.409 718.241V789.978M-189.409 718.241H-256.363M-189.409 789.978V861.714M-189.409 789.978H-256.363M-189.409 861.714V933.451M-189.409 861.714H-256.363M-189.409 933.451V1005.19M-189.409 933.451H-256.363M-189.409 1005.19V1076.92M-189.409 1005.19H-256.363M-189.409 1076.92V1148.66M-189.409 1076.92H-256.363M-189.409 1148.66V1220.4M-189.409 1148.66H-256.363M-189.409 1220.4V1292.14M-189.409 1220.4H-256.363M-189.409 1292.14V1363.87M-189.409 1292.14H-256.363M-189.409 1363.87H-256.363M-256.363 0.872375V72.6092M-256.363 0.872375H-323.318M-256.363 72.6092V144.346M-256.363 72.6092H-323.318M-256.363 144.346V216.083M-256.363 144.346H-323.318M-256.363 216.083V287.82M-256.363 216.083H-323.318M-256.363 287.82V359.557M-256.363 287.82H-323.318M-256.363 359.557V431.293M-256.363 359.557H-323.318M-256.363 431.293V503.03M-256.363 431.293H-323.318M-256.363 503.03V574.767M-256.363 503.03H-323.318M-256.363 574.767V646.504M-256.363 574.767H-323.318M-256.363 646.504V718.241M-256.363 646.504H-323.318M-256.363 718.241V789.978M-256.363 718.241H-323.318M-256.363 789.978V861.714M-256.363 789.978H-323.318M-256.363 861.714V933.451M-256.363 861.714H-323.318M-256.363 933.451V1005.19M-256.363 933.451H-323.318M-256.363 1005.19V1076.92M-256.363 1005.19H-323.318M-256.363 1076.92V1148.66M-256.363 1076.92H-323.318M-256.363 1148.66V1220.4M-256.363 1148.66H-323.318M-256.363 1220.4V1292.14M-256.363 1220.4H-323.318M-256.363 1292.14V1363.87M-256.363 1292.14H-323.318M-256.363 1363.87H-323.318M-323.318 0.872375V72.6092M-323.318 0.872375H-390.273M-323.318 72.6092V144.346M-323.318 72.6092H-390.273M-323.318 144.346V216.083M-323.318 144.346H-390.273M-323.318 216.083V287.82M-323.318 216.083H-390.273M-323.318 287.82V359.557M-323.318 287.82H-390.273M-323.318 359.557V431.293M-323.318 359.557H-390.273M-323.318 431.293V503.03M-323.318 431.293H-390.273M-323.318 503.03V574.767M-323.318 503.03H-390.273M-323.318 574.767V646.504M-323.318 574.767H-390.273M-323.318 646.504V718.241M-323.318 646.504H-390.273M-323.318 718.241V789.978M-323.318 718.241H-390.273M-323.318 789.978V861.714M-323.318 789.978H-390.273M-323.318 861.714V933.451M-323.318 861.714H-390.273M-323.318 933.451V1005.19M-323.318 933.451H-390.273M-323.318 1005.19V1076.92M-323.318 1005.19H-390.273M-323.318 1076.92V1148.66M-323.318 1076.92H-390.273M-323.318 1148.66V1220.4M-323.318 1148.66H-390.273M-323.318 1220.4V1292.14M-323.318 1220.4H-390.273M-323.318 1292.14V1363.87M-323.318 1292.14H-390.273M-323.318 1363.87H-390.273M-390.273 0.872375V72.6092M-390.273 0.872375H-457.227M-390.273 72.6092V144.346M-390.273 72.6092H-457.227M-390.273 144.346V216.083M-390.273 144.346H-457.227M-390.273 216.083V287.82M-390.273 216.083H-457.227M-390.273 287.82V359.557M-390.273 287.82H-457.227M-390.273 359.557V431.293M-390.273 359.557H-457.227M-390.273 431.293V503.03M-390.273 431.293H-457.227M-390.273 503.03V574.767M-390.273 503.03H-457.227M-390.273 574.767V646.504M-390.273 574.767H-457.227M-390.273 646.504V718.241M-390.273 646.504H-457.227M-390.273 718.241V789.978M-390.273 718.241H-457.227M-390.273 789.978V861.714M-390.273 789.978H-457.227M-390.273 861.714V933.451M-390.273 861.714H-457.227M-390.273 933.451V1005.19M-390.273 933.451H-457.227M-390.273 1005.19V1076.92M-390.273 1005.19H-457.227M-390.273 1076.92V1148.66M-390.273 1076.92H-457.227M-390.273 1148.66V1220.4M-390.273 1148.66H-457.227M-390.273 1220.4V1292.14M-390.273 1220.4H-457.227M-390.273 1292.14V1363.87M-390.273 1292.14H-457.227M-390.273 1363.87H-457.227M-457.227 0.872375V72.6092M-457.227 0.872375H-524.182M-457.227 72.6092V144.346M-457.227 72.6092H-524.182M-457.227 144.346V216.083M-457.227 144.346H-524.182M-457.227 216.083V287.82M-457.227 216.083H-524.182M-457.227 287.82V359.557M-457.227 287.82H-524.182M-457.227 359.557V431.293M-457.227 359.557H-524.182M-457.227 431.293V503.03M-457.227 431.293H-524.182M-457.227 503.03V574.767M-457.227 503.03H-524.182M-457.227 574.767V646.504M-457.227 574.767H-524.182M-457.227 646.504V718.241M-457.227 646.504H-524.182M-457.227 718.241V789.978M-457.227 718.241H-524.182M-457.227 789.978V861.714M-457.227 789.978H-524.182M-457.227 861.714V933.451M-457.227 861.714H-524.182M-457.227 933.451V1005.19M-457.227 933.451H-524.182M-457.227 1005.19V1076.92M-457.227 1005.19H-524.182M-457.227 1076.92V1148.66M-457.227 1076.92H-524.182M-457.227 1148.66V1220.4M-457.227 1148.66H-524.182M-457.227 1220.4V1292.14M-457.227 1220.4H-524.182M-457.227 1292.14V1363.87M-457.227 1292.14H-524.182M-457.227 1363.87H-524.182M-524.182 0.872375V72.6092M-524.182 0.872375H-591.136M-524.182 72.6092V144.346M-524.182 72.6092H-591.136M-524.182 144.346V216.083M-524.182 144.346H-591.136M-524.182 216.083V287.82M-524.182 216.083H-591.136M-524.182 287.82V359.557M-524.182 287.82H-591.136M-524.182 359.557V431.293M-524.182 359.557H-591.136M-524.182 431.293V503.03M-524.182 431.293H-591.136M-524.182 503.03V574.767M-524.182 503.03H-591.136M-524.182 574.767V646.504M-524.182 574.767H-591.136M-524.182 646.504V718.241M-524.182 646.504H-591.136M-524.182 718.241V789.978M-524.182 718.241H-591.136M-524.182 789.978V861.714M-524.182 789.978H-591.136M-524.182 861.714V933.451M-524.182 861.714H-591.136M-524.182 933.451V1005.19M-524.182 933.451H-591.136M-524.182 1005.19V1076.92M-524.182 1005.19H-591.136M-524.182 1076.92V1148.66M-524.182 1076.92H-591.136M-524.182 1148.66V1220.4M-524.182 1148.66H-591.136M-524.182 1220.4V1292.14M-524.182 1220.4H-591.136M-524.182 1292.14V1363.87M-524.182 1292.14H-591.136M-524.182 1363.87H-591.136M-591.136 0.872375V72.6092M-591.136 0.872375H-658.091M-591.136 72.6092V144.346M-591.136 72.6092H-658.091M-591.136 144.346V216.083M-591.136 144.346H-658.091M-591.136 216.083V287.82M-591.136 216.083H-658.091M-591.136 287.82V359.557M-591.136 287.82H-658.091M-591.136 359.557V431.293M-591.136 359.557H-658.091M-591.136 431.293V503.03M-591.136 431.293H-658.091M-591.136 503.03V574.767M-591.136 503.03H-658.091M-591.136 574.767V646.504M-591.136 574.767H-658.091M-591.136 646.504V718.241M-591.136 646.504H-658.091M-591.136 718.241V789.978M-591.136 718.241H-658.091M-591.136 789.978V861.714M-591.136 789.978H-658.091M-591.136 861.714V933.451M-591.136 861.714H-658.091M-591.136 933.451V1005.19M-591.136 933.451H-658.091M-591.136 1005.19V1076.92M-591.136 1005.19H-658.091M-591.136 1076.92V1148.66M-591.136 1076.92H-658.091M-591.136 1148.66V1220.4M-591.136 1148.66H-658.091M-591.136 1220.4V1292.14M-591.136 1220.4H-658.091M-591.136 1292.14V1363.87M-591.136 1292.14H-658.091M-591.136 1363.87H-658.091M-658.091 0.872375V72.6092M-658.091 0.872375H-725.045M-658.091 72.6092V144.346M-658.091 72.6092H-725.045M-658.091 144.346V216.083M-658.091 144.346H-725.045M-658.091 216.083V287.82M-658.091 216.083H-725.045M-658.091 287.82V359.557M-658.091 287.82H-725.045M-658.091 359.557V431.293M-658.091 359.557H-725.045M-658.091 431.293V503.03M-658.091 431.293H-725.045M-658.091 503.03V574.767M-658.091 503.03H-725.045M-658.091 574.767V646.504M-658.091 574.767H-725.045M-658.091 646.504V718.241M-658.091 646.504H-725.045M-658.091 718.241V789.978M-658.091 718.241H-725.045M-658.091 789.978V861.714M-658.091 789.978H-725.045M-658.091 861.714V933.451M-658.091 861.714H-725.045M-658.091 933.451V1005.19M-658.091 933.451H-725.045M-658.091 1005.19V1076.92M-658.091 1005.19H-725.045M-658.091 1076.92V1148.66M-658.091 1076.92H-725.045M-658.091 1148.66V1220.4M-658.091 1148.66H-725.045M-658.091 1220.4V1292.14M-658.091 1220.4H-725.045M-658.091 1292.14V1363.87M-658.091 1292.14H-725.045M-658.091 1363.87H-725.045M-725.045 0.872375V72.6092M-725.045 0.872375H-792V72.6092M-725.045 72.6092V144.346M-725.045 72.6092H-792M-725.045 144.346V216.083M-725.045 144.346H-792M-725.045 216.083V287.82M-725.045 216.083H-792M-725.045 287.82V359.557M-725.045 287.82H-792M-725.045 359.557V431.293M-725.045 359.557H-792M-725.045 431.293V503.03M-725.045 431.293H-792M-725.045 503.03V574.767M-725.045 503.03H-792M-725.045 574.767V646.504M-725.045 574.767H-792M-725.045 646.504V718.241M-725.045 646.504H-792M-725.045 718.241V789.978M-725.045 718.241H-792M-725.045 789.978V861.714M-725.045 789.978H-792M-725.045 861.714V933.451M-725.045 861.714H-792M-725.045 933.451V1005.19M-725.045 933.451H-792M-725.045 1005.19V1076.92M-725.045 1005.19H-792M-725.045 1076.92V1148.66M-725.045 1076.92H-792M-725.045 1148.66V1220.4M-725.045 1148.66H-792M-725.045 1220.4V1292.14M-725.045 1220.4H-792M-725.045 1292.14V1363.87M-725.045 1292.14H-792M-725.045 1363.87H-792V1292.14M-792 72.6092V144.346M-792 144.346V216.083M-792 216.083V287.82M-792 287.82V359.557M-792 359.557V431.293M-792 431.293V503.03M-792 503.03V574.767M-792 574.767V646.504M-792 646.504V718.241M-792 718.241V789.978M-792 789.978V861.714M-792 861.714V933.451M-792 933.451V1005.19M-792 1005.19V1076.92M-792 1076.92V1148.66M-792 1148.66V1220.4M-792 1220.4V1292.14" stroke="url(#paint0_radial_596_18038)" stroke-width="1.74474"/>
</mask>
<g mask="url(#mask0_596_18038)">
<g filter="url(#filter0_f_596_18038)">
<circle cx="525" cy="525" r="525" transform="matrix(-1 0 0 1 1315 -98.1276)" fill="url(#paint1_radial_596_18038)" fill-opacity="0.4"/>
</g>
<g filter="url(#filter1_f_596_18038)">
<ellipse cx="137.5" cy="85" rx="137.5" ry="85" transform="matrix(-1 0 0 1 570 -15.1276)" fill="#DC340D"/>
</g>
<g filter="url(#filter2_f_596_18038)">
<circle cx="144.5" cy="144.5" r="144.5" transform="matrix(-1 0 0 1 1575 378.872)" fill="#DC340D" fill-opacity="0.43"/>
</g>
<g filter="url(#filter3_f_596_18038)">
<ellipse cx="245" cy="420.5" rx="245" ry="420.5" transform="matrix(-1 0 0 1 278 168.872)" fill="#DC340D" fill-opacity="0.1"/>
</g>
</g>
<defs>
<filter id="filter0_f_596_18038" x="65" y="-298.128" width="1450" height="1450" filterUnits="userSpaceOnUse" color-interpolation-filters="sRGB">
<feFlood flood-opacity="0" result="BackgroundImageFix"/>
<feBlend mode="normal" in="SourceGraphic" in2="BackgroundImageFix" result="shape"/>
<feGaussianBlur stdDeviation="100" result="effect1_foregroundBlur_596_18038"/>
</filter>
<filter id="filter1_f_596_18038" x="195" y="-115.128" width="475" height="370" filterUnits="userSpaceOnUse" color-interpolation-filters="sRGB">
<feFlood flood-opacity="0" result="BackgroundImageFix"/>
<feBlend mode="normal" in="SourceGraphic" in2="BackgroundImageFix" result="shape"/>
<feGaussianBlur stdDeviation="50" result="effect1_foregroundBlur_596_18038"/>
</filter>
<filter id="filter2_f_596_18038" x="1186" y="278.872" width="489" height="489" filterUnits="userSpaceOnUse" color-interpolation-filters="sRGB">
<feFlood flood-opacity="0" result="BackgroundImageFix"/>
<feBlend mode="normal" in="SourceGraphic" in2="BackgroundImageFix" result="shape"/>
<feGaussianBlur stdDeviation="50" result="effect1_foregroundBlur_596_18038"/>
</filter>
<filter id="filter3_f_596_18038" x="-312" y="68.8724" width="690" height="1041" filterUnits="userSpaceOnUse" color-interpolation-filters="sRGB">
<feFlood flood-opacity="0" result="BackgroundImageFix"/>
<feBlend mode="normal" in="SourceGraphic" in2="BackgroundImageFix" result="shape"/>
<feGaussianBlur stdDeviation="50" result="effect1_foregroundBlur_596_18038"/>
</filter>
<radialGradient id="paint0_radial_596_18038" cx="0" cy="0" r="1" gradientUnits="userSpaceOnUse" gradientTransform="translate(681 682.372) rotate(90) scale(681.5 1189.47)">
<stop stop-color="white"/>
<stop offset="1" stop-color="white" stop-opacity="0.2"/>
</radialGradient>
<radialGradient id="paint1_radial_596_18038" cx="0" cy="0" r="1" gradientUnits="userSpaceOnUse" gradientTransform="translate(525 525) rotate(152.723) scale(468.045)">
<stop stop-color="white" stop-opacity="0.2"/>
<stop offset="1" stop-color="white" stop-opacity="0"/>
</radialGradient>
</defs>
</svg>
