<svg width="32" height="36" viewBox="0 0 32 36" fill="none" xmlns="http://www.w3.org/2000/svg">
<path d="M31.8221 13.0266H23.3633C23.2505 12.1581 23.0193 11.3743 22.6696 10.675C22.32 9.97577 21.8576 9.37801 21.2824 8.88176C20.7072 8.38551 20.0248 8.00768 19.2354 7.74828C18.4571 7.4776 17.5943 7.34226 16.647 7.34226C14.9665 7.34226 13.5172 7.75392 12.2991 8.57724C11.0923 9.40057 10.1619 10.5904 9.50771 12.1469C8.86484 13.7033 8.54341 15.5868 8.54341 17.7974C8.54341 20.0982 8.87048 22.0268 9.52463 23.5832C10.1901 25.1283 11.1205 26.2957 12.316 27.0851C13.5228 27.8634 14.9496 28.2525 16.5962 28.2525C17.521 28.2525 18.3613 28.134 19.1169 27.8972C19.8839 27.6603 20.5549 27.3164 21.1301 26.8652C21.7166 26.4028 22.1959 25.8445 22.5681 25.1904C22.9516 24.5249 23.2166 23.7749 23.3633 22.9403L31.8221 22.9911C31.6755 24.5249 31.23 26.0363 30.4856 27.525C29.7525 29.0138 28.7431 30.3728 27.4573 31.6022C26.1716 32.8202 24.6039 33.7902 22.7542 34.512C20.9158 35.2338 18.8068 35.5947 16.427 35.5947C13.2916 35.5947 10.4833 34.9067 8.00204 33.5308C5.53207 32.1435 3.5809 30.1247 2.14854 27.4742C0.71618 24.8238 0 21.5982 0 17.7974C0 13.9852 0.727459 10.754 2.18238 8.10355C3.63729 5.45312 5.60538 3.43992 8.08663 2.06395C10.5679 0.687984 13.348 0 16.427 0C18.5248 0 20.4647 0.293239 22.2467 0.879718C24.0287 1.45492 25.5964 2.3008 26.9498 3.41736C28.3032 4.52265 29.4029 5.8817 30.2487 7.49452C31.0946 9.10733 31.6191 10.9514 31.8221 13.0266Z" fill="white"/>
</svg>
