<svg width="144" height="36" viewBox="0 0 144 36" fill="none" xmlns="http://www.w3.org/2000/svg">
<path d="M137.942 19.4669H98.9796C97.5629 19.4669 96.4146 20.6153 96.4146 22.0319V27.7522C96.4146 29.1688 97.5629 30.3172 98.9796 30.3172H137.942C139.358 30.3172 140.507 29.1688 140.507 27.7522V22.0319C140.507 20.6153 139.358 19.4669 137.942 19.4669Z" fill="black"/>
<path d="M35.8044 13.2266C35.8132 14.813 35.0847 15.9606 33.6958 16.6891C32.2783 17.4329 30.8872 17.2617 29.6673 16.3051C28.4275 15.3352 27.8198 14.0209 28.2366 12.4214C28.4253 11.6951 28.3003 11.1048 27.9163 10.4883C27.1944 9.32974 26.2355 8.4367 25.0617 7.76309C24.6996 7.55464 24.3178 7.41202 23.8921 7.53489C23.0167 7.78503 22.15 7.77845 21.2723 7.52392C20.8159 7.39227 20.4034 7.58755 20.0172 7.83111C19.1154 8.40379 18.343 9.1169 17.687 9.96167C17.0814 10.7406 16.7588 11.48 17.0178 12.5771C17.5224 14.7143 15.8 16.8953 13.6453 17.1191C11.552 17.3363 9.48948 15.6029 9.42366 13.5711C9.34247 11.0873 11.0627 9.09496 13.4105 9.50747C15.7736 9.92217 16.9322 8.58591 18.1894 7.15968C18.8411 6.42244 19.1505 5.61936 18.8631 4.54421C18.4528 3.00608 19.2119 1.45259 20.6031 0.610024C21.9503 -0.208409 23.3414 -0.206215 24.6623 0.63416C26.1258 1.5645 26.7731 3.10921 26.3562 4.67806C26.1544 5.44383 26.2794 6.05381 26.7073 6.69232C27.2866 7.55683 28.0063 8.26995 28.8137 8.90626C29.5312 9.47236 30.2531 9.73347 31.2559 9.52283C33.7024 9.01158 35.7847 10.7823 35.8 13.2244L35.8044 13.2266Z" fill="#F8353C"/>
<path d="M13.0816 0.0351384C14.8391 0.0548861 15.9998 0.803107 16.6976 2.18984C17.3822 3.55243 17.2637 4.92819 16.3377 6.14596C15.3701 7.42079 14.0185 8.01102 12.4584 7.6402C11.5369 7.42079 10.8764 7.65776 10.1787 8.14048C9.14739 8.85359 8.3487 9.77296 7.72555 10.8503C7.53465 11.1794 7.37887 11.5217 7.49955 11.9189C7.76504 12.7922 7.76285 13.6611 7.50613 14.5387C7.41836 14.8415 7.46444 15.1312 7.61584 15.4252C8.386 16.9348 9.53137 18.0604 11.0124 18.8701C11.4074 19.0851 11.7804 19.0259 12.1929 18.9249C14.0426 18.4773 15.6181 19.1378 16.5594 20.7264C17.4129 22.1657 17.2374 23.9233 16.1096 25.1872C14.9839 26.4488 13.1584 26.8328 11.6246 26.1306C10.0887 25.4263 9.09911 23.7785 9.49187 21.999C9.76395 20.768 9.27904 19.9759 8.63833 19.1224C8.03493 18.3171 7.24502 17.7269 6.42001 17.1696C5.96142 16.8602 5.50722 16.7966 4.96745 16.9326C3.22746 17.3692 1.69592 16.8361 0.710724 15.4954C-0.175729 14.2864 -0.234972 12.5267 0.570296 11.2518C1.46991 9.82562 2.95757 9.13226 4.7239 9.54037C5.53355 9.72908 6.10843 9.51185 6.72281 9.12787C7.84843 8.42353 8.68002 7.44273 9.38216 6.33247C9.68277 5.85633 9.64986 5.39555 9.51162 4.86675C8.84898 2.33904 11.0498 -0.162339 13.0772 0.0417207L13.0816 0.0351384Z" fill="#F8353C"/>
<path d="M7.68371 22.8525C6.89819 25.4263 8.82029 26.699 10.6261 28.0199C10.9838 28.281 11.4182 28.4675 11.879 28.3424C12.7918 28.0967 13.687 28.0835 14.5998 28.3424C15.0123 28.4609 15.4007 28.2832 15.7671 28.0747C17.0792 27.3243 18.0425 26.2404 18.7995 24.9502C19.0386 24.5421 19.0365 24.1537 18.907 23.6885C18.2707 21.4044 19.7474 19.197 22.1171 18.7692C24.0853 18.4137 26.0864 19.976 26.4616 22.2009C26.8434 24.4543 24.737 26.7999 22.3541 26.372C20.0326 25.9551 18.896 27.298 17.6695 28.7088C17.0222 29.4527 16.7808 30.2601 17.02 31.3441C17.382 32.9875 16.6536 34.3545 15.2273 35.2585C13.8889 36.1055 12.489 36.0396 11.1659 35.2234C9.6892 34.3128 9.13626 32.8844 9.49611 31.2563C9.70894 30.2908 9.43248 29.6085 8.94537 28.891C8.36171 28.0308 7.60472 27.3572 6.75776 26.7604C6.10608 26.3018 5.48513 26.1548 4.66669 26.3567C2.49225 26.892 0.36169 25.3737 0.0369502 23.1597C-0.281207 20.9875 1.49828 18.8438 3.71661 18.7275C5.84278 18.6156 7.6837 20.4499 7.68151 22.8503L7.68371 22.8525Z" fill="#F8353C"/>
<path d="M35.7957 22.5958C35.8352 24.88 33.7705 26.8964 31.6202 26.4005C30.0206 26.0319 29.0222 26.7165 27.9954 27.6578C27.4117 28.1932 26.9553 28.8229 26.5384 29.4965C26.2268 29.999 26.172 30.4686 26.3278 31.0434C26.7885 32.7417 26.0513 34.4488 24.5395 35.3287C23.1045 36.1647 21.1736 35.9365 19.9844 34.7911C18.7403 33.5953 18.4243 31.6929 19.2186 30.1789C20.0239 28.643 21.7244 27.8268 23.4424 28.2568C24.2959 28.4697 24.9827 28.259 25.6432 27.7807C26.4243 27.2168 27.0957 26.541 27.6684 25.7686C28.217 25.0292 28.6119 24.2809 28.2016 23.3089C28.0656 22.9842 28.0129 22.5146 28.1446 22.2052C28.8006 20.6627 27.8769 19.6753 26.9926 18.6682C26.5165 18.1262 25.9328 17.7093 25.347 17.2924C24.7765 16.8865 24.2038 16.8053 23.5148 16.9787C21.2394 17.5536 19.1901 16.1032 18.7929 13.6852C18.4813 11.7828 20.1072 9.66983 21.9591 9.47674C25.1188 9.14542 26.3629 11.4032 26.5209 13.1915C26.5318 13.3254 26.5296 13.4724 26.4857 13.5974C26.161 14.5102 26.1369 15.3308 26.771 16.1888C27.6662 17.4 28.7019 18.3895 30.0864 18.9973C30.4068 19.1378 30.6942 18.9666 30.9816 18.9008C33.5445 18.3215 35.7562 20.0111 35.8001 22.5958H35.7957Z" fill="#F8353C"/>
<path d="M31.4908 6.31936C30.3937 6.33253 29.5533 5.52287 29.527 4.42797C29.5007 3.32868 30.295 2.49708 31.3986 2.47294C32.5045 2.44881 33.4853 3.35501 33.4809 4.39725C33.4765 5.41097 32.5506 6.3062 31.493 6.31717L31.4908 6.31936Z" fill="#F8353C"/>
<path d="M2.45493 31.4384C2.47249 30.3282 3.28872 29.5514 4.42751 29.558C5.46097 29.5646 6.41545 30.5257 6.37376 31.5218C6.33207 32.5531 5.3754 33.4549 4.34194 33.4352C3.26678 33.4132 2.43519 32.5355 2.45493 31.4384Z" fill="#F8353C"/>
<path d="M48.9873 7.12677H55.0411V8.98525H51.1201V11.0083H54.769V12.7702H51.1201V14.8328H55.1793V16.6912H48.9895V7.12677H48.9873Z" fill="black"/>
<path d="M59.0303 11.785V11.6885L56.2283 7.12457H58.6463L60.45 10.2952H60.5728L62.3633 7.12457H64.7813L61.9947 11.6885V11.7697L64.9327 16.689H62.5015L60.5882 13.1081H60.4368L58.552 16.689H56.0923L59.0303 11.7828V11.785Z" fill="black"/>
<path d="M65.1106 11.9497V11.8817C65.1106 9.05334 67.1051 6.96228 69.8786 6.96228H69.8917C71.544 6.96228 72.8714 7.74122 73.7864 9.03798L72.2154 10.2141C71.6559 9.33859 70.9581 8.87562 70.0014 8.87562C68.3624 8.87562 67.3223 10.1044 67.3223 11.8817V11.9497C67.3223 13.7116 68.3602 14.9294 69.9729 14.9294C70.9559 14.9294 71.7502 14.4642 72.268 13.6173L73.8127 14.8065C73.0075 16.0638 71.5856 16.8691 69.9181 16.8691H69.9049C67.0766 16.8691 65.1084 14.7933 65.1084 11.9497H65.1106Z" fill="black"/>
<path d="M75.1113 7.12677H81.1651V8.98525H77.2441V11.0083H80.893V12.7702H77.2441V14.8328H81.3033V16.6912H75.1135V7.12677H75.1113Z" fill="black"/>
<path d="M83.1313 7.12677H89.1851V8.98525H85.2641V11.0083H88.913V12.7702H85.2641V14.8328H89.3233V16.6912H83.1335V7.12677H83.1313Z" fill="black"/>
<path d="M91.1509 7.12677H94.4312C97.4241 7.12677 99.4449 9.02694 99.4449 11.7455V11.9913C99.4449 14.7384 97.4372 16.6912 94.4312 16.6912H91.1509V7.12677ZM94.4707 14.8328C96.1931 14.8328 97.231 13.6567 97.231 11.9781V11.7587C97.231 10.0911 96.1931 8.98525 94.4707 8.98525H93.2814V14.8328H94.4707Z" fill="black"/>
<path d="M105.619 12.9743L102.231 7.12677H104.691L106.659 10.9534H106.741L108.696 7.12677H111.155L107.767 12.9743V16.6912H105.621V12.9743H105.619Z" fill="black"/>
<path d="M110.907 11.8531C110.907 9.03794 112.875 6.93372 115.662 6.93372H115.798C118.572 6.93372 120.566 9.03795 120.566 11.8399V11.976C120.566 14.7779 118.572 16.8668 115.798 16.8668H115.662C112.902 16.8668 110.907 14.7363 110.907 11.9606V11.8509V11.8531ZM115.688 15.0105H115.798C117.259 15.0105 118.352 13.7818 118.352 11.9628V11.8531C118.352 10.0363 117.259 8.80536 115.783 8.80536H115.673C114.225 8.80536 113.119 10.0341 113.119 11.8531V11.9628C113.119 13.7796 114.225 15.0105 115.688 15.0105Z" fill="black"/>
<path d="M122.082 13.0555V7.12457H124.213V12.9458C124.213 14.1745 124.937 14.9271 126.113 14.9271C127.289 14.9271 127.971 14.1767 127.971 12.9458V7.12457H130.102V13.0555C130.102 15.5152 128.489 16.8668 126.098 16.8668C123.706 16.8668 122.08 15.4449 122.08 13.0555H122.082Z" fill="black"/>
<path d="M132.139 7.12677H135.992C138.151 7.12677 139.448 8.26117 139.448 10.1196V10.2557C139.448 11.4318 138.818 12.4016 137.793 12.8514L140.075 16.6912H137.602L135.772 13.3297H134.269V16.6912H132.139V7.12677ZM135.678 11.717C136.784 11.717 137.332 11.1575 137.332 10.3237V10.214C137.332 9.3802 136.773 8.90187 135.693 8.90187H134.203V11.717H135.678Z" fill="black"/>
<path d="M49.3274 19.8926H51.4579V27.5986H55.2012V29.4571H49.3252V19.8926H49.3274Z" fill="black"/>
<path d="M56.6777 19.8926H58.8083V29.4571H56.6777V19.8926Z" fill="black"/>
<path d="M60.8843 19.8926H63.9035L65.9112 25.4395H66.034L68.0417 19.8926H71.0609V29.4571H68.983V22.462H68.8602L66.7559 28.1866H65.1849L63.0675 22.462H62.9578V29.4571H60.8799V19.8926H60.8843Z" fill="black"/>
<path d="M73.167 19.8926H75.2976V29.4571H73.167V19.8926Z" fill="black"/>
<path d="M79.1792 21.7511H76.5835V19.8926H83.8923V21.7511H81.3229V29.4571H79.177V21.7511H79.1792Z" fill="black"/>
<path d="M84.4519 28.2941L85.4766 26.5871C86.3104 27.3111 87.4711 27.6666 88.4563 27.6666C89.3581 27.6666 89.8628 27.3243 89.8628 26.7648C89.8628 26.067 89.0027 25.8366 88.0043 25.5624C86.4333 25.1257 84.656 24.5377 84.656 22.5695C84.656 20.6013 86.2555 19.7148 87.9363 19.7148C89.3844 19.7148 90.6 20.1252 91.5852 20.8909L90.5188 22.5848C89.8211 21.9836 88.7832 21.6567 87.978 21.6567C87.1727 21.6567 86.7339 21.999 86.7339 22.5322C86.7339 23.2014 87.5677 23.4208 88.6187 23.6929C90.3126 24.1427 91.9933 24.7725 91.9933 26.6726C91.9933 28.5728 90.4091 29.6238 88.3444 29.6238C86.8545 29.6238 85.5029 29.174 84.4497 28.2985L84.4519 28.2941Z" fill="black"/>
<path d="M102.966 25.0842V25.0491C102.966 23.2411 104.246 21.9026 105.983 21.9026H106.018C107.131 21.9026 108.002 22.4161 108.61 23.2938L107.55 23.9718C107.203 23.3903 106.758 23.0853 106.124 23.0853H106.089C105.071 23.0853 104.375 23.895 104.375 25.0425V25.0952C104.375 26.2603 105.071 27.0349 106.097 27.0349H106.124C106.984 27.0349 107.515 26.539 107.515 26.0168V25.9202H106.271V24.8078H108.748V28.1034H107.774C107.704 27.9828 107.636 27.6778 107.627 27.4254C107.304 27.8686 106.585 28.2 105.889 28.2H105.792C104.123 28.2 102.966 26.9208 102.966 25.0864V25.0842Z" fill="white"/>
<path d="M109.983 22.0145H112.434C113.808 22.0145 114.635 22.7364 114.635 23.919V24.0068C114.635 24.755 114.236 25.3716 113.584 25.659L115.037 28.1011H113.463L112.298 25.9618H111.342V28.1011H109.986V22.0145H109.983ZM112.235 24.9349C112.939 24.9349 113.286 24.5795 113.286 24.0485V23.9783C113.286 23.4473 112.93 23.1445 112.243 23.1445H111.296V24.9349H112.235Z" fill="white"/>
<path d="M115.366 25.0227C115.366 23.2322 116.619 21.8916 118.392 21.8916H118.479C120.243 21.8916 121.514 23.2301 121.514 25.0139V25.1017C121.514 26.8834 120.243 28.2153 118.479 28.2153H118.392C116.636 28.2153 115.366 26.8592 115.366 25.0929V25.0227ZM118.409 27.0304H118.479C119.41 27.0304 120.105 26.2471 120.105 25.0907V25.0205C120.105 23.8642 119.41 23.0808 118.471 23.0808H118.4C117.479 23.0808 116.774 23.8642 116.774 25.0205V25.0907C116.774 26.2471 117.479 27.0304 118.409 27.0304Z" fill="white"/>
<path d="M122.521 25.7885V22.0145H123.877V25.7183C123.877 26.5016 124.338 26.9799 125.086 26.9799C125.834 26.9799 126.269 26.5016 126.269 25.7183V22.0145H127.625V25.7885C127.625 27.3529 126.598 28.2152 125.077 28.2152C123.557 28.2152 122.521 27.3112 122.521 25.7885Z" fill="white"/>
<path d="M128.963 22.0145H131.267C132.623 22.0145 133.536 22.8329 133.536 24.0485V24.1187C133.536 25.3628 132.623 26.179 131.267 26.179H130.319V28.1011H128.963V22.0145ZM131.146 25.1105C131.798 25.1105 132.18 24.7023 132.18 24.145V24.0836C132.18 23.535 131.824 23.1796 131.179 23.1796H130.275V25.1105H131.144H131.146Z" fill="white"/>
<path fill-rule="evenodd" clip-rule="evenodd" d="M140.077 3.57218L136.151 4.65611H141.876V10.2952L142.938 6.4356L144 2.51019L140.075 3.57218H140.077Z" fill="#F8353C"/>
</svg>
