<svg width="44" height="46" viewBox="0 0 44 46" fill="none" xmlns="http://www.w3.org/2000/svg">
<path d="M24.9144 4.1524C24.9144 3.05111 25.3519 1.99494 26.1306 1.21621C26.9093 0.437484 27.9655 0 29.0668 0H34.6033C35.7046 0 36.7608 0.437484 37.5395 1.21621C38.3182 1.99494 38.7557 3.05111 38.7557 4.1524V21.0388C36.6795 19.9758 34.3265 19.3779 31.8351 19.3779C29.3436 19.3779 26.9906 19.9758 24.9144 21.0388V4.1524ZM0 4.1524C0 3.05111 0.437484 1.99494 1.21621 1.21621C1.99494 0.437484 3.05111 0 4.1524 0H9.68893C10.7902 0 11.8464 0.437484 12.6251 1.21621C13.4038 1.99494 13.8413 3.05111 13.8413 4.1524V40.1399C13.8413 41.2411 13.4038 42.2973 12.6251 43.076C11.8464 43.8548 10.7902 44.2923 9.68893 44.2923H4.1524C3.05111 44.2923 1.99494 43.8548 1.21621 43.076C0.437484 42.2973 0 41.2411 0 40.1399V4.1524ZM25.0943 26.138C25.2937 26.8484 25.349 27.5915 25.2571 28.3236C25.1652 29.0557 24.9279 29.7621 24.5591 30.4012C24.1903 31.0403 23.6974 31.5992 23.1095 32.0451C22.5217 32.491 21.8506 32.8149 21.1357 32.9977L19.8595 33.3244C19.7671 34.2602 19.7764 35.2032 19.8872 36.1369L20.8561 36.3667C21.5898 36.5406 22.2803 36.8625 22.8851 37.3127C23.49 37.7629 23.9965 38.3319 24.3737 38.9848C24.7508 39.6378 24.9906 40.3608 25.0783 41.1097C25.1661 41.8586 25.0999 42.6175 24.8839 43.34L24.5351 44.5109C25.2494 45.0757 26.0199 45.5527 26.8466 45.9421L27.7463 44.9899C28.2642 44.4419 28.8886 44.0054 29.5812 43.7073C30.2738 43.4092 31.02 43.2557 31.774 43.2562C32.528 43.2567 33.2739 43.4113 33.9661 43.7103C34.6583 44.0094 35.2821 44.4467 35.7992 44.9954L36.7321 45.9864C37.5441 45.6118 38.3027 45.1523 39.0076 44.6078L38.5758 43.0687C38.3764 42.3583 38.3211 41.6152 38.413 40.883C38.5049 40.1509 38.7423 39.4446 39.1111 38.8055C39.4799 38.1664 39.9727 37.6075 40.5606 37.1616C41.1485 36.7157 41.8196 36.3918 42.5344 36.2089L43.8106 35.8823C43.9032 34.9456 43.8939 34.0016 43.7829 33.0669L42.8168 32.8399C42.0825 32.6664 41.3915 32.3447 40.7861 31.8944C40.1807 31.4441 39.6737 30.8749 39.2962 30.2216C38.9188 29.5683 38.6788 28.8448 38.5911 28.0954C38.5034 27.3461 38.5698 26.5867 38.7862 25.8639L39.135 24.6985C38.4219 24.1328 37.6464 23.6507 36.8235 23.2617L35.9266 24.214C35.4088 24.7626 34.7844 25.1997 34.0917 25.4983C33.3989 25.7969 32.6525 25.9508 31.8981 25.9505C31.1438 25.9503 30.3974 25.7958 29.7049 25.4968C29.0124 25.1977 28.3883 24.7602 27.8709 24.2113L26.938 23.2202C26.1305 23.5924 25.3672 24.0539 24.6625 24.596L25.0943 26.138ZM31.8351 37.3716C31.1009 37.3716 30.3967 37.0799 29.8776 36.5608C29.3584 36.0416 29.0668 35.3375 29.0668 34.6033C29.0668 33.8691 29.3584 33.165 29.8776 32.6459C30.3967 32.1267 31.1009 31.8351 31.8351 31.8351C32.5692 31.8351 33.2734 32.1267 33.7925 32.6459C34.3117 33.165 34.6033 33.8691 34.6033 34.6033C34.6033 35.3375 34.3117 36.0416 33.7925 36.5608C33.2734 37.0799 32.5692 37.3716 31.8351 37.3716Z" fill="#E63C14"/>
</svg>
