<svg width="26" height="27" viewBox="0 0 26 27" fill="none" xmlns="http://www.w3.org/2000/svg">
<path d="M13.145 26.8145C10.4269 26.8145 8.08099 26.2787 6.10726 25.2073C4.14482 24.1246 2.63351 22.5851 1.57334 20.5888C0.524443 18.5812 0 16.1958 0 13.4326C0 10.7483 0.530084 8.40243 1.59026 6.39487C2.65043 4.37603 4.14482 2.80833 6.07343 1.69176C8.00204 0.56392 10.2746 0 12.8912 0C14.7409 0 16.4327 0.287599 17.9665 0.862798C19.5004 1.438 20.8256 2.28952 21.9422 3.41736C23.0587 4.54521 23.9272 5.93809 24.5475 7.59602C25.1678 9.24267 25.478 11.1318 25.478 13.2634V15.3274H2.89291V10.5228H17.7804C17.7692 9.64305 17.5605 8.8592 17.1545 8.17122C16.7485 7.48323 16.1902 6.94751 15.4796 6.56404C14.7804 6.1693 13.974 5.97193 13.0604 5.97193C12.1356 5.97193 11.3066 6.18058 10.5735 6.59788C9.84042 7.0039 9.25959 7.56218 8.83101 8.27273C8.40243 8.97199 8.17686 9.76712 8.1543 10.6581V15.5473C8.1543 16.6075 8.36295 17.538 8.78025 18.3387C9.19755 19.1282 9.78968 19.7429 10.5566 20.1827C11.3235 20.6226 12.2371 20.8425 13.2973 20.8425C14.0304 20.8425 14.6958 20.741 15.2935 20.538C15.8913 20.335 16.4045 20.0361 16.8331 19.6414C17.2616 19.2466 17.5831 18.7617 17.7974 18.1865L25.3934 18.4064C25.0776 20.1094 24.384 21.5925 23.3125 22.8557C22.2523 24.1076 20.8594 25.0832 19.1338 25.7825C17.4082 26.4705 15.412 26.8145 13.145 26.8145Z" fill="white"/>
</svg>
