<svg width="185" height="65" viewBox="0 0 185 65" fill="none" xmlns="http://www.w3.org/2000/svg">
<path d="M23.6052 48.4285C23.6052 55.5362 27.0803 61.7193 32.2011 64.8992C24.172 61.7636 18.4869 53.9737 18.4869 44.8603C18.4869 41.3934 19.3101 38.1175 20.772 35.2177H0C9.09634 35.2177 16.4712 26.8245 16.4712 16.4703C16.4712 9.36319 12.9962 3.17948 7.87479 0.000144958C15.904 3.13574 21.589 10.9257 21.589 20.0391C21.589 23.5059 20.7658 26.7818 19.3039 29.6816H40.0759C37.6302 29.6816 35.3089 30.2887 33.2222 31.3769C31.4111 32.3217 29.7762 33.6297 28.3899 35.2183C25.4324 38.6067 23.6047 43.2754 23.6047 48.4291L23.6052 48.4285Z" fill="black"/>
<path d="M90.4224 11.4844C93.9534 11.4844 96.8435 11.8377 99.0923 12.5439C101.341 13.2316 103.005 14.3004 104.083 15.75C105.16 17.1996 105.699 19.0676 105.699 21.3535C105.699 23.6208 105.16 25.4888 104.083 26.957C103.005 28.4066 101.341 29.4842 99.0923 30.1904C96.8435 30.8781 93.9534 31.2226 90.4224 31.2227C86.9097 31.2227 84.0189 30.8781 81.7515 30.1904C79.5028 29.4842 77.8391 28.4066 76.7612 26.957C75.6833 25.4888 75.1451 23.6208 75.145 21.3535C75.145 19.0677 75.6834 17.1996 76.7612 15.75C77.8391 14.3004 79.5028 13.2316 81.7515 12.5439C84.0189 11.8377 86.9097 11.4844 90.4224 11.4844ZM73.6763 15.666H62.3296V30.8594H57.8413V15.666H46.4673V11.8467H73.6763V15.666ZM113.105 22.0312L117.231 18.9561L128.382 11.8467H134.599L122.858 19.7832L135.073 30.8594H129.163L119.308 21.9756L113.105 25.9697V30.8594H108.644V11.8467H113.105V22.0312ZM168.54 30.8594H161.681L159.381 27.1797H145.331L143.031 30.8594H136.228L148.606 11.8467H156.162L168.54 30.8594ZM175.39 30.8594H169.731V11.8467H175.39V30.8594ZM183.574 30.8594H178.11V25.2842H183.574V30.8594ZM90.4224 15.332C87.7089 15.332 85.5617 15.5364 83.9819 15.9453C82.4023 16.3542 81.2779 17.0044 80.6089 17.8965C79.9398 18.77 79.605 19.9224 79.605 21.3535C79.605 22.7844 79.9399 23.9458 80.6089 24.8379C81.2779 25.7114 82.4023 26.3528 83.9819 26.7617C85.5617 27.1706 87.7089 27.375 90.4224 27.375C92.4665 27.375 94.1761 27.263 95.5513 27.04C96.9266 26.7984 98.0235 26.4363 98.8413 25.9531C99.6776 25.4699 100.272 24.8469 100.625 24.085C100.997 23.3231 101.183 22.4126 101.183 21.3535C101.183 20.2756 100.997 19.3645 100.625 18.6211C100.272 17.8592 99.6775 17.2371 98.8413 16.7539C98.0235 16.2521 96.9266 15.889 95.5513 15.666C94.1761 15.443 92.4664 15.332 90.4224 15.332ZM147.788 23.249H156.924L152.355 15.9385L147.788 23.249Z" fill="black"/>
<path d="M150.515 37.9315C151.699 37.9316 152.898 37.9904 154.112 38.1073C155.34 38.2243 156.533 38.385 157.688 38.5898C158.843 38.7798 159.904 38.9915 160.869 39.2255L160.364 41.4853C159.53 41.2952 158.58 41.1119 157.512 40.9364C156.445 40.7463 155.319 40.5856 154.134 40.454C152.965 40.3224 151.787 40.2568 150.603 40.2567C149.068 40.2567 147.78 40.3665 146.742 40.5858C145.704 40.8052 144.877 41.1414 144.263 41.5946C143.649 42.048 143.21 42.6114 142.947 43.2841C142.684 43.9421 142.552 44.7321 142.552 45.6532C142.552 46.5595 142.684 47.3489 142.947 48.0214C143.21 48.6941 143.649 49.2575 144.263 49.7108C144.877 50.1495 145.704 50.4788 146.742 50.6982C147.78 50.9175 149.068 51.0273 150.603 51.0273C151.787 51.0272 152.965 50.9684 154.134 50.8515C155.319 50.7199 156.445 50.5591 157.512 50.369C158.58 50.1789 159.53 49.9957 160.364 49.8202L160.869 52.08C159.904 52.3139 158.843 52.5256 157.688 52.7157C156.533 52.9058 155.34 53.0597 154.112 53.1767C152.898 53.3082 151.699 53.3739 150.515 53.3739C148.658 53.3739 147.049 53.2132 145.689 52.8915C144.344 52.5698 143.239 52.0945 142.376 51.4657C141.528 50.8223 140.9 50.0177 140.491 49.0526C140.081 48.0876 139.877 46.9546 139.876 45.6532C139.876 44.3517 140.081 43.218 140.491 42.2528C140.9 41.2732 141.528 40.4685 142.376 39.8398C143.239 39.1963 144.344 38.7211 145.689 38.414C147.049 38.0923 148.658 37.9315 150.515 37.9315ZM80.8833 37.9315C82.0385 37.9315 83.2086 37.9903 84.3931 38.1073C85.5922 38.2243 86.7553 38.385 87.8813 38.5898C89.0072 38.7798 90.0383 38.9915 90.9741 39.2255L90.4692 41.4853C89.6357 41.2952 88.6852 41.1119 87.6177 40.9364C86.5648 40.7463 85.4457 40.5856 84.2612 40.454C83.0916 40.3224 81.9074 40.2568 80.7085 40.2567C79.1438 40.2567 77.8346 40.3665 76.7817 40.5858C75.729 40.8052 74.8881 41.1414 74.2593 41.5946C73.6452 42.0333 73.1992 42.5891 72.9214 43.2616C72.6582 43.9343 72.5259 44.7242 72.5259 45.6308C72.5259 46.5519 72.6582 47.3488 72.9214 48.0214C73.1992 48.6941 73.6451 49.2575 74.2593 49.7108C74.8881 50.1495 75.7289 50.4788 76.7817 50.6982C77.8346 50.9175 79.1438 51.0273 80.7085 51.0273C81.6002 51.0272 82.4847 50.9831 83.3618 50.8954C84.2539 50.8077 85.1171 50.7058 85.9507 50.5888C86.7842 50.4572 87.5378 50.3249 88.2104 50.1933V45.412H90.9741V52.0575C90.0383 52.2915 89.0072 52.511 87.8813 52.7157C86.7553 52.9058 85.5922 53.0597 84.3931 53.1767C83.2086 53.2936 82.0385 53.3524 80.8833 53.3524C78.9385 53.3524 77.2637 53.1986 75.8599 52.8915C74.4708 52.5698 73.3299 52.0945 72.438 51.4657C71.5607 50.8223 70.9099 50.0177 70.4858 49.0526C70.0618 48.0875 69.8501 46.9468 69.8501 45.6308C69.8501 44.3295 70.0619 43.1964 70.4858 42.2314C70.9099 41.2663 71.5607 40.4685 72.438 39.8398C73.3299 39.1964 74.4708 38.7211 75.8599 38.414C77.2637 38.0923 78.9385 37.9316 80.8833 37.9315ZM70.0083 53.1112H66.7622L64.4233 49.6894H51.2173L48.8843 53.1112H45.6382L56.0571 38.1513H59.5894L70.0083 53.1112ZM113.243 40.3007H96.5493V44.578H112.826V46.3983H96.5493V50.9608H113.243V53.1112H93.8735V38.1513H113.243V40.3007ZM134.534 50.2157V38.1513H137.21V53.1112H134.162L118.806 40.9589V53.1112H116.13V38.1513H119.202L134.534 50.2157ZM173.28 45.1483L181.243 38.1513H184.686L174.596 47.2099V53.1112H171.92V47.1884L161.83 38.1513H165.318L173.28 45.1483ZM52.5337 47.7587H63.104L57.813 40.0155L52.5337 47.7587Z" fill="black"/>
</svg>
