<svg width="1124" height="208" viewBox="0 0 1124 208" fill="none" xmlns="http://www.w3.org/2000/svg">
<mask id="mask0_772_213" style="mask-type:luminance" maskUnits="userSpaceOnUse" x="470" y="144" width="145" height="56">
<path d="M615 144.073H470V199.753H615V144.073Z" fill="white"/>
</mask>
<g mask="url(#mask0_772_213)">
<path fill-rule="evenodd" clip-rule="evenodd" d="M532.387 146.571L524.41 148.775H536.044V160.233L538.204 152.388L540.363 144.412L532.387 146.571Z" fill="black"/>
<path fill-rule="evenodd" clip-rule="evenodd" d="M475.267 154.913V154.917H471.056V186.128H499.042V180.281H477.693V173.177H497.781L493.972 167.33H477.693V160.791H496.733L504.898 173.356V186.128H511.535V173.356L519.658 160.78H523.296V186.128H543.171V180.28H529.969V154.916H523.446H523.296H515.912L508.199 167.401L500.486 154.916H497.254V154.913H475.267Z" fill="black"/>
<path d="M478.561 189.228C478.999 189.228 479.225 189.45 479.238 189.894L479.501 196.196H477.774L477.551 190.662H477.39L476.501 194.57C476.434 194.961 476.191 195.156 475.774 195.156H474.713C474.303 195.156 474.057 194.961 473.976 194.57L473.087 190.662H472.926L472.734 196.196H471.007L471.259 189.894C471.28 189.45 471.505 189.228 471.936 189.228H473.633C474.037 189.228 474.276 189.426 474.35 189.823L475.037 192.924C475.07 193.086 475.097 193.254 475.117 193.429C475.144 193.597 475.168 193.769 475.188 193.944H475.299C475.326 193.769 475.35 193.597 475.37 193.429C475.39 193.254 475.417 193.082 475.451 192.914L476.107 189.823C476.188 189.426 476.434 189.228 476.844 189.228H478.561ZM485.94 189.228C486.095 189.228 486.229 189.271 486.344 189.359C486.465 189.446 486.546 189.568 486.586 189.722L488.495 196.196H486.556L485.334 191.389C485.307 191.274 485.283 191.153 485.263 191.025C485.243 190.891 485.223 190.766 485.203 190.652H484.93C484.916 190.766 484.896 190.891 484.869 191.025C484.849 191.153 484.825 191.274 484.799 191.389L483.576 196.196H481.637L483.546 189.722C483.587 189.568 483.664 189.446 483.778 189.359C483.9 189.271 484.038 189.228 484.193 189.228H485.94ZM486.899 193.176V194.54H483.233V193.176H486.899ZM493.595 189.127C494.248 189.127 494.78 189.19 495.191 189.318C495.601 189.446 495.901 189.662 496.089 189.965C496.285 190.261 496.382 190.682 496.382 191.227C496.382 191.523 496.338 191.793 496.251 192.035C496.17 192.278 496.029 192.476 495.827 192.631C495.625 192.779 495.349 192.873 494.999 192.914V192.975C495.126 192.988 495.261 193.028 495.403 193.096C495.551 193.163 495.685 193.274 495.807 193.429C495.935 193.577 496.025 193.782 496.079 194.045L496.655 196.196H494.665L494.17 194.106C494.123 193.89 494.049 193.749 493.948 193.682C493.847 193.607 493.699 193.57 493.504 193.57C493.019 193.564 492.618 193.56 492.302 193.56C491.986 193.56 491.716 193.557 491.494 193.55C491.279 193.543 491.073 193.533 490.878 193.52L490.908 192.197H493.554C493.797 192.197 493.982 192.173 494.11 192.126C494.245 192.079 494.339 191.995 494.393 191.874C494.447 191.746 494.473 191.571 494.473 191.348C494.473 191.12 494.447 190.945 494.393 190.823C494.339 190.702 494.245 190.618 494.11 190.571C493.982 190.524 493.797 190.5 493.554 190.5C492.888 190.5 492.322 190.503 491.858 190.51C491.4 190.517 491.087 190.527 490.918 190.54L490.767 189.228C491.063 189.194 491.343 189.17 491.605 189.157C491.868 189.143 492.154 189.137 492.464 189.137C492.78 189.13 493.157 189.127 493.595 189.127ZM492.625 189.228V196.196H490.767V189.228H492.625ZM505.119 189.228L503.423 191.995C503.342 192.129 503.251 192.247 503.15 192.348C503.049 192.443 502.951 192.517 502.857 192.57V192.601C502.951 192.655 503.062 192.742 503.19 192.863C503.318 192.978 503.419 193.106 503.493 193.247L505.23 196.196H503.13L501.14 192.55L503.089 189.228H505.119ZM501.079 189.228V191.086C501.079 191.328 501.056 191.577 501.009 191.833C500.968 192.082 500.904 192.318 500.817 192.54C500.884 192.749 500.945 192.975 500.999 193.217C501.052 193.453 501.079 193.668 501.079 193.863V196.196H499.191V189.228H501.079ZM501.736 191.944V193.207H500.524V191.944H501.736ZM508.932 189.197C509.322 189.197 509.72 189.197 510.124 189.197C510.534 189.197 510.935 189.207 511.326 189.228C511.723 189.241 512.086 189.268 512.416 189.308L512.325 190.662H509.72C509.572 190.662 509.457 190.702 509.376 190.783C509.296 190.857 509.255 190.961 509.255 191.096V194.328C509.255 194.463 509.296 194.57 509.376 194.651C509.457 194.725 509.572 194.762 509.72 194.762H512.325L512.416 196.115C512.086 196.149 511.723 196.176 511.326 196.196C510.935 196.21 510.534 196.216 510.124 196.216C509.72 196.223 509.322 196.227 508.932 196.227C508.467 196.227 508.09 196.089 507.801 195.812C507.511 195.536 507.366 195.176 507.366 194.732V190.692C507.366 190.241 507.511 189.881 507.801 189.611C508.09 189.335 508.467 189.197 508.932 189.197ZM507.548 191.964H511.962V193.247H507.548V191.964ZM518.515 189.228V196.196H516.617V189.228H518.515ZM520.525 189.228V190.672H514.597V189.228H520.525ZM524.871 189.228V196.196H522.992V189.228H524.871ZM533.977 189.228V195.53C533.977 195.974 533.758 196.196 533.32 196.196H532.472C532.27 196.196 532.119 196.149 532.018 196.055C531.923 195.961 531.826 195.823 531.725 195.641L530.018 192.672C529.937 192.503 529.856 192.321 529.775 192.126C529.695 191.931 529.627 191.736 529.573 191.54H529.483C529.509 191.736 529.53 191.938 529.543 192.146C529.563 192.348 529.573 192.544 529.573 192.732V196.196H527.806V189.894C527.806 189.45 528.028 189.228 528.473 189.228H529.311C529.513 189.228 529.661 189.275 529.755 189.369C529.849 189.463 529.951 189.601 530.058 189.783L531.694 192.641C531.789 192.803 531.879 192.981 531.967 193.176C532.055 193.372 532.139 193.577 532.219 193.793H532.31C532.29 193.584 532.273 193.379 532.26 193.176C532.246 192.975 532.24 192.773 532.24 192.57L532.23 189.228H533.977ZM539.89 189.086C540.233 189.086 540.536 189.096 540.799 189.116C541.068 189.137 541.317 189.167 541.546 189.207C541.782 189.241 542.014 189.292 542.243 189.359L542.101 190.732C541.859 190.726 541.623 190.722 541.394 190.722C541.165 190.716 540.933 190.712 540.698 190.712C540.462 190.705 540.199 190.702 539.91 190.702C539.674 190.702 539.475 190.729 539.314 190.783C539.159 190.837 539.034 190.938 538.94 191.086C538.853 191.234 538.789 191.443 538.748 191.712C538.708 191.975 538.688 192.311 538.688 192.722C538.688 193.24 538.718 193.644 538.779 193.934C538.846 194.223 538.954 194.425 539.102 194.54C539.25 194.654 539.455 194.712 539.718 194.712C539.893 194.712 540.051 194.702 540.193 194.681C540.341 194.654 540.472 194.621 540.586 194.58C540.708 194.533 540.812 194.493 540.9 194.459L541.091 195.287C541.004 195.422 540.863 195.573 540.667 195.742C540.479 195.903 540.243 196.045 539.96 196.166C539.677 196.28 539.351 196.338 538.981 196.338C538.455 196.338 538.021 196.216 537.678 195.974C537.341 195.725 537.092 195.334 536.93 194.803C536.776 194.271 536.698 193.574 536.698 192.712C536.698 191.81 536.799 191.096 537.001 190.571C537.21 190.039 537.547 189.658 538.011 189.43C538.482 189.201 539.109 189.086 539.89 189.086ZM542.516 192.187V196.196H541.122L540.869 195.126L540.698 194.792V192.187H542.516Z" fill="black"/>
<path d="M550.345 144.073H549.733V198.855H550.345V144.073Z" fill="black"/>
<path d="M559.824 149.415C560.418 149.415 561.018 149.421 561.623 149.431C562.227 149.431 562.822 149.442 563.405 149.463C563.989 149.484 564.535 149.521 565.044 149.574L564.933 151.341H560.716C560.45 151.341 560.249 151.41 560.111 151.548C559.983 151.686 559.92 151.887 559.92 152.152V157.754C559.92 158.02 559.983 158.221 560.111 158.359C560.249 158.497 560.45 158.566 560.716 158.566H564.933L565.044 160.333C564.535 160.375 563.989 160.412 563.405 160.444C562.822 160.465 562.227 160.476 561.623 160.476C561.018 160.486 560.418 160.492 559.824 160.492C559.124 160.492 558.557 160.29 558.122 159.887C557.697 159.473 557.485 158.937 557.485 158.28V151.627C557.485 150.959 557.697 150.423 558.122 150.02C558.557 149.617 559.124 149.415 559.824 149.415ZM557.771 153.871H564.344V155.59H557.771V153.871ZM575.55 149.463L572.844 154.81L575.757 160.444H573.274L570.537 154.81L573.083 149.463H575.55ZM568.5 149.463L571.046 154.81L568.309 160.444H565.826L568.723 154.81L566.033 149.463H568.5ZM571.969 154.03V155.526H569.47V154.03H571.969ZM580.993 149.272C581.513 149.272 581.953 149.288 582.314 149.32C582.685 149.341 583.025 149.378 583.332 149.431C583.64 149.484 583.958 149.558 584.287 149.654L584.096 151.436C583.746 151.415 583.423 151.399 583.126 151.389C582.839 151.378 582.526 151.373 582.187 151.373C581.858 151.362 581.46 151.357 580.993 151.357C580.452 151.357 580.028 151.463 579.72 151.675C579.423 151.887 579.211 152.259 579.083 152.789C578.956 153.309 578.892 154.03 578.892 154.953C578.892 155.876 578.956 156.603 579.083 157.134C579.211 157.654 579.423 158.02 579.72 158.232C580.028 158.444 580.452 158.55 580.993 158.55C581.725 158.55 582.34 158.54 582.839 158.518C583.338 158.497 583.831 158.46 584.319 158.407L584.526 160.189C584.017 160.349 583.497 160.46 582.966 160.524C582.436 160.598 581.778 160.635 580.993 160.635C579.858 160.635 578.945 160.455 578.256 160.094C577.577 159.722 577.083 159.123 576.776 158.296C576.479 157.468 576.33 156.354 576.33 154.953C576.33 153.553 576.479 152.439 576.776 151.611C577.083 150.784 577.577 150.19 578.256 149.829C578.945 149.458 579.858 149.272 580.993 149.272ZM588.312 149.415C588.906 149.415 589.505 149.421 590.11 149.431C590.715 149.431 591.309 149.442 591.893 149.463C592.476 149.484 593.023 149.521 593.532 149.574L593.42 151.341H589.203C588.938 151.341 588.736 151.41 588.598 151.548C588.471 151.686 588.407 151.887 588.407 152.152V157.754C588.407 158.02 588.471 158.221 588.598 158.359C588.736 158.497 588.938 158.566 589.203 158.566H593.42L593.532 160.333C593.023 160.375 592.476 160.412 591.893 160.444C591.309 160.465 590.715 160.476 590.11 160.476C589.505 160.486 588.906 160.492 588.312 160.492C587.611 160.492 587.044 160.29 586.609 159.887C586.184 159.473 585.973 158.937 585.973 158.28V151.627C585.973 150.959 586.184 150.423 586.609 150.02C587.044 149.617 587.611 149.415 588.312 149.415ZM586.259 153.871H592.831V155.59H586.259V153.871ZM597.513 149.415C598.107 149.415 598.707 149.421 599.311 149.431C599.915 149.431 600.509 149.442 601.094 149.463C601.677 149.484 602.224 149.521 602.733 149.574L602.622 151.341H598.404C598.138 151.341 597.937 151.41 597.799 151.548C597.672 151.686 597.608 151.887 597.608 152.152V157.754C597.608 158.02 597.672 158.221 597.799 158.359C597.937 158.497 598.138 158.566 598.404 158.566H602.622L602.733 160.333C602.224 160.375 601.677 160.412 601.094 160.444C600.509 160.465 599.915 160.476 599.311 160.476C598.707 160.486 598.107 160.492 597.513 160.492C596.812 160.492 596.245 160.29 595.81 159.887C595.385 159.473 595.173 158.937 595.173 158.28V151.627C595.173 150.959 595.385 150.423 595.81 150.02C596.245 149.617 596.812 149.415 597.513 149.415ZM595.46 153.871H602.032V155.59H595.46V153.871ZM608.766 149.304C609.636 149.304 610.368 149.399 610.962 149.59C611.567 149.771 612.05 150.073 612.411 150.497C612.782 150.922 613.052 151.5 613.222 152.232C613.392 152.954 613.477 153.861 613.477 154.953C613.477 156.046 613.392 156.959 613.222 157.691C613.052 158.412 612.782 158.985 612.411 159.41C612.05 159.834 611.567 160.142 610.962 160.333C610.368 160.513 609.636 160.603 608.766 160.603C607.927 160.603 607.158 160.587 606.459 160.555C605.758 160.524 605.09 160.486 604.453 160.444L605.472 158.646C605.875 158.667 606.352 158.688 606.904 158.709C607.467 158.72 608.087 158.725 608.766 158.725C609.307 158.725 609.731 158.619 610.04 158.407C610.358 158.184 610.58 157.797 610.708 157.245C610.846 156.693 610.914 155.93 610.914 154.953C610.914 153.977 610.846 153.213 610.708 152.662C610.58 152.11 610.358 151.723 610.04 151.5C609.731 151.277 609.307 151.166 608.766 151.166C608.119 151.166 607.541 151.171 607.032 151.182C606.523 151.182 606.024 151.182 605.535 151.182L604.453 149.463C605.09 149.421 605.752 149.383 606.443 149.352C607.143 149.32 607.917 149.304 608.766 149.304ZM606.888 149.463V160.444H604.453V149.463H606.888ZM566.19 166.863L562.482 174.359H560.19L556.466 166.863H558.997L560.843 170.905C560.938 171.117 561.018 171.346 561.082 171.59C561.145 171.834 561.204 172.067 561.257 172.29H561.416C561.479 172.067 561.543 171.834 561.607 171.59C561.67 171.346 561.745 171.117 561.83 170.905L563.66 166.863H566.19ZM562.546 172.879V177.844H560.111V172.879H562.546ZM571.359 166.64C572.229 166.64 572.966 166.736 573.571 166.927C574.176 167.107 574.659 167.415 575.019 167.85C575.391 168.274 575.661 168.858 575.831 169.6C576.001 170.332 576.086 171.25 576.086 172.353C576.086 173.457 576.001 174.38 575.831 175.123C575.661 175.855 575.391 176.438 575.019 176.873C574.659 177.298 574.176 177.605 573.571 177.796C572.966 177.977 572.229 178.067 571.359 178.067C570.489 178.067 569.752 177.977 569.147 177.796C568.542 177.605 568.054 177.298 567.683 176.873C567.311 176.438 567.041 175.855 566.871 175.123C566.701 174.38 566.617 173.457 566.617 172.353C566.617 171.25 566.701 170.332 566.871 169.6C567.041 168.858 567.311 168.274 567.683 167.85C568.054 167.415 568.542 167.107 569.147 166.927C569.752 166.736 570.489 166.64 571.359 166.64ZM571.359 168.566C570.797 168.566 570.356 168.677 570.038 168.9C569.731 169.123 569.508 169.51 569.37 170.062C569.242 170.603 569.179 171.367 569.179 172.353C569.179 173.33 569.242 174.093 569.37 174.645C569.508 175.197 569.731 175.584 570.038 175.807C570.356 176.03 570.797 176.141 571.359 176.141C571.911 176.141 572.341 176.03 572.648 175.807C572.966 175.584 573.189 175.197 573.317 174.645C573.455 174.093 573.524 173.33 573.524 172.353C573.524 171.367 573.455 170.603 573.317 170.062C573.189 169.51 572.966 169.123 572.648 168.9C572.341 168.677 571.911 168.566 571.359 168.566ZM586.724 166.863V173.467C586.724 174.581 586.587 175.478 586.311 176.157C586.035 176.825 585.578 177.314 584.942 177.621C584.316 177.918 583.478 178.067 582.427 178.067C581.313 178.067 580.422 177.918 579.754 177.621C579.085 177.314 578.602 176.825 578.305 176.157C578.008 175.478 577.86 174.581 577.86 173.467V166.863H580.295V173.467C580.295 174.157 580.353 174.698 580.47 175.091C580.597 175.473 580.809 175.743 581.106 175.902C581.403 176.062 581.801 176.141 582.3 176.141C582.799 176.141 583.191 176.062 583.478 175.902C583.775 175.743 583.982 175.473 584.098 175.091C584.226 174.698 584.289 174.157 584.289 173.467V166.863H586.724ZM593.083 166.704C594.048 166.704 594.829 166.805 595.423 167.006C596.027 167.197 596.468 167.531 596.743 168.009C597.029 168.476 597.173 169.128 597.173 169.966C597.173 170.476 597.103 170.926 596.965 171.319C596.839 171.701 596.621 172.009 596.313 172.242C596.006 172.476 595.586 172.624 595.056 172.688V172.767C595.247 172.799 595.443 172.873 595.645 172.99C595.858 173.107 596.054 173.282 596.233 173.515C596.414 173.738 596.547 174.04 596.631 174.422L597.587 177.844H595.025L594.181 174.502C594.085 174.141 593.942 173.892 593.751 173.754C593.571 173.616 593.316 173.547 592.988 173.547C592.266 173.547 591.656 173.547 591.157 173.547C590.669 173.536 590.255 173.526 589.916 173.515C589.587 173.505 589.29 173.494 589.025 173.483L589.073 171.717H593.035C593.46 171.717 593.794 171.674 594.038 171.59C594.293 171.494 594.468 171.33 594.563 171.096C594.669 170.863 594.722 170.539 594.722 170.125C594.722 169.701 594.669 169.377 594.563 169.155C594.468 168.921 594.293 168.762 594.038 168.677C593.794 168.582 593.46 168.534 593.035 168.534C592.038 168.534 591.194 168.539 590.504 168.55C589.815 168.561 589.343 168.576 589.088 168.598L588.85 166.863C589.295 166.81 589.714 166.773 590.106 166.751C590.5 166.73 590.929 166.72 591.396 166.72C591.863 166.709 592.425 166.704 593.083 166.704ZM591.252 166.863V177.844H588.85V166.863H591.252ZM559.968 184.263V192.475C559.968 192.74 560.042 192.942 560.19 193.08C560.339 193.217 560.551 193.286 560.827 193.286H564.662L564.774 195.117C564.02 195.202 563.23 195.249 562.402 195.26C561.586 195.281 560.769 195.292 559.952 195.292C559.156 195.292 558.551 195.08 558.137 194.655C557.734 194.22 557.533 193.668 557.533 193V184.263H559.968ZM568.532 184.263V195.244H566.113V184.263H568.532ZM581.995 184.263C582.568 184.263 582.865 184.56 582.886 185.154L583.3 195.244H581.056L580.69 186.141H580.404L578.637 192.984C578.542 193.493 578.223 193.748 577.682 193.748H576.155C575.614 193.748 575.285 193.493 575.168 192.984L573.401 186.141H573.131L572.797 195.244H570.537L570.951 185.154C570.972 184.56 571.274 184.263 571.858 184.263H574.133C574.653 184.263 574.972 184.523 575.088 185.043L576.505 190.565C576.568 190.82 576.621 191.08 576.664 191.345C576.706 191.6 576.754 191.859 576.807 192.125H577.014C577.067 191.859 577.115 191.6 577.157 191.345C577.21 191.08 577.263 190.814 577.316 190.549L578.717 185.043C578.823 184.523 579.141 184.263 579.672 184.263H581.995ZM587.741 184.263V195.244H585.322V184.263H587.741ZM594.854 184.263V195.244H592.419V184.263H594.854ZM598.165 184.263V186.173H589.125V184.263H598.165ZM603.155 184.056C603.696 184.056 604.285 184.088 604.922 184.151C605.559 184.205 606.179 184.321 606.784 184.502L606.625 186.109C606.157 186.098 605.611 186.088 604.986 186.077C604.359 186.067 603.744 186.061 603.139 186.061C602.842 186.061 602.588 186.072 602.376 186.093C602.174 186.104 602.009 186.146 601.881 186.22C601.755 186.284 601.665 186.385 601.611 186.523C601.558 186.661 601.532 186.852 601.532 187.096C601.532 187.467 601.617 187.738 601.786 187.907C601.967 188.077 602.269 188.231 602.693 188.369L604.81 189.053C605.691 189.35 606.301 189.753 606.641 190.263C606.98 190.772 607.15 191.44 607.15 192.268C607.15 192.894 607.076 193.414 606.926 193.828C606.778 194.241 606.545 194.565 606.227 194.798C605.908 195.032 605.489 195.196 604.969 195.292C604.45 195.398 603.813 195.451 603.06 195.451C602.699 195.451 602.184 195.424 601.516 195.371C600.848 195.329 600.083 195.212 599.224 195.021L599.383 193.302C600.009 193.313 600.551 193.329 601.007 193.35C601.473 193.361 601.871 193.371 602.2 193.382C602.529 193.382 602.815 193.382 603.06 193.382C603.483 193.382 603.813 193.355 604.046 193.302C604.291 193.249 604.46 193.143 604.555 192.984C604.652 192.825 604.699 192.597 604.699 192.3C604.699 192.045 604.662 191.844 604.588 191.695C604.524 191.536 604.413 191.414 604.254 191.329C604.105 191.234 603.898 191.149 603.633 191.074L601.405 190.311C600.566 190.003 599.972 189.6 599.622 189.101C599.271 188.602 599.097 187.944 599.097 187.128C599.097 186.491 599.172 185.976 599.32 185.584C599.479 185.181 599.718 184.868 600.036 184.645C600.364 184.422 600.784 184.268 601.293 184.183C601.813 184.098 602.434 184.056 603.155 184.056Z" fill="black"/>
</g>
<path d="M982.421 146.655L976.934 134.746L969.483 144.658L974.013 149.732C980.098 156.23 976.932 167.074 968.196 169.052C958.581 171.229 950.317 160.831 955.191 152.108C956.022 150.621 957.146 149.336 958.288 148.086L962.72 152.849C961.173 154.587 959.896 156.815 960.421 159.237C961.312 163.347 967.858 164.212 969.991 160.591C972.483 156.359 967.522 152.58 965.194 149.626L947 129.351L951.673 125.073C951.886 125.398 952.25 125.767 952.552 126.028C955.29 128.395 959.86 128.697 962.878 126.689C963.302 126.407 963.643 126.04 964.07 125.769L968.353 130.36C966.218 132.56 963.307 133.863 960.28 134.267L965.034 139.634L973.667 128.04H980.926L998.262 165.623L991.15 165.564L985.524 153.378L979.145 153.347C978.696 151.73 977.817 150.291 976.88 148.918L976.329 148.202L983.122 148.169" fill="black"/>
<path d="M969.296 133.911L974.247 138.316L969.481 144.657L965.034 139.633L969.296 133.911Z" fill="black"/>
<path d="M1013.45 157.493V140.553H1006.97V136.925H1023.82V140.553H1017.34V157.493H1013.45Z" fill="black"/>
<path d="M1035.23 157.921C1033.17 157.921 1031.4 157.474 1029.9 156.579C1028.42 155.684 1027.27 154.431 1026.46 152.822C1025.66 151.213 1025.26 149.342 1025.26 147.209C1025.26 145.076 1025.66 143.205 1026.46 141.595C1027.27 139.986 1028.42 138.734 1029.9 137.839C1031.4 136.944 1033.17 136.496 1035.23 136.496C1037.29 136.496 1039.06 136.944 1040.54 137.839C1042.04 138.734 1043.19 139.986 1043.99 141.595C1044.8 143.205 1045.2 145.076 1045.2 147.209C1045.2 149.342 1044.8 151.213 1043.99 152.822C1043.19 154.431 1042.04 155.684 1040.54 156.579C1039.06 157.474 1037.29 157.921 1035.23 157.921ZM1035.23 154.265C1036.53 154.284 1037.62 154.003 1038.49 153.422C1039.35 152.841 1040 152.018 1040.43 150.951C1040.87 149.884 1041.09 148.637 1041.09 147.209C1041.09 145.78 1040.87 144.542 1040.43 143.495C1040 142.448 1039.35 141.633 1038.49 141.053C1037.62 140.472 1036.53 140.172 1035.23 140.153C1033.93 140.134 1032.84 140.415 1031.97 140.995C1031.11 141.576 1030.45 142.4 1030.02 143.466C1029.59 144.533 1029.37 145.78 1029.37 147.209C1029.37 148.637 1029.59 149.875 1030.02 150.922C1030.45 151.97 1031.11 152.784 1031.97 153.365C1032.84 153.946 1033.93 154.246 1035.23 154.265Z" fill="black"/>
<path d="M1048.34 157.493V136.925H1052.22V146.409L1060.05 136.925H1064.79L1056.19 147.066L1065.33 157.493H1060.42L1052.22 148.123V157.493H1048.34Z" fill="black"/>
<path d="M1066.19 157.493L1072.48 136.925H1078.28L1084.56 157.493H1080.56L1074.96 139.353H1075.71L1070.19 157.493H1066.19ZM1069.96 153.208V149.58H1080.82V153.208H1069.96Z" fill="black"/>
<path d="M1087.41 157.493V136.925H1094.06C1094.22 136.925 1094.56 136.929 1095.06 136.939C1095.57 136.948 1096.05 136.982 1096.52 137.039C1098.18 137.239 1099.58 137.815 1100.73 138.767C1101.89 139.719 1102.76 140.929 1103.36 142.395C1103.96 143.862 1104.26 145.466 1104.26 147.209C1104.26 148.951 1103.96 150.556 1103.36 152.022C1102.76 153.489 1101.89 154.698 1100.73 155.65C1099.58 156.603 1098.18 157.179 1096.52 157.379C1096.05 157.436 1095.57 157.469 1095.06 157.479C1094.56 157.488 1094.22 157.493 1094.06 157.493H1087.41ZM1091.35 153.836H1094.06C1094.32 153.836 1094.67 153.832 1095.11 153.822C1095.54 153.803 1095.94 153.76 1096.29 153.693C1097.19 153.513 1097.91 153.094 1098.48 152.436C1099.05 151.779 1099.47 150.989 1099.73 150.065C1100.01 149.142 1100.15 148.19 1100.15 147.209C1100.15 146.18 1100 145.204 1099.72 144.281C1099.44 143.357 1099.02 142.576 1098.45 141.938C1097.88 141.3 1097.16 140.895 1096.29 140.724C1095.94 140.648 1095.54 140.605 1095.11 140.595C1094.67 140.586 1094.32 140.581 1094.06 140.581H1091.35V153.836Z" fill="black"/>
<path d="M1115.74 157.921C1114.22 157.921 1112.84 157.655 1111.62 157.121C1110.4 156.579 1109.39 155.807 1108.6 154.808C1107.82 153.798 1107.33 152.598 1107.12 151.208L1111.17 150.608C1111.46 151.789 1112.05 152.698 1112.94 153.336C1113.84 153.974 1114.86 154.293 1116 154.293C1116.64 154.293 1117.26 154.193 1117.86 153.993C1118.46 153.793 1118.95 153.498 1119.33 153.108C1119.72 152.717 1119.91 152.237 1119.91 151.665C1119.91 151.456 1119.88 151.256 1119.82 151.065C1119.76 150.865 1119.66 150.68 1119.52 150.508C1119.37 150.337 1119.17 150.175 1118.9 150.023C1118.64 149.87 1118.32 149.732 1117.92 149.608L1112.57 148.037C1112.17 147.923 1111.71 147.761 1111.17 147.552C1110.65 147.342 1110.14 147.042 1109.65 146.652C1109.15 146.261 1108.74 145.747 1108.4 145.109C1108.08 144.462 1107.92 143.647 1107.92 142.667C1107.92 141.286 1108.26 140.138 1108.96 139.224C1109.65 138.31 1110.58 137.629 1111.74 137.182C1112.91 136.734 1114.19 136.515 1115.6 136.525C1117.02 136.544 1118.29 136.787 1119.4 137.253C1120.51 137.72 1121.45 138.401 1122.2 139.296C1122.95 140.181 1123.5 141.267 1123.83 142.552L1119.63 143.266C1119.48 142.6 1119.2 142.038 1118.79 141.581C1118.38 141.124 1117.89 140.776 1117.32 140.538C1116.75 140.3 1116.16 140.172 1115.54 140.153C1114.93 140.134 1114.36 140.219 1113.82 140.41C1113.28 140.591 1112.84 140.857 1112.5 141.21C1112.17 141.562 1112 141.981 1112 142.467C1112 142.914 1112.14 143.281 1112.42 143.566C1112.69 143.843 1113.04 144.066 1113.46 144.238C1113.88 144.409 1114.31 144.552 1114.74 144.666L1118.32 145.638C1118.85 145.78 1119.44 145.971 1120.09 146.209C1120.73 146.437 1121.35 146.761 1121.94 147.18C1122.54 147.59 1123.03 148.132 1123.41 148.808C1123.8 149.485 1124 150.342 1124 151.38C1124 152.484 1123.77 153.451 1123.3 154.279C1122.84 155.098 1122.22 155.779 1121.44 156.322C1120.66 156.855 1119.78 157.255 1118.79 157.521C1117.81 157.788 1116.79 157.921 1115.74 157.921Z" fill="black"/>
<path d="M1036.72 101.771C1036.33 102.166 1035.7 102.174 1035.3 101.789L1028.86 95.5068C1028.46 95.1213 1028.45 94.4882 1028.84 94.0927C1029.22 93.6972 1029.86 93.6891 1030.25 94.0746L1035.98 99.6587L1041.57 93.9299C1041.95 93.5344 1042.58 93.5263 1042.98 93.9118C1043.38 94.2973 1043.38 94.9304 1043 95.3259L1036.72 101.771ZM859.056 0.0727539L860.053 0.145599C859.945 1.63136 860.003 3.05746 860.216 4.42934L859.228 4.58252L858.239 4.73571C858.003 3.20949 857.94 1.63159 858.059 -9.15527e-05L859.056 0.0727539ZM862.601 12.8834L863.426 12.3185C864.949 14.5432 866.958 16.6383 869.404 18.6231L868.774 19.3996L868.144 20.1761C865.582 18.0975 863.43 15.8647 861.776 13.4483L862.601 12.8834ZM876.227 24.4188L876.723 23.5503C879.176 24.9503 881.853 26.2871 884.726 27.5716L884.318 28.4845L883.909 29.3974C880.989 28.0914 878.251 26.7255 875.731 25.2874L876.227 24.4188ZM892.666 31.8888L893.017 30.9523C895.73 31.9676 898.559 32.9511 901.485 33.9098L901.173 34.8601L900.862 35.8104C897.914 34.8446 895.058 33.852 892.316 32.8253L892.666 31.8888ZM909.794 37.5411L910.078 36.5824C912.907 37.4215 915.801 38.2449 918.745 39.0581L918.478 40.022L918.212 40.9859C915.259 40.1701 912.353 39.3432 909.51 38.4999L909.794 37.5411ZM927.199 42.3716L927.454 41.4047C930.338 42.1655 933.253 42.9216 936.187 43.6776L935.937 44.6459L935.688 45.6143C932.752 44.8578 929.833 44.1007 926.944 43.3385L927.199 42.3716ZM944.681 46.8932L944.93 45.9247C947.843 46.674 950.761 47.4277 953.671 48.1903L953.417 49.1576L953.164 50.1249C950.258 49.3635 947.343 48.6106 944.431 47.8616L944.681 46.8932ZM962.136 51.483L962.399 50.5182C965.325 51.3151 968.23 52.126 971.101 52.9554L970.823 53.9161L970.546 54.8768C967.686 54.0508 964.791 53.2427 961.873 52.4479L962.136 51.483ZM979.473 56.5126L979.771 55.5583C982.699 56.4745 985.575 57.4167 988.383 58.3904L988.056 59.3352L987.728 60.28C984.942 59.3139 982.086 58.3781 979.174 57.467L979.473 56.5126ZM996.533 62.4638L996.9 61.5335C999.791 62.6734 1002.58 63.8581 1005.26 65.0948L1004.84 66.0024L1004.42 66.9101C1001.78 65.6917 999.027 64.522 996.166 63.3941L996.533 62.4638ZM1012.86 70.0886L1013.35 69.218C1016.11 70.7794 1018.69 72.4222 1021.06 74.1581L1020.46 74.9642L1019.87 75.7703C1017.58 74.0883 1015.07 72.4879 1012.36 70.9592L1012.86 70.0886ZM1027.26 80.875L1027.98 80.1862C1030.19 82.5061 1032.04 84.9803 1033.48 87.6282L1032.6 88.1068L1031.73 88.5853C1030.38 86.1102 1028.63 83.7751 1026.53 81.5637L1027.26 80.875ZM1035.58 96.561L1036.57 96.3881C1036.83 97.9009 1036.98 99.4576 1037 101.06L1036 101.073L1035 101.086C1034.98 99.5886 1034.84 98.1389 1034.6 96.7338L1035.58 96.561Z" fill="#F8353C"/>
<path d="M346 168.406L341.957 192.76H339.008L343.051 168.406H346Z" fill="black"/>
<path d="M317.377 192.76H314.285L327.27 168.406H330.315L335.214 192.76H332.122L328.269 172.258H328.079L317.377 192.76ZM320.088 183.246H332.55L332.122 185.863H319.66L320.088 183.246Z" fill="black"/>
<path d="M305.155 193.105C303.244 193.105 301.595 192.728 300.208 191.975C298.829 191.214 297.766 190.132 297.021 188.729C296.284 187.317 295.915 185.641 295.915 183.698C295.915 181.812 296.288 180.163 297.033 178.751C297.778 177.332 298.829 176.23 300.184 175.446C301.54 174.653 303.137 174.256 304.977 174.256C306.277 174.256 307.466 174.459 308.544 174.863C309.622 175.267 310.554 175.866 311.339 176.658C312.124 177.451 312.734 178.43 313.17 179.596C313.606 180.753 313.824 182.081 313.824 183.579V185.03H297.949V181.653H308.413C308.405 181.035 308.259 180.484 307.973 180C307.688 179.516 307.295 179.14 306.796 178.87C306.304 178.593 305.738 178.454 305.095 178.454C304.445 178.454 303.863 178.601 303.347 178.894C302.832 179.18 302.424 179.572 302.123 180.071C301.821 180.563 301.663 181.122 301.647 181.748V185.185C301.647 185.93 301.794 186.584 302.087 187.147C302.38 187.702 302.796 188.134 303.336 188.443C303.875 188.752 304.517 188.907 305.262 188.907C305.777 188.907 306.245 188.836 306.665 188.693C307.085 188.55 307.446 188.34 307.747 188.063C308.049 187.785 308.275 187.444 308.425 187.04L313.765 187.195C313.543 188.392 313.055 189.434 312.302 190.322C311.557 191.202 310.578 191.888 309.365 192.379C308.152 192.863 306.748 193.105 305.155 193.105Z" fill="black"/>
<path d="M283.47 192.76V174.494H289.119V177.824H289.309C289.642 176.619 290.185 175.723 290.938 175.136C291.691 174.542 292.567 174.244 293.566 174.244C293.836 174.244 294.113 174.264 294.399 174.304C294.684 174.336 294.95 174.387 295.196 174.458V179.512C294.918 179.417 294.553 179.342 294.101 179.286C293.657 179.231 293.261 179.203 292.912 179.203C292.223 179.203 291.6 179.358 291.045 179.667C290.498 179.968 290.066 180.392 289.749 180.939C289.44 181.479 289.285 182.113 289.285 182.842V192.76H283.47Z" fill="black"/>
<path d="M271.263 193.105C269.345 193.105 267.696 192.712 266.316 191.928C264.945 191.135 263.886 190.033 263.141 188.622C262.404 187.203 262.035 185.557 262.035 183.687C262.035 181.808 262.404 180.163 263.141 178.751C263.886 177.332 264.945 176.23 266.316 175.446C267.696 174.653 269.345 174.256 271.263 174.256C273.182 174.256 274.827 174.653 276.198 175.446C277.578 176.23 278.636 177.332 279.373 178.751C280.119 180.163 280.491 181.808 280.491 183.687C280.491 185.557 280.119 187.203 279.373 188.622C278.636 190.033 277.578 191.135 276.198 191.928C274.827 192.712 273.182 193.105 271.263 193.105ZM271.299 188.717C271.996 188.717 272.587 188.503 273.071 188.075C273.554 187.646 273.923 187.052 274.177 186.291C274.438 185.53 274.569 184.65 274.569 183.651C274.569 182.636 274.438 181.748 274.177 180.987C273.923 180.226 273.554 179.631 273.071 179.203C272.587 178.775 271.996 178.561 271.299 178.561C270.577 178.561 269.967 178.775 269.468 179.203C268.976 179.631 268.599 180.226 268.338 180.987C268.084 181.748 267.957 182.636 267.957 183.651C267.957 184.65 268.084 185.53 268.338 186.291C268.599 187.052 268.976 187.646 269.468 188.075C269.967 188.503 270.577 188.717 271.299 188.717Z" fill="black"/>
<path d="M259.368 177.229H253.423C253.343 176.619 253.181 176.068 252.935 175.576C252.689 175.085 252.364 174.665 251.96 174.316C251.556 173.967 251.076 173.702 250.521 173.519C249.974 173.329 249.367 173.234 248.702 173.234C247.52 173.234 246.502 173.523 245.645 174.102C244.797 174.681 244.143 175.517 243.683 176.611C243.231 177.705 243.005 179.029 243.005 180.583C243.005 182.2 243.235 183.556 243.695 184.65C244.163 185.736 244.817 186.557 245.657 187.111C246.505 187.659 247.508 187.932 248.666 187.932C249.316 187.932 249.907 187.849 250.438 187.682C250.977 187.516 251.449 187.274 251.853 186.957C252.265 186.632 252.602 186.239 252.864 185.78C253.133 185.312 253.319 184.785 253.423 184.198L259.368 184.234C259.265 185.312 258.952 186.374 258.429 187.421C257.914 188.467 257.204 189.422 256.3 190.287C255.397 191.143 254.295 191.825 252.994 192.332C251.702 192.839 250.22 193.093 248.547 193.093C246.343 193.093 244.369 192.609 242.625 191.642C240.889 190.667 239.517 189.248 238.51 187.385C237.503 185.522 237 183.255 237 180.583C237 177.903 237.511 175.632 238.534 173.769C239.557 171.906 240.94 170.491 242.684 169.524C244.428 168.556 246.383 168.073 248.547 168.073C250.021 168.073 251.385 168.279 252.638 168.691C253.89 169.095 254.992 169.69 255.944 170.475C256.895 171.252 257.668 172.207 258.262 173.341C258.857 174.474 259.226 175.771 259.368 177.229Z" fill="black"/>
<path d="M788.711 140.776C788.322 141.169 787.689 141.172 787.297 140.783L780.9 134.452C780.508 134.064 780.504 133.43 780.893 133.038C781.281 132.645 781.915 132.642 782.307 133.031L787.993 138.659L793.621 132.973C794.009 132.58 794.642 132.577 795.035 132.966C795.427 133.354 795.431 133.987 795.042 134.38L788.711 140.776ZM690.031 0.0727539L691.031 0.101913C690.986 1.64125 690.991 3.1389 691.043 4.59689L690.043 4.63272L689.044 4.66855C688.99 3.16595 688.985 1.62494 689.031 0.0435944L690.031 0.0727539ZM691.017 13.5806L692 13.3961C692.566 16.4115 693.362 19.2396 694.359 21.9055L693.422 22.2558L692.485 22.6061C691.448 19.8315 690.621 16.8925 690.034 13.765L691.017 13.5806ZM697.32 30.3847L698.18 29.8747C699.692 32.4249 701.41 34.8208 703.301 37.0933L702.532 37.7328L701.763 38.3724C699.811 36.0262 698.031 33.5442 696.46 30.8947L697.32 30.3847ZM708.744 44.2713L709.427 43.5405C711.576 45.5477 713.858 47.4656 716.242 49.3232L715.627 50.1121L715.013 50.9009C712.591 49.0138 710.262 47.0572 708.061 45.0021L708.744 44.2713ZM722.91 55.4327L723.479 54.6103C725.919 56.2988 728.423 57.9556 730.963 59.6073L730.418 60.4456L729.873 61.284C727.324 59.627 724.803 57.9588 722.341 56.2551L722.91 55.4327ZM738.008 65.3388L738.55 64.4983C741.072 66.1248 743.604 67.7703 746.113 69.4568L745.555 70.2868L744.998 71.1167C742.504 69.441 739.985 67.8036 737.466 66.1792L738.008 65.3388ZM752.951 75.463L753.543 74.657C755.984 76.4505 758.379 78.3102 760.7 80.2596L760.057 81.0253L759.414 81.791C757.132 79.8743 754.772 78.0415 752.359 76.2689L752.951 75.463ZM766.712 87.1166L767.421 86.4111C769.559 88.5592 771.597 90.821 773.505 93.2202L772.723 93.8428L771.94 94.4653C770.082 92.1296 768.095 89.9229 766.003 87.8222L766.712 87.1166ZM777.88 101.237L778.735 100.72C780.283 103.278 781.688 105.981 782.928 108.847L782.01 109.244L781.092 109.641C779.889 106.86 778.526 104.238 777.024 101.754L777.88 101.237ZM785.03 117.741L785.992 117.468C786.795 120.301 787.45 123.275 787.941 126.404L786.953 126.559L785.965 126.714C785.486 123.662 784.848 120.767 784.068 118.014L785.03 117.741ZM787.871 135.5L788.87 135.448C788.948 136.955 788.992 138.495 789 140.068L788 140.073L787 140.078C786.992 138.535 786.949 137.027 786.873 135.551L787.871 135.5Z" fill="#F8353C"/>
<path d="M0 133.286H20.1299L22.0458 137.132H3.99361V145.257H40.3139C41.6451 145.257 42.8953 145.004 44.0646 144.499C45.2339 143.993 46.2503 143.307 47.1138 142.44C47.9953 141.555 48.6879 140.526 49.1915 139.353C49.6952 138.179 49.9471 136.924 49.9471 135.588C49.9471 134.27 49.6952 133.024 49.1915 131.85C48.6879 130.677 47.9953 129.647 47.1138 128.763C46.2503 127.878 45.2339 127.183 44.0646 126.677C42.8953 126.172 41.6451 125.919 40.3139 125.919H23.422C23.9796 127.038 24.6093 128.32 25.3108 129.765C26.0304 131.191 26.768 132.672 27.5235 134.207C28.2971 135.741 29.0616 137.276 29.8172 138.811C30.5727 140.346 31.2743 141.772 31.9219 143.09H27.3346C26.687 141.772 25.9764 140.346 25.2029 138.811C24.4474 137.258 23.6828 135.705 22.9093 134.152C22.1537 132.6 21.4162 131.101 20.6966 129.656C19.977 128.212 19.3384 126.93 18.7808 125.81C18.2411 124.691 17.8003 123.797 17.4585 123.129C17.1347 122.443 16.9728 122.091 16.9728 122.073H40.3139C42.1668 122.073 43.9117 122.425 45.5487 123.129C47.1858 123.833 48.6159 124.799 49.8392 126.027C51.0624 127.255 52.0249 128.69 52.7264 130.333C53.428 131.977 53.7788 133.728 53.7788 135.588C53.7788 137.466 53.428 139.226 52.7264 140.869C52.0249 142.512 51.0624 143.948 49.8392 145.176C48.6159 146.385 47.1858 147.351 45.5487 148.074C43.9117 148.778 42.1668 149.13 40.3139 149.13H0L0 133.286ZM0 122.073H14.5983L16.4871 125.919H0L0 122.073Z" fill="black"/>
<path d="M71.3808 155.308H83.6932L84.6081 157.164H78.9747V168.366H77.0142V157.164H72.2958L71.3808 155.308Z" fill="black"/>
<path d="M86.3086 168.366V160.72H97.4707V162.576H88.243V166.497H97.4707V168.366H86.3086ZM87.2235 157.164L86.3086 155.308H97.4707V157.164H87.2235Z" fill="black"/>
<path d="M42.2075 161.831C42.2075 158.223 45.1222 155.308 48.7296 155.308H54.8466L55.7615 157.164H48.7296C46.1548 157.164 44.0635 159.269 44.0635 161.831C44.0635 164.405 46.1548 166.497 48.7296 166.497H54.8335L55.7484 168.366H48.7296C45.1222 168.366 42.2075 165.438 42.2075 161.831Z" fill="black"/>
<path d="M0.537578 168.366V160.72H11.6997V162.576H2.472V166.497H11.6997V168.366H0.537578ZM1.45251 157.164L0.537578 155.308H11.6997V157.164H1.45251Z" fill="black"/>
<path d="M20.3957 168.366H13.3769V155.308H20.3957C24.0032 155.308 26.9179 158.223 26.9179 161.831C26.9179 165.438 24.0032 168.366 20.3957 168.366ZM15.3114 166.497H20.4088C22.9837 166.497 25.0619 164.405 25.0619 161.831C25.0619 159.269 22.9706 157.164 20.3957 157.164H15.3114V166.497Z" fill="black"/>
<path d="M31.8966 168.366C29.9099 168.327 28.3022 166.745 28.3022 164.719V155.308H30.2366V164.719C30.2366 165.712 30.9555 166.497 31.9358 166.497H38.5625V155.308H40.4969V168.366H31.8966Z" fill="black"/>
<path d="M57.4756 168.366L63.9454 155.308H65.6184L72.0883 168.366H69.8924L64.7819 158.066L60.5994 166.497H66.5072L67.4221 168.366H57.4756Z" fill="black"/>
<path fill-rule="evenodd" clip-rule="evenodd" d="M58.4131 143.828V151.366H69.4176V149.523H60.3202V145.658H71.2266L69.7248 143.828H58.4131Z" fill="black"/>
<path d="M85.0019 138.489H79.6116L79.315 138.493L75.0111 143.518L72.2743 140.323L70.7072 138.493H68.1945H58.4131L59.3151 140.323H69.7562C70.047 140.666 70.3329 141.001 70.617 141.328C71.1558 141.951 71.7161 142.611 72.2369 143.225C72.9862 144.107 73.6548 144.895 74.0576 145.335V151.366H75.9647V145.335C76.2113 145.051 76.6908 144.49 77.2736 143.808C77.8765 143.103 78.5969 142.26 79.2764 141.47C79.6236 141.06 79.9833 140.642 80.3568 140.211H83.146V151.366H95.7098L94.7949 149.523H85.0532V138.493L85.0019 138.489Z" fill="black"/>
<path d="M291.289 140.776C291.678 141.169 292.311 141.172 292.703 140.783L299.1 134.452C299.492 134.064 299.496 133.43 299.107 133.038C298.719 132.645 298.085 132.642 297.693 133.031L292.007 138.659L286.379 132.973C285.991 132.58 285.358 132.577 284.965 132.966C284.573 133.354 284.569 133.987 284.958 134.38L291.289 140.776ZM389.969 0.0727539L388.969 0.101913C389.014 1.64125 389.009 3.1389 388.957 4.59689L389.957 4.63272L390.956 4.66855C391.01 3.16595 391.015 1.62494 390.969 0.0435944L389.969 0.0727539ZM388.983 13.5806L388 13.3961C387.434 16.4115 386.638 19.2396 385.641 21.9055L386.578 22.2558L387.515 22.6061C388.552 19.8315 389.379 16.8925 389.966 13.765L388.983 13.5806ZM382.68 30.3847L381.82 29.8747C380.308 32.4249 378.59 34.8208 376.699 37.0933L377.468 37.7328L378.237 38.3724C380.189 36.0262 381.969 33.5442 383.54 30.8947L382.68 30.3847ZM371.256 44.2713L370.573 43.5405C368.424 45.5477 366.142 47.4656 363.758 49.3232L364.373 50.1121L364.987 50.9009C367.409 49.0138 369.738 47.0572 371.939 45.0021L371.256 44.2713ZM357.09 55.4327L356.521 54.6103C354.081 56.2988 351.577 57.9556 349.037 59.6073L349.582 60.4456L350.127 61.284C352.676 59.627 355.197 57.9588 357.659 56.2551L357.09 55.4327ZM341.992 65.3388L341.45 64.4983C338.928 66.1248 336.396 67.7703 333.887 69.4568L334.445 70.2868L335.002 71.1167C337.496 69.441 340.015 67.8036 342.534 66.1792L341.992 65.3388ZM327.049 75.463L326.457 74.657C324.016 76.4505 321.621 78.3102 319.3 80.2596L319.943 81.0253L320.586 81.791C322.868 79.8743 325.228 78.0415 327.641 76.2689L327.049 75.463ZM313.288 87.1166L312.579 86.4111C310.441 88.5592 308.403 90.821 306.495 93.2202L307.277 93.8428L308.06 94.4653C309.918 92.1296 311.905 89.9229 313.997 87.8222L313.288 87.1166ZM302.12 101.237L301.265 100.72C299.717 103.278 298.312 105.981 297.072 108.847L297.99 109.244L298.908 109.641C300.111 106.86 301.474 104.238 302.976 101.754L302.12 101.237ZM294.97 117.741L294.008 117.468C293.205 120.301 292.55 123.275 292.059 126.404L293.047 126.559L294.035 126.714C294.514 123.662 295.152 120.767 295.932 118.014L294.97 117.741ZM292.129 135.5L291.13 135.448C291.052 136.955 291.008 138.495 291 140.068L292 140.073L293 140.078C293.008 138.535 293.051 137.027 293.127 135.551L292.129 135.5Z" fill="#F8353C"/>
<path d="M48.2839 101.771C48.6694 102.166 49.3025 102.174 49.698 101.789L56.1429 95.5068C56.5383 95.1213 56.5464 94.4882 56.1609 94.0927C55.7754 93.6972 55.1423 93.6891 54.7468 94.0746L49.0181 99.6587L43.4341 93.9299C43.0486 93.5344 42.4155 93.5263 42.02 93.9118C41.6245 94.2973 41.6164 94.9304 42.0019 95.3259L48.2839 101.771ZM225.944 0.0727539L224.947 0.145599C225.055 1.63136 224.997 3.05746 224.784 4.42934L225.772 4.58252L226.761 4.73571C226.997 3.20949 227.06 1.63159 226.941 -9.15527e-05L225.944 0.0727539ZM222.399 12.8834L221.574 12.3185C220.051 14.5432 218.042 16.6383 215.596 18.6231L216.226 19.3996L216.856 20.1761C219.418 18.0975 221.57 15.8647 223.224 13.4483L222.399 12.8834ZM208.773 24.4188L208.277 23.5503C205.824 24.9503 203.147 26.2871 200.274 27.5716L200.682 28.4845L201.091 29.3974C204.011 28.0914 206.749 26.7255 209.269 25.2874L208.773 24.4188ZM192.334 31.8888L191.983 30.9523C189.27 31.9676 186.441 32.9511 183.515 33.9098L183.827 34.8601L184.138 35.8104C187.086 34.8446 189.942 33.852 192.684 32.8253L192.334 31.8888ZM175.206 37.5411L174.922 36.5824C172.093 37.4215 169.199 38.2449 166.255 39.0581L166.522 40.022L166.788 40.9859C169.741 40.1701 172.647 39.3432 175.49 38.4999L175.206 37.5411ZM157.801 42.3716L157.546 41.4047C154.662 42.1655 151.747 42.9216 148.813 43.6776L149.063 44.6459L149.312 45.6143C152.248 44.8578 155.167 44.1007 158.056 43.3385L157.801 42.3716ZM140.319 46.8932L140.07 45.9247C137.157 46.674 134.239 47.4277 131.329 48.1903L131.583 49.1576L131.836 50.1249C134.742 49.3635 137.657 48.6106 140.569 47.8616L140.319 46.8932ZM122.864 51.483L122.601 50.5182C119.675 51.3151 116.77 52.126 113.899 52.9554L114.177 53.9161L114.454 54.8768C117.314 54.0508 120.209 53.2427 123.127 52.4479L122.864 51.483ZM105.527 56.5126L105.229 55.5583C102.301 56.4745 99.4248 57.4167 96.6167 58.3904L96.9443 59.3352L97.2719 60.28C100.058 59.3139 102.914 58.3781 105.826 57.467L105.527 56.5126ZM88.4667 62.4638L88.1 61.5335C85.2086 62.6734 82.4155 63.8581 79.7415 65.0948L80.1612 66.0024L80.581 66.9101C83.2155 65.6917 85.9728 64.522 88.8335 63.3941L88.4667 62.4638ZM72.1437 70.0886L71.6517 69.218C68.8887 70.7794 66.3084 72.4222 63.9438 74.1581L64.5356 74.9642L65.1274 75.7703C67.4185 74.0883 69.9305 72.4879 72.6357 70.9592L72.1437 70.0886ZM57.7432 80.875L57.0182 80.1862C54.8145 82.5061 52.9607 84.9803 51.5176 87.6282L52.3957 88.1068L53.2737 88.5853C54.6227 86.1102 56.3676 83.7751 58.4683 81.5637L57.7432 80.875ZM49.4169 96.561L48.432 96.3881C48.1665 97.9009 48.0206 99.4576 48.0001 101.06L49 101.073L49.9999 101.086C50.0191 99.5886 50.1553 98.1389 50.4019 96.7338L49.4169 96.561Z" fill="#F8353C"/>
<path d="M732.9 193.847C732.9 199.538 735.682 204.489 739.782 207.035C733.353 204.524 728.802 198.287 728.802 190.99C728.802 188.215 729.461 185.592 730.631 183.27H714C721.283 183.27 727.188 176.55 727.188 168.26C727.188 162.569 724.405 157.618 720.305 155.073C726.734 157.583 731.285 163.82 731.285 171.117C731.285 173.893 730.626 176.516 729.456 178.837H746.087C744.129 178.837 742.27 179.323 740.6 180.195C739.15 180.951 737.84 181.998 736.731 183.27C734.363 185.983 732.899 189.721 732.899 193.848L732.9 193.847Z" fill="black"/>
<path d="M786.397 164.268C789.224 164.268 791.539 164.551 793.339 165.116C795.14 165.667 796.471 166.522 797.334 167.683C798.197 168.843 798.629 170.339 798.629 172.169C798.629 173.984 798.197 175.48 797.334 176.656C796.471 177.816 795.14 178.68 793.339 179.245C791.539 179.796 789.224 180.071 786.397 180.071C783.585 180.071 781.271 179.796 779.456 179.245C777.655 178.68 776.324 177.816 775.46 176.656C774.597 175.48 774.166 173.985 774.166 172.169C774.166 170.339 774.597 168.843 775.46 167.683C776.324 166.522 777.655 165.667 779.456 165.116C781.271 164.551 783.585 164.268 786.397 164.268ZM772.99 167.616H763.905V179.781H760.311V167.616H751.205V164.558H772.99V167.616ZM804.558 172.712L807.862 170.25L816.791 164.558H821.768L812.367 170.912L822.147 179.781H817.416L809.525 172.667L804.558 175.865V179.781H800.987V164.558H804.558V172.712ZM848.942 179.781H843.452L841.61 176.834H830.361L828.519 179.781H823.073L832.983 164.558H839.032L848.942 179.781ZM854.427 179.781H849.896V164.558H854.427V179.781ZM860.98 179.781H856.605V175.317H860.98V179.781ZM786.397 167.348C784.225 167.348 782.506 167.512 781.241 167.839C779.976 168.166 779.076 168.687 778.541 169.402C778.005 170.101 777.737 171.024 777.737 172.169C777.737 173.315 778.005 174.245 778.541 174.959C779.076 175.659 779.976 176.172 781.241 176.499C782.506 176.827 784.225 176.99 786.397 176.99C788.034 176.99 789.403 176.901 790.504 176.723C791.605 176.529 792.483 176.24 793.138 175.853C793.808 175.466 794.284 174.967 794.567 174.357C794.864 173.747 795.013 173.017 795.013 172.169C795.013 171.306 794.864 170.577 794.567 169.982C794.284 169.372 793.808 168.873 793.138 168.487C792.483 168.085 791.605 167.795 790.504 167.616C789.403 167.438 788.034 167.348 786.397 167.348ZM832.327 173.688H839.644L835.985 167.834L832.327 173.688Z" fill="black"/>
<path d="M834.51 185.443C835.459 185.443 836.419 185.49 837.391 185.583C838.375 185.677 839.329 185.806 840.253 185.97C841.178 186.122 842.028 186.292 842.8 186.479L842.396 188.288C841.729 188.135 840.967 187.99 840.113 187.849C839.258 187.697 838.357 187.568 837.409 187.462C836.472 187.357 835.529 187.304 834.581 187.304C833.351 187.304 832.321 187.392 831.49 187.568C830.659 187.743 829.997 188.013 829.505 188.375C829.014 188.738 828.662 189.19 828.452 189.728C828.241 190.255 828.135 190.887 828.135 191.625C828.135 192.35 828.241 192.983 828.452 193.522C828.662 194.06 829.014 194.512 829.505 194.875C829.997 195.226 830.659 195.489 831.49 195.665C832.321 195.84 833.351 195.928 834.581 195.928C835.529 195.928 836.472 195.881 837.409 195.788C838.357 195.682 839.258 195.553 840.113 195.401C840.967 195.249 841.729 195.102 842.396 194.961L842.8 196.771C842.028 196.958 841.178 197.128 840.253 197.28C839.329 197.432 838.375 197.555 837.391 197.649C836.419 197.754 835.459 197.807 834.51 197.807C833.023 197.807 831.736 197.678 830.647 197.42C829.57 197.163 828.685 196.782 827.995 196.279C827.316 195.764 826.813 195.12 826.485 194.347C826.157 193.574 825.993 192.667 825.993 191.625C825.993 190.583 826.157 189.675 826.485 188.903C826.813 188.119 827.316 187.475 827.995 186.971C828.685 186.456 829.57 186.075 830.647 185.83C831.736 185.572 833.023 185.443 834.51 185.443ZM778.76 185.443C779.685 185.443 780.622 185.49 781.57 185.583C782.53 185.677 783.461 185.806 784.363 185.97C785.264 186.122 786.089 186.292 786.838 186.479L786.435 188.288C785.768 188.135 785.007 187.99 784.152 187.849C783.309 187.697 782.413 187.568 781.464 187.462C780.528 187.357 779.58 187.304 778.62 187.304C777.367 187.304 776.319 187.392 775.476 187.568C774.633 187.743 773.959 188.013 773.456 188.375C772.964 188.727 772.607 189.172 772.384 189.71C772.174 190.249 772.069 190.882 772.069 191.608C772.069 192.345 772.174 192.983 772.384 193.522C772.607 194.061 772.964 194.512 773.456 194.875C773.959 195.226 774.633 195.489 775.476 195.665C776.319 195.84 777.367 195.928 778.62 195.928C779.334 195.928 780.042 195.893 780.745 195.823C781.459 195.753 782.15 195.67 782.817 195.577C783.484 195.471 784.087 195.366 784.625 195.26V191.432H786.838V196.753C786.089 196.941 785.264 197.116 784.363 197.28C783.461 197.432 782.53 197.555 781.57 197.649C780.622 197.743 779.685 197.79 778.76 197.79C777.203 197.79 775.862 197.666 774.738 197.42C773.626 197.163 772.713 196.782 771.999 196.279C771.296 195.764 770.775 195.12 770.435 194.347C770.096 193.575 769.926 192.661 769.926 191.608C769.926 190.566 770.096 189.658 770.435 188.885C770.775 188.112 771.296 187.475 771.999 186.971C772.713 186.456 773.626 186.075 774.738 185.83C775.862 185.572 777.203 185.443 778.76 185.443ZM770.052 197.596H767.454L765.582 194.857H755.008L753.14 197.596H750.541L758.883 185.619H761.71L770.052 197.596ZM804.668 187.339H791.303V190.764H804.334V192.222H791.303V195.875H804.668V197.596H789.161V185.619H804.668V187.339ZM821.715 195.278V185.619H823.858V197.596H821.417L809.124 187.867V197.596H806.981V185.619H809.439L821.715 195.278ZM852.738 191.221L859.113 185.619H861.871L853.792 192.872V197.596H851.649V192.854L843.57 185.619H846.363L852.738 191.221ZM756.062 193.311H764.525L760.289 187.112L756.062 193.311Z" fill="black"/>
<path d="M534.293 118.78C534.683 119.17 535.317 119.17 535.707 118.78L542.071 112.416C542.462 112.025 542.462 111.392 542.071 111.002C541.681 110.611 541.047 110.611 540.657 111.002L535 116.659L529.343 111.002C528.953 110.611 528.319 110.611 527.929 111.002C527.538 111.392 527.538 112.025 527.929 112.416L534.293 118.78ZM535 0.0727539L534 0.0727539V4.28704H535H536V0.0727539L535 0.0727539ZM535 12.7156H534V21.1442H535H536V12.7156H535ZM535 29.5728H534V38.0013H535H536V29.5728H535ZM535 46.4299H534V54.8585H535H536V46.4299H535ZM535 63.2871H534V71.7156H535H536V63.2871H535ZM535 80.1442H534V88.5728H535H536V80.1442H535ZM535 97.0013H534V105.43H535H536V97.0013H535ZM535 113.858H534V118.073H535H536V113.858H535ZM534.293 118.78C534.683 119.17 535.317 119.17 535.707 118.78L542.071 112.416C542.462 112.025 542.462 111.392 542.071 111.002C541.681 110.611 541.047 110.611 540.657 111.002L535 116.659L529.343 111.002C528.953 110.611 528.319 110.611 527.929 111.002C527.538 111.392 527.538 112.025 527.929 112.416L534.293 118.78ZM535 0.0727539L534 0.0727539V4.28704H535H536V0.0727539L535 0.0727539ZM535 12.7156H534V21.1442H535H536V12.7156H535ZM535 29.5728H534V38.0013H535H536V29.5728H535ZM535 46.4299H534V54.8585H535H536V46.4299H535ZM535 63.2871H534V71.7156H535H536V63.2871H535ZM535 80.1442H534V88.5728H535H536V80.1442H535ZM535 97.0013H534V105.43H535H536V97.0013H535ZM535 113.858H534V118.073H535H536V113.858H535Z" fill="#E63C14"/>
</svg>
