<svg width="54" height="54" viewBox="0 0 54 54" fill="none" xmlns="http://www.w3.org/2000/svg">
<path d="M4.09208 40.3108V49.8421H13.6233L41.7342 21.7058L32.2029 12.1746L4.09208 40.3108ZM53.9342 43.1321L43.1321 53.9342L29.9154 40.7175L34.4142 36.2187L36.9558 38.7604L43.2337 32.4571L46.8429 36.0662L43.1321 39.6754L45.8262 42.2171L49.4354 38.6587L53.9342 43.1321ZM13.2675 23.9933L0 10.8021L10.8021 0L15.2754 4.49875L8.9975 10.8021L11.7171 13.4962L17.9696 7.19292L21.5787 10.8021L17.9696 14.3858L20.5112 16.9275L13.2675 23.9933ZM49.105 14.2587C50.0962 13.2675 50.0962 11.7171 49.105 10.675L43.1575 4.82917C42.2171 3.83792 40.565 3.83792 39.5737 4.82917L34.8971 9.48042L44.4283 19.0117L49.105 14.2587Z" fill="#E63C14"/>
</svg>
