<svg width="15" height="15" viewBox="0 0 15 15" fill="none" xmlns="http://www.w3.org/2000/svg">
<path d="M13.5146 7.11984C12.8994 7.73608 11.9128 7.97629 10.7252 8.1817C8.0571 8.6363 5.70103 6.33074 6.18033 3.63344C6.36329 2.61087 6.90432 1.17748 7.24106 0.840734C7.31467 0.768552 7.36366 0.675016 7.38108 0.573407C7.3985 0.471799 7.38346 0.367284 7.3381 0.274706C7.29275 0.182129 7.21938 0.106196 7.12841 0.05769C7.03744 0.00918363 6.93351 -0.00942851 6.83136 0.00449522C5.33933 0.187053 3.95125 0.863507 2.88812 1.92617C0.249189 4.56734 0 14.3676 0 14.3676C0 14.3676 9.80591 14.1184 12.4448 11.4773C13.5107 10.415 14.188 9.02478 14.3676 7.53066C14.4092 7.06147 13.8378 6.78197 13.5146 7.11984Z" fill="#E63C14"/>
</svg>
