<svg width="1" height="1" viewBox="0 0 1 1" fill="none" xmlns="http://www.w3.org/2000/svg">
<path d="M0.551116 0.121177L0.538349 0.123305L0.46281 0.160543L0.441532 0.164798L0.426637 0.160543L0.351097 0.122242C0.339749 0.119405 0.331237 0.121531 0.325563 0.128624L0.321307 0.139264L0.30322 0.594626L0.30854 0.615905L0.31918 0.629737L0.429828 0.708467L0.445787 0.712722L0.458554 0.708467L0.569203 0.629737L0.581971 0.612713L0.586226 0.594626L0.568139 0.140327C0.565302 0.128978 0.559628 0.122595 0.551116 0.121177ZM0.831994 0.000953444L0.817099 0.00308014L0.621336 0.102026L0.610696 0.112666L0.607505 0.124369L0.626656 0.58186L0.631975 0.594626L0.640487 0.603139L0.854337 0.70102C0.867813 0.704566 0.878098 0.701729 0.885191 0.692509L0.889446 0.677614L0.853273 0.0243593C0.849727 0.0108828 0.842633 0.00308131 0.831994 0.000953444ZM0.0712828 0.00308014C0.0665943 0.000238746 0.0609908 -0.000682272 0.055639 0.000507C0.0502873 0.00169627 0.045601 0.00490461 0.0425572 0.00946428L0.0361731 0.0243593L0 0.677614C0.000709288 0.690381 0.00673845 0.698893 0.018087 0.703148L0.0340454 0.70102L0.247896 0.602073L0.258535 0.593563L0.261726 0.58186L0.280878 0.124369L0.277686 0.111602L0.267046 0.100963L0.0712828 0.00308014Z" fill="white"/>
</svg>
