<svg width="23" height="22" viewBox="0 0 23 22" fill="none" xmlns="http://www.w3.org/2000/svg">
<path d="M22.1006 5.5959C21.9629 5.20204 21.7069 4.86034 21.3676 4.61756C21.0283 4.37478 20.6222 4.24277 20.205 4.23961C20.1238 4.24122 20.044 4.2609 19.9713 4.29723C19.8987 4.33356 19.8351 4.38562 19.7851 4.44962C19.7395 4.51644 19.71 4.59285 19.6988 4.67292C19.6876 4.75299 19.6949 4.83458 19.7203 4.91134L20.9912 8.5735C21.0188 8.6495 21.0636 8.71811 21.122 8.77401C21.1804 8.82991 21.2509 8.8716 21.3281 8.89585C21.4069 8.91587 21.4893 8.91769 21.5689 8.90119C21.6486 8.88468 21.7234 8.85028 21.7878 8.80058C22.1147 8.53857 22.3523 8.18159 22.4677 7.77885C22.5832 7.37612 22.5708 6.94749 22.4324 6.55208L22.1006 5.5959ZM16.763 1.02022C16.6788 0.779366 16.5349 0.563809 16.3447 0.393725C16.1545 0.22364 15.9243 0.104589 15.6756 0.0477126C14.7061 -0.183648 14.2401 0.449438 13.2473 1.44749C10.8359 4.07775 7.84017 6.10453 4.50164 7.36439C4.43451 7.38731 4.37295 7.42409 4.32094 7.47234C4.26894 7.5206 4.22767 7.57924 4.1998 7.64447C4.17192 7.70971 4.15808 7.78007 4.15916 7.851C4.16024 7.92193 4.17621 7.99185 4.20606 8.0562L7.05643 16.2698C7.58139 17.7245 8.49683 19.0065 9.70233 19.9753C10.9078 20.944 12.3568 21.5621 13.8904 21.7617C14.1578 21.7954 14.4276 21.7214 14.6405 21.5561C14.8534 21.3908 14.9919 21.1478 15.0255 20.8804C15.0592 20.613 14.9852 20.3431 14.8199 20.1303C14.6546 19.9174 14.4115 19.7789 14.1441 19.7453C13.0053 19.6004 11.9271 19.1492 11.0244 18.4399C10.1217 17.7307 9.42836 16.7898 9.01816 15.7175C11.9528 14.948 15.0137 14.7862 18.0131 15.2422C19.5483 15.4058 20.1999 15.5546 20.8214 14.814C20.9773 14.6125 21.08 14.3749 21.1199 14.1233C21.1599 13.8716 21.1359 13.614 21.0502 13.374L16.763 1.02022ZM2.77179 8.55394C2.74994 8.48975 2.7154 8.43061 2.67024 8.38002C2.62508 8.32944 2.57022 8.28845 2.50891 8.25949C2.38905 8.20408 2.25228 8.19772 2.12779 8.24176L1.17161 8.57359C0.731336 8.72496 0.325328 8.96188 -0.0230624 9.27072C-0.371453 9.57956 -0.655353 9.95423 -0.858435 10.3732C-1.06152 10.7921 -1.17978 11.2471 -1.20641 11.7119C-1.23304 12.1767 -1.16752 12.6422 -1.01362 13.0816L-0.349976 14.9939C-0.19593 15.4338 0.0433992 15.8389 0.354296 16.1861C0.665194 16.5333 1.04155 16.8158 1.46179 17.0173C1.88204 17.2188 2.33791 17.3354 2.8033 17.3604C3.26868 17.3854 3.73442 17.3183 4.17384 17.163L5.13001 16.8312C5.25015 16.784 5.34774 16.6928 5.40283 16.5761C5.45792 16.4594 5.46634 16.3261 5.42638 16.2034L2.77179 8.55394Z" fill="white" fill-opacity="0.65"/>
</svg>
