<svg width="16" height="11" viewBox="0 0 16 11" fill="none" xmlns="http://www.w3.org/2000/svg">
<path d="M12.3081 5.42984L12.1199 6.36667C11.9172 7.39038 11.8144 7.90151 11.5842 8.30693C11.2294 8.93181 10.655 9.40248 9.97259 9.62747C9.53096 9.77372 9.0068 9.77372 7.96427 9.77372C6.92174 9.77372 6.39758 9.77372 5.95595 9.62892C5.2733 9.40357 4.69886 8.93235 4.34438 8.30693C4.11415 7.90151 4.01135 7.39038 3.80863 6.36667L3.6204 5.42984M1.27905 2.67583C1.14584 2.27619 1.07923 2.07492 1.08647 1.91275C1.09466 1.74507 1.15126 1.58335 1.24942 1.44716C1.34758 1.31097 1.4831 1.20613 1.63959 1.14533C1.79018 1.08597 2.00158 1.08597 2.42149 1.08597H13.5071C13.9284 1.08597 14.1384 1.08597 14.289 1.14389C14.4457 1.20478 14.5813 1.30984 14.6795 1.44631C14.7777 1.58279 14.8342 1.74482 14.8421 1.91275C14.8493 2.07492 14.7827 2.27474 14.6495 2.67583C14.4033 3.41573 14.2803 3.78641 14.0906 4.08614C13.6938 4.71254 13.0719 5.1629 12.353 5.34441C12.0084 5.42984 11.6204 5.42984 10.8428 5.42984H5.08573C4.30818 5.42984 3.91868 5.42984 3.57551 5.34297C2.85684 5.16181 2.23497 4.71199 1.83796 4.08614C1.64828 3.78641 1.5252 3.41573 1.27905 2.67583Z" stroke="white" stroke-opacity="0.65" stroke-width="2.17194"/>
</svg>
