<svg width="22" height="22" viewBox="0 0 22 22" fill="none" xmlns="http://www.w3.org/2000/svg">
<path d="M7.46069 3.66844C8.09692 1.80656 10.6695 1.75017 11.4238 3.49927L11.4877 3.6695L12.3463 6.18038C12.543 6.75622 12.861 7.28316 13.2787 7.72566C13.6965 8.16816 14.2042 8.51594 14.7678 8.74552L14.9986 8.8317L17.5095 9.68923C19.3714 10.3255 19.4278 12.898 17.6798 13.6524L17.5095 13.7162L14.9986 14.5748C14.4226 14.7714 13.8955 15.0893 13.4528 15.5071C13.0101 15.9248 12.6621 16.4326 12.4324 16.9963L12.3463 17.2261L11.4887 19.7381C10.8525 21.5999 8.27992 21.6563 7.52666 19.9083L7.46069 19.7381L6.60316 17.2272C6.40653 16.6512 6.08862 16.124 5.67088 15.6813C5.25315 15.2386 4.74532 14.8907 4.18165 14.661L3.95184 14.5748L1.44097 13.7173C-0.421979 13.081 -0.478367 10.5085 1.27074 9.75519L1.44097 9.68923L3.95184 8.8317C4.52768 8.63493 5.05462 8.31696 5.49712 7.89924C5.93963 7.48151 6.2874 6.97374 6.51698 6.41019L6.60316 6.18038L7.46069 3.66844ZM17.9862 1.92239e-07C18.1852 -2.51058e-07 18.3803 0.0558333 18.5492 0.161155C18.718 0.266477 18.854 0.417064 18.9416 0.595802L18.9926 0.720282L19.365 1.81188L20.4577 2.18425C20.6572 2.25202 20.832 2.37748 20.9601 2.54473C21.0882 2.71198 21.1637 2.91349 21.1772 3.12373C21.1906 3.33396 21.1414 3.54346 21.0356 3.72566C20.9299 3.90787 20.7724 4.05458 20.5832 4.14721L20.4577 4.19828L19.3661 4.57065L18.9937 5.66331C18.9258 5.86272 18.8003 6.03749 18.633 6.16548C18.4656 6.29346 18.2641 6.3689 18.0539 6.38223C17.8437 6.39556 17.6342 6.34619 17.4521 6.24036C17.2699 6.13454 17.1233 5.97703 17.0308 5.78779L16.9797 5.66331L16.6073 4.57171L15.5147 4.19934C15.3152 4.13157 15.1403 4.00611 15.0122 3.83886C14.8841 3.67161 14.8086 3.4701 14.7951 3.25987C14.7817 3.04963 14.831 2.84013 14.9367 2.65793C15.0424 2.47572 15.1999 2.32901 15.3891 2.23639L15.5147 2.18532L16.6062 1.81294L16.9786 0.720282C17.0504 0.510076 17.1861 0.327594 17.3668 0.198422C17.5475 0.0692503 17.7641 -0.000133291 17.9862 1.92239e-07Z" fill="white"/>
</svg>
