<svg width="32" height="28" viewBox="0 0 32 28" fill="none" xmlns="http://www.w3.org/2000/svg">
<path d="M13.5749 17.54L14.0955 14.3766L17.2589 14.8972L16.7383 18.0606L13.5749 17.54ZM14.0757 4.62612L20.4025 5.66734L20.763 3.47668C20.8029 3.23416 20.7384 2.99448 20.5694 2.75765C20.4004 2.52081 20.1941 2.38288 19.9503 2.34385L15.569 1.62281C15.3265 1.5829 15.0868 1.64742 14.85 1.81639C14.6131 1.98535 14.4752 2.19171 14.4362 2.43547L14.0757 4.62612ZM2.17584 23.7867C1.44721 23.6668 0.879393 23.3232 0.472403 22.7559C0.0654126 22.1885 -0.0785668 21.5399 0.0404653 20.8101L1.05148 14.6667L12.1234 16.4889L11.9432 17.5834C11.8829 17.9504 11.954 18.2751 12.1566 18.5575C12.3592 18.8399 12.644 19.0114 13.0109 19.0717L16.7817 19.6923C17.1487 19.7527 17.4734 19.6816 17.7558 19.479C18.0382 19.2764 18.2097 18.9916 18.27 18.6246L18.4502 17.5301L29.5221 19.3522L28.5108 25.4971C28.3911 26.2247 28.0475 26.792 27.4802 27.199C26.9128 27.606 26.2648 27.75 25.536 27.6312L2.17584 23.7867ZM1.31179 13.085L2.58311 5.36003C2.70302 4.63139 3.04717 4.06366 3.61556 3.65685C4.18396 3.25003 4.8315 3.10588 5.5582 3.22439L12.494 4.36582L12.8545 2.17517C12.9742 1.44758 13.3184 0.879858 13.8869 0.471987C14.4555 0.0641162 15.1035 -0.079422 15.8309 0.041372L20.2106 0.762152C20.9382 0.881891 21.506 1.22552 21.9141 1.79303C22.3221 2.36054 22.4656 3.00852 22.3447 3.73699L21.9842 5.92764L28.9199 7.06907C29.6475 7.18881 30.2147 7.53287 30.6215 8.10127C31.0283 8.66966 31.1724 9.31773 31.0537 10.0455L29.7824 17.7705L18.7105 15.9484L18.8906 14.8538C18.951 14.4869 18.8799 14.1622 18.6773 13.8798C18.4747 13.5973 18.1899 13.4259 17.8229 13.3655L14.0522 12.7449C13.6852 12.6846 13.3605 12.7557 13.0781 12.9583C12.7956 13.1609 12.6242 13.4457 12.5638 13.8126L12.3837 14.9072L1.31179 13.085Z" fill="white"/>
</svg>
