<svg width="23" height="25" viewBox="0 0 23 25" fill="none" xmlns="http://www.w3.org/2000/svg">
<path d="M8.77975 24.0541L8.29867 20.2055C8.03808 20.1052 7.79273 19.985 7.56261 19.8446C7.33249 19.7043 7.10679 19.554 6.88549 19.3936L3.30744 20.897L0 15.1842L3.09697 12.8389C3.07692 12.6986 3.0669 12.5635 3.0669 12.4336V11.6217C3.0669 11.491 3.07692 11.3555 3.09697 11.2152L0 8.86995L3.30744 3.1571L6.88549 4.66048C7.10599 4.50012 7.3365 4.34978 7.57704 4.20947C7.81759 4.06915 8.05813 3.94888 8.29867 3.84866L8.77975 0H15.3946L15.8757 3.84866C16.1363 3.94888 16.3821 4.06915 16.613 4.20947C16.8439 4.34978 17.0692 4.50012 17.2889 4.66048L20.8669 3.1571L24.1744 8.86995L21.0774 11.2152C21.0975 11.3555 21.1075 11.491 21.1075 11.6217V12.4324C21.1075 12.5631 21.0874 12.6986 21.0473 12.8389L24.1443 15.1842L20.8369 20.897L17.2889 19.3936C17.0684 19.554 16.8379 19.7043 16.5973 19.8446C16.3568 19.985 16.1163 20.1052 15.8757 20.2055L15.3946 24.0541H8.77975ZM12.1473 16.2365C13.3099 16.2365 14.3022 15.8256 15.124 15.0037C15.9459 14.1819 16.3568 13.1897 16.3568 12.0271C16.3568 10.8644 15.9459 9.87221 15.124 9.05036C14.3022 8.22851 13.3099 7.81758 12.1473 7.81758C10.9647 7.81758 9.96722 8.22851 9.15499 9.05036C8.34277 9.87221 7.93705 10.8644 7.93786 12.0271C7.93866 13.1897 8.34477 14.1819 9.1562 15.0037C9.96762 15.8256 10.9647 16.2365 12.1473 16.2365Z" fill="white" fill-opacity="0.65"/>
</svg>
