<svg width="14" height="132" viewBox="0 0 14 132" fill="none" xmlns="http://www.w3.org/2000/svg">
<path d="M6.09923 130.748C6.45702 131.106 7.03713 131.106 7.39493 130.748L13.2256 124.918C13.5834 124.56 13.5834 123.98 13.2256 123.622C12.8678 123.264 12.2877 123.264 11.9299 123.622L6.74708 128.805L1.56427 123.622C1.20647 123.264 0.626365 123.264 0.268567 123.622C-0.0892313 123.98 -0.0892313 124.56 0.268567 124.918L6.09923 130.748ZM6.74707 0L5.83087 4.00484e-08L5.83087 2.32322L6.74707 2.32322L7.66327 2.32322L7.66327 -4.00484e-08L6.74707 0ZM6.74707 6.96966L5.83087 6.96966L5.83087 11.6161L6.74707 11.6161L7.66327 11.6161L7.66327 6.96966L6.74707 6.96966ZM6.74707 16.2625L5.83087 16.2625L5.83087 20.909L6.74707 20.909L7.66327 20.909L7.66327 16.2625L6.74707 16.2625ZM6.74707 25.5554L5.83087 25.5554L5.83087 30.2019L6.74707 30.2019L7.66327 30.2019L7.66327 25.5554L6.74707 25.5554ZM6.74707 34.8483L5.83087 34.8483L5.83087 39.4947L6.74707 39.4947L7.66327 39.4947L7.66327 34.8483L6.74707 34.8483ZM6.74707 44.1412L5.83087 44.1412L5.83087 48.7876L6.74707 48.7876L7.66327 48.7876L7.66327 44.1412L6.74707 44.1412ZM6.74707 53.4341L5.83087 53.4341L5.83087 58.0805L6.74707 58.0805L7.66327 58.0805L7.66327 53.4341L6.74707 53.4341ZM6.74707 62.7269L5.83087 62.7269L5.83087 67.3734L6.74707 67.3734L7.66327 67.3734L7.66327 62.7269L6.74707 62.7269ZM6.74707 72.0198L5.83087 72.0198L5.83087 76.6663L6.74707 76.6663L7.66327 76.6663L7.66327 72.0198L6.74707 72.0198ZM6.74707 81.3127L5.83087 81.3127L5.83087 85.9591L6.74707 85.9591L7.66327 85.9591L7.66327 81.3127L6.74707 81.3127ZM6.74707 90.6056L5.83087 90.6056L5.83087 95.252L6.74707 95.252L7.66327 95.252L7.66327 90.6056L6.74707 90.6056ZM6.74707 99.8984L5.83088 99.8984L5.83088 104.545L6.74707 104.545L7.66327 104.545L7.66327 99.8984L6.74707 99.8984ZM6.74708 109.191L5.83088 109.191L5.83088 113.838L6.74708 113.838L7.66327 113.838L7.66327 109.191L6.74708 109.191ZM6.74708 118.484L5.83088 118.484L5.83088 123.131L6.74708 123.131L7.66328 123.131L7.66327 118.484L6.74708 118.484ZM6.74708 127.777L5.83088 127.777L5.83088 130.1L6.74708 130.1L7.66328 130.1L7.66328 127.777L6.74708 127.777ZM6.09923 130.748C6.45702 131.106 7.03713 131.106 7.39493 130.748L13.2256 124.918C13.5834 124.56 13.5834 123.98 13.2256 123.622C12.8678 123.264 12.2877 123.264 11.9299 123.622L6.74708 128.805L1.56427 123.622C1.20647 123.264 0.626365 123.264 0.268567 123.622C-0.0892313 123.98 -0.0892313 124.56 0.268567 124.918L6.09923 130.748ZM6.74707 0L5.83087 4.00484e-08L5.83087 2.32322L6.74707 2.32322L7.66327 2.32322L7.66327 -4.00484e-08L6.74707 0ZM6.74707 6.96966L5.83087 6.96966L5.83087 11.6161L6.74707 11.6161L7.66327 11.6161L7.66327 6.96966L6.74707 6.96966ZM6.74707 16.2625L5.83087 16.2625L5.83087 20.909L6.74707 20.909L7.66327 20.909L7.66327 16.2625L6.74707 16.2625ZM6.74707 25.5554L5.83087 25.5554L5.83087 30.2019L6.74707 30.2019L7.66327 30.2019L7.66327 25.5554L6.74707 25.5554ZM6.74707 34.8483L5.83087 34.8483L5.83087 39.4947L6.74707 39.4947L7.66327 39.4947L7.66327 34.8483L6.74707 34.8483ZM6.74707 44.1412L5.83087 44.1412L5.83087 48.7876L6.74707 48.7876L7.66327 48.7876L7.66327 44.1412L6.74707 44.1412ZM6.74707 53.4341L5.83087 53.4341L5.83087 58.0805L6.74707 58.0805L7.66327 58.0805L7.66327 53.4341L6.74707 53.4341ZM6.74707 62.7269L5.83087 62.7269L5.83087 67.3734L6.74707 67.3734L7.66327 67.3734L7.66327 62.7269L6.74707 62.7269ZM6.74707 72.0198L5.83087 72.0198L5.83087 76.6663L6.74707 76.6663L7.66327 76.6663L7.66327 72.0198L6.74707 72.0198ZM6.74707 81.3127L5.83087 81.3127L5.83087 85.9591L6.74707 85.9591L7.66327 85.9591L7.66327 81.3127L6.74707 81.3127ZM6.74707 90.6056L5.83087 90.6056L5.83087 95.252L6.74707 95.252L7.66327 95.252L7.66327 90.6056L6.74707 90.6056ZM6.74707 99.8984L5.83088 99.8984L5.83088 104.545L6.74707 104.545L7.66327 104.545L7.66327 99.8984L6.74707 99.8984ZM6.74708 109.191L5.83088 109.191L5.83088 113.838L6.74708 113.838L7.66327 113.838L7.66327 109.191L6.74708 109.191ZM6.74708 118.484L5.83088 118.484L5.83088 123.131L6.74708 123.131L7.66328 123.131L7.66327 118.484L6.74708 118.484ZM6.74708 127.777L5.83088 127.777L5.83088 130.1L6.74708 130.1L7.66328 130.1L7.66328 127.777L6.74708 127.777Z" fill="#E63C14"/>
</svg>
