<svg width="20" height="21" viewBox="0 0 20 21" fill="none" xmlns="http://www.w3.org/2000/svg">
<path d="M9.92849 20.2792C7.86432 20.2792 6.09015 19.857 4.606 19.0125C3.13037 18.1596 1.99167 16.974 1.18988 15.4557C0.396627 13.9289 0 12.159 0 10.146C0 8.12447 0.396627 6.35457 1.18988 4.8363C1.99167 3.30949 3.13037 2.12388 4.606 1.27944C6.09015 0.426481 7.86432 0 9.92849 0C11.9927 0 13.7626 0.426481 15.2382 1.27944C16.7223 2.12388 17.861 3.30949 18.6543 4.8363C19.4561 6.35457 19.857 8.12447 19.857 10.146C19.857 12.159 19.4561 13.9289 18.6543 15.4557C17.861 16.974 16.7223 18.1596 15.2382 19.0125C13.7626 19.857 11.9927 20.2792 9.92849 20.2792ZM9.96687 15.558C10.7175 15.558 11.3529 15.3277 11.8732 14.8671C12.3936 14.4065 12.7902 13.7668 13.0631 12.948C13.3446 12.1291 13.4853 11.1823 13.4853 10.1076C13.4853 9.01582 13.3446 8.0605 13.0631 7.24166C12.7902 6.42281 12.3936 5.78309 11.8732 5.32249C11.3529 4.86189 10.7175 4.63159 9.96687 4.63159C9.19067 4.63159 8.53389 4.86189 7.99653 5.32249C7.46769 5.78309 7.06253 6.42281 6.78106 7.24166C6.50811 8.0605 6.37163 9.01582 6.37163 10.1076C6.37163 11.1823 6.50811 12.1291 6.78106 12.948C7.06253 13.7668 7.46769 14.4065 7.99653 14.8671C8.53389 15.3277 9.19067 15.558 9.96687 15.558Z" fill="black"/>
</svg>
