<svg width="25" height="27" viewBox="0 0 25 27" fill="none" xmlns="http://www.w3.org/2000/svg">
<path d="M24.0664 9.85172H17.6691C17.5838 9.19494 17.409 8.60213 17.1446 8.0733C16.8801 7.54446 16.5304 7.09239 16.0954 6.71709C15.6604 6.34178 15.1444 6.05604 14.5473 5.85986C13.9587 5.65515 13.3062 5.55279 12.5897 5.55279C11.3188 5.55279 10.2228 5.86412 9.30156 6.48678C8.38889 7.10945 7.6852 8.00933 7.19048 9.18641C6.70429 10.3635 6.4612 11.7879 6.4612 13.4598C6.4612 15.1998 6.70856 16.6584 7.20327 17.8355C7.70652 19.004 8.41022 19.8868 9.31436 20.4839C10.227 21.0725 11.306 21.3667 12.5514 21.3667C13.2508 21.3667 13.8862 21.2772 14.4577 21.098C15.0377 20.9189 15.5453 20.6588 15.9803 20.3176C16.4238 19.9679 16.7863 19.5457 17.0678 19.0509C17.3578 18.5477 17.5582 17.9805 17.6691 17.3493L24.0664 17.3877C23.9555 18.5477 23.6186 19.6907 23.0556 20.8166C22.5012 21.9425 21.7378 22.9703 20.7654 23.9C19.793 24.8212 18.6074 25.5548 17.2085 26.1007C15.8182 26.6466 14.2232 26.9195 12.4234 26.9195C10.0522 26.9195 7.92829 26.3992 6.05177 25.3586C4.18378 24.3094 2.70816 22.7826 1.62489 20.7782C0.541632 18.7737 0 16.3342 0 13.4598C0 10.5767 0.550161 8.133 1.65048 6.12854C2.75081 4.12408 4.23923 2.60154 6.11575 1.56092C7.99226 0.520307 10.0948 0 12.4234 0C14.0099 0 15.477 0.221771 16.8247 0.665312C18.1724 1.10032 19.358 1.74004 20.3816 2.58448C21.4051 3.42038 22.2367 4.4482 22.8765 5.66794C23.5162 6.88768 23.9128 8.28227 24.0664 9.85172Z" fill="black"/>
</svg>
