<svg width="13" height="20" viewBox="0 0 13 20" fill="none" xmlns="http://www.w3.org/2000/svg">
<path d="M0 19.921V0.268683H6.07736V3.85113H6.28207C6.64032 2.55463 7.2246 1.59078 8.03491 0.959584C8.84523 0.319862 9.78775 0 10.8625 0C11.1525 0 11.451 0.0213247 11.7581 0.0639728C12.0652 0.0980909 12.3509 0.153533 12.6153 0.230301V5.66794C12.3168 5.56559 11.9244 5.48455 11.4382 5.42485C10.9606 5.36514 10.5341 5.33529 10.1588 5.33529C9.41671 5.33529 8.74714 5.50161 8.15006 5.83427C7.56152 6.15839 7.09665 6.61473 6.75547 7.20328C6.42281 7.78329 6.25648 8.46566 6.25648 9.25039V19.921H0Z" fill="black"/>
</svg>
