<svg width="14" height="80" viewBox="0 0 14 80" fill="none" xmlns="http://www.w3.org/2000/svg">
<path d="M6.09922 79.441C6.45702 79.7988 7.03712 79.7988 7.39492 79.441L13.2256 73.6103C13.5834 73.2525 13.5834 72.6724 13.2256 72.3146C12.8678 71.9568 12.2877 71.9568 11.9299 72.3146L6.74707 77.4975L1.56426 72.3146C1.20647 71.9568 0.626359 71.9568 0.268561 72.3146C-0.0892367 72.6724 -0.0892367 73.2525 0.268561 73.6103L6.09922 79.441ZM6.74707 0L5.83087 0V2.1887H6.74707H7.66327V0L6.74707 0ZM6.74707 6.5661H5.83087L5.83087 10.9435H6.74707H7.66327L7.66327 6.5661H6.74707ZM6.74707 15.3209H5.83087V19.6983H6.74707H7.66327V15.3209H6.74707ZM6.74707 24.0757H5.83087V28.4531H6.74707H7.66327V24.0757H6.74707ZM6.74707 32.8305H5.83087L5.83087 37.2079H6.74707H7.66327L7.66327 32.8305H6.74707ZM6.74707 41.5853H5.83087V45.9627H6.74707H7.66327V41.5853H6.74707ZM6.74707 50.3401H5.83087V54.7175H6.74707H7.66327V50.3401H6.74707ZM6.74707 59.0949H5.83087V63.4723H6.74707H7.66327V59.0949H6.74707ZM6.74707 67.8496H5.83087V72.227H6.74707H7.66327V67.8496H6.74707ZM6.74707 76.6044H5.83087V78.7932H6.74707H7.66327V76.6044H6.74707ZM6.09922 79.441C6.45702 79.7988 7.03712 79.7988 7.39492 79.441L13.2256 73.6103C13.5834 73.2525 13.5834 72.6724 13.2256 72.3146C12.8678 71.9568 12.2877 71.9568 11.9299 72.3146L6.74707 77.4975L1.56426 72.3146C1.20647 71.9568 0.626359 71.9568 0.268561 72.3146C-0.0892367 72.6724 -0.0892367 73.2525 0.268561 73.6103L6.09922 79.441ZM6.74707 0L5.83087 0V2.1887H6.74707H7.66327V0L6.74707 0ZM6.74707 6.5661H5.83087L5.83087 10.9435H6.74707H7.66327L7.66327 6.5661H6.74707ZM6.74707 15.3209H5.83087V19.6983H6.74707H7.66327V15.3209H6.74707ZM6.74707 24.0757H5.83087V28.4531H6.74707H7.66327V24.0757H6.74707ZM6.74707 32.8305H5.83087L5.83087 37.2079H6.74707H7.66327L7.66327 32.8305H6.74707ZM6.74707 41.5853H5.83087V45.9627H6.74707H7.66327V41.5853H6.74707ZM6.74707 50.3401H5.83087V54.7175H6.74707H7.66327V50.3401H6.74707ZM6.74707 59.0949H5.83087V63.4723H6.74707H7.66327V59.0949H6.74707ZM6.74707 67.8496H5.83087V72.227H6.74707H7.66327V67.8496H6.74707ZM6.74707 76.6044H5.83087V78.7932H6.74707H7.66327V76.6044H6.74707Z" fill="#E63C14"/>
</svg>
