<svg width="20" height="21" viewBox="0 0 20 21" fill="none" xmlns="http://www.w3.org/2000/svg">
<path d="M9.94129 20.2792C7.88564 20.2792 6.11148 19.874 4.61879 19.0637C3.13464 18.2449 1.99167 17.0806 1.18988 15.5708C0.396625 14.0526 0 12.2486 0 10.1588C0 8.12874 0.400891 6.35457 1.20268 4.8363C2.00446 3.30949 3.13464 2.12388 4.59321 1.27944C6.05177 0.426481 7.77049 0 9.74937 0C11.1482 0 12.4277 0.217505 13.5877 0.652515C14.7477 1.08753 15.75 1.73151 16.5944 2.58448C17.4388 3.43744 18.0956 4.49085 18.5647 5.74471C19.0339 6.99003 19.2684 8.41875 19.2684 10.0308V11.5918H2.18785V7.95814H13.447C13.4384 7.29283 13.2806 6.70002 12.9736 6.17972C12.6665 5.65941 12.2443 5.25425 11.7069 4.96424C11.1781 4.66571 10.5682 4.51644 9.87731 4.51644C9.17788 4.51644 8.55095 4.67424 7.99653 4.98983C7.4421 5.2969 7.00283 5.71912 6.6787 6.25648C6.35458 6.78532 6.18398 7.38666 6.16692 8.0605V11.7581C6.16692 12.5599 6.32472 13.2636 6.64032 13.8692C6.95591 14.4663 7.40372 14.9311 7.98374 15.2638C8.56375 15.5964 9.25465 15.7628 10.0564 15.7628C10.6109 15.7628 11.1141 15.686 11.5662 15.5325C12.0182 15.3789 12.4064 15.1529 12.7305 14.8544C13.0546 14.5558 13.2977 14.189 13.4598 13.754L19.2045 13.9204C18.9656 15.2083 18.4411 16.33 17.6307 17.2853C16.829 18.2321 15.7756 18.9699 14.4705 19.4987C13.1655 20.019 11.6557 20.2792 9.94129 20.2792Z" fill="black"/>
</svg>
