<svg width="14" height="188" viewBox="0 0 14 188" fill="none" xmlns="http://www.w3.org/2000/svg">
<path d="M6.09922 187.553C6.45702 187.91 7.03712 187.91 7.39492 187.553L13.2256 181.722C13.5834 181.364 13.5834 180.784 13.2256 180.426C12.8678 180.068 12.2877 180.068 11.9299 180.426L6.74707 185.609L1.56426 180.426C1.20647 180.068 0.626359 180.068 0.268561 180.426C-0.0892367 180.784 -0.0892367 181.364 0.268561 181.722L6.09922 187.553ZM6.74707 0L5.83087 0V2.33631H6.74707H7.66327V0L6.74707 0ZM6.74707 7.00893H5.83087L5.83087 11.6815H6.74707H7.66327L7.66327 7.00893H6.74707ZM6.74707 16.3542H5.83087L5.83087 21.0268H6.74707H7.66327L7.66327 16.3542H6.74707ZM6.74707 25.6994H5.83087V30.372H6.74707H7.66327V25.6994H6.74707ZM6.74707 35.0446H5.83087L5.83087 39.7172H6.74707H7.66327L7.66327 35.0446H6.74707ZM6.74707 44.3899H5.83087L5.83087 49.0625H6.74707H7.66327L7.66327 44.3899H6.74707ZM6.74707 53.7351H5.83087V58.4077H6.74707H7.66327V53.7351H6.74707ZM6.74707 63.0803H5.83087L5.83087 67.7529H6.74707H7.66327L7.66327 63.0803H6.74707ZM6.74707 72.4256H5.83087L5.83087 77.0982H6.74707H7.66327L7.66327 72.4256H6.74707ZM6.74707 81.7708H5.83087V86.4434H6.74707H7.66327V81.7708H6.74707ZM6.74707 91.116H5.83087L5.83087 95.7886H6.74707H7.66327L7.66327 91.116H6.74707ZM6.74707 100.461H5.83087L5.83087 105.134H6.74707H7.66327L7.66327 100.461H6.74707ZM6.74707 109.806H5.83087V114.479H6.74707H7.66327V109.806H6.74707ZM6.74707 119.152H5.83087L5.83087 123.824H6.74707H7.66327L7.66327 119.152H6.74707ZM6.74707 128.497H5.83087L5.83087 133.17H6.74707H7.66327L7.66327 128.497H6.74707ZM6.74707 137.842H5.83087V142.515H6.74707H7.66327V137.842H6.74707ZM6.74707 147.187H5.83087L5.83087 151.86H6.74707H7.66327L7.66327 147.187H6.74707ZM6.74707 156.533H5.83087L5.83087 161.205H6.74707H7.66327L7.66327 156.533H6.74707ZM6.74707 165.878H5.83087V170.551H6.74707H7.66327V165.878H6.74707ZM6.74707 175.223H5.83087L5.83087 179.896H6.74707H7.66327L7.66327 175.223H6.74707ZM6.74707 184.568H5.83087V186.905H6.74707H7.66327V184.568H6.74707ZM6.09922 187.553C6.45702 187.91 7.03712 187.91 7.39492 187.553L13.2256 181.722C13.5834 181.364 13.5834 180.784 13.2256 180.426C12.8678 180.068 12.2877 180.068 11.9299 180.426L6.74707 185.609L1.56426 180.426C1.20647 180.068 0.626359 180.068 0.268561 180.426C-0.0892367 180.784 -0.0892367 181.364 0.268561 181.722L6.09922 187.553ZM6.74707 0L5.83087 0V2.33631H6.74707H7.66327V0L6.74707 0ZM6.74707 7.00893H5.83087L5.83087 11.6815H6.74707H7.66327L7.66327 7.00893H6.74707ZM6.74707 16.3542H5.83087L5.83087 21.0268H6.74707H7.66327L7.66327 16.3542H6.74707ZM6.74707 25.6994H5.83087V30.372H6.74707H7.66327V25.6994H6.74707ZM6.74707 35.0446H5.83087L5.83087 39.7172H6.74707H7.66327L7.66327 35.0446H6.74707ZM6.74707 44.3899H5.83087L5.83087 49.0625H6.74707H7.66327L7.66327 44.3899H6.74707ZM6.74707 53.7351H5.83087V58.4077H6.74707H7.66327V53.7351H6.74707ZM6.74707 63.0803H5.83087L5.83087 67.7529H6.74707H7.66327L7.66327 63.0803H6.74707ZM6.74707 72.4256H5.83087L5.83087 77.0982H6.74707H7.66327L7.66327 72.4256H6.74707ZM6.74707 81.7708H5.83087V86.4434H6.74707H7.66327V81.7708H6.74707ZM6.74707 91.116H5.83087L5.83087 95.7886H6.74707H7.66327L7.66327 91.116H6.74707ZM6.74707 100.461H5.83087L5.83087 105.134H6.74707H7.66327L7.66327 100.461H6.74707ZM6.74707 109.806H5.83087V114.479H6.74707H7.66327V109.806H6.74707ZM6.74707 119.152H5.83087L5.83087 123.824H6.74707H7.66327L7.66327 119.152H6.74707ZM6.74707 128.497H5.83087L5.83087 133.17H6.74707H7.66327L7.66327 128.497H6.74707ZM6.74707 137.842H5.83087V142.515H6.74707H7.66327V137.842H6.74707ZM6.74707 147.187H5.83087L5.83087 151.86H6.74707H7.66327L7.66327 147.187H6.74707ZM6.74707 156.533H5.83087L5.83087 161.205H6.74707H7.66327L7.66327 156.533H6.74707ZM6.74707 165.878H5.83087V170.551H6.74707H7.66327V165.878H6.74707ZM6.74707 175.223H5.83087L5.83087 179.896H6.74707H7.66327L7.66327 175.223H6.74707ZM6.74707 184.568H5.83087V186.905H6.74707H7.66327V184.568H6.74707Z" fill="#E63C14"/>
</svg>
