<svg width="14" height="132" viewBox="0 0 14 132" fill="none" xmlns="http://www.w3.org/2000/svg">
<path d="M6.09922 130.748C6.45702 131.106 7.03712 131.106 7.39492 130.748L13.2256 124.918C13.5834 124.56 13.5834 123.98 13.2256 123.622C12.8678 123.264 12.2877 123.264 11.9299 123.622L6.74707 128.805L1.56426 123.622C1.20647 123.264 0.626359 123.264 0.268561 123.622C-0.0892367 123.98 -0.0892367 124.56 0.268561 124.918L6.09922 130.748ZM6.74707 0L5.83087 0V2.32322H6.74707H7.66327V0L6.74707 0ZM6.74707 6.96966H5.83087L5.83087 11.6161H6.74707H7.66327L7.66327 6.96966H6.74707ZM6.74707 16.2625H5.83087L5.83087 20.909H6.74707H7.66327L7.66327 16.2625H6.74707ZM6.74707 25.5554H5.83087V30.2019H6.74707H7.66327V25.5554H6.74707ZM6.74707 34.8483H5.83087L5.83087 39.4947H6.74707H7.66327L7.66327 34.8483H6.74707ZM6.74707 44.1412H5.83087L5.83087 48.7876H6.74707H7.66327L7.66327 44.1412H6.74707ZM6.74707 53.4341H5.83087V58.0805H6.74707H7.66327V53.4341H6.74707ZM6.74707 62.7269H5.83087L5.83087 67.3734H6.74707H7.66327L7.66327 62.7269H6.74707ZM6.74707 72.0198H5.83087L5.83087 76.6663H6.74707H7.66327L7.66327 72.0198H6.74707ZM6.74707 81.3127H5.83087V85.9591H6.74707H7.66327V81.3127H6.74707ZM6.74707 90.6056H5.83087L5.83087 95.252H6.74707H7.66327L7.66327 90.6056H6.74707ZM6.74707 99.8984H5.83087L5.83087 104.545H6.74707H7.66327L7.66327 99.8984H6.74707ZM6.74707 109.191H5.83087V113.838H6.74707H7.66327V109.191H6.74707ZM6.74707 118.484H5.83087L5.83087 123.131H6.74707H7.66327L7.66327 118.484H6.74707ZM6.74707 127.777H5.83087V130.1H6.74707H7.66327V127.777H6.74707ZM6.09922 130.748C6.45702 131.106 7.03712 131.106 7.39492 130.748L13.2256 124.918C13.5834 124.56 13.5834 123.98 13.2256 123.622C12.8678 123.264 12.2877 123.264 11.9299 123.622L6.74707 128.805L1.56426 123.622C1.20647 123.264 0.626359 123.264 0.268561 123.622C-0.0892367 123.98 -0.0892367 124.56 0.268561 124.918L6.09922 130.748ZM6.74707 0L5.83087 0V2.32322H6.74707H7.66327V0L6.74707 0ZM6.74707 6.96966H5.83087L5.83087 11.6161H6.74707H7.66327L7.66327 6.96966H6.74707ZM6.74707 16.2625H5.83087L5.83087 20.909H6.74707H7.66327L7.66327 16.2625H6.74707ZM6.74707 25.5554H5.83087V30.2019H6.74707H7.66327V25.5554H6.74707ZM6.74707 34.8483H5.83087L5.83087 39.4947H6.74707H7.66327L7.66327 34.8483H6.74707ZM6.74707 44.1412H5.83087L5.83087 48.7876H6.74707H7.66327L7.66327 44.1412H6.74707ZM6.74707 53.4341H5.83087V58.0805H6.74707H7.66327V53.4341H6.74707ZM6.74707 62.7269H5.83087L5.83087 67.3734H6.74707H7.66327L7.66327 62.7269H6.74707ZM6.74707 72.0198H5.83087L5.83087 76.6663H6.74707H7.66327L7.66327 72.0198H6.74707ZM6.74707 81.3127H5.83087V85.9591H6.74707H7.66327V81.3127H6.74707ZM6.74707 90.6056H5.83087L5.83087 95.252H6.74707H7.66327L7.66327 90.6056H6.74707ZM6.74707 99.8984H5.83087L5.83087 104.545H6.74707H7.66327L7.66327 99.8984H6.74707ZM6.74707 109.191H5.83087V113.838H6.74707H7.66327V109.191H6.74707ZM6.74707 118.484H5.83087L5.83087 123.131H6.74707H7.66327L7.66327 118.484H6.74707ZM6.74707 127.777H5.83087V130.1H6.74707H7.66327V127.777H6.74707Z" fill="#E63C14"/>
</svg>
