<svg width="156" height="101" viewBox="0 0 156 101" fill="none" xmlns="http://www.w3.org/2000/svg">
<path d="M155.625 32.748L149.852 67.5199H145.642L151.414 32.748H155.625Z" fill="white"/>
<path d="M114.758 67.5199H110.343L128.884 32.748H133.23L140.225 67.5199H135.811L130.31 38.2491H130.038L114.758 67.5199ZM118.629 53.9372H136.422L135.811 57.6724H118.018L118.629 53.9372Z" fill="white"/>
<path d="M97.308 68.0124C94.5801 68.0124 92.2258 67.4748 90.2449 66.3995C88.2754 65.3128 86.7587 63.7678 85.6947 61.7643C84.6421 59.7496 84.1157 57.3556 84.1157 54.5825C84.1157 51.8885 84.6477 49.5342 85.7117 47.5194C86.7757 45.4933 88.2754 43.92 90.211 42.7994C92.1465 41.6675 94.4273 41.1016 97.0533 41.1016C98.9096 41.1016 100.607 41.3902 102.147 41.9675C103.686 42.5447 105.016 43.3993 106.137 44.5312C107.257 45.6631 108.129 47.061 108.751 48.7249C109.374 50.3775 109.685 52.2734 109.685 54.4127V56.484H87.019V51.6622H101.96C101.949 50.7793 101.739 49.9926 101.332 49.3022C100.924 48.6117 100.364 48.074 99.651 47.6892C98.9492 47.293 98.1399 47.095 97.2231 47.095C96.2949 47.095 95.463 47.3044 94.7273 47.7232C93.9915 48.1306 93.4086 48.6909 92.9785 49.404C92.5484 50.1058 92.322 50.9038 92.2993 51.798V56.7048C92.2993 57.7687 92.5087 58.7026 92.9275 59.5062C93.3463 60.2985 93.9406 60.9154 94.7103 61.3569C95.48 61.7983 96.3968 62.019 97.4608 62.019C98.1965 62.019 98.8643 61.9172 99.4642 61.7134C100.064 61.5097 100.579 61.2097 101.009 60.8136C101.439 60.4174 101.762 59.9307 101.977 59.3534L109.6 59.5741C109.283 61.2833 108.587 62.7717 107.512 64.0395C106.448 65.2959 105.05 66.275 103.318 66.9767C101.587 67.6672 99.5831 68.0124 97.308 68.0124Z" fill="white"/>
<path d="M66.3477 67.5209V41.442H74.4124V46.196H74.6841C75.1595 44.4755 75.9348 43.1964 77.0101 42.3588C78.0854 41.5099 79.3362 41.0854 80.7624 41.0854C81.1472 41.0854 81.5434 41.1137 81.9509 41.1703C82.3583 41.2156 82.7375 41.2892 83.0884 41.3911V48.6069C82.6923 48.4711 82.1716 48.3635 81.5264 48.2843C80.8925 48.2051 80.3266 48.1655 79.8285 48.1655C78.8438 48.1655 77.9553 48.3862 77.1629 48.8276C76.3819 49.2577 75.765 49.8633 75.3123 50.6443C74.8708 51.414 74.6501 52.3195 74.6501 53.3609V67.5209H66.3477Z" fill="white"/>
<path d="M48.9199 68.0124C46.1807 68.0124 43.8264 67.4521 41.8569 66.3316C39.8987 65.1997 38.3876 63.6263 37.3236 61.6115C36.271 59.5854 35.7446 57.2368 35.7446 54.5655C35.7446 51.8829 36.271 49.5342 37.3236 47.5194C38.3876 45.4933 39.8987 43.92 41.8569 42.7994C43.8264 41.6675 46.1807 41.1016 48.9199 41.1016C51.6591 41.1016 54.0078 41.6675 55.966 42.7994C57.9355 43.92 59.4466 45.4933 60.4992 47.5194C61.5632 49.5342 62.0952 51.8829 62.0952 54.5655C62.0952 57.2368 61.5632 59.5854 60.4992 61.6115C59.4466 63.6263 57.9355 65.1997 55.966 66.3316C54.0078 67.4521 51.6591 68.0124 48.9199 68.0124ZM48.9708 61.7474C49.9669 61.7474 50.8102 61.4418 51.5006 60.8305C52.1911 60.2193 52.7174 59.3704 53.0796 58.2838C53.4532 57.1971 53.6399 55.9407 53.6399 54.5145C53.6399 53.0657 53.4532 51.798 53.0796 50.7114C52.7174 49.6247 52.1911 48.7758 51.5006 48.1646C50.8102 47.5534 49.9669 47.2478 48.9708 47.2478C47.9408 47.2478 47.0693 47.5534 46.3562 48.1646C45.6544 48.7758 45.1167 49.6247 44.7432 50.7114C44.381 51.798 44.1999 53.0657 44.1999 54.5145C44.1999 55.9407 44.381 57.1971 44.7432 58.2838C45.1167 59.3704 45.6544 60.2193 46.3562 60.8305C47.0693 61.4418 47.9408 61.7474 48.9708 61.7474Z" fill="white"/>
<path d="M31.9365 45.3469H23.4472C23.3341 44.4753 23.102 43.6886 22.7511 42.9868C22.4002 42.2851 21.9362 41.6852 21.3589 41.1871C20.7816 40.6891 20.0968 40.3099 19.3045 40.0496C18.5235 39.7779 17.6576 39.6421 16.7068 39.6421C15.0203 39.6421 13.5658 40.0552 12.3433 40.8815C11.1322 41.7078 10.1984 42.902 9.54189 44.464C8.89671 46.026 8.57412 47.9163 8.57412 50.1348C8.57412 52.4438 8.90237 54.3794 9.55887 55.9414C10.2267 57.4921 11.1605 58.6636 12.3603 59.456C13.5714 60.237 15.0033 60.6275 16.6559 60.6275C17.584 60.6275 18.4273 60.5086 19.1857 60.2709C19.9553 60.0332 20.6288 59.688 21.2061 59.2352C21.7947 58.7712 22.2757 58.2109 22.6493 57.5544C23.0341 56.8865 23.3001 56.1338 23.4472 55.2962L31.9365 55.3472C31.7893 56.8865 31.3422 58.4033 30.5952 59.8974C29.8594 61.3915 28.8464 62.7554 27.556 63.9892C26.2657 65.2116 24.6923 66.1851 22.836 66.9095C20.991 67.6339 18.8744 67.9961 16.4861 67.9961C13.3394 67.9961 10.521 67.3057 8.03081 65.9247C5.55196 64.5325 3.59377 62.5064 2.15626 59.8465C0.718755 57.1865 0 53.9493 0 50.1348C0 46.309 0.730074 43.0661 2.19022 40.4061C3.65037 37.7462 5.62553 35.7257 8.1157 34.3448C10.6059 32.9639 13.396 32.2734 16.4861 32.2734C18.5914 32.2734 20.5383 32.5677 22.3267 33.1563C24.1151 33.7336 25.6884 34.5825 27.0467 35.7031C28.405 36.8123 29.5086 38.1763 30.3575 39.7949C31.2064 41.4135 31.7327 43.2642 31.9365 45.3469Z" fill="white"/>
</svg>
