<svg width="172" height="67" viewBox="0 0 172 67" fill="none" xmlns="http://www.w3.org/2000/svg">
<mask id="mask0_555_152" style="mask-type:luminance" maskUnits="userSpaceOnUse" x="0" y="0" width="172" height="67">
<path d="M172 0H0V66.048H172V0Z" fill="white"/>
</mask>
<g mask="url(#mask0_555_152)">
<path fill-rule="evenodd" clip-rule="evenodd" d="M74.0038 2.96382L64.542 5.57758H78.3426V19.1691L80.904 9.86415L83.4656 0.402344L74.0038 2.96382Z" fill="#F8353C"/>
<path fill-rule="evenodd" clip-rule="evenodd" d="M6.24755 12.8591V12.8638H1.25244V49.8867H34.4497V42.9502H9.12512V34.5244H32.9543L28.4362 27.5878H9.12512V19.8317H31.7116L41.3969 34.7364V49.886H49.2695V34.7364L58.905 19.8189H63.2201V49.886H86.7957V42.9496H71.1354V12.8631H63.3979H63.2201H54.4613L45.3119 27.6723L36.1626 12.8631H32.3296V12.8591H6.24755Z" fill="black"/>
<path d="M10.156 53.5632C10.6752 53.5632 10.9427 53.8267 10.9587 54.3539L11.2702 61.8296H9.22157L8.95801 55.2644H8.76632L7.71207 59.9007C7.63219 60.364 7.34467 60.5956 6.84949 60.5956H5.59157C5.10437 60.5956 4.81285 60.364 4.71701 59.9007L3.66275 55.2644H3.47107L3.24344 61.8296H1.19482L1.49434 54.3539C1.51829 53.8267 1.78585 53.5632 2.29701 53.5632H4.30969C4.78889 53.5632 5.07242 53.7988 5.16027 54.27L5.97494 57.948C6.01487 58.1397 6.04682 58.3393 6.07077 58.547C6.10272 58.7466 6.13067 58.9503 6.15464 59.1579H6.28642C6.31837 58.9503 6.34632 58.7466 6.37027 58.547C6.39424 58.3393 6.42618 58.1357 6.46613 57.936L7.24483 54.27C7.34067 53.7988 7.63219 53.5632 8.11939 53.5632H10.156ZM18.9084 53.5632C19.0921 53.5632 19.2518 53.6151 19.3876 53.7189C19.5314 53.8228 19.6272 53.9665 19.6752 54.1502L21.9394 61.8296H19.6392L18.1897 56.127C18.1576 55.9912 18.1297 55.8474 18.1057 55.6956C18.0818 55.5359 18.0579 55.3882 18.0339 55.2524H17.7104C17.6945 55.3882 17.6705 55.5359 17.6384 55.6956C17.6145 55.8474 17.5866 55.9912 17.5546 56.127L16.105 61.8296H13.8049L16.0691 54.1502C16.117 53.9665 16.2089 53.8228 16.3446 53.7189C16.4884 53.6151 16.6521 53.5632 16.8358 53.5632H18.9084ZM20.0466 58.2474V59.8648H15.6977V58.2474H20.0466ZM27.9887 53.4434C28.7635 53.4434 29.3944 53.5192 29.8817 53.671C30.3688 53.8228 30.7242 54.0783 30.9479 54.4377C31.1795 54.7891 31.2952 55.2883 31.2952 55.9353C31.2952 56.2866 31.2434 56.6061 31.1396 56.8937C31.0437 57.1812 30.876 57.4169 30.6364 57.6006C30.3969 57.7763 30.0694 57.888 29.654 57.936V58.0079C29.8057 58.0238 29.9655 58.0717 30.1332 58.1517C30.3089 58.2315 30.4687 58.3633 30.6125 58.547C30.7642 58.7227 30.872 58.9662 30.9358 59.2778L31.6187 61.8296H29.2586L28.6716 59.3496C28.6158 59.0941 28.5278 58.9263 28.4081 58.8465C28.2883 58.7586 28.1126 58.7147 27.881 58.7147C27.3059 58.7067 26.8307 58.7027 26.4553 58.7027C26.0799 58.7027 25.7604 58.6988 25.4969 58.6908C25.2413 58.6828 24.9977 58.6708 24.7661 58.6547L24.802 57.0854H27.9408C28.2284 57.0854 28.448 57.0575 28.5998 57.0015C28.7596 56.9456 28.8713 56.8458 28.9353 56.702C28.9991 56.5503 29.031 56.3426 29.031 56.079C29.031 55.8075 28.9991 55.5999 28.9353 55.4561C28.8713 55.3123 28.7596 55.2125 28.5998 55.1565C28.448 55.1006 28.2284 55.0727 27.9408 55.0727C27.1502 55.0727 26.4792 55.0767 25.9282 55.0847C25.3851 55.0927 25.0137 55.1046 24.814 55.1206L24.6343 53.5632C24.9857 53.5232 25.3172 53.4953 25.6286 53.4793C25.9401 53.4633 26.2796 53.4554 26.647 53.4554C27.0224 53.4474 27.4697 53.4434 27.9887 53.4434ZM26.8387 53.5632V61.8296H24.6343V53.5632H26.8387ZM41.6593 53.5632L39.6466 56.8458C39.5507 57.0054 39.4428 57.1452 39.3231 57.2651C39.2033 57.3768 39.0875 57.4648 38.9757 57.5286V57.5645C39.0875 57.6285 39.2192 57.7323 39.371 57.876C39.5228 58.0119 39.6426 58.1636 39.7304 58.3314L41.791 61.8296H39.2992L36.939 57.5047L39.2511 53.5632H41.6593ZM36.8671 53.5632V55.7676C36.8671 56.055 36.8391 56.3506 36.7833 56.6542C36.7354 56.9496 36.6594 57.2292 36.5557 57.4927C36.6355 57.7402 36.7075 58.0079 36.7713 58.2953C36.8352 58.5749 36.8671 58.8304 36.8671 59.0622V61.8296H34.6268V53.5632H36.8671ZM37.6459 56.7858V58.2833H36.2083V56.7858H37.6459ZM46.1819 53.5272C46.6451 53.5272 47.1164 53.5272 47.5955 53.5272C48.0827 53.5272 48.558 53.5392 49.0212 53.5632C49.4924 53.5792 49.9237 53.6111 50.315 53.659L50.2073 55.2644H47.1164C46.9406 55.2644 46.8048 55.3123 46.7089 55.4082C46.6132 55.496 46.5653 55.6198 46.5653 55.7796V59.6132C46.5653 59.773 46.6132 59.9007 46.7089 59.9966C46.8048 60.0844 46.9406 60.1284 47.1164 60.1284H50.2073L50.315 61.7337C49.9237 61.7737 49.4924 61.8056 49.0212 61.8296C48.558 61.8455 48.0827 61.8535 47.5955 61.8535C47.1164 61.8615 46.6451 61.8655 46.1819 61.8655C45.6308 61.8655 45.1835 61.7017 44.84 61.3742C44.4966 61.0469 44.3249 60.6195 44.3249 60.0924V55.3003C44.3249 54.7652 44.4966 54.3379 44.84 54.0184C45.1835 53.6909 45.6308 53.5272 46.1819 53.5272ZM44.5406 56.8098H49.7759V58.3314H44.5406V56.8098ZM57.5497 53.5632V61.8296H55.2975V53.5632H57.5497ZM59.9338 53.5632V55.2764H52.9015V53.5632H59.9338ZM65.0887 53.5632V61.8296H62.8604V53.5632H65.0887ZM75.8903 53.5632V61.0388C75.8903 61.5659 75.6307 61.8296 75.1115 61.8296H74.1052C73.8657 61.8296 73.686 61.7737 73.5661 61.6618C73.4542 61.55 73.3385 61.3862 73.2187 61.1706L71.194 57.6484C71.0981 57.4488 71.0023 57.2332 70.9064 57.0015C70.8107 56.7699 70.7307 56.5383 70.6669 56.3067H70.5591C70.5911 56.5383 70.615 56.7779 70.631 57.0255C70.6549 57.2651 70.6669 57.4967 70.6669 57.7203V61.8296H68.5704V54.3539C68.5704 53.8267 68.8339 53.5632 69.361 53.5632H70.3553C70.595 53.5632 70.7708 53.6191 70.8825 53.731C70.9944 53.8427 71.1142 54.0065 71.2419 54.2221L73.1828 57.6125C73.2946 57.8042 73.4024 58.0158 73.5062 58.2474C73.61 58.479 73.7099 58.7227 73.8057 58.9782H73.9135C73.8896 58.7307 73.8697 58.4871 73.8537 58.2474C73.8376 58.0079 73.8296 57.7683 73.8296 57.5286L73.8176 53.5632H75.8903ZM82.9041 53.3955C83.3113 53.3955 83.6708 53.4075 83.9823 53.4314C84.3017 53.4554 84.5972 53.4913 84.8688 53.5392C85.1483 53.5792 85.4239 53.6391 85.6954 53.7189L85.5277 55.3482C85.2402 55.3402 84.9606 55.3362 84.6891 55.3362C84.4175 55.3282 84.142 55.3243 83.8624 55.3243C83.583 55.3163 83.2714 55.3123 82.928 55.3123C82.6484 55.3123 82.4128 55.3442 82.2211 55.4082C82.0374 55.472 81.8897 55.5919 81.7779 55.7676C81.674 55.9433 81.5982 56.1909 81.5502 56.5104C81.5023 56.8218 81.4784 57.2212 81.4784 57.7083C81.4784 58.3234 81.5143 58.8025 81.5863 59.1459C81.6661 59.4894 81.7939 59.729 81.9696 59.8648C82.1453 60.0006 82.3889 60.0684 82.7004 60.0684C82.908 60.0684 83.0957 60.0565 83.2635 60.0325C83.4392 60.0006 83.5949 59.9607 83.7306 59.9127C83.8744 59.8568 83.9982 59.8089 84.102 59.769L84.3297 60.7513C84.2258 60.9111 84.0581 61.0908 83.8265 61.2904C83.6029 61.4821 83.3233 61.6499 82.9878 61.7937C82.6524 61.9293 82.265 61.9973 81.8258 61.9973C81.2028 61.9973 80.6877 61.8535 80.2803 61.5659C79.881 61.2705 79.5855 60.8072 79.3939 60.1763C79.2102 59.5453 79.1183 58.7187 79.1183 57.6963C79.1183 56.6261 79.2381 55.7796 79.4777 55.1565C79.7252 54.5256 80.1247 54.0743 80.6758 53.8028C81.2348 53.5312 81.9776 53.3955 82.9041 53.3955ZM86.0189 57.0734V61.8296H84.3656L84.0661 60.5597L83.8624 60.1643V57.0734H86.0189Z" fill="black"/>
<path d="M95.3062 0H94.5801V64.9833H95.3062V0Z" fill="black"/>
<path d="M106.551 6.33737C107.255 6.33737 107.967 6.34368 108.684 6.35625C109.401 6.35625 110.106 6.36884 110.798 6.39401C111.49 6.41919 112.139 6.46324 112.743 6.52616L112.611 8.6216H107.608C107.293 8.6216 107.054 8.70341 106.89 8.86703C106.739 9.03063 106.664 9.26975 106.664 9.58438V16.2294C106.664 16.5441 106.739 16.7831 106.89 16.9467C107.054 17.1103 107.293 17.1922 107.608 17.1922H112.611L112.743 19.2876C112.139 19.3379 111.49 19.382 110.798 19.4198C110.106 19.445 109.401 19.4575 108.684 19.4575C107.967 19.4702 107.255 19.4764 106.551 19.4764C105.72 19.4764 105.047 19.2373 104.531 18.759C104.027 18.2682 103.776 17.6327 103.776 16.8523V8.96141C103.776 8.16854 104.027 7.53298 104.531 7.05474C105.047 6.5765 105.72 6.33737 106.551 6.33737ZM104.115 11.6232H111.912V13.662H104.115V11.6232ZM125.204 6.39401L121.995 12.737L125.45 19.4198H122.505L119.258 12.737L122.278 6.39401H125.204ZM116.841 6.39401L119.862 12.737L116.615 19.4198H113.67L117.106 12.737L113.915 6.39401H116.841ZM120.957 11.812V13.5865H117.993V11.812H120.957ZM131.661 6.16748C132.278 6.16748 132.8 6.18636 133.228 6.22412C133.668 6.24928 134.071 6.29333 134.436 6.35625C134.801 6.41919 135.179 6.50728 135.569 6.62056L135.342 8.73488C134.927 8.70971 134.543 8.69083 134.191 8.67824C133.851 8.66566 133.48 8.65936 133.077 8.65936C132.687 8.64678 132.215 8.64048 131.661 8.64048C131.019 8.64048 130.516 8.76635 130.151 9.01804C129.798 9.26976 129.547 9.71024 129.396 10.3395C129.245 10.9562 129.169 11.812 129.169 12.9069C129.169 14.0018 129.245 14.8639 129.396 15.4931C129.547 16.1098 129.798 16.5441 130.151 16.7958C130.516 17.0474 131.019 17.1733 131.661 17.1733C132.53 17.1733 133.259 17.1607 133.851 17.1355C134.442 17.1103 135.028 17.0663 135.607 17.0034L135.852 19.1178C135.248 19.3066 134.631 19.4387 134.002 19.5142C133.373 19.6023 132.592 19.6463 131.661 19.6463C130.314 19.6463 129.232 19.4323 128.414 19.0045C127.609 18.5639 127.023 17.853 126.659 16.8713C126.306 15.8897 126.13 14.5682 126.13 12.9069C126.13 11.2456 126.306 9.92418 126.659 8.94253C127.023 7.96088 127.609 7.2561 128.414 6.82821C129.232 6.38772 130.314 6.16748 131.661 6.16748ZM140.343 6.33737C141.047 6.33737 141.759 6.34368 142.476 6.35625C143.194 6.35625 143.898 6.36884 144.59 6.39401C145.283 6.41919 145.931 6.46324 146.535 6.52616L146.403 8.6216H141.399C141.086 8.6216 140.846 8.70341 140.683 8.86703C140.531 9.03063 140.456 9.26975 140.456 9.58438V16.2294C140.456 16.5441 140.531 16.7831 140.683 16.9467C140.846 17.1103 141.086 17.1922 141.399 17.1922H146.403L146.535 19.2876C145.931 19.3379 145.283 19.382 144.59 19.4198C143.898 19.445 143.194 19.4575 142.476 19.4575C141.759 19.4702 141.047 19.4764 140.343 19.4764C139.512 19.4764 138.839 19.2373 138.323 18.759C137.819 18.2682 137.568 17.6327 137.568 16.8523V8.96141C137.568 8.16854 137.819 7.53298 138.323 7.05474C138.839 6.5765 139.512 6.33737 140.343 6.33737ZM137.907 11.6232H145.704V13.662H137.907V11.6232ZM151.257 6.33737C151.962 6.33737 152.673 6.34368 153.39 6.35625C154.107 6.35625 154.811 6.36884 155.505 6.39401C156.197 6.41919 156.845 6.46324 157.449 6.52616L157.317 8.6216H152.314C151.999 8.6216 151.761 8.70341 151.597 8.86703C151.446 9.03063 151.37 9.26975 151.37 9.58438V16.2294C151.37 16.5441 151.446 16.7831 151.597 16.9467C151.761 17.1103 151.999 17.1922 152.314 17.1922H157.317L157.449 19.2876C156.845 19.3379 156.197 19.382 155.505 19.4198C154.811 19.445 154.107 19.4575 153.39 19.4575C152.673 19.4702 151.962 19.4764 151.257 19.4764C150.426 19.4764 149.753 19.2373 149.237 18.759C148.734 18.2682 148.482 17.6327 148.482 16.8523V8.96141C148.482 8.16854 148.734 7.53298 149.237 7.05474C149.753 6.5765 150.426 6.33737 151.257 6.33737ZM148.822 11.6232H156.618V13.662H148.822V11.6232ZM164.606 6.20524C165.638 6.20524 166.506 6.3185 167.21 6.54504C167.929 6.75898 168.501 7.11766 168.929 7.62109C169.369 8.1245 169.69 8.81039 169.891 9.67877C170.093 10.5346 170.194 11.6106 170.194 12.9069C170.194 14.2031 170.093 15.2855 169.891 16.1539C169.69 17.0097 169.369 17.6893 168.929 18.1927C168.501 18.6962 167.929 19.0611 167.21 19.2876C166.506 19.5015 165.638 19.6086 164.606 19.6086C163.611 19.6086 162.699 19.5897 161.869 19.5519C161.038 19.5142 160.245 19.4702 159.49 19.4198L160.698 17.2866C161.177 17.3118 161.742 17.337 162.397 17.3621C163.065 17.3747 163.801 17.381 164.606 17.381C165.247 17.381 165.751 17.2551 166.117 17.0034C166.494 16.7391 166.758 16.2798 166.909 15.6253C167.073 14.9709 167.154 14.0647 167.154 12.9069C167.154 11.749 167.073 10.8429 166.909 10.1885C166.758 9.53404 166.494 9.07468 166.117 8.81039C165.751 8.5461 165.247 8.41395 164.606 8.41395C163.838 8.41395 163.153 8.42024 162.549 8.43283C161.945 8.43283 161.353 8.43283 160.774 8.43283L159.49 6.39401C160.245 6.34368 161.031 6.29963 161.85 6.26187C162.681 6.22412 163.598 6.20524 164.606 6.20524ZM162.378 6.39401V19.4198H159.49V6.39401H162.378ZM114.102 27.034L109.703 35.9255H106.985L102.567 27.034H105.569L107.759 31.829C107.872 32.0807 107.967 32.3513 108.042 32.6408C108.117 32.9302 108.187 33.2071 108.25 33.4714H108.438C108.514 33.2071 108.589 32.9302 108.665 32.6408C108.741 32.3513 108.829 32.0807 108.929 31.829L111.1 27.034H114.102ZM109.779 34.1698V40.0598H106.89V34.1698H109.779ZM120.233 26.7697C121.265 26.7697 122.14 26.883 122.857 27.1096C123.575 27.3234 124.147 27.6885 124.575 28.2045C125.016 28.7078 125.337 29.4001 125.538 30.281C125.739 31.1494 125.84 32.2381 125.84 33.5469C125.84 34.8558 125.739 35.9507 125.538 36.8317C125.337 37.7001 125.016 38.3922 124.575 38.9082C124.147 39.4116 123.575 39.7766 122.857 40.0031C122.14 40.2171 121.265 40.3241 120.233 40.3241C119.201 40.3241 118.327 40.2171 117.609 40.0031C116.892 39.7766 116.313 39.4116 115.872 38.9082C115.432 38.3922 115.111 37.7001 114.91 36.8317C114.708 35.9507 114.608 34.8558 114.608 33.5469C114.608 32.2381 114.708 31.1494 114.91 30.281C115.111 29.4001 115.432 28.7078 115.872 28.2045C116.313 27.6885 116.892 27.3234 117.609 27.1096C118.327 26.883 119.201 26.7697 120.233 26.7697ZM120.233 29.054C119.566 29.054 119.044 29.1861 118.666 29.4504C118.302 29.7146 118.037 30.1741 117.874 30.8285C117.723 31.4703 117.647 32.3765 117.647 33.5469C117.647 34.7047 117.723 35.6109 117.874 36.2653C118.037 36.9198 118.302 37.3791 118.666 37.6434C119.044 37.9077 119.566 38.0398 120.233 38.0398C120.888 38.0398 121.398 37.9077 121.762 37.6434C122.14 37.3791 122.404 36.9198 122.555 36.2653C122.719 35.6109 122.801 34.7047 122.801 33.5469C122.801 32.3765 122.719 31.4703 122.555 30.8285C122.404 30.1741 122.14 29.7146 121.762 29.4504C121.398 29.1861 120.888 29.054 120.233 29.054ZM138.459 27.034V34.8683C138.459 36.1898 138.297 37.2533 137.969 38.0587C137.642 38.8515 137.1 39.4306 136.345 39.7955C135.603 40.1479 134.608 40.3241 133.363 40.3241C132.041 40.3241 130.984 40.1479 130.191 39.7955C129.398 39.4306 128.825 38.8515 128.473 38.0587C128.121 37.2533 127.945 36.1898 127.945 34.8683V27.034H130.833V34.8683C130.833 35.6863 130.902 36.3282 131.041 36.7939C131.191 37.247 131.443 37.5679 131.796 37.7567C132.148 37.9454 132.62 38.0398 133.211 38.0398C133.803 38.0398 134.269 37.9454 134.608 37.7567C134.961 37.5679 135.206 37.247 135.345 36.7939C135.496 36.3282 135.571 35.6863 135.571 34.8683V27.034H138.459ZM146.002 26.8453C147.147 26.8453 148.073 26.9648 148.778 27.204C149.494 27.4305 150.017 27.8269 150.343 28.3933C150.683 28.947 150.854 29.721 150.854 30.7153C150.854 31.3193 150.771 31.8542 150.608 32.3198C150.458 32.7729 150.199 33.1378 149.834 33.4147C149.47 33.6917 148.972 33.8678 148.343 33.9433V34.0377C148.57 34.0754 148.802 34.1635 149.042 34.3021C149.294 34.4405 149.526 34.6481 149.739 34.925C149.954 35.1893 150.111 35.5479 150.211 36.001L151.345 40.0598H148.306L147.305 36.0954C147.191 35.6675 147.022 35.3718 146.795 35.2082C146.581 35.0446 146.279 34.9627 145.889 34.9627C145.033 34.9627 144.31 34.9627 143.718 34.9627C143.139 34.9502 142.648 34.9375 142.246 34.925C141.855 34.9125 141.503 34.8998 141.189 34.8873L141.245 32.7918H145.946C146.449 32.7918 146.846 32.7414 147.135 32.6408C147.437 32.5274 147.645 32.3325 147.758 32.0555C147.883 31.7786 147.946 31.3949 147.946 30.904C147.946 30.4006 147.883 30.0168 147.758 29.7525C147.645 29.4756 147.437 29.2868 147.135 29.1861C146.846 29.0729 146.449 29.0162 145.946 29.0162C144.762 29.0162 143.762 29.0225 142.943 29.035C142.126 29.0477 141.566 29.0665 141.263 29.0917L140.981 27.034C141.51 26.9712 142.006 26.927 142.471 26.9018C142.938 26.8768 143.447 26.8641 144.001 26.8641C144.555 26.8516 145.222 26.8453 146.002 26.8453ZM143.831 27.034V40.0598H140.981V27.034H143.831ZM106.721 47.674V57.415C106.721 57.7297 106.809 57.9687 106.985 58.1323C107.161 58.2959 107.413 58.3778 107.74 58.3778H112.29L112.422 60.5487C111.528 60.6494 110.591 60.7061 109.609 60.7187C108.64 60.7438 107.671 60.7564 106.702 60.7564C105.758 60.7564 105.04 60.5047 104.55 60.0014C104.071 59.4854 103.832 58.8309 103.832 58.0379V47.674H106.721ZM116.879 47.674V60.6998H114.01V47.674H116.879ZM132.85 47.674C133.53 47.674 133.882 48.0264 133.907 48.7312L134.398 60.6998H131.736L131.302 49.9016H130.962L128.867 58.0191C128.753 58.6231 128.376 58.9253 127.734 58.9253H125.922C125.28 58.9253 124.89 58.6231 124.751 58.0191L122.656 49.9016H122.335L121.939 60.6998H119.258L119.749 48.7312C119.774 48.0264 120.133 47.674 120.825 47.674H123.524C124.141 47.674 124.519 47.9824 124.657 48.599L126.337 55.1497C126.413 55.4517 126.476 55.7601 126.526 56.0747C126.576 56.3767 126.633 56.6851 126.696 56.9997H126.941C127.004 56.6851 127.061 56.3767 127.111 56.0747C127.174 55.7601 127.237 55.4454 127.3 55.1309L128.961 48.599C129.087 47.9824 129.465 47.674 130.094 47.674H132.85ZM139.666 47.674V60.6998H136.796V47.674H139.666ZM148.103 47.674V60.6998H145.215V47.674H148.103ZM152.03 47.674V49.9394H141.307V47.674H152.03ZM157.95 47.4286C158.591 47.4286 159.29 47.4664 160.046 47.5418C160.801 47.6048 161.537 47.7433 162.254 47.9572L162.066 49.8638C161.511 49.8513 160.863 49.8386 160.121 49.8261C159.378 49.8136 158.649 49.8073 157.931 49.8073C157.578 49.8073 157.277 49.8198 157.025 49.845C156.786 49.8576 156.591 49.9078 156.439 49.996C156.289 50.0714 156.182 50.191 156.119 50.3546C156.055 50.5182 156.025 50.7449 156.025 51.0342C156.025 51.4748 156.125 51.7957 156.326 51.997C156.541 52.1985 156.899 52.3809 157.402 52.5445L159.914 53.3562C160.958 53.7086 161.682 54.1869 162.085 54.791C162.487 55.3951 162.689 56.1879 162.689 57.1697C162.689 57.9122 162.601 58.5288 162.423 59.0197C162.247 59.5105 161.971 59.8943 161.594 60.1711C161.215 60.4481 160.719 60.6431 160.102 60.7564C159.486 60.8823 158.73 60.9451 157.837 60.9451C157.409 60.9451 156.798 60.9138 156.006 60.8508C155.213 60.8005 154.306 60.662 153.287 60.4355L153.475 58.3967C154.218 58.4093 154.861 58.4282 155.402 58.4534C155.955 58.4659 156.427 58.4785 156.818 58.4911C157.207 58.4911 157.547 58.4911 157.837 58.4911C158.339 58.4911 158.73 58.4595 159.007 58.3967C159.297 58.3338 159.498 58.2079 159.611 58.0191C159.725 57.8303 159.781 57.5598 159.781 57.2074C159.781 56.9053 159.737 56.6662 159.649 56.4901C159.574 56.3013 159.442 56.1565 159.253 56.0558C159.077 55.9426 158.831 55.8418 158.517 55.7538L155.874 54.8477C154.879 54.4826 154.174 54.0045 153.759 53.4129C153.343 52.8214 153.137 52.0411 153.137 51.0721C153.137 50.3169 153.225 49.7065 153.401 49.2409C153.589 48.7626 153.873 48.3913 154.25 48.127C154.639 47.8628 155.137 47.6804 155.742 47.5796C156.358 47.4789 157.094 47.4286 157.95 47.4286Z" fill="black"/>
</g>
</svg>
