<svg width="240" height="79" viewBox="0 0 240 79" fill="none" xmlns="http://www.w3.org/2000/svg">
<path d="M48.5792 38.74L41.0543 22.4068L30.8347 36.0015L37.0479 42.9604C45.3944 51.8732 41.0512 66.7455 29.0696 69.4581C15.8836 72.4439 4.54935 58.1836 11.2337 46.22C12.3735 44.1794 13.9146 42.4179 15.4808 40.7032L21.5595 47.2358C19.4382 49.6187 17.6863 52.6751 18.4066 55.9975C19.6288 61.6332 28.6068 62.8195 31.5318 57.8535C34.9505 52.0495 28.1458 46.8673 24.9535 42.8149L0 15.0081L6.40865 9.14062C6.70063 9.58697 7.19991 10.0922 7.61414 10.4504C11.37 13.6975 17.6377 14.1108 21.777 11.3572C22.3576 10.9708 22.8257 10.4667 23.412 10.0956L29.286 16.3927C26.3575 19.4089 22.3656 21.1969 18.2133 21.7511L24.734 29.1111L36.574 13.2098H46.5289L70.3061 64.7553L60.5513 64.6744L52.8362 47.9617L44.0874 47.9192C43.4712 45.7004 42.2653 43.7269 40.9801 41.8439L40.2245 40.8623L49.5417 40.8168" fill="url(#paint0_linear_555_188)"/>
<path d="M30.5796 21.2622L37.369 27.3037L30.8331 36.0005L24.7341 29.1097L30.5796 21.2622Z" fill="url(#paint1_linear_555_188)"/>
<path d="M90.0595 53.4377V30.4793H81.271V25.5624H104.113V30.4793H95.3248V53.4377H90.0595Z" fill="#2E2E2E"/>
<path d="M119.574 54.0185C116.787 54.0185 114.38 53.4119 112.354 52.1988C110.341 50.9857 108.786 49.2887 107.689 47.1077C106.605 44.9267 106.063 42.3908 106.063 39.5001C106.063 36.6093 106.605 34.0734 107.689 31.8924C108.786 29.7115 110.341 28.0144 112.354 26.8013C114.38 25.5882 116.787 24.9817 119.574 24.9817C122.362 24.9817 124.762 25.5882 126.776 26.8013C128.802 28.0144 130.357 29.7115 131.441 31.8924C132.538 34.0734 133.086 36.6093 133.086 39.5001C133.086 42.3908 132.538 44.9267 131.441 47.1077C130.357 49.2887 128.802 50.9857 126.776 52.1988C124.762 53.4119 122.362 54.0185 119.574 54.0185ZM119.574 49.0628C121.342 49.0887 122.814 48.708 123.988 47.9207C125.162 47.1335 126.04 46.0172 126.621 44.5718C127.214 43.1264 127.511 41.4359 127.511 39.5001C127.511 37.5643 127.214 35.8866 126.621 34.467C126.04 33.0475 125.162 31.9441 123.988 31.1568C122.814 30.3696 121.342 29.9631 119.574 29.9373C117.806 29.9115 116.335 30.2922 115.161 31.0794C113.986 31.8666 113.102 32.9829 112.509 34.4283C111.928 35.8737 111.638 37.5643 111.638 39.5001C111.638 41.4359 111.928 43.1135 112.509 44.5331C113.102 45.9527 113.986 47.0561 115.161 47.8433C116.335 48.6305 117.806 49.037 119.574 49.0628Z" fill="#2E2E2E"/>
<path d="M137.338 53.4377V25.5624H142.603V38.416L153.211 25.5624H159.638L147.984 39.3065L160.374 53.4377H153.714L142.603 40.739V53.4377H137.338Z" fill="#2E2E2E"/>
<path d="M161.536 53.4377L170.054 25.5624H177.913L186.431 53.4377H181.01L173.422 28.8533H174.429L166.957 53.4377H161.536ZM166.647 47.6304V42.7135H181.359V47.6304H166.647Z" fill="#2E2E2E"/>
<path d="M190.287 53.4377V25.5624H199.308C199.528 25.5624 199.979 25.5689 200.663 25.5818C201.347 25.5947 202.005 25.6399 202.638 25.7173C204.883 25.9883 206.787 26.7691 208.348 28.0596C209.91 29.3501 211.097 30.9891 211.91 32.9765C212.723 34.9639 213.13 37.1384 213.13 39.5001C213.13 41.8617 212.723 44.0363 211.91 46.0237C211.097 48.0111 209.91 49.65 208.348 50.9406C206.787 52.2311 204.883 53.0118 202.638 53.2829C202.005 53.3603 201.347 53.4055 200.663 53.4184C199.979 53.4313 199.528 53.4377 199.308 53.4377H190.287ZM195.63 48.4821H199.308C199.657 48.4821 200.128 48.4757 200.721 48.4628C201.315 48.4369 201.851 48.3789 202.328 48.2885C203.541 48.0433 204.528 47.4755 205.29 46.585C206.064 45.6946 206.632 44.6234 206.993 43.3716C207.368 42.1198 207.555 40.8293 207.555 39.5001C207.555 38.1063 207.361 36.7835 206.974 35.5317C206.6 34.2799 206.025 33.2217 205.251 32.357C204.477 31.4924 203.502 30.9439 202.328 30.7116C201.851 30.6084 201.315 30.5503 200.721 30.5374C200.128 30.5245 199.657 30.518 199.308 30.518H195.63V48.4821Z" fill="#2E2E2E"/>
<path d="M228.692 54.0185C226.627 54.0185 224.762 53.6571 223.097 52.9344C221.446 52.1988 220.084 51.1535 219.013 49.7984C217.955 48.4305 217.284 46.8044 217 44.9203L222.497 44.1072C222.885 45.7075 223.685 46.9399 224.898 47.8046C226.111 48.6692 227.492 49.1016 229.04 49.1016C229.905 49.1016 230.744 48.9661 231.557 48.695C232.37 48.424 233.034 48.024 233.551 47.4949C234.08 46.9657 234.344 46.314 234.344 45.5397C234.344 45.2558 234.299 44.9848 234.209 44.7267C234.131 44.4557 233.996 44.204 233.802 43.9717C233.609 43.7394 233.331 43.5201 232.97 43.3136C232.622 43.1071 232.176 42.92 231.634 42.7522L224.394 40.6228C223.852 40.468 223.22 40.2486 222.497 39.9647C221.788 39.6807 221.097 39.2742 220.426 38.7451C219.755 38.216 219.194 37.5191 218.742 36.6545C218.303 35.7769 218.084 34.6735 218.084 33.3443C218.084 31.473 218.555 29.9179 219.497 28.679C220.439 27.4401 221.697 26.5174 223.272 25.9109C224.846 25.3043 226.588 25.0075 228.498 25.0204C230.421 25.0462 232.138 25.3753 233.647 26.0077C235.157 26.64 236.422 27.5627 237.442 28.7758C238.461 29.976 239.197 31.4472 239.648 33.1894L233.957 34.1573C233.751 33.2539 233.37 32.4925 232.815 31.8731C232.26 31.2536 231.596 30.7826 230.821 30.46C230.06 30.1373 229.26 29.9631 228.421 29.9373C227.595 29.9115 226.814 30.0276 226.079 30.2857C225.356 30.5309 224.762 30.8923 224.298 31.3698C223.846 31.8473 223.62 32.4151 223.62 33.0733C223.62 33.6798 223.807 34.1767 224.182 34.5638C224.556 34.9381 225.027 35.2413 225.595 35.4736C226.162 35.7059 226.743 35.8995 227.337 36.0544L232.176 37.3707C232.899 37.5643 233.699 37.8224 234.577 38.145C235.454 38.4547 236.293 38.8935 237.093 39.4614C237.906 40.0163 238.571 40.7519 239.087 41.6681C239.616 42.5844 239.881 43.7459 239.881 45.1526C239.881 46.6496 239.565 47.9595 238.932 49.0822C238.313 50.1921 237.474 51.1148 236.416 51.8504C235.357 52.5731 234.157 53.1151 232.815 53.4764C231.486 53.8378 230.111 54.0185 228.692 54.0185Z" fill="#2E2E2E"/>
<defs>
<linearGradient id="paint0_linear_555_188" x1="-4.55562e-07" y1="12.7828" x2="70.3371" y2="66.1766" gradientUnits="userSpaceOnUse">
<stop stop-color="#21D2F5"/>
<stop offset="1" stop-color="#DC1E74"/>
</linearGradient>
<linearGradient id="paint1_linear_555_188" x1="34.2175" y1="23.9721" x2="27.2704" y2="33.2984" gradientUnits="userSpaceOnUse">
<stop stop-color="#6193C8" stop-opacity="0"/>
<stop offset="1" stop-color="#446E9B"/>
</linearGradient>
</defs>
</svg>
