<svg width="10" height="10" viewBox="0 0 10 10" fill="none" xmlns="http://www.w3.org/2000/svg">
<path d="M8.61008 4.53603C8.21819 4.92863 7.5896 5.08167 6.833 5.21253C5.13315 5.50216 3.63211 4.0333 3.93747 2.31485C4.05403 1.66338 4.39872 0.750166 4.61326 0.535629C4.66015 0.489642 4.69136 0.430051 4.70246 0.365316C4.71356 0.300582 4.70398 0.233995 4.67508 0.175015C4.64619 0.116034 4.59944 0.0676573 4.54149 0.0367541C4.48353 0.00585086 4.41731 -0.00600687 4.35224 0.00286389C3.40167 0.119171 2.51733 0.550138 1.84001 1.22715C0.158757 2.90984 0 9.15357 0 9.15357C0 9.15357 6.24731 8.99482 7.92857 7.31213C8.60764 6.63533 9.03915 5.74966 9.15357 4.79776C9.18003 4.49884 8.81603 4.32077 8.61008 4.53603Z" fill="#E63C14"/>
</svg>
