<svg width="33" height="32" viewBox="0 0 33 32" fill="none" xmlns="http://www.w3.org/2000/svg">
<path d="M31.8685 0.434324C31.8554 0.371077 31.8246 0.312863 31.7796 0.266506C31.7347 0.220149 31.6774 0.18757 31.6146 0.172589C27.4261 -0.851467 17.7484 2.79781 12.5051 8.03894C11.5699 8.96656 10.7174 9.97393 9.95713 11.0496C8.34023 10.9066 6.72334 11.026 5.3453 11.6267C1.45718 13.338 0.325136 17.8032 0.00976723 19.724C-0.00812109 19.8292 -0.0013736 19.937 0.0294788 20.0391C0.0603312 20.1412 0.114447 20.2347 0.18757 20.3124C0.260694 20.39 0.35083 20.4496 0.450891 20.4865C0.550951 20.5234 0.658207 20.5366 0.764222 20.525L7.00796 19.8363C7.01241 20.3071 7.04081 20.7773 7.09306 21.2451C7.12448 21.57 7.2687 21.8736 7.50068 22.1033L9.91851 24.5154C10.1484 24.747 10.4519 24.8912 10.7767 24.923C11.2419 24.975 11.7095 25.0034 12.1776 25.0081L11.4925 31.244C11.4811 31.3499 11.4943 31.4571 11.5313 31.5571C11.5682 31.6571 11.6278 31.7472 11.7054 31.8203C11.783 31.8934 11.8765 31.9475 11.9785 31.9784C12.0805 32.0093 12.1883 32.0161 12.2934 31.9984C14.2107 31.6909 18.6838 30.5589 20.385 26.6707C20.9858 25.2927 21.1087 23.6837 20.97 22.0747C22.0483 21.3143 23.0583 20.4616 23.9886 19.526C29.2483 14.2927 32.8768 4.8309 31.8685 0.434324ZM18.741 13.2829C18.2607 12.803 17.9336 12.1913 17.8009 11.5254C17.6683 10.8595 17.7361 10.1692 17.9959 9.54186C18.2556 8.9145 18.6956 8.37827 19.2601 8.00099C19.8246 7.62372 20.4884 7.42234 21.1674 7.42234C21.8464 7.42234 22.5101 7.62372 23.0747 8.00099C23.6392 8.37827 24.0792 8.9145 24.3389 9.54186C24.5986 10.1692 24.6665 10.8595 24.5339 11.5254C24.4012 12.1913 24.0741 12.803 23.5938 13.2829C23.2753 13.6019 22.8971 13.8549 22.4808 14.0275C22.0644 14.2001 21.6181 14.289 21.1674 14.289C20.7167 14.289 20.2704 14.2001 19.854 14.0275C19.4377 13.8549 19.0595 13.6019 18.741 13.2829Z" fill="#E63C14"/>
</svg>
