<svg width="35" height="35" viewBox="0 0 35 35" fill="none" xmlns="http://www.w3.org/2000/svg">
<path d="M2.60705 25.6819V31.7542H8.67938L26.5887 13.8287L20.5164 7.75639L2.60705 25.6819ZM34.3613 27.4793L27.4793 34.3613L19.059 25.941L21.9252 23.0748L23.5444 24.6941L27.5441 20.6783L29.8435 22.9777L27.4793 25.2771L29.1958 26.8964L31.4951 24.6294L34.3613 27.4793ZM8.45268 15.2861L0 6.88197L6.88197 0L9.73192 2.86614L5.73228 6.88197L7.46492 8.59842L11.4484 4.58258L13.7478 6.88197L11.4484 9.16517L13.0676 10.7845L8.45268 15.2861ZM31.2846 9.0842C31.9162 8.45268 31.9162 7.46492 31.2846 6.80101L27.4955 3.07665C26.8964 2.44512 25.8438 2.44512 25.2123 3.07665L22.2328 6.03994L28.3051 12.1123L31.2846 9.0842Z" fill="#E63C14"/>
</svg>
