<svg width="38" height="36" viewBox="0 0 38 36" fill="none" xmlns="http://www.w3.org/2000/svg">
<path fill-rule="evenodd" clip-rule="evenodd" d="M23.8913 11.4677C29.6969 11.4677 34.4033 16.1742 34.4033 21.9798C34.4033 24.1922 33.7199 26.2448 32.5527 27.9383L37.9178 33.3035L35.2148 36.0065L29.8497 30.6414C28.1562 31.8086 26.1035 32.492 23.8913 32.492C18.0855 32.492 13.3791 27.7855 13.3791 21.9798C13.3791 16.1742 18.0855 11.4677 23.8913 11.4677ZM23.8913 15.2904C20.1967 15.2904 17.2017 18.2854 17.2017 21.9798C17.2017 25.6744 20.1968 28.6694 23.8913 28.6694C27.5857 28.6694 30.5807 25.6743 30.5807 21.9798C30.5807 18.2853 27.5857 15.2904 23.8913 15.2904ZM11.5039 21.0241C11.4799 21.3396 11.4678 21.6582 11.4677 21.9798C11.4677 22.9667 11.5828 23.9265 11.8001 24.8469L0 24.8467V21.0242L11.5039 21.0241ZM7.64531 0V19.1129H1.91135V0H7.64531ZM15.2904 7.64513L15.2902 13.0153C13.5942 14.643 12.3591 16.7472 11.8003 19.1128L9.55657 19.1129V7.64513H15.2904ZM22.9356 3.82261V9.59268C20.895 9.74671 18.9247 10.4054 17.2017 11.5095V3.82252L22.9356 3.82261ZM30.5807 5.73387L30.5808 11.5095C28.8578 10.4054 26.8875 9.74671 24.8469 9.59268V5.73387H30.5807Z" fill="#E63C14"/>
</svg>
