<svg width="28" height="30" viewBox="0 0 28 30" fill="none" xmlns="http://www.w3.org/2000/svg">
<path d="M15.8729 2.64548C15.8729 1.94386 16.1516 1.27097 16.6477 0.774843C17.1438 0.278719 17.8167 0 18.5184 0H22.0457C22.7473 0 23.4202 0.278719 23.9163 0.774843C24.4124 1.27097 24.6911 1.94386 24.6911 2.64548V13.4038C23.3684 12.7265 21.8693 12.3456 20.282 12.3456C18.6947 12.3456 17.1956 12.7265 15.8729 13.4038V2.64548ZM0 2.64548C0 1.94386 0.278719 1.27097 0.774843 0.774843C1.27097 0.278719 1.94386 0 2.64548 0H6.17279C6.87441 0 7.5473 0.278719 8.04342 0.774843C8.53955 1.27097 8.81827 1.94386 8.81827 2.64548V25.573C8.81827 26.2746 8.53955 26.9475 8.04342 27.4436C7.5473 27.9397 6.87441 28.2185 6.17279 28.2185H2.64548C1.94386 28.2185 1.27097 27.9397 0.774843 27.4436C0.278719 26.9475 0 26.2746 0 25.573V2.64548ZM15.9875 16.6524C16.1145 17.105 16.1498 17.5785 16.0912 18.0449C16.0327 18.5113 15.8815 18.9613 15.6465 19.3685C15.4115 19.7756 15.0976 20.1317 14.723 20.4158C14.3485 20.6999 13.9209 20.9063 13.4655 21.0227L12.6524 21.2309C12.5936 21.827 12.5995 22.4278 12.6701 23.0227L13.2874 23.1691C13.7548 23.2799 14.1947 23.485 14.58 23.7718C14.9654 24.0586 15.2881 24.4211 15.5284 24.8371C15.7686 25.2531 15.9214 25.7138 15.9773 26.1909C16.0332 26.668 15.9911 27.1515 15.8535 27.6118L15.6313 28.3578C16.0863 28.7176 16.5772 29.0215 17.1039 29.2696L17.6771 28.6629C18.0071 28.3138 18.4049 28.0357 18.8461 27.8458C19.2873 27.6559 19.7627 27.5581 20.2431 27.5584C20.7235 27.5587 21.1987 27.6572 21.6397 27.8477C22.0807 28.0382 22.4781 28.3168 22.8076 28.6664L23.4019 29.2978C23.9193 29.0591 24.4025 28.7664 24.8516 28.4195L24.5765 27.4389C24.4495 26.9863 24.4142 26.5129 24.4728 26.0464C24.5314 25.58 24.6826 25.13 24.9175 24.7228C25.1525 24.3157 25.4665 23.9596 25.841 23.6755C26.2156 23.3914 26.6431 23.1851 27.0985 23.0686L27.9116 22.8605C27.9706 22.2637 27.9647 21.6623 27.8939 21.0668L27.2784 20.9222C26.8106 20.8117 26.3704 20.6067 25.9847 20.3198C25.599 20.033 25.276 19.6703 25.0355 19.2541C24.795 18.8379 24.6422 18.3769 24.5863 17.8995C24.5304 17.4221 24.5727 16.9383 24.7105 16.4778L24.9328 15.7353C24.4785 15.3749 23.9844 15.0678 23.4601 14.82L22.8887 15.4267C22.5588 15.7762 22.161 16.0546 21.7197 16.2449C21.2784 16.4351 20.8028 16.5332 20.3222 16.533C19.8416 16.5328 19.3661 16.4344 18.9249 16.2439C18.4837 16.0534 18.0861 15.7747 17.7565 15.4249L17.1621 14.7935C16.6476 15.0306 16.1614 15.3247 15.7124 15.6701L15.9875 16.6524ZM20.282 23.8093C19.8143 23.8093 19.3657 23.6235 19.0349 23.2928C18.7042 22.962 18.5184 22.5134 18.5184 22.0457C18.5184 21.5779 18.7042 21.1293 19.0349 20.7986C19.3657 20.4678 19.8143 20.282 20.282 20.282C20.7498 20.282 21.1984 20.4678 21.5291 20.7986C21.8599 21.1293 22.0457 21.5779 22.0457 22.0457C22.0457 22.5134 21.8599 22.962 21.5291 23.2928C21.1984 23.6235 20.7498 23.8093 20.282 23.8093Z" fill="#E63C14"/>
</svg>
