<svg width="27" height="38" viewBox="0 0 27 38" fill="none" xmlns="http://www.w3.org/2000/svg">
<path d="M15.7141 0.731518C15.9802 0.396006 16.3502 0.158402 16.766 0.0560281C17.1819 -0.0463456 17.6199 -0.007688 18.0114 0.165929C18.4029 0.339546 18.7256 0.638285 18.9288 1.01522C19.1321 1.39215 19.2043 1.82592 19.1343 2.2484L17.0957 14.4916H24.4752C24.8385 14.4916 25.1944 14.5939 25.5021 14.7869C25.8099 14.9798 26.057 15.2556 26.2152 15.5826C26.3733 15.9096 26.4361 16.2746 26.3963 16.6356C26.3565 16.9967 26.2158 17.3392 25.9902 17.6239L10.6919 36.9472C10.4258 37.2827 10.0558 37.5204 9.63996 37.6227C9.22414 37.7251 8.78609 37.6864 8.39462 37.5128C8.00316 37.3392 7.68045 37.0405 7.4772 36.6635C7.27395 36.2866 7.20168 35.8528 7.27172 35.4304L9.31033 23.1871H1.93076C1.56769 23.1868 1.21204 23.0842 0.904576 22.8911C0.597113 22.698 0.350277 22.4222 0.192357 22.0953C0.0344357 21.7683 -0.0281807 21.4035 0.0116835 21.0426C0.0515477 20.6817 0.19228 20.3394 0.417751 20.0548L15.7141 0.731518Z" fill="white"/>
</svg>
